<?xml version="1.0" encoding="utf-8"?>
<!-- Generator: Adobe Illustrator 16.0.0, SVG Export Plug-In . SVG Version: 6.00 Build 0)  -->
<!DOCTYPE svg PUBLIC "-//W3C//DTD SVG 1.1//EN" "http://www.w3.org/Graphics/SVG/1.1/DTD/svg11.dtd">
<svg version="1.1" id="Layer_1" xmlns="http://www.w3.org/2000/svg" xmlns:xlink="http://www.w3.org/1999/xlink" x="0px" y="0px"
	 width="180px" height="350px" viewBox="0 0 180 350" enable-background="new 0 0 180 350" xml:space="preserve">
<g>
	<path fill="#EA7200" d="M70.863,216.34c-0.227,3.109-2.963,5.654-6.081,5.654H42.478c-3.118,0-5.854-2.545-6.081-5.654
		l-2.395-32.909c-0.227-3.109,2.14-5.654,5.258-5.654H68c3.118,0,5.484,2.545,5.258,5.654L70.863,216.34z"/>
</g>
<path fill="#1CCFC9" d="M16.445,169.896c0,0,13.345-13.639,27.845,7.88h-7.848C36.442,177.776,33.254,165.193,16.445,169.896z"/>
<path fill="#0069A6" d="M31.981,163.681c0,0,9.788,3.125,10.418,13.985c0.63,10.86,0.63,10.86,0.63,10.86h6.106
	C49.136,188.526,50.038,166.075,31.981,163.681z"/>
<path fill="#0069A6" d="M40.562,157.255c0,0,7.254,8.592,5.491,21.872h4.158c0,0,1.996-14.438-9.648-22.375"/>
<path fill="#1CCFC9" d="M49.144,180.061c0,0-1.831-10.509,5.099-12.122S63.188,174,63.188,174s-2.419-4.271-7.131-3.011
	c-4.712,1.26-2.427,8.138-2.427,8.138L49.144,180.061z"/>
<path fill="#0069A6" d="M53.294,177.776c0,0-3.46-10.232,4.77-19.64c0,0-5.04,12.736,1.008,19.64v3.544h-5.443L53.294,177.776z"/>
<path fill="#1CCFC9" d="M58.312,176.782c0,0-1.592-17.133,13.695-18.646c0,0-13.271,8.889-8.063,19.64
	c5.208,10.75,4.536,10.75,4.536,10.75l-10.214-1.159L58.312,176.782z"/>
<path fill="#0069A6" d="M61.684,178.422c0-9.305,7.542-16.849,16.849-16.848c0.646,0,1.28,0.044,1.907,0.116
	c-8.406,0.948-14.941,8.073-14.941,16.732H61.684z"/>
<path fill="#0069A6" d="M37.929,184.195v-3.873c0-5.573-4.518-10.092-10.091-10.092s-10.091,4.519-10.091,10.092v1.39
	c0-4.759,3.857-8.614,8.616-8.614c4.756,0,8.614,3.855,8.614,8.614v1.539"/>
<path fill="#1CCFC9" d="M66.3,187.307l-1.171-7.4c0-4.73,6.179-9.738,10.91-9.738c4.733,0,8.568,3.836,8.568,8.567v1.781
	c0-2.814-1.924-6.922-6.922-6.922c-3.824,0-6.924,3.099-6.924,6.922v3.551"/>
<rect x="31.981" y="177.776" fill="#FF5000" width="43.238" height="10.75"/>
<path fill="#1CCFC9" d="M43.785,172.375c0,0-7.056,2.016-6.804,13.481c0.252,11.466,8.063,14.741,8.063,14.741
	s-8.189-19.688,1.134-22.82h2.897C49.077,177.776,50.085,171.241,43.785,172.375z"/>
<path fill="#1CCFC9" d="M55.049,177.776h4.024c0,0,5.292,4.468,1.68,15.724c0,0,8.819-5.46,4.774-15.724
	C62.088,169.054,55.049,173.888,55.049,177.776z"/>
<g>
	<rect x="0.146" y="221.525" fill="#0069A6" width="180" height="129.238"/>
	<rect x="151.367" y="310.157" fill="#00C4B3" width="7.16" height="14.456"/>
	<rect x="151.367" y="317.385" fill="#004E59" width="7.16" height="7.229"/>
	<g>
		<circle fill="#FFFFFF" cx="28.19" cy="315.448" r="13.578"/>
		<path fill="#00C4B3" d="M41.768,315.448c0,7.499-6.079,13.577-13.578,13.577c-7.498,0-13.578-6.078-13.578-13.577"/>
	</g>
	<g>
		<circle fill="#FFFFFF" cx="65" cy="315.448" r="13.577"/>
		<path fill="#EA7200" d="M75.484,306.82c4.765,5.79,3.935,14.346-1.855,19.111c-5.79,4.765-14.347,3.935-19.113-1.856"/>
	</g>
	<g>
		<circle fill="#FFFFFF" cx="101.813" cy="315.448" r="13.578"/>
		<path fill="#F9BE00" d="M106.628,328.143c-7.013,2.66-14.852-0.868-17.51-7.879c-2.66-7.012,0.868-14.851,7.878-17.511"/>
	</g>
	<rect x="15.807" y="284.717" fill="#FFB700" width="147.557" height="2.856"/>
</g>
</svg>
