<?xml version="1.0" encoding="utf-8"?>
<!-- Generator: Adobe Illustrator 16.0.0, SVG Export Plug-In . SVG Version: 6.00 Build 0)  -->
<!DOCTYPE svg PUBLIC "-//W3C//DTD SVG 1.1//EN" "http://www.w3.org/Graphics/SVG/1.1/DTD/svg11.dtd">
<svg version="1.1" id="Layer_1" xmlns="http://www.w3.org/2000/svg" xmlns:xlink="http://www.w3.org/1999/xlink" x="0px" y="0px"
	 width="330px" height="411.765px" viewBox="0 0 330 411.765" enable-background="new 0 0 330 411.765" xml:space="preserve">
<g>
	<rect fill="#0069A6" width="330" height="411.765"/>
	<path fill="#004E59" d="M84.026,165.024c-29.672,0-53.736,24.061-53.736,53.738c0,29.682,24.064,53.734,53.736,53.734
		c29.682,0,53.738-24.053,53.738-53.734C137.765,189.085,113.708,165.024,84.026,165.024z"/>
	<path fill="#FFB700" d="M84.026,156.258c-34.514,0-62.499,27.981-62.499,62.505c0,34.524,27.985,62.503,62.499,62.503
		c34.521,0,62.507-27.979,62.507-62.503C146.533,184.239,118.548,156.258,84.026,156.258z M60.289,179.295
		c6.08-3.647,13.97-1.67,17.613,4.41c3.645,6.083,1.669,13.973-4.412,17.614c-6.087,3.647-13.972,1.671-17.616-4.414
		C52.229,190.82,54.206,182.937,60.289,179.295z M37.924,218.766c0-7.095,5.745-12.841,12.841-12.841
		c7.085,0,12.838,5.746,12.838,12.841c0,7.091-5.753,12.84-12.838,12.84C43.669,231.605,37.924,225.856,37.924,218.766z
		 M79.595,254.072c-3.344,6.253-11.127,8.608-17.376,5.261c-6.251-3.352-8.61-11.133-5.259-17.38
		c3.348-6.253,11.131-8.606,17.378-5.259C80.595,240.04,82.949,247.823,79.595,254.072z M88.285,183.452
		c3.344-6.249,11.124-8.605,17.378-5.258c6.25,3.351,8.601,11.13,5.259,17.387c-3.35,6.245-11.129,8.604-17.38,5.255
		C87.289,197.488,84.931,189.709,88.285,183.452z M107.595,258.239c-6.091,3.646-13.974,1.667-17.614-4.414
		c-3.646-6.085-1.67-13.969,4.412-17.612c6.085-3.647,13.967-1.671,17.614,4.412C115.653,246.706,113.674,254.594,107.595,258.239z
		 M117.113,231.605c-7.088,0-12.836-5.749-12.836-12.84c0-7.095,5.748-12.841,12.836-12.841c7.089,0,12.84,5.746,12.84,12.841
		C129.953,225.856,124.202,231.605,117.113,231.605z"/>
	<path fill="#004E59" d="M245.969,165.024c-29.676,0-53.732,24.061-53.732,53.738c0,29.682,24.057,53.734,53.732,53.734
		c29.682,0,53.736-24.053,53.736-53.734C299.705,189.085,275.65,165.024,245.969,165.024z"/>
	<path fill="#FFB700" d="M245.969,156.258c-34.516,0-62.501,27.981-62.501,62.505c0,34.524,27.985,62.503,62.501,62.503
		c34.521,0,62.505-27.979,62.505-62.503C308.474,184.239,280.49,156.258,245.969,156.258z M222.229,179.295
		c6.08-3.647,13.972-1.67,17.611,4.41c3.645,6.083,1.671,13.973-4.414,17.614c-6.083,3.647-13.968,1.671-17.611-4.414
		C214.174,190.82,216.148,182.937,222.229,179.295z M199.864,218.766c0-7.095,5.747-12.841,12.845-12.841
		c7.088,0,12.834,5.746,12.834,12.841c0,7.091-5.746,12.84-12.834,12.84C205.611,231.605,199.864,225.856,199.864,218.766z
		 M241.539,254.072c-3.343,6.253-11.127,8.608-17.38,5.261c-6.251-3.352-8.61-11.133-5.255-17.38
		c3.346-6.253,11.13-8.606,17.374-5.259C242.533,240.04,244.892,247.823,241.539,254.072z M250.226,183.452
		c3.346-6.249,11.127-8.605,17.376-5.258c6.253,3.351,8.603,11.13,5.261,17.387c-3.35,6.245-11.125,8.604-17.378,5.255
		C249.229,197.488,246.871,189.709,250.226,183.452z M269.535,258.239c-6.086,3.646-13.974,1.667-17.615-4.414
		c-3.643-6.085-1.669-13.969,4.414-17.612c6.085-3.647,13.966-1.671,17.614,4.412C277.594,246.706,275.614,254.594,269.535,258.239z
		 M279.054,231.605c-7.088,0-12.83-5.749-12.83-12.84c0-7.095,5.742-12.841,12.83-12.841c7.094,0,12.845,5.746,12.845,12.841
		C291.898,225.856,286.147,231.605,279.054,231.605z"/>
	<rect x="38.158" y="325.952" fill="#BEC6C3" width="130.77" height="46.885"/>
	<path fill="#FF5000" d="M226.654,348.193c0-17.161,13.91-31.069,31.073-31.069c17.157,0,31.065,13.908,31.065,31.069
		c0,17.158-13.908,31.065-31.065,31.065C240.564,379.259,226.654,365.352,226.654,348.193z"/>
	<rect x="21.527" y="119.148" fill="#004E59" width="286.946" height="5.236"/>
</g>
</svg>
