<?xml version="1.0" encoding="utf-8"?>
<!-- Generator: Adobe Illustrator 16.0.0, SVG Export Plug-In . SVG Version: 6.00 Build 0)  -->
<!DOCTYPE svg PUBLIC "-//W3C//DTD SVG 1.1//EN" "http://www.w3.org/Graphics/SVG/1.1/DTD/svg11.dtd">
<svg version="1.1" id="Layer_1" xmlns="http://www.w3.org/2000/svg" xmlns:xlink="http://www.w3.org/1999/xlink" x="0px" y="0px"
	 width="180px" height="350px" viewBox="0 0 180 350" enable-background="new 0 0 180 350" xml:space="preserve">
<rect y="188.91" fill="#004E59" width="180" height="161.16"/>
<path fill="#FF5000" d="M145.193,222.033c0-3.537,2.868-6.408,6.405-6.408c3.54,0,6.408,2.871,6.408,6.408
	c0,3.539-2.868,6.408-6.408,6.408C148.062,228.441,145.193,225.572,145.193,222.033z"/>
<path fill="#FFB700" d="M124.837,222.033c0-3.537,2.868-6.408,6.406-6.408c3.539,0,6.408,2.871,6.408,6.408
	c0,3.539-2.869,6.408-6.408,6.408C127.705,228.441,124.837,225.572,124.837,222.033z"/>
<rect x="23.973" y="305.65" fill="#BEC6C3" width="133.777" height="3.797"/>
<rect x="89.099" y="301.272" fill="#1CCFC9" width="3.526" height="13.328"/>
<rect x="23.973" y="290.319" fill="#BEC6C3" width="133.777" height="3.797"/>
<rect x="23.973" y="320.98" fill="#BEC6C3" width="133.777" height="3.798"/>
<rect x="45.494" y="285.942" fill="#FFB700" width="3.526" height="13.328"/>
<rect x="138.713" y="316.216" fill="#EA7200" width="3.526" height="13.328"/>
</svg>
