<?xml version="1.0" encoding="utf-8"?>
<!-- Generator: Adobe Illustrator 16.0.0, SVG Export Plug-In . SVG Version: 6.00 Build 0)  -->
<!DOCTYPE svg PUBLIC "-//W3C//DTD SVG 1.1//EN" "http://www.w3.org/Graphics/SVG/1.1/DTD/svg11.dtd">
<svg version="1.1" id="Layer_1" xmlns="http://www.w3.org/2000/svg" xmlns:xlink="http://www.w3.org/1999/xlink" x="0px" y="0px"
	 width="180px" height="350px" viewBox="0 0 180 350" enable-background="new 0 0 180 350" xml:space="preserve">
<g>
	<path fill="#0069A6" d="M86.033,349.85"/>
	<path fill="#0069A6" d="M86.033,349.85"/>
	<g>
		<rect y="104.267" fill="#EA7200" width="180" height="245.583"/>
		<circle fill="#FFB700" cx="33.196" cy="273.651" r="18.459"/>
		<circle fill="#164E5B" cx="37.907" cy="268.938" r="2.416"/>
		<g>
			<circle fill="#164E5B" cx="18.504" cy="121.173" r="2.646"/>
			<path fill="#164E5B" d="M27.774,121.173c0-1.463,1.179-2.645,2.646-2.645c1.457,0,2.645,1.182,2.645,2.645
				c0,1.462-1.188,2.646-2.645,2.646C28.954,123.819,27.774,122.635,27.774,121.173z"/>
			<circle fill="#164E5B" cx="42.333" cy="121.173" r="2.647"/>
			<circle fill="#164E5B" cx="54.253" cy="121.173" r="2.649"/>
			<path fill="#164E5B" d="M63.523,121.173c0-1.463,1.184-2.645,2.641-2.645c1.463,0,2.653,1.182,2.653,2.645
				c0,1.462-1.189,2.646-2.653,2.646C64.708,123.819,63.523,122.635,63.523,121.173z"/>
			<circle fill="#164E5B" cx="78.085" cy="121.173" r="2.647"/>
			<circle fill="#164E5B" cx="90" cy="121.173" r="2.648"/>
			<path fill="#164E5B" d="M99.271,121.173c0-1.463,1.186-2.645,2.645-2.645c1.464,0,2.649,1.182,2.649,2.645
				c0,1.462-1.186,2.646-2.649,2.646C100.456,123.819,99.271,122.635,99.271,121.173z"/>
			<path fill="#164E5B" d="M111.188,121.173c0-1.463,1.182-2.645,2.641-2.645c1.464,0,2.653,1.182,2.653,2.645
				c0,1.462-1.189,2.646-2.653,2.646C112.37,123.819,111.188,122.635,111.188,121.173z"/>
			<path fill="#164E5B" d="M123.106,121.173c0-1.463,1.181-2.645,2.645-2.645c1.46,0,2.645,1.182,2.645,2.645
				c0,1.462-1.185,2.646-2.645,2.646C124.287,123.819,123.106,122.635,123.106,121.173z"/>
			<circle fill="#164E5B" cx="137.665" cy="121.173" r="2.646"/>
			<circle fill="#164E5B" cx="149.583" cy="121.173" r="2.648"/>
			<circle fill="#164E5B" cx="161.499" cy="121.173" r="2.649"/>
			<circle fill="#164E5B" cx="18.504" cy="131.725" r="2.646"/>
			<path fill="#164E5B" d="M27.774,131.725c0-1.462,1.179-2.645,2.646-2.645c1.457,0,2.645,1.183,2.645,2.645
				s-1.188,2.646-2.645,2.646C28.954,134.371,27.774,133.187,27.774,131.725z"/>
			<circle fill="#164E5B" cx="42.333" cy="131.725" r="2.647"/>
			<circle fill="#164E5B" cx="54.253" cy="131.725" r="2.649"/>
			<path fill="#164E5B" d="M63.523,131.725c0-1.462,1.184-2.645,2.641-2.645c1.463,0,2.653,1.183,2.653,2.645
				s-1.189,2.646-2.653,2.646C64.708,134.371,63.523,133.187,63.523,131.725z"/>
			<circle fill="#164E5B" cx="78.085" cy="131.725" r="2.647"/>
			<circle fill="#164E5B" cx="90" cy="131.725" r="2.648"/>
			<path fill="#164E5B" d="M99.271,131.725c0-1.462,1.186-2.645,2.645-2.645c1.464,0,2.649,1.183,2.649,2.645
				s-1.186,2.646-2.649,2.646C100.456,134.371,99.271,133.187,99.271,131.725z"/>
			<path fill="#164E5B" d="M111.188,131.725c0-1.462,1.182-2.645,2.641-2.645c1.464,0,2.653,1.183,2.653,2.645
				s-1.189,2.646-2.653,2.646C112.37,134.371,111.188,133.187,111.188,131.725z"/>
			<path fill="#164E5B" d="M123.106,131.725c0-1.462,1.181-2.645,2.645-2.645c1.46,0,2.645,1.183,2.645,2.645
				s-1.185,2.646-2.645,2.646C124.287,134.371,123.106,133.187,123.106,131.725z"/>
			<circle fill="#164E5B" cx="137.665" cy="131.725" r="2.646"/>
			<circle fill="#164E5B" cx="149.583" cy="131.725" r="2.648"/>
			<circle fill="#164E5B" cx="161.499" cy="131.725" r="2.649"/>
			<circle fill="#164E5B" cx="18.504" cy="142.276" r="2.646"/>
			<path fill="#164E5B" d="M27.774,142.276c0-1.463,1.179-2.645,2.646-2.645c1.457,0,2.645,1.182,2.645,2.645
				s-1.188,2.647-2.645,2.647C28.954,144.924,27.774,143.739,27.774,142.276z"/>
			<circle fill="#164E5B" cx="42.333" cy="142.276" r="2.647"/>
			<circle fill="#164E5B" cx="54.253" cy="142.276" r="2.649"/>
			<path fill="#164E5B" d="M63.523,142.276c0-1.463,1.184-2.645,2.641-2.645c1.463,0,2.653,1.182,2.653,2.645
				s-1.189,2.647-2.653,2.647C64.708,144.924,63.523,143.739,63.523,142.276z"/>
			<circle fill="#164E5B" cx="78.085" cy="142.276" r="2.647"/>
			<circle fill="#164E5B" cx="90" cy="142.276" r="2.648"/>
			<path fill="#164E5B" d="M99.271,142.276c0-1.463,1.186-2.645,2.645-2.645c1.464,0,2.649,1.182,2.649,2.645
				s-1.186,2.647-2.649,2.647C100.456,144.924,99.271,143.739,99.271,142.276z"/>
			<path fill="#164E5B" d="M111.188,142.276c0-1.463,1.182-2.645,2.641-2.645c1.464,0,2.653,1.182,2.653,2.645
				s-1.189,2.647-2.653,2.647C112.37,144.924,111.188,143.739,111.188,142.276z"/>
			<path fill="#164E5B" d="M123.106,142.276c0-1.463,1.181-2.645,2.645-2.645c1.46,0,2.645,1.182,2.645,2.645
				s-1.185,2.647-2.645,2.647C124.287,144.924,123.106,143.739,123.106,142.276z"/>
			<circle fill="#164E5B" cx="137.665" cy="142.276" r="2.646"/>
			<circle fill="#164E5B" cx="149.583" cy="142.276" r="2.648"/>
			<circle fill="#164E5B" cx="161.499" cy="142.276" r="2.649"/>
			<path fill="#164E5B" d="M15.858,152.828c0-1.46,1.183-2.645,2.646-2.645c1.46,0,2.647,1.185,2.647,2.645
				c0,1.464-1.187,2.648-2.647,2.648C17.041,155.477,15.858,154.292,15.858,152.828z"/>
			<path fill="#164E5B" d="M27.774,152.828c0-1.46,1.179-2.645,2.646-2.645c1.457,0,2.645,1.185,2.645,2.645
				c0,1.464-1.188,2.648-2.645,2.648C28.954,155.477,27.774,154.292,27.774,152.828z"/>
			<path fill="#164E5B" d="M39.687,152.828c0-1.46,1.185-2.645,2.649-2.645s2.645,1.185,2.645,2.645
				c0,1.464-1.181,2.648-2.645,2.648S39.687,154.292,39.687,152.828z"/>
			<path fill="#164E5B" d="M51.604,152.828c0-1.46,1.186-2.645,2.647-2.645c1.464,0,2.65,1.185,2.65,2.645
				c0,1.464-1.186,2.648-2.65,2.648C52.79,155.477,51.604,154.292,51.604,152.828z"/>
			<path fill="#164E5B" d="M63.523,152.828c0-1.46,1.184-2.645,2.641-2.645c1.463,0,2.653,1.185,2.653,2.645
				c0,1.464-1.189,2.648-2.653,2.648C64.708,155.477,63.523,154.292,63.523,152.828z"/>
			<path fill="#164E5B" d="M75.438,152.828c0-1.46,1.184-2.645,2.646-2.645s2.648,1.185,2.648,2.645
				c0,1.464-1.187,2.648-2.648,2.648S75.438,154.292,75.438,152.828z"/>
			<path fill="#164E5B" d="M87.352,152.828c0-1.46,1.188-2.645,2.648-2.645c1.46,0,2.647,1.185,2.647,2.645
				c0,1.464-1.188,2.648-2.647,2.648C88.54,155.477,87.352,154.292,87.352,152.828z"/>
			<path fill="#164E5B" d="M99.271,152.828c0-1.46,1.186-2.645,2.645-2.645c1.464,0,2.649,1.185,2.649,2.645
				c0,1.464-1.186,2.648-2.649,2.648C100.456,155.477,99.271,154.292,99.271,152.828z"/>
			<path fill="#164E5B" d="M111.188,152.828c0-1.46,1.182-2.645,2.641-2.645c1.464,0,2.653,1.185,2.653,2.645
				c0,1.464-1.189,2.648-2.653,2.648C112.37,155.477,111.188,154.292,111.188,152.828z"/>
			<path fill="#164E5B" d="M123.106,152.828c0-1.46,1.181-2.645,2.645-2.645c1.46,0,2.645,1.185,2.645,2.645
				c0,1.464-1.185,2.648-2.645,2.648C124.287,155.477,123.106,154.292,123.106,152.828z"/>
			<path fill="#164E5B" d="M135.019,152.828c0-1.46,1.184-2.645,2.646-2.645c1.459,0,2.646,1.185,2.646,2.645
				c0,1.464-1.188,2.648-2.646,2.648C136.202,155.477,135.019,154.292,135.019,152.828z"/>
			<path fill="#164E5B" d="M146.935,152.828c0-1.46,1.183-2.645,2.646-2.645s2.649,1.185,2.649,2.645
				c0,1.464-1.186,2.648-2.649,2.648S146.935,154.292,146.935,152.828z"/>
			<path fill="#164E5B" d="M158.85,152.828c0-1.46,1.187-2.645,2.647-2.645s2.65,1.185,2.65,2.645c0,1.464-1.189,2.648-2.65,2.648
				S158.85,154.292,158.85,152.828z"/>
			<circle fill="#164E5B" cx="18.504" cy="163.381" r="2.646"/>
			<path fill="#164E5B" d="M27.774,163.381c0-1.462,1.179-2.646,2.646-2.646c1.457,0,2.645,1.184,2.645,2.646
				c0,1.463-1.188,2.647-2.645,2.647C28.954,166.028,27.774,164.844,27.774,163.381z"/>
			<circle fill="#164E5B" cx="42.333" cy="163.381" r="2.647"/>
			<circle fill="#164E5B" cx="54.253" cy="163.381" r="2.649"/>
			<path fill="#164E5B" d="M63.523,163.381c0-1.462,1.184-2.646,2.641-2.646c1.463,0,2.653,1.184,2.653,2.646
				c0,1.463-1.189,2.647-2.653,2.647C64.708,166.028,63.523,164.844,63.523,163.381z"/>
			<circle fill="#164E5B" cx="78.085" cy="163.381" r="2.647"/>
			<circle fill="#164E5B" cx="90" cy="163.381" r="2.648"/>
			<path fill="#164E5B" d="M99.271,163.381c0-1.462,1.186-2.646,2.645-2.646c1.464,0,2.649,1.184,2.649,2.646
				c0,1.463-1.186,2.647-2.649,2.647C100.456,166.028,99.271,164.844,99.271,163.381z"/>
			<path fill="#164E5B" d="M111.188,163.381c0-1.462,1.182-2.646,2.641-2.646c1.464,0,2.653,1.184,2.653,2.646
				c0,1.463-1.189,2.647-2.653,2.647C112.37,166.028,111.188,164.844,111.188,163.381z"/>
			<path fill="#164E5B" d="M123.106,163.381c0-1.462,1.181-2.646,2.645-2.646c1.46,0,2.645,1.184,2.645,2.646
				c0,1.463-1.185,2.647-2.645,2.647C124.287,166.028,123.106,164.844,123.106,163.381z"/>
			<circle fill="#164E5B" cx="137.665" cy="163.381" r="2.646"/>
			<circle fill="#164E5B" cx="149.583" cy="163.381" r="2.648"/>
			<circle fill="#164E5B" cx="161.499" cy="163.381" r="2.649"/>
			<circle fill="#164E5B" cx="18.504" cy="173.934" r="2.646"/>
			<path fill="#164E5B" d="M27.774,173.934c0-1.462,1.179-2.646,2.646-2.646c1.457,0,2.645,1.184,2.645,2.646
				s-1.188,2.646-2.645,2.646C28.954,176.579,27.774,175.396,27.774,173.934z"/>
			<circle fill="#164E5B" cx="42.333" cy="173.934" r="2.647"/>
			<circle fill="#164E5B" cx="54.253" cy="173.934" r="2.649"/>
			<path fill="#164E5B" d="M63.523,173.934c0-1.462,1.184-2.646,2.641-2.646c1.463,0,2.653,1.184,2.653,2.646
				s-1.189,2.646-2.653,2.646C64.708,176.579,63.523,175.396,63.523,173.934z"/>
			<circle fill="#164E5B" cx="78.085" cy="173.934" r="2.647"/>
			<circle fill="#164E5B" cx="90" cy="173.934" r="2.648"/>
			<path fill="#164E5B" d="M99.271,173.934c0-1.462,1.186-2.646,2.645-2.646c1.464,0,2.649,1.184,2.649,2.646
				s-1.186,2.646-2.649,2.646C100.456,176.579,99.271,175.396,99.271,173.934z"/>
			<path fill="#164E5B" d="M111.188,173.934c0-1.462,1.182-2.646,2.641-2.646c1.464,0,2.653,1.184,2.653,2.646
				s-1.189,2.646-2.653,2.646C112.37,176.579,111.188,175.396,111.188,173.934z"/>
			<path fill="#164E5B" d="M123.106,173.934c0-1.462,1.181-2.646,2.645-2.646c1.46,0,2.645,1.184,2.645,2.646
				s-1.185,2.646-2.645,2.646C124.287,176.579,123.106,175.396,123.106,173.934z"/>
			<circle fill="#164E5B" cx="137.665" cy="173.934" r="2.646"/>
			<circle fill="#164E5B" cx="149.583" cy="173.934" r="2.648"/>
			<circle fill="#164E5B" cx="161.499" cy="173.934" r="2.649"/>
			<circle fill="#164E5B" cx="18.504" cy="184.485" r="2.646"/>
			<path fill="#164E5B" d="M27.774,184.485c0-1.461,1.179-2.646,2.646-2.646c1.457,0,2.645,1.186,2.645,2.646
				s-1.188,2.647-2.645,2.647C28.954,187.133,27.774,185.946,27.774,184.485z"/>
			<circle fill="#164E5B" cx="42.333" cy="184.485" r="2.647"/>
			<circle fill="#164E5B" cx="54.253" cy="184.485" r="2.649"/>
			<path fill="#164E5B" d="M63.523,184.485c0-1.461,1.184-2.646,2.641-2.646c1.463,0,2.653,1.186,2.653,2.646
				s-1.189,2.647-2.653,2.647C64.708,187.133,63.523,185.946,63.523,184.485z"/>
			<circle fill="#164E5B" cx="78.085" cy="184.485" r="2.647"/>
			<circle fill="#164E5B" cx="90" cy="184.485" r="2.648"/>
			<path fill="#164E5B" d="M99.271,184.485c0-1.461,1.186-2.646,2.645-2.646c1.464,0,2.649,1.186,2.649,2.646
				s-1.186,2.647-2.649,2.647C100.456,187.133,99.271,185.946,99.271,184.485z"/>
			<path fill="#164E5B" d="M111.188,184.485c0-1.461,1.182-2.646,2.641-2.646c1.464,0,2.653,1.186,2.653,2.646
				s-1.189,2.647-2.653,2.647C112.37,187.133,111.188,185.946,111.188,184.485z"/>
			<path fill="#164E5B" d="M123.106,184.485c0-1.461,1.181-2.646,2.645-2.646c1.46,0,2.645,1.186,2.645,2.646
				s-1.185,2.647-2.645,2.647C124.287,187.133,123.106,185.946,123.106,184.485z"/>
			<circle fill="#164E5B" cx="137.665" cy="184.485" r="2.646"/>
			<circle fill="#164E5B" cx="149.583" cy="184.485" r="2.648"/>
			<circle fill="#164E5B" cx="161.499" cy="184.485" r="2.649"/>
			<path fill="#164E5B" d="M15.858,195.036c0-1.462,1.183-2.643,2.646-2.643c1.46,0,2.647,1.181,2.647,2.643
				c0,1.465-1.187,2.648-2.647,2.648C17.041,197.685,15.858,196.501,15.858,195.036z"/>
			<path fill="#164E5B" d="M27.774,195.036c0-1.462,1.179-2.643,2.646-2.643c1.457,0,2.645,1.181,2.645,2.643
				c0,1.465-1.188,2.648-2.645,2.648C28.954,197.685,27.774,196.501,27.774,195.036z"/>
			<path fill="#164E5B" d="M39.687,195.036c0-1.462,1.185-2.643,2.649-2.643s2.645,1.181,2.645,2.643
				c0,1.465-1.181,2.648-2.645,2.648S39.687,196.501,39.687,195.036z"/>
			<path fill="#164E5B" d="M51.604,195.036c0-1.462,1.186-2.643,2.647-2.643c1.464,0,2.65,1.181,2.65,2.643
				c0,1.465-1.186,2.648-2.65,2.648C52.79,197.685,51.604,196.501,51.604,195.036z"/>
			<path fill="#164E5B" d="M63.523,195.036c0-1.462,1.184-2.643,2.641-2.643c1.463,0,2.653,1.181,2.653,2.643
				c0,1.465-1.189,2.648-2.653,2.648C64.708,197.685,63.523,196.501,63.523,195.036z"/>
			<path fill="#164E5B" d="M75.438,195.036c0-1.462,1.184-2.643,2.646-2.643s2.648,1.181,2.648,2.643
				c0,1.465-1.187,2.648-2.648,2.648S75.438,196.501,75.438,195.036z"/>
			<path fill="#164E5B" d="M87.352,195.036c0-1.462,1.188-2.643,2.648-2.643c1.46,0,2.647,1.181,2.647,2.643
				c0,1.465-1.188,2.648-2.647,2.648C88.54,197.685,87.352,196.501,87.352,195.036z"/>
			<path fill="#164E5B" d="M99.271,195.036c0-1.462,1.186-2.643,2.645-2.643c1.464,0,2.649,1.181,2.649,2.643
				c0,1.465-1.186,2.648-2.649,2.648C100.456,197.685,99.271,196.501,99.271,195.036z"/>
			<path fill="#164E5B" d="M111.188,195.036c0-1.462,1.182-2.643,2.641-2.643c1.464,0,2.653,1.181,2.653,2.643
				c0,1.465-1.189,2.648-2.653,2.648C112.37,197.685,111.188,196.501,111.188,195.036z"/>
			<path fill="#164E5B" d="M123.106,195.036c0-1.462,1.181-2.643,2.645-2.643c1.46,0,2.645,1.181,2.645,2.643
				c0,1.465-1.185,2.648-2.645,2.648C124.287,197.685,123.106,196.501,123.106,195.036z"/>
			<path fill="#164E5B" d="M135.019,195.036c0-1.462,1.184-2.643,2.646-2.643c1.459,0,2.646,1.181,2.646,2.643
				c0,1.465-1.188,2.648-2.646,2.648C136.202,197.685,135.019,196.501,135.019,195.036z"/>
			<path fill="#164E5B" d="M146.935,195.036c0-1.462,1.183-2.643,2.646-2.643s2.649,1.181,2.649,2.643
				c0,1.465-1.186,2.648-2.649,2.648S146.935,196.501,146.935,195.036z"/>
			<path fill="#164E5B" d="M158.85,195.036c0-1.462,1.187-2.643,2.647-2.643s2.65,1.181,2.65,2.643c0,1.465-1.189,2.648-2.65,2.648
				S158.85,196.501,158.85,195.036z"/>
			<circle fill="#164E5B" cx="18.504" cy="205.59" r="2.646"/>
			<path fill="#164E5B" d="M27.774,205.59c0-1.464,1.179-2.646,2.646-2.646c1.457,0,2.645,1.183,2.645,2.646
				c0,1.462-1.188,2.646-2.645,2.646C28.954,208.235,27.774,207.052,27.774,205.59z"/>
			<circle fill="#164E5B" cx="42.333" cy="205.59" r="2.647"/>
			<circle fill="#164E5B" cx="54.253" cy="205.59" r="2.649"/>
			<path fill="#164E5B" d="M63.523,205.59c0-1.464,1.184-2.646,2.641-2.646c1.463,0,2.653,1.183,2.653,2.646
				c0,1.462-1.189,2.646-2.653,2.646C64.708,208.235,63.523,207.052,63.523,205.59z"/>
			<circle fill="#164E5B" cx="78.085" cy="205.59" r="2.647"/>
			<circle fill="#164E5B" cx="90" cy="205.59" r="2.648"/>
			<path fill="#164E5B" d="M99.271,205.59c0-1.464,1.186-2.646,2.645-2.646c1.464,0,2.649,1.183,2.649,2.646
				c0,1.462-1.186,2.646-2.649,2.646C100.456,208.235,99.271,207.052,99.271,205.59z"/>
			<path fill="#164E5B" d="M111.188,205.59c0-1.464,1.182-2.646,2.641-2.646c1.464,0,2.653,1.183,2.653,2.646
				c0,1.462-1.189,2.646-2.653,2.646C112.37,208.235,111.188,207.052,111.188,205.59z"/>
			<path fill="#164E5B" d="M123.106,205.59c0-1.464,1.181-2.646,2.645-2.646c1.46,0,2.645,1.183,2.645,2.646
				c0,1.462-1.185,2.646-2.645,2.646C124.287,208.235,123.106,207.052,123.106,205.59z"/>
			<circle fill="#164E5B" cx="137.665" cy="205.59" r="2.646"/>
			<circle fill="#164E5B" cx="149.583" cy="205.59" r="2.648"/>
			<circle fill="#164E5B" cx="161.499" cy="205.59" r="2.649"/>
			<path fill="#164E5B" d="M15.858,216.141c0-1.462,1.183-2.645,2.646-2.645c1.46,0,2.647,1.183,2.647,2.645
				c0,1.464-1.187,2.647-2.647,2.647C17.041,218.788,15.858,217.604,15.858,216.141z"/>
			<path fill="#164E5B" d="M27.774,216.141c0-1.462,1.179-2.645,2.646-2.645c1.457,0,2.645,1.183,2.645,2.645
				c0,1.464-1.188,2.647-2.645,2.647C28.954,218.788,27.774,217.604,27.774,216.141z"/>
			<path fill="#164E5B" d="M39.687,216.141c0-1.462,1.185-2.645,2.649-2.645s2.645,1.183,2.645,2.645
				c0,1.464-1.181,2.647-2.645,2.647S39.687,217.604,39.687,216.141z"/>
			<path fill="#164E5B" d="M51.604,216.141c0-1.462,1.186-2.645,2.647-2.645c1.464,0,2.65,1.183,2.65,2.645
				c0,1.464-1.186,2.647-2.65,2.647C52.79,218.788,51.604,217.604,51.604,216.141z"/>
			<path fill="#164E5B" d="M63.523,216.141c0-1.462,1.184-2.645,2.641-2.645c1.463,0,2.653,1.183,2.653,2.645
				c0,1.464-1.189,2.647-2.653,2.647C64.708,218.788,63.523,217.604,63.523,216.141z"/>
			<path fill="#164E5B" d="M75.438,216.141c0-1.462,1.184-2.645,2.646-2.645s2.648,1.183,2.648,2.645
				c0,1.464-1.187,2.647-2.648,2.647S75.438,217.604,75.438,216.141z"/>
			<path fill="#164E5B" d="M87.352,216.141c0-1.462,1.188-2.645,2.648-2.645c1.46,0,2.647,1.183,2.647,2.645
				c0,1.464-1.188,2.647-2.647,2.647C88.54,218.788,87.352,217.604,87.352,216.141z"/>
			<path fill="#164E5B" d="M99.271,216.141c0-1.462,1.186-2.645,2.645-2.645c1.464,0,2.649,1.183,2.649,2.645
				c0,1.464-1.186,2.647-2.649,2.647C100.456,218.788,99.271,217.604,99.271,216.141z"/>
			<path fill="#164E5B" d="M111.188,216.141c0-1.462,1.182-2.645,2.641-2.645c1.464,0,2.653,1.183,2.653,2.645
				c0,1.464-1.189,2.647-2.653,2.647C112.37,218.788,111.188,217.604,111.188,216.141z"/>
			<path fill="#164E5B" d="M123.106,216.141c0-1.462,1.181-2.645,2.645-2.645c1.46,0,2.645,1.183,2.645,2.645
				c0,1.464-1.185,2.647-2.645,2.647C124.287,218.788,123.106,217.604,123.106,216.141z"/>
			<path fill="#164E5B" d="M135.019,216.141c0-1.462,1.184-2.645,2.646-2.645c1.459,0,2.646,1.183,2.646,2.645
				c0,1.464-1.188,2.647-2.646,2.647C136.202,218.788,135.019,217.604,135.019,216.141z"/>
			<path fill="#164E5B" d="M146.935,216.141c0-1.462,1.183-2.645,2.646-2.645s2.649,1.183,2.649,2.645
				c0,1.464-1.186,2.647-2.649,2.647S146.935,217.604,146.935,216.141z"/>
			<path fill="#164E5B" d="M158.85,216.141c0-1.462,1.187-2.645,2.647-2.645s2.65,1.183,2.65,2.645c0,1.464-1.189,2.647-2.65,2.647
				S158.85,217.604,158.85,216.141z"/>
			<circle fill="#164E5B" cx="18.504" cy="226.694" r="2.646"/>
			<path fill="#164E5B" d="M27.774,226.694c0-1.462,1.179-2.647,2.646-2.647c1.457,0,2.645,1.186,2.645,2.647
				c0,1.461-1.188,2.645-2.645,2.645C28.954,229.339,27.774,228.155,27.774,226.694z"/>
			<circle fill="#164E5B" cx="42.333" cy="226.694" r="2.647"/>
			<circle fill="#164E5B" cx="54.253" cy="226.694" r="2.649"/>
			<path fill="#164E5B" d="M63.523,226.694c0-1.462,1.184-2.647,2.641-2.647c1.463,0,2.653,1.186,2.653,2.647
				c0,1.461-1.189,2.645-2.653,2.645C64.708,229.339,63.523,228.155,63.523,226.694z"/>
			<circle fill="#164E5B" cx="78.085" cy="226.694" r="2.647"/>
			<circle fill="#164E5B" cx="90" cy="226.694" r="2.648"/>
			<path fill="#164E5B" d="M99.271,226.694c0-1.462,1.186-2.647,2.645-2.647c1.464,0,2.649,1.186,2.649,2.647
				c0,1.461-1.186,2.645-2.649,2.645C100.456,229.339,99.271,228.155,99.271,226.694z"/>
			<path fill="#164E5B" d="M111.188,226.694c0-1.462,1.182-2.647,2.641-2.647c1.464,0,2.653,1.186,2.653,2.647
				c0,1.461-1.189,2.645-2.653,2.645C112.37,229.339,111.188,228.155,111.188,226.694z"/>
			<path fill="#164E5B" d="M123.106,226.694c0-1.462,1.181-2.647,2.645-2.647c1.46,0,2.645,1.186,2.645,2.647
				c0,1.461-1.185,2.645-2.645,2.645C124.287,229.339,123.106,228.155,123.106,226.694z"/>
			<circle fill="#164E5B" cx="137.665" cy="226.694" r="2.646"/>
			<circle fill="#164E5B" cx="149.583" cy="226.694" r="2.648"/>
			<circle fill="#164E5B" cx="161.499" cy="226.694" r="2.649"/>
		</g>
		<rect x="109.041" y="270.913" fill="#BEC6C3" width="23.509" height="5.535"/>
		<rect x="139.458" y="270.913" fill="#BEC6C3" width="23.511" height="5.535"/>
	</g>
</g>
<g>
	<path fill="#FFB700" d="M7.745,28.058C7.745,13.114,19.859,1,34.805,1c14.941,0,27.059,12.114,27.059,27.058
		c0,14.945-12.117,27.062-27.059,27.062C19.859,55.119,7.745,43.003,7.745,28.058z"/>
</g>
<g>
	<path fill="#004E59" d="M64.832,31.425H4.773C3.243,31.425,2,30.182,2,28.65c0-1.533,1.243-2.776,2.773-2.776h60.058
		c1.533,0,2.777,1.243,2.777,2.776C67.608,30.182,66.365,31.425,64.832,31.425z"/>
</g>
<g>
	<polygon fill="#31ABB7" points="98.385,86.501 92.015,104.267 93.153,104.267 102.524,87.316 	"/>
	<polygon fill="#31ABB7" points="151.534,86.501 157.903,104.267 156.764,104.267 147.393,87.316 	"/>
</g>
<path fill="#243A3D" d="M76.899,79.336c11.407,6.446,28.659,10.556,47.969,10.556c19.413,0,36.744-4.154,48.155-10.661"/>
<path fill="#0069A6" d="M174.337,79.314C169.1,74.076,152.229,68.28,124.96,68.28c-27.272,0-45.104,6.76-49.379,11.034"/>
<path fill="#00C4B3" d="M142.039,70.413c0-9.434-7.646-17.08-17.079-17.08l0,0c-9.432,0-17.081,7.646-17.081,17.08"/>
<polygon fill="#31ABB7" points="127.237,84.561 122.866,84.561 124.358,104.267 125.742,104.267 "/>
</svg>
