<?xml version="1.0" encoding="utf-8"?>
<!-- Generator: Adobe Illustrator 16.0.0, SVG Export Plug-In . SVG Version: 6.00 Build 0)  -->
<!DOCTYPE svg PUBLIC "-//W3C//DTD SVG 1.1//EN" "http://www.w3.org/Graphics/SVG/1.1/DTD/svg11.dtd">
<svg version="1.1" id="Layer_1" xmlns="http://www.w3.org/2000/svg" xmlns:xlink="http://www.w3.org/1999/xlink" x="0px" y="0px"
	 width="330px" height="358.246px" viewBox="0 0 330 358.246" enable-background="new 0 0 330 358.246" xml:space="preserve">
<g>
	<rect x="0.429" y="122.585" fill="#FF5000" width="18.248" height="143.111"/>
	<rect x="0.429" y="122.585" fill="#FF5000" width="321.831" height="18.257"/>
	<g>
		<rect x="18.998" fill="#BEC6C3" width="50.75" height="251.126"/>
		<line fill="none" stroke="#929288" stroke-miterlimit="10" x1="18.998" y1="241.605" x2="32.357" y2="241.605"/>
		<line fill="none" stroke="#929288" stroke-miterlimit="10" x1="18.998" y1="235.752" x2="25.678" y2="235.752"/>
		<line fill="none" stroke="#929288" stroke-miterlimit="10" x1="18.998" y1="229.894" x2="25.678" y2="229.894"/>
		<line fill="none" stroke="#929288" stroke-miterlimit="10" x1="18.998" y1="224.036" x2="25.678" y2="224.036"/>
		<line fill="none" stroke="#929288" stroke-miterlimit="10" x1="18.998" y1="218.179" x2="25.678" y2="218.179"/>
		<line fill="none" stroke="#929288" stroke-miterlimit="10" x1="18.998" y1="212.323" x2="32.357" y2="212.323"/>
		<line fill="none" stroke="#929288" stroke-miterlimit="10" x1="18.998" y1="206.465" x2="25.678" y2="206.465"/>
		<line fill="none" stroke="#929288" stroke-miterlimit="10" x1="18.998" y1="200.605" x2="25.678" y2="200.605"/>
		<line fill="none" stroke="#929288" stroke-miterlimit="10" x1="18.998" y1="194.75" x2="25.678" y2="194.75"/>
		<line fill="none" stroke="#929288" stroke-miterlimit="10" x1="18.998" y1="188.894" x2="25.678" y2="188.894"/>
		<line fill="none" stroke="#929288" stroke-miterlimit="10" x1="18.998" y1="183.036" x2="32.357" y2="183.036"/>
		<line fill="none" stroke="#929288" stroke-miterlimit="10" x1="18.998" y1="177.181" x2="25.678" y2="177.181"/>
		<line fill="none" stroke="#929288" stroke-miterlimit="10" x1="18.998" y1="171.322" x2="25.678" y2="171.322"/>
		<line fill="none" stroke="#929288" stroke-miterlimit="10" x1="18.998" y1="165.465" x2="25.678" y2="165.465"/>
		<line fill="none" stroke="#929288" stroke-miterlimit="10" x1="18.998" y1="159.607" x2="25.678" y2="159.607"/>
		<line fill="none" stroke="#929288" stroke-miterlimit="10" x1="18.998" y1="153.75" x2="32.357" y2="153.75"/>
		<line fill="none" stroke="#929288" stroke-miterlimit="10" x1="18.998" y1="147.894" x2="25.678" y2="147.894"/>
		<line fill="none" stroke="#929288" stroke-miterlimit="10" x1="18.998" y1="142.035" x2="25.678" y2="142.035"/>
		<line fill="none" stroke="#929288" stroke-miterlimit="10" x1="18.998" y1="136.179" x2="25.678" y2="136.179"/>
		<line fill="none" stroke="#929288" stroke-miterlimit="10" x1="18.998" y1="130.321" x2="25.678" y2="130.321"/>
		<line fill="none" stroke="#929288" stroke-miterlimit="10" x1="18.998" y1="124.464" x2="32.357" y2="124.464"/>
		<line fill="none" stroke="#929288" stroke-miterlimit="10" x1="18.998" y1="118.607" x2="25.678" y2="118.607"/>
		<line fill="none" stroke="#929288" stroke-miterlimit="10" x1="18.998" y1="112.75" x2="25.678" y2="112.75"/>
		<line fill="none" stroke="#929288" stroke-miterlimit="10" x1="18.998" y1="106.894" x2="25.678" y2="106.894"/>
		<line fill="none" stroke="#929288" stroke-miterlimit="10" x1="18.998" y1="101.035" x2="25.678" y2="101.035"/>
		<line fill="none" stroke="#929288" stroke-miterlimit="10" x1="18.998" y1="95.178" x2="32.357" y2="95.178"/>
		<line fill="none" stroke="#929288" stroke-miterlimit="10" x1="18.998" y1="89.32" x2="25.678" y2="89.32"/>
		<line fill="none" stroke="#929288" stroke-miterlimit="10" x1="18.998" y1="83.464" x2="25.678" y2="83.464"/>
		<line fill="none" stroke="#929288" stroke-miterlimit="10" x1="18.998" y1="77.607" x2="25.678" y2="77.607"/>
		<line fill="none" stroke="#929288" stroke-miterlimit="10" x1="18.998" y1="71.75" x2="25.678" y2="71.75"/>
		<line fill="none" stroke="#929288" stroke-miterlimit="10" x1="18.998" y1="65.893" x2="32.357" y2="65.893"/>
		<line fill="none" stroke="#929288" stroke-miterlimit="10" x1="18.998" y1="60.036" x2="25.678" y2="60.036"/>
		<line fill="none" stroke="#929288" stroke-miterlimit="10" x1="18.998" y1="54.178" x2="25.678" y2="54.178"/>
		<line fill="none" stroke="#929288" stroke-miterlimit="10" x1="18.998" y1="48.32" x2="25.678" y2="48.32"/>
		<line fill="none" stroke="#929288" stroke-miterlimit="10" x1="18.998" y1="42.464" x2="25.678" y2="42.464"/>
		<line fill="none" stroke="#929288" stroke-miterlimit="10" x1="18.998" y1="36.607" x2="32.357" y2="36.607"/>
		<line fill="none" stroke="#929288" stroke-miterlimit="10" x1="18.998" y1="30.75" x2="25.678" y2="30.75"/>
		<line fill="none" stroke="#929288" stroke-miterlimit="10" x1="18.998" y1="24.893" x2="25.678" y2="24.893"/>
		<line fill="none" stroke="#929288" stroke-miterlimit="10" x1="18.998" y1="19.035" x2="25.678" y2="19.035"/>
		<line fill="none" stroke="#929288" stroke-miterlimit="10" x1="18.998" y1="13.179" x2="25.678" y2="13.179"/>
		<line fill="none" stroke="#929288" stroke-miterlimit="10" x1="18.998" y1="7.32" x2="32.357" y2="7.32"/>
	</g>
	<rect x="312.182" y="122.585" fill="#FF5000" width="18.248" height="143.111"/>
	<rect x="68.959" y="270.804" fill="#1CCFC9" width="39.122" height="21.113"/>
	<circle fill="#FFFBF2" cx="58.094" cy="11.952" r="4.313"/>
	<rect x="63.416" y="182.806" fill="#EA7200" width="9.46" height="124.955"/>
	<polygon fill="#FFB700" points="91.797,182.806 63.416,182.806 77.607,163.152 	"/>
	<rect x="72.876" y="182.806" fill="#004E59" width="9.461" height="124.955"/>
	<rect x="82.338" y="182.806" fill="#EA7200" width="9.459" height="124.955"/>
	<polygon fill="#004E59" points="80.1,166.605 77.607,163.152 75.113,166.605 	"/>
	<g>
		<rect x="91.797" y="183.94" fill="#0069A6" width="19.938" height="101.985"/>
		<rect x="105.93" y="146.193" fill="#BEC6C3" width="10.249" height="7.96"/>
		<rect x="91.797" y="190.847" fill="#BEC6C3" width="19.938" height="5.385"/>
		<rect x="91.797" y="144.506" fill="#004E59" width="19.938" height="47.514"/>
		<rect x="114.26" y="144.506" fill="#004E59" width="3.838" height="47.514"/>
		<rect x="91.797" y="144.506" fill="#0069A6" width="19.938" height="11.334"/>
	</g>
	<polygon fill="#BEC6C3" points="142.884,231.11 121.353,231.11 125.399,35.117 138.834,35.117 	"/>
	<polygon fill="#FFB700" points="145.683,255.849 118.554,255.849 120.535,154.812 143.701,154.812 	"/>
	<path fill="#929288" d="M169.698,8.826c-3.569,4.771-9.245,7.872-15.66,7.872c-6.417,0-12.094-3.101-15.661-7.872h-0.307V8.489
		c0,0-11.132,0.002-20.128,0.002c-8.996,0-41.941,20.688-50.937,49.474h6.746c0,0,12.594-15.293,32.385-22.489
		c15.13-5.502,18.427,7.399,19.142,20.011h13.602c0.141-7.029,0.781-14.297,3.25-17.259c3.26-3.962,8.175-6.511,13.705-6.511
		c5.67,0,10.703,2.664,13.959,6.795h15.054V8.826H169.698z"/>
	<rect x="124.094" y="54.815" fill="#004E59" width="15.849" height="4.952"/>
	<rect x="150.652" y="139.5" fill="#929288" width="26.121" height="87.546"/>
	<path fill="#929288" d="M177.142,89.438v23.553l-13.951,10.465l-12.906-10.465V89.438c-9.225,4.841-15.521,14.506-15.521,25.646
		c0,15.988,12.961,28.949,28.95,28.949c15.987,0,28.95-12.961,28.95-28.949C192.663,103.943,186.367,94.278,177.142,89.438z"/>
	<g>
		<polygon fill="#BEC6C3" points="210.463,167.971 191.29,167.971 191.29,132.753 		"/>
		<rect x="190.604" y="166.014" fill="#0069A6" width="20.545" height="110.673"/>
		<rect x="190.604" y="179.365" fill="#004E59" width="20.545" height="1.74"/>
	</g>
	<rect x="254.734" y="170.26" fill="#FFB700" width="27.534" height="73.006"/>
	<rect x="254.734" y="173.407" fill="#0069A6" width="27.534" height="11.329"/>
	<g>
		<path fill="#FFB700" d="M305.007,165.532c0,4.677-3.827,8.504-8.504,8.504h-55.998c-4.677,0-8.504-3.827-8.504-8.504v-55.997
			c0-4.678,3.827-8.504,8.504-8.504h55.998c4.677,0,8.504,3.826,8.504,8.504V165.532z"/>
	</g>
	<rect x="232.001" y="69.564" fill="#1CCFC9" width="73.006" height="45.314"/>
	<rect x="232.001" y="111.101" fill="#0069A6" width="73.006" height="16.364"/>
	<g>
		<rect x="214.011" y="166.938" fill="#00C4B3" width="16.85" height="83.879"/>
		<rect x="228.824" y="135.891" fill="#00C4B3" width="8.659" height="13.545"/>
		<rect x="233.127" y="176.156" fill="#00C4B3" width="3.1" height="4.543"/>
		<rect x="212.216" y="134.504" fill="#004E59" width="20.079" height="46.794"/>
		<rect x="236.22" y="134.548" fill="#004E59" width="2.886" height="46.75"/>
	</g>
	<rect x="0.429" y="215.8" fill="#FF5000" width="330" height="143.59"/>
	<g>
		<defs>
			<rect id="SVGID_1_" x="232.001" y="69.564" width="73.006" height="45.314"/>
		</defs>
		<clipPath id="SVGID_2_">
			<use xlink:href="#SVGID_1_"  overflow="visible"/>
		</clipPath>
	</g>
</g>
<g>
	<defs>
		<rect id="SVGID_3_" x="232.001" y="69.564" width="73.006" height="45.314"/>
	</defs>
	<clipPath id="SVGID_4_">
		<use xlink:href="#SVGID_3_"  overflow="visible"/>
	</clipPath>
	<g clip-path="url(#SVGID_4_)">
		<path fill="#FF5000" d="M305.263,57.89c0-1.56-1.275-2.835-2.835-2.835h-17.324c-1.56,0-2.835,1.275-2.835,2.835v4.567
			c0,1.56-1.275,2.835-2.835,2.835h-13.281c-1.56,0-2.835-1.275-2.835-2.835v-7.006c0-1.559-1.275-2.834-2.835-2.834H249.06
			c-1.56,0-2.835,1.275-2.835,2.834v0.496c0,1.559-1.275,2.834-2.835,2.834h-10.73c-1.56,0-2.835,1.275-2.835,2.835v29.331
			c0,1.559,1.275,2.834,2.835,2.834h10.499c1.56,0,2.835-1.275,2.835-2.834v-4.191c0-1.559,1.275-2.834,2.835-2.834h2.75
			c1.56,0,2.835,1.275,2.835,2.834v10.701c0,1.559,1.275,2.834,2.835,2.834h24.716c1.56,0,2.835-1.275,2.835-2.834V92.89
			c0-1.56,1.275-2.835,2.835-2.835h14.794c1.56,0,2.835-1.275,2.835-2.834V57.89z"/>
	</g>
</g>
<g>
	<path fill="#FF5000" d="M252.235,117.76c0-3.144,4.461-12.38,4.461-12.38c0.678-1.403,1.787-1.403,2.465,0.001
		c0,0,4.459,9.235,4.459,12.379s-2.548,5.692-5.691,5.692S252.235,120.903,252.235,117.76z"/>
</g>
<g>
	<path fill="#FF5000" d="M252.235,144.119c0-3.144,4.461-12.38,4.461-12.38c0.678-1.403,1.787-1.403,2.465,0.001
		c0,0,4.459,9.235,4.459,12.379s-2.548,5.692-5.691,5.692S252.235,147.263,252.235,144.119z"/>
</g>
</svg>
