<?xml version="1.0" encoding="utf-8"?>
<!-- Generator: Adobe Illustrator 16.0.0, SVG Export Plug-In . SVG Version: 6.00 Build 0)  -->
<!DOCTYPE svg PUBLIC "-//W3C//DTD SVG 1.1//EN" "http://www.w3.org/Graphics/SVG/1.1/DTD/svg11.dtd">
<svg version="1.1" id="Layer_1" xmlns="http://www.w3.org/2000/svg" xmlns:xlink="http://www.w3.org/1999/xlink" x="0px" y="0px"
	 width="180px" height="350px" viewBox="0 0 180 350" enable-background="new 0 0 180 350" xml:space="preserve">
<g>
	<rect y="200.957" fill="#00C4B3" width="179.999" height="149.042"/>
	<g>
		<path fill="#0069A6" d="M180,228.151c0,4.971-4.028,8.999-8.999,8.999c-4.972,0-9.001-4.028-9.001-8.999
			c0,4.971-4.028,8.999-8.999,8.999s-9-4.028-9-8.999c0,4.971-4.029,8.999-9.002,8.999c-4.97,0-8.999-4.028-8.999-8.999
			c0,4.971-4.03,8.999-8.999,8.999c-4.971,0-9-4.028-9-8.999c0,4.971-4.031,8.999-9,8.999c-4.971,0-9-4.028-9-8.999
			c0,4.971-4.03,8.999-9.001,8.999c-4.97,0-9.001-4.028-9.001-8.999c0,4.971-4.028,8.999-8.999,8.999
			c-4.97,0-8.999-4.028-8.999-8.999c0,4.971-4.029,8.999-9,8.999c-4.972,0-9.002-4.028-9.002-8.999c0,4.971-4.028,8.999-8.999,8.999
			s-8.999-4.027-8.999-8.999c0,4.971-4.03,8.999-9.001,8.999s-9-4.027-9-8.999v121.848h180V228.151z"/>
	</g>
	<path fill="#EA7200" d="M73.908,290.383c0,0-6.601,12.328-14.742,12.328c-8.145,0-20.908-12.328-20.908-12.328
		s12.764-12.329,20.908-12.329C67.308,278.055,73.908,290.383,73.908,290.383z"/>
	<polygon fill="#EA7200" points="28.807,280.932 38.258,290.383 28.807,299.835 	"/>
	<circle fill="#FFFFFF" cx="61.835" cy="285.708" r="1.695"/>
	<circle fill="#00C4B3" cx="80.172" cy="284.939" r="2.158"/>
	<circle fill="#00C4B3" cx="80.172" cy="269.82" r="2.158"/>
	<circle fill="#00C4B3" cx="87.984" cy="277.378" r="2.158"/>
	<rect x="110.985" y="298.331" fill="#BEC6C3" width="42.807" height="51.669"/>
	<rect x="117.245" y="296.06" fill="#0069A6" width="5.653" height="7.773"/>
	<rect x="129.562" y="296.06" fill="#0069A6" width="5.653" height="7.773"/>
	<rect x="141.879" y="296.06" fill="#0069A6" width="5.652" height="7.773"/>
	<path fill="#0069A6" d="M125.422,349.999V337.61c0-4.182,3.39-7.571,7.572-7.571l0,0c4.182,0,7.571,3.39,7.571,7.571v12.389"/>
</g>
</svg>
