<?xml version="1.0" encoding="utf-8"?>
<!-- Generator: Adobe Illustrator 16.2.1, SVG Export Plug-In . SVG Version: 6.00 Build 0)  -->
<!DOCTYPE svg PUBLIC "-//W3C//DTD SVG 1.1//EN" "http://www.w3.org/Graphics/SVG/1.1/DTD/svg11.dtd">
<svg version="1.1" id="Layer_1" xmlns="http://www.w3.org/2000/svg" xmlns:xlink="http://www.w3.org/1999/xlink" x="0px" y="0px"
	 width="180px" height="166.465px" viewBox="0 -1.5 180 166.465" enable-background="new 0 -1.5 180 166.465" xml:space="preserve">
<g>
	<g>
		<rect y="89.318" fill="#BEC6C3" width="180" height="75.646"/>
		<ellipse fill="#FF5000" cx="30.086" cy="127.625" rx="12.61" ry="12.547"/>
		<rect x="154.814" y="120.396" fill="#0069A6" width="7.195" height="14.456"/>
		<rect x="141.305" y="120.396" fill="#0069A6" width="7.197" height="14.456"/>
		<rect x="125.771" y="120.396" fill="#0069A6" width="7.195" height="14.456"/>
		<rect x="112.262" y="120.396" fill="#0069A6" width="7.197" height="14.456"/>
	</g>
	<ellipse fill="#1CCFC9" cx="45.882" cy="35.682" rx="29.309" ry="29.309"/>
	<path fill="none" stroke="#EA7200" stroke-width="3" stroke-miterlimit="10" d="M71.11,60.91
		c-6.456,6.457-15.376,10.451-25.228,10.451c-19.704,0-35.678-15.975-35.678-35.681C10.204,15.977,26.178,0,45.882,0"/>
	<line fill="none" stroke="#EA7200" stroke-width="6" stroke-miterlimit="10" x1="45.883" y1="71.361" x2="45.883" y2="85.379"/>
	<polygon fill="#FF5000" stroke="#FF5000" stroke-miterlimit="10" points="69.599,88.889 20.796,88.889 25.835,79.793 
		64.558,79.793 	"/>
	<g>
		<g>
			<g>
				<defs>
					<circle id="SVGID_1_" cx="45.882" cy="35.682" r="29.309"/>
				</defs>
				<clipPath id="SVGID_2_">
					<use xlink:href="#SVGID_1_"  overflow="visible"/>
				</clipPath>
				<g clip-path="url(#SVGID_2_)">
					<path fill="#004E59" d="M76.426,1.066c0-1.693-1.391-3.08-3.092-3.08H46.28c-1.701,0-3.092,0.428-3.092,0.949
						c0,0.521-1.392,0.947-3.093,0.947H29.97c-1.7,0-3.092,1.387-3.092,3.079v16.979c0,1.692,1.392,3.078,3.092,3.078h10.125
						c1.7,0,3.092,1.387,3.092,3.08v6.403c0,1.694,1.392,3.08,3.093,3.08h13.159c1.701,0,3.092-1.386,3.092-3.08V21.301
						c0-1.693,1.392-3.08,3.093-3.08h7.709c1.701,0,3.093-1.386,3.093-3.079V1.066L76.426,1.066z"/>
				</g>
			</g>
		</g>
	</g>
	<g>
		<g>
			<g>
				<defs>
					<circle id="SVGID_3_" cx="45.882" cy="35.682" r="29.309"/>
				</defs>
				<clipPath id="SVGID_4_">
					<use xlink:href="#SVGID_3_"  overflow="visible"/>
				</clipPath>
				<g clip-path="url(#SVGID_4_)">
					<path fill="#004E59" d="M33.275,51.15c-1.7,0-3.068-1.386-3.038-3.078l0.163-9.312c0.03-1.694-1.337-3.08-3.038-3.08H19.67
						c-1.701,0-3.093,1.386-3.093,3.08v18.104c0,1.693,1.392,3.078,3.093,3.078h0.753c1.701,0,3.093,1.387,3.093,3.08v0.516
						c0,1.693,1.392,3.08,3.092,3.08h12.303c1.701,0,3.067-1.387,3.038-3.08l-0.163-9.311c-0.029-1.693-1.444-3.08-3.146-3.08
						h-5.365V51.15z"/>
				</g>
			</g>
		</g>
	</g>
	<g>
		<g>
			<g>
				<defs>
					<circle id="SVGID_5_" cx="45.882" cy="35.682" r="29.309"/>
				</defs>
				<clipPath id="SVGID_6_">
					<use xlink:href="#SVGID_5_"  overflow="visible"/>
				</clipPath>
				<g clip-path="url(#SVGID_6_)">
					<path fill="#004E59" d="M80.914,62.01c0,1.693-1.392,3.079-3.092,3.079H63.999c-1.702,0-3.093-1.386-3.093-3.079V48.974
						c0-1.692,1.391-3.079,3.093-3.079h13.823c1.7,0,3.092,1.387,3.092,3.079V62.01z"/>
				</g>
			</g>
		</g>
	</g>
</g>
</svg>
