<?xml version="1.0" encoding="utf-8"?>
<!-- Generator: Adobe Illustrator 16.2.1, SVG Export Plug-In . SVG Version: 6.00 Build 0)  -->
<!DOCTYPE svg PUBLIC "-//W3C//DTD SVG 1.1//EN" "http://www.w3.org/Graphics/SVG/1.1/DTD/svg11.dtd">
<svg version="1.1" id="Layer_1" xmlns="http://www.w3.org/2000/svg" xmlns:xlink="http://www.w3.org/1999/xlink" x="0px" y="0px"
	 width="180px" height="224.599px" viewBox="0 0 180 224.599" enable-background="new 0 0 180 224.599" xml:space="preserve">
<g>
	<rect fill="#0069A6" width="180" height="224.599"/>
	<path fill="#004E59" d="M45.833,90.013c-16.185,0-29.311,13.124-29.311,29.312c0,16.19,13.125,29.309,29.311,29.309
		c16.19,0,29.312-13.12,29.312-29.309C75.145,103.137,62.022,90.013,45.833,90.013z"/>
	<path fill="#FFB700" d="M45.833,85.231c-18.826,0-34.091,15.262-34.091,34.094c0,18.831,15.265,34.093,34.091,34.093
		c18.83,0,34.095-15.262,34.095-34.093C79.927,100.494,64.663,85.231,45.833,85.231z M32.885,97.797
		c3.316-1.989,7.62-0.911,9.607,2.405c1.988,3.318,0.911,7.622-2.406,9.607c-3.32,1.989-7.621,0.912-9.609-2.407
		S29.567,99.784,32.885,97.797z M20.686,119.327c0-3.87,3.134-7.004,7.004-7.004c3.865,0,7.002,3.134,7.002,7.004
		c0,3.868-3.138,7.003-7.002,7.003C23.819,126.33,20.686,123.194,20.686,119.327z M43.416,138.584
		c-1.824,3.411-6.069,4.696-9.478,2.87c-3.41-1.829-4.697-6.072-2.869-9.48c1.827-3.41,6.072-4.694,9.479-2.868
		C43.961,130.931,45.245,135.177,43.416,138.584z M48.156,100.065c1.824-3.409,6.067-4.694,9.479-2.868
		c3.409,1.828,4.691,6.071,2.869,9.484c-1.828,3.406-6.07,4.693-9.48,2.866C47.612,107.721,46.326,103.478,48.156,100.065z
		 M58.688,140.858c-3.323,1.988-7.623,0.909-9.608-2.408c-1.989-3.319-0.911-7.62,2.407-9.607c3.319-1.989,7.618-0.911,9.607,2.406
		C63.083,134.567,62.004,138.869,58.688,140.858z M63.88,126.33c-3.866,0-7.001-3.136-7.001-7.003c0-3.871,3.135-7.004,7.001-7.004
		c3.867,0,7.003,3.134,7.003,7.004C70.883,123.194,67.747,126.33,63.88,126.33z"/>
	<path fill="#004E59" d="M134.165,90.013c-16.187,0-29.309,13.124-29.309,29.312c0,16.19,13.123,29.309,29.309,29.309
		c16.19,0,29.311-13.12,29.311-29.309C163.476,103.137,150.355,90.013,134.165,90.013z"/>
	<path fill="#FFB700" d="M134.165,85.231c-18.827,0-34.091,15.262-34.091,34.094c0,18.831,15.265,34.093,34.091,34.093
		c18.83,0,34.094-15.262,34.094-34.093C168.259,100.494,152.995,85.231,134.165,85.231z M121.215,97.797
		c3.316-1.989,7.622-0.911,9.606,2.405c1.988,3.318,0.912,7.622-2.408,9.607c-3.318,1.989-7.619,0.912-9.606-2.407
		C116.822,104.083,117.899,99.784,121.215,97.797z M109.016,119.327c0-3.87,3.136-7.004,7.007-7.004c3.866,0,7,3.134,7,7.004
		c0,3.868-3.134,7.003-7,7.003C112.152,126.33,109.016,123.194,109.016,119.327z M131.749,138.584
		c-1.824,3.411-6.069,4.696-9.48,2.87c-3.41-1.829-4.696-6.072-2.866-9.48c1.825-3.41,6.071-4.694,9.476-2.868
		C132.291,130.931,133.578,135.177,131.749,138.584z M136.487,100.065c1.825-3.409,6.069-4.694,9.477-2.868
		c3.411,1.828,4.693,6.071,2.87,9.484c-1.827,3.406-6.068,4.693-9.479,2.866C135.943,107.721,134.657,103.478,136.487,100.065z
		 M147.019,140.858c-3.319,1.988-7.623,0.909-9.608-2.408c-1.987-3.319-0.91-7.62,2.408-9.607c3.319-1.989,7.618-0.911,9.608,2.406
		C151.415,134.567,150.335,138.869,147.019,140.858z M152.211,126.33c-3.866,0-6.998-3.136-6.998-7.003
		c0-3.871,3.132-7.004,6.998-7.004c3.87,0,7.006,3.134,7.006,7.004C159.217,123.194,156.08,126.33,152.211,126.33z"/>
	<rect x="20.813" y="177.792" fill="#BEC6C3" width="71.329" height="25.573"/>
	<path fill="#FF5000" d="M123.629,189.923c0-9.36,7.587-16.946,16.949-16.946c9.358,0,16.945,7.586,16.945,16.946
		c0,9.359-7.586,16.944-16.945,16.944C131.217,206.869,123.629,199.282,123.629,189.923z"/>
	<rect x="11.742" y="64.99" fill="#004E59" width="156.516" height="2.856"/>
</g>
</svg>
