<?xml version="1.0" encoding="utf-8"?>
<!-- Generator: Adobe Illustrator 16.0.0, SVG Export Plug-In . SVG Version: 6.00 Build 0)  -->
<!DOCTYPE svg PUBLIC "-//W3C//DTD SVG 1.1//EN" "http://www.w3.org/Graphics/SVG/1.1/DTD/svg11.dtd">
<svg version="1.1" id="Layer_1" xmlns="http://www.w3.org/2000/svg" xmlns:xlink="http://www.w3.org/1999/xlink" x="0px" y="0px"
	 width="330px" height="181.755px" viewBox="0 0 330 181.755" enable-background="new 0 0 330 181.755" xml:space="preserve">
<g>
	<rect fill="#FFB700" width="330" height="180.407"/>
	<path fill="#FF5000" d="M223.995,134.427c0-3.761,3.046-6.814,6.811-6.814c3.761,0,6.811,3.054,6.811,6.814
		c0,3.757-3.05,6.807-6.811,6.807C227.041,141.233,223.995,138.184,223.995,134.427z"/>
	<path fill="#FF5000" d="M248.92,134.427c0-3.761,3.047-6.814,6.808-6.814c3.764,0,6.813,3.054,6.813,6.814
		c0,3.757-3.05,6.807-6.813,6.807C251.967,141.233,248.92,138.184,248.92,134.427z"/>
	<path fill="#FF5000" d="M273.842,134.427c0-3.761,3.046-6.814,6.811-6.814c3.761,0,6.811,3.054,6.811,6.814
		c0,3.757-3.05,6.807-6.811,6.807C276.888,141.233,273.842,138.184,273.842,134.427z"/>
	<path fill="#FF5000" d="M298.767,134.427c0-3.761,3.05-6.814,6.811-6.814s6.811,3.054,6.811,6.814c0,3.757-3.05,6.807-6.811,6.807
		S298.767,138.184,298.767,134.427z"/>
	<g>
		<path fill="#EBEAE7" d="M313.658,61.7c0,2.75-2.25,5-5,5H20.606c-2.75,0-5-2.25-5-5V35.367c0-2.75,2.25-5,5-5h288.052
			c2.75,0,5,2.25,5,5V61.7z"/>
	</g>
	<rect x="290.815" y="39.687" fill="#00C4B3" width="8.767" height="17.695"/>
	<path fill="#929288" d="M28.227,48.536c0-3.761,3.048-6.811,6.809-6.811c3.762,0,6.812,3.05,6.812,6.811
		c0,3.757-3.05,6.811-6.812,6.811C31.275,55.347,28.227,52.293,28.227,48.536z"/>
	<path fill="#929288" d="M50.368,48.536c0-3.761,3.046-6.811,6.809-6.811c3.765,0,6.812,3.05,6.812,6.811
		c0,3.757-3.048,6.811-6.812,6.811C53.414,55.347,50.368,52.293,50.368,48.536z"/>
	<path fill="#929288" d="M72.508,48.536c0-3.761,3.046-6.811,6.811-6.811c3.761,0,6.811,3.05,6.811,6.811
		c0,3.757-3.05,6.811-6.811,6.811C75.554,55.347,72.508,52.293,72.508,48.536z"/>
	<polygon fill="#0069A6" points="33.051,151.394 25.387,138.119 33.051,124.845 48.379,124.845 56.043,138.119 48.379,151.394 	"/>
	<rect x="15.606" y="90.965" fill="#004E59" width="296.782" height="5.237"/>
</g>
</svg>
