<?xml version="1.0" encoding="utf-8"?>
<!-- Generator: Adobe Illustrator 16.0.0, SVG Export Plug-In . SVG Version: 6.00 Build 0)  -->
<!DOCTYPE svg PUBLIC "-//W3C//DTD SVG 1.1//EN" "http://www.w3.org/Graphics/SVG/1.1/DTD/svg11.dtd">
<svg version="1.1" id="Layer_1" xmlns="http://www.w3.org/2000/svg" xmlns:xlink="http://www.w3.org/1999/xlink" x="0px" y="0px"
	 width="330px" height="403.111px" viewBox="0 0 330 403.111" enable-background="new 0 0 330 403.111" xml:space="preserve">
<g>
	<rect fill="#BEC6C3" width="330" height="403.111"/>
	<g>
		<circle fill="#FFFFFF" cx="46.185" cy="47.712" r="6.515"/>
		<circle fill="#FFFFFF" cx="86.246" cy="47.712" r="6.515"/>
		<circle fill="#FFFFFF" cx="126.308" cy="47.712" r="6.515"/>
		<circle fill="#FFFFFF" cx="166.37" cy="47.712" r="6.514"/>
		<circle fill="#FFFFFF" cx="206.432" cy="47.712" r="6.515"/>
		<circle fill="#FFFFFF" cx="246.493" cy="47.712" r="6.515"/>
		<circle fill="#FFFFFF" cx="286.555" cy="47.712" r="6.515"/>
	</g>
	<g>
		<circle fill="#FFFFFF" cx="46.185" cy="86.851" r="6.515"/>
		<circle fill="#FFFFFF" cx="86.246" cy="86.851" r="6.515"/>
		<circle fill="#FFFFFF" cx="126.308" cy="86.851" r="6.515"/>
		<circle fill="#FFFFFF" cx="166.37" cy="86.851" r="6.514"/>
		<circle fill="#FFFFFF" cx="206.432" cy="86.851" r="6.515"/>
		<circle fill="#FFFFFF" cx="246.493" cy="86.851" r="6.515"/>
		<circle fill="#FFFFFF" cx="286.555" cy="86.851" r="6.515"/>
	</g>
	<g>
		<circle fill="#FFFFFF" cx="46.185" cy="125.989" r="6.515"/>
		<circle fill="#FFFFFF" cx="86.246" cy="125.989" r="6.515"/>
		<circle fill="#FFFFFF" cx="126.308" cy="125.989" r="6.515"/>
		<circle fill="#FFFFFF" cx="166.37" cy="125.989" r="6.514"/>
		<circle fill="#FFFFFF" cx="206.432" cy="125.989" r="6.515"/>
		<circle fill="#FFFFFF" cx="246.493" cy="125.989" r="6.515"/>
		<circle fill="#FFFFFF" cx="286.555" cy="125.989" r="6.515"/>
	</g>
	<g>
		<circle fill="#FFFFFF" cx="46.185" cy="165.126" r="6.515"/>
		<circle fill="#FFFFFF" cx="86.246" cy="165.126" r="6.515"/>
		<circle fill="#FFFFFF" cx="126.308" cy="165.126" r="6.515"/>
		<circle fill="#FFFFFF" cx="166.37" cy="165.126" r="6.514"/>
		<circle fill="#FFFFFF" cx="206.432" cy="165.126" r="6.515"/>
		<circle fill="#FFFFFF" cx="246.493" cy="165.126" r="6.515"/>
		<circle fill="#FFFFFF" cx="286.555" cy="165.126" r="6.515"/>
	</g>
	<g>
		<circle fill="#FFFFFF" cx="46.185" cy="204.264" r="6.515"/>
		<circle fill="#FFFFFF" cx="86.246" cy="204.264" r="6.515"/>
		<circle fill="#FFFFFF" cx="126.308" cy="204.264" r="6.515"/>
		<circle fill="#FFFFFF" cx="166.37" cy="204.264" r="6.514"/>
		<circle fill="#FFFFFF" cx="206.432" cy="204.264" r="6.515"/>
		<circle fill="#FFFFFF" cx="246.493" cy="204.264" r="6.515"/>
		<circle fill="#FFFFFF" cx="286.555" cy="204.264" r="6.515"/>
	</g>
	<g>
		<circle fill="#FFFFFF" cx="46.185" cy="243.402" r="6.515"/>
		<circle fill="#FFFFFF" cx="86.246" cy="243.402" r="6.515"/>
		<circle fill="#FFFFFF" cx="126.308" cy="243.402" r="6.515"/>
		<circle fill="#FFFFFF" cx="166.37" cy="243.402" r="6.514"/>
		<circle fill="#FFFFFF" cx="206.432" cy="243.402" r="6.515"/>
		<circle fill="#FFFFFF" cx="246.493" cy="243.402" r="6.515"/>
		<circle fill="#FFFFFF" cx="286.555" cy="243.402" r="6.515"/>
	</g>
	<g>
		<circle fill="#FFFFFF" cx="46.185" cy="282.54" r="6.515"/>
		<circle fill="#FFFFFF" cx="86.246" cy="282.54" r="6.515"/>
		<circle fill="#FFFFFF" cx="126.308" cy="282.54" r="6.515"/>
		<circle fill="#FFFFFF" cx="166.37" cy="282.54" r="6.514"/>
		<circle fill="#FFFFFF" cx="206.432" cy="282.54" r="6.515"/>
		<circle fill="#FFFFFF" cx="246.493" cy="282.54" r="6.515"/>
		<circle fill="#FFFFFF" cx="286.555" cy="282.54" r="6.515"/>
	</g>
	<g>
		<circle fill="#FFFFFF" cx="46.185" cy="321.677" r="6.515"/>
		<circle fill="#FFFFFF" cx="86.246" cy="321.677" r="6.515"/>
		<circle fill="#FFFFFF" cx="126.308" cy="321.677" r="6.515"/>
		<circle fill="#FFFFFF" cx="166.37" cy="321.677" r="6.514"/>
		<circle fill="#FFFFFF" cx="206.432" cy="321.677" r="6.515"/>
		<circle fill="#FFFFFF" cx="246.493" cy="321.677" r="6.515"/>
		<circle fill="#FFFFFF" cx="286.555" cy="321.677" r="6.515"/>
	</g>
	<circle fill="#FFFFFF" cx="46.185" cy="360.815" r="6.515"/>
	<circle fill="#FFFFFF" cx="86.246" cy="360.815" r="6.515"/>
	<circle fill="#FFFFFF" cx="126.308" cy="360.815" r="6.515"/>
	<circle fill="#FFFFFF" cx="166.37" cy="360.815" r="6.514"/>
	<circle fill="#FFFFFF" cx="206.432" cy="360.815" r="6.515"/>
	<circle fill="#FFFFFF" cx="246.493" cy="360.815" r="6.515"/>
	<circle fill="#FFFFFF" cx="286.555" cy="360.815" r="6.515"/>
	
		<polyline fill="none" stroke="#1CCFC9" stroke-width="2" stroke-linecap="round" stroke-linejoin="round" stroke-miterlimit="10" points="
		46.185,360.815 86.246,360.815 86.246,321.677 46.185,282.54 126.308,204.264 126.308,243.402 166.369,243.402 206.432,282.54 
		206.432,204.264 246.493,243.402 286.555,204.264 286.555,165.126 246.493,125.989 206.432,125.989 206.432,86.851 166.369,86.851 
			"/>
	
		<polyline fill="none" stroke="#F9BE00" stroke-width="2" stroke-linecap="round" stroke-linejoin="round" stroke-miterlimit="10" points="
		86.246,125.989 86.246,165.126 126.308,165.126 166.369,204.264 166.369,282.54 206.432,321.677 246.493,282.54 286.555,321.677 
		286.555,360.815 	"/>
	<circle fill="#FFB700" cx="166.37" cy="86.851" r="3.192"/>
	<circle fill="#FFB700" cx="46.185" cy="360.815" r="3.192"/>
	<circle fill="#FF5000" cx="286.555" cy="360.815" r="3.192"/>
	<circle fill="#FF5000" cx="86.246" cy="125.989" r="3.192"/>
	
		<polyline fill="none" stroke="#EA7200" stroke-width="2" stroke-linecap="round" stroke-linejoin="round" stroke-miterlimit="10" points="
		46.185,47.712 46.185,86.851 86.246,86.851 126.308,47.712 126.308,86.851 	"/>
	<circle fill="#0069A6" cx="126.308" cy="86.851" r="3.192"/>
	<circle fill="#0069A6" cx="46.185" cy="47.712" r="3.192"/>
</g>
</svg>
