<?xml version="1.0" encoding="utf-8"?>
<!-- Generator: Adobe Illustrator 16.0.0, SVG Export Plug-In . SVG Version: 6.00 Build 0)  -->
<!DOCTYPE svg PUBLIC "-//W3C//DTD SVG 1.1//EN" "http://www.w3.org/Graphics/SVG/1.1/DTD/svg11.dtd">
<svg version="1.1" id="Layer_1" xmlns="http://www.w3.org/2000/svg" xmlns:xlink="http://www.w3.org/1999/xlink" x="0px" y="0px"
	 width="180px" height="350px" viewBox="0 0 180 350" enable-background="new 0 0 180 350" xml:space="preserve">
<rect x="0.142" y="95.3" fill="#929288" width="180" height="254.727"/>
<path fill="#164E5B" d="M42.075,176.967c0-26.546,21.522-48.063,48.065-48.063c26.544,0,48.067,21.518,48.067,48.063
	s-21.523,48.064-48.067,48.064C63.598,225.031,42.075,203.513,42.075,176.967z"/>
<path fill="#FF5000" d="M83.085,176.966c0-3.896,3.151-7.057,7.053-7.057c3.902,0,7.061,3.161,7.061,7.057s-3.158,7.058-7.061,7.058
	C86.236,184.023,83.085,180.86,83.085,176.966z"/>
<path fill="#004E59" d="M15.997,288.264c0-1.463,1.184-2.646,2.645-2.646s2.647,1.183,2.647,2.646c0,1.462-1.188,2.646-2.647,2.646
	C17.181,290.91,15.997,289.725,15.997,288.264z"/>
<path fill="#004E59" d="M27.913,288.264c0-1.463,1.18-2.646,2.647-2.646c1.456,0,2.643,1.183,2.643,2.646
	c0,1.462-1.187,2.646-2.643,2.646C29.093,290.91,27.913,289.725,27.913,288.264z"/>
<path fill="#004E59" d="M39.825,288.264c0-1.463,1.186-2.646,2.647-2.646c1.466,0,2.646,1.183,2.646,2.646
	c0,1.462-1.181,2.646-2.646,2.646C41.011,290.91,39.825,289.725,39.825,288.264z"/>
<path fill="#004E59" d="M51.742,288.264c0-1.463,1.188-2.646,2.647-2.646c1.465,0,2.649,1.183,2.649,2.646
	c0,1.462-1.186,2.646-2.649,2.646C52.928,290.91,51.742,289.725,51.742,288.264z"/>
<path fill="#004E59" d="M63.662,288.264c0-1.463,1.186-2.646,2.64-2.646c1.465,0,2.654,1.183,2.654,2.646
	c0,1.462-1.189,2.646-2.654,2.646C64.848,290.91,63.662,289.725,63.662,288.264z"/>
<path fill="#004E59" d="M75.576,288.264c0-1.463,1.185-2.646,2.646-2.646c1.461,0,2.647,1.183,2.647,2.646
	c0,1.462-1.187,2.646-2.647,2.646C76.761,290.91,75.576,289.725,75.576,288.264z"/>
<path fill="#004E59" d="M87.49,288.264c0-1.463,1.188-2.646,2.647-2.646s2.648,1.183,2.648,2.646c0,1.462-1.188,2.646-2.648,2.646
	S87.49,289.725,87.49,288.264z"/>
<path fill="#004E59" d="M99.408,288.264c0-1.463,1.188-2.646,2.646-2.646c1.463,0,2.65,1.183,2.65,2.646
	c0,1.462-1.188,2.646-2.65,2.646C100.596,290.91,99.408,289.725,99.408,288.264z"/>
<path fill="#004E59" d="M111.326,288.264c0-1.463,1.184-2.646,2.642-2.646c1.463,0,2.651,1.183,2.651,2.646
	c0,1.462-1.188,2.646-2.651,2.646C112.51,290.91,111.326,289.725,111.326,288.264z"/>
<path fill="#004E59" d="M123.244,288.264c0-1.463,1.182-2.646,2.646-2.646c1.458,0,2.644,1.183,2.644,2.646
	c0,1.462-1.186,2.646-2.644,2.646C124.426,290.91,123.244,289.725,123.244,288.264z"/>
<path fill="#004E59" d="M135.156,288.264c0-1.463,1.183-2.646,2.647-2.646c1.46,0,2.646,1.183,2.646,2.646
	c0,1.462-1.187,2.646-2.646,2.646C136.339,290.91,135.156,289.725,135.156,288.264z"/>
<path fill="#004E59" d="M147.072,288.264c0-1.463,1.184-2.646,2.646-2.646c1.465,0,2.649,1.183,2.649,2.646
	c0,1.462-1.186,2.646-2.649,2.646C148.256,290.91,147.072,289.725,147.072,288.264z"/>
<path fill="#004E59" d="M158.989,288.264c0-1.463,1.185-2.646,2.646-2.646c1.463,0,2.651,1.183,2.651,2.646
	c0,1.462-1.188,2.646-2.651,2.646C160.174,290.91,158.989,289.725,158.989,288.264z"/>
<path fill="#004E59" d="M15.997,298.814c0-1.461,1.184-2.645,2.645-2.645s2.647,1.184,2.647,2.645c0,1.462-1.188,2.647-2.647,2.647
	C17.181,301.462,15.997,300.276,15.997,298.814z"/>
<path fill="#004E59" d="M27.913,298.814c0-1.461,1.18-2.645,2.647-2.645c1.456,0,2.643,1.184,2.643,2.645
	c0,1.462-1.187,2.647-2.643,2.647C29.093,301.462,27.913,300.276,27.913,298.814z"/>
<path fill="#004E59" d="M39.825,298.814c0-1.461,1.186-2.645,2.647-2.645c1.466,0,2.646,1.184,2.646,2.645
	c0,1.462-1.181,2.647-2.646,2.647C41.011,301.462,39.825,300.276,39.825,298.814z"/>
<path fill="#004E59" d="M51.742,298.814c0-1.461,1.188-2.645,2.647-2.645c1.465,0,2.649,1.184,2.649,2.645
	c0,1.462-1.186,2.647-2.649,2.647C52.928,301.462,51.742,300.276,51.742,298.814z"/>
<path fill="#004E59" d="M63.662,298.814c0-1.461,1.186-2.645,2.64-2.645c1.465,0,2.654,1.184,2.654,2.645
	c0,1.462-1.189,2.647-2.654,2.647C64.848,301.462,63.662,300.276,63.662,298.814z"/>
<circle fill="#004E59" cx="78.223" cy="298.814" r="2.646"/>
<path fill="#004E59" d="M87.49,298.814c0-1.461,1.188-2.645,2.647-2.645s2.648,1.184,2.648,2.645c0,1.462-1.188,2.647-2.648,2.647
	S87.49,300.276,87.49,298.814z"/>
<path fill="#004E59" d="M99.408,298.814c0-1.461,1.188-2.645,2.646-2.645c1.463,0,2.65,1.184,2.65,2.645
	c0,1.462-1.188,2.647-2.65,2.647C100.596,301.462,99.408,300.276,99.408,298.814z"/>
<path fill="#004E59" d="M111.326,298.814c0-1.461,1.184-2.645,2.642-2.645c1.463,0,2.651,1.184,2.651,2.645
	c0,1.462-1.188,2.647-2.651,2.647C112.51,301.462,111.326,300.276,111.326,298.814z"/>
<path fill="#004E59" d="M123.244,298.814c0-1.461,1.182-2.645,2.646-2.645c1.458,0,2.644,1.184,2.644,2.645
	c0,1.462-1.186,2.647-2.644,2.647C124.426,301.462,123.244,300.276,123.244,298.814z"/>
<path fill="#004E59" d="M135.156,298.814c0-1.461,1.183-2.645,2.647-2.645c1.46,0,2.646,1.184,2.646,2.645
	c0,1.462-1.187,2.647-2.646,2.647C136.339,301.462,135.156,300.276,135.156,298.814z"/>
<path fill="#004E59" d="M147.072,298.814c0-1.461,1.184-2.645,2.646-2.645c1.465,0,2.649,1.184,2.649,2.645
	c0,1.462-1.186,2.647-2.649,2.647C148.256,301.462,147.072,300.276,147.072,298.814z"/>
<path fill="#004E59" d="M158.989,298.814c0-1.461,1.185-2.645,2.646-2.645c1.463,0,2.651,1.184,2.651,2.645
	c0,1.462-1.188,2.647-2.651,2.647C160.174,301.462,158.989,300.276,158.989,298.814z"/>
<path fill="#004E59" d="M15.997,309.366c0-1.463,1.184-2.645,2.645-2.645s2.647,1.182,2.647,2.645c0,1.464-1.188,2.647-2.647,2.647
	C17.181,312.014,15.997,310.83,15.997,309.366z"/>
<path fill="#004E59" d="M27.913,309.366c0-1.463,1.18-2.645,2.647-2.645c1.456,0,2.643,1.182,2.643,2.645
	c0,1.464-1.187,2.647-2.643,2.647C29.093,312.014,27.913,310.83,27.913,309.366z"/>
<path fill="#004E59" d="M39.825,309.366c0-1.463,1.186-2.645,2.647-2.645c1.466,0,2.646,1.182,2.646,2.645
	c0,1.464-1.181,2.647-2.646,2.647C41.011,312.014,39.825,310.83,39.825,309.366z"/>
<path fill="#004E59" d="M51.742,309.366c0-1.463,1.188-2.645,2.647-2.645c1.465,0,2.649,1.182,2.649,2.645
	c0,1.464-1.186,2.647-2.649,2.647C52.928,312.014,51.742,310.83,51.742,309.366z"/>
<path fill="#004E59" d="M63.662,309.366c0-1.463,1.186-2.645,2.64-2.645c1.465,0,2.654,1.182,2.654,2.645
	c0,1.464-1.189,2.647-2.654,2.647C64.848,312.014,63.662,310.83,63.662,309.366z"/>
<path fill="#004E59" d="M75.576,309.366c0-1.463,1.185-2.645,2.646-2.645c1.461,0,2.647,1.182,2.647,2.645
	c0,1.464-1.187,2.647-2.647,2.647C76.761,312.014,75.576,310.83,75.576,309.366z"/>
<path fill="#004E59" d="M87.49,309.366c0-1.463,1.188-2.645,2.647-2.645s2.648,1.182,2.648,2.645c0,1.464-1.188,2.647-2.648,2.647
	S87.49,310.83,87.49,309.366z"/>
<path fill="#004E59" d="M99.408,309.366c0-1.463,1.188-2.645,2.646-2.645c1.463,0,2.65,1.182,2.65,2.645
	c0,1.464-1.188,2.647-2.65,2.647C100.596,312.014,99.408,310.83,99.408,309.366z"/>
<path fill="#004E59" d="M111.326,309.366c0-1.463,1.184-2.645,2.642-2.645c1.463,0,2.651,1.182,2.651,2.645
	c0,1.464-1.188,2.647-2.651,2.647C112.51,312.014,111.326,310.83,111.326,309.366z"/>
<path fill="#004E59" d="M123.244,309.366c0-1.463,1.182-2.645,2.646-2.645c1.458,0,2.644,1.182,2.644,2.645
	c0,1.464-1.186,2.647-2.644,2.647C124.426,312.014,123.244,310.83,123.244,309.366z"/>
<path fill="#004E59" d="M135.156,309.366c0-1.463,1.183-2.645,2.647-2.645c1.46,0,2.646,1.182,2.646,2.645
	c0,1.464-1.187,2.647-2.646,2.647C136.339,312.014,135.156,310.83,135.156,309.366z"/>
<path fill="#004E59" d="M147.072,309.366c0-1.463,1.184-2.645,2.646-2.645c1.465,0,2.649,1.182,2.649,2.645
	c0,1.464-1.186,2.647-2.649,2.647C148.256,312.014,147.072,310.83,147.072,309.366z"/>
<path fill="#004E59" d="M158.989,309.366c0-1.463,1.185-2.645,2.646-2.645c1.463,0,2.651,1.182,2.651,2.645
	c0,1.464-1.188,2.647-2.651,2.647C160.174,312.014,158.989,310.83,158.989,309.366z"/>
<path fill="#004E59" d="M15.997,319.919c0-1.462,1.184-2.646,2.645-2.646s2.647,1.184,2.647,2.646c0,1.463-1.188,2.648-2.647,2.648
	C17.181,322.567,15.997,321.382,15.997,319.919z"/>
<path fill="#004E59" d="M27.913,319.919c0-1.462,1.18-2.646,2.647-2.646c1.456,0,2.643,1.184,2.643,2.646
	c0,1.463-1.187,2.648-2.643,2.648C29.093,322.567,27.913,321.382,27.913,319.919z"/>
<path fill="#004E59" d="M39.825,319.919c0-1.462,1.186-2.646,2.647-2.646c1.466,0,2.646,1.184,2.646,2.646
	c0,1.463-1.181,2.648-2.646,2.648C41.011,322.567,39.825,321.382,39.825,319.919z"/>
<path fill="#004E59" d="M51.742,319.919c0-1.462,1.188-2.646,2.647-2.646c1.465,0,2.649,1.184,2.649,2.646
	c0,1.463-1.186,2.648-2.649,2.648C52.928,322.567,51.742,321.382,51.742,319.919z"/>
<path fill="#004E59" d="M63.662,319.919c0-1.462,1.186-2.646,2.64-2.646c1.465,0,2.654,1.184,2.654,2.646
	c0,1.463-1.189,2.648-2.654,2.648C64.848,322.567,63.662,321.382,63.662,319.919z"/>
<path fill="#004E59" d="M75.576,319.919c0-1.462,1.185-2.646,2.646-2.646c1.461,0,2.647,1.184,2.647,2.646
	c0,1.463-1.187,2.648-2.647,2.648C76.761,322.567,75.576,321.382,75.576,319.919z"/>
<path fill="#004E59" d="M87.49,319.919c0-1.462,1.188-2.646,2.647-2.646s2.648,1.184,2.648,2.646c0,1.463-1.188,2.648-2.648,2.648
	S87.49,321.382,87.49,319.919z"/>
<path fill="#004E59" d="M99.408,319.919c0-1.462,1.188-2.646,2.646-2.646c1.463,0,2.65,1.184,2.65,2.646
	c0,1.463-1.188,2.648-2.65,2.648C100.596,322.567,99.408,321.382,99.408,319.919z"/>
<path fill="#004E59" d="M111.326,319.919c0-1.462,1.184-2.646,2.642-2.646c1.463,0,2.651,1.184,2.651,2.646
	c0,1.463-1.188,2.648-2.651,2.648C112.51,322.567,111.326,321.382,111.326,319.919z"/>
<path fill="#004E59" d="M123.244,319.919c0-1.462,1.182-2.646,2.646-2.646c1.458,0,2.644,1.184,2.644,2.646
	c0,1.463-1.186,2.648-2.644,2.648C124.426,322.567,123.244,321.382,123.244,319.919z"/>
<path fill="#004E59" d="M135.156,319.919c0-1.462,1.183-2.646,2.647-2.646c1.46,0,2.646,1.184,2.646,2.646
	c0,1.463-1.187,2.648-2.646,2.648C136.339,322.567,135.156,321.382,135.156,319.919z"/>
<path fill="#004E59" d="M147.072,319.919c0-1.462,1.184-2.646,2.646-2.646c1.465,0,2.649,1.184,2.649,2.646
	c0,1.463-1.186,2.648-2.649,2.648C148.256,322.567,147.072,321.382,147.072,319.919z"/>
<path fill="#004E59" d="M158.989,319.919c0-1.462,1.185-2.646,2.646-2.646c1.463,0,2.651,1.184,2.651,2.646
	c0,1.463-1.188,2.648-2.651,2.648C160.174,322.567,158.989,321.382,158.989,319.919z"/>
<path fill="#004E59" d="M15.997,330.471c0-1.463,1.184-2.646,2.645-2.646s2.647,1.183,2.647,2.646s-1.188,2.646-2.647,2.646
	C17.181,333.118,15.997,331.934,15.997,330.471z"/>
<path fill="#004E59" d="M27.913,330.471c0-1.463,1.18-2.646,2.647-2.646c1.456,0,2.643,1.183,2.643,2.646s-1.187,2.646-2.643,2.646
	C29.093,333.118,27.913,331.934,27.913,330.471z"/>
<path fill="#004E59" d="M39.825,330.471c0-1.463,1.186-2.646,2.647-2.646c1.466,0,2.646,1.183,2.646,2.646s-1.181,2.646-2.646,2.646
	C41.011,333.118,39.825,331.934,39.825,330.471z"/>
<path fill="#004E59" d="M51.742,330.471c0-1.463,1.188-2.646,2.647-2.646c1.465,0,2.649,1.183,2.649,2.646s-1.186,2.646-2.649,2.646
	C52.928,333.118,51.742,331.934,51.742,330.471z"/>
<path fill="#004E59" d="M63.662,330.471c0-1.463,1.186-2.646,2.64-2.646c1.465,0,2.654,1.183,2.654,2.646s-1.189,2.646-2.654,2.646
	C64.848,333.118,63.662,331.934,63.662,330.471z"/>
<path fill="#004E59" d="M75.576,330.471c0-1.463,1.185-2.646,2.646-2.646c1.461,0,2.647,1.183,2.647,2.646s-1.187,2.646-2.647,2.646
	C76.761,333.118,75.576,331.934,75.576,330.471z"/>
<path fill="#004E59" d="M87.49,330.471c0-1.463,1.188-2.646,2.647-2.646s2.648,1.183,2.648,2.646s-1.188,2.646-2.648,2.646
	S87.49,331.934,87.49,330.471z"/>
<path fill="#004E59" d="M99.408,330.471c0-1.463,1.188-2.646,2.646-2.646c1.463,0,2.65,1.183,2.65,2.646s-1.188,2.646-2.65,2.646
	C100.596,333.118,99.408,331.934,99.408,330.471z"/>
<path fill="#004E59" d="M111.326,330.471c0-1.463,1.184-2.646,2.642-2.646c1.463,0,2.651,1.183,2.651,2.646
	s-1.188,2.646-2.651,2.646C112.51,333.118,111.326,331.934,111.326,330.471z"/>
<path fill="#004E59" d="M123.244,330.471c0-1.463,1.182-2.646,2.646-2.646c1.458,0,2.644,1.183,2.644,2.646
	s-1.186,2.646-2.644,2.646C124.426,333.118,123.244,331.934,123.244,330.471z"/>
<path fill="#004E59" d="M135.156,330.471c0-1.463,1.183-2.646,2.647-2.646c1.46,0,2.646,1.183,2.646,2.646s-1.187,2.646-2.646,2.646
	C136.339,333.118,135.156,331.934,135.156,330.471z"/>
<path fill="#004E59" d="M147.072,330.471c0-1.463,1.184-2.646,2.646-2.646c1.465,0,2.649,1.183,2.649,2.646
	s-1.186,2.646-2.649,2.646C148.256,333.118,147.072,331.934,147.072,330.471z"/>
<path fill="#004E59" d="M158.989,330.471c0-1.463,1.185-2.646,2.646-2.646c1.463,0,2.651,1.183,2.651,2.646
	s-1.188,2.646-2.651,2.646C160.174,333.118,158.989,331.934,158.989,330.471z"/>
<rect x="15.316" y="271.802" fill="#0069A6" width="149.648" height="2.855"/>
</svg>
