<?xml version="1.0" encoding="utf-8"?>
<!-- Generator: Adobe Illustrator 16.2.1, SVG Export Plug-In . SVG Version: 6.00 Build 0)  -->
<!DOCTYPE svg PUBLIC "-//W3C//DTD SVG 1.1//EN" "http://www.w3.org/Graphics/SVG/1.1/DTD/svg11.dtd">
<svg version="1.1" id="Layer_1" xmlns="http://www.w3.org/2000/svg" xmlns:xlink="http://www.w3.org/1999/xlink" x="0px" y="0px" viewBox="0 0 180 98.182" enable-background="new 0 0 180 98.182" xml:space="preserve">
<g>
	<rect fill="#FFB700" width="180" height="98.182"/>
	<path fill="#FF5000" d="M122.179,73.159c0-2.047,1.661-3.708,3.715-3.708c2.051,0,3.715,1.662,3.715,3.708
		c0,2.045-1.665,3.705-3.715,3.705C123.84,76.863,122.179,75.204,122.179,73.159z"/>
	<path fill="#FF5000" d="M135.774,73.159c0-2.047,1.662-3.708,3.714-3.708c2.053,0,3.716,1.662,3.716,3.708
		c0,2.045-1.664,3.705-3.716,3.705C137.437,76.863,135.774,75.204,135.774,73.159z"/>
	<path fill="#FF5000" d="M149.368,73.159c0-2.047,1.662-3.708,3.715-3.708c2.052,0,3.716,1.662,3.716,3.708
		c0,2.045-1.664,3.705-3.716,3.705C151.03,76.863,149.368,75.204,149.368,73.159z"/>
	<path fill="#FF5000" d="M162.964,73.159c0-2.047,1.663-3.708,3.715-3.708c2.051,0,3.715,1.662,3.715,3.708
		c0,2.045-1.664,3.705-3.715,3.705C164.627,76.863,162.964,75.204,162.964,73.159z"/>
	<g>
		<path fill="#EBEAE7" d="M171.086,33.579c0,1.497-1.227,2.721-2.727,2.721H11.24c-1.5,0-2.728-1.224-2.728-2.721V19.248
			c0-1.497,1.228-2.721,2.728-2.721h157.12c1.5,0,2.727,1.225,2.727,2.721V33.579z"/>
	</g>
	<rect x="158.626" y="21.599" fill="#00C4B3" width="4.782" height="9.63"/>
	<path fill="#929288" d="M15.396,26.415c0-2.047,1.663-3.707,3.714-3.707s3.715,1.66,3.715,3.707c0,2.045-1.664,3.707-3.715,3.707
		S15.396,28.459,15.396,26.415z"/>
	<path fill="#929288" d="M27.474,26.415c0-2.047,1.661-3.707,3.714-3.707c2.054,0,3.715,1.66,3.715,3.707
		c0,2.045-1.662,3.707-3.715,3.707C29.135,30.121,27.474,28.459,27.474,26.415z"/>
	<path fill="#929288" d="M39.55,26.415c0-2.047,1.662-3.707,3.715-3.707c2.052,0,3.715,1.66,3.715,3.707
		c0,2.045-1.664,3.707-3.715,3.707C41.211,30.121,39.55,28.459,39.55,26.415z"/>
	<polygon fill="#0069A6" points="18.028,82.392 13.848,75.168 18.028,67.944 26.389,67.944 30.569,75.168 26.389,82.392 	"/>
	<rect x="8.512" y="49.505" fill="#004E59" width="161.881" height="2.85"/>
</g>
</svg>
