<?xml version="1.0" encoding="utf-8"?>
<!-- Generator: Adobe Illustrator 16.2.1, SVG Export Plug-In . SVG Version: 6.00 Build 0)  -->
<!DOCTYPE svg PUBLIC "-//W3C//DTD SVG 1.1//EN" "http://www.w3.org/Graphics/SVG/1.1/DTD/svg11.dtd">
<svg version="1.1" id="Layer_1" xmlns="http://www.w3.org/2000/svg" xmlns:xlink="http://www.w3.org/1999/xlink" x="0px" y="0px"
	 width="180px" height="264.355px" viewBox="0 0 180 264.355" enable-background="new 0 0 180 264.355" xml:space="preserve">
<rect y="197.502" fill="#BEC6C3" width="180" height="66.854"/>
<g>
	<path fill="#FFFFFF" d="M21.115,216.178c0,0.15-0.123,0.272-0.272,0.272h-8.082c-0.15,0-0.272-0.122-0.272-0.272v-8.087
		c0-0.148,0.122-0.271,0.272-0.271h8.082c0.149,0,0.272,0.123,0.272,0.271V216.178z"/>
</g>
<g>
	<path fill="#FFFFFF" d="M34.493,216.178c0,0.15-0.122,0.272-0.272,0.272h-8.086c-0.15,0-0.272-0.122-0.272-0.272v-8.087
		c0-0.148,0.122-0.271,0.272-0.271h8.086c0.15,0,0.272,0.123,0.272,0.271V216.178z"/>
</g>
<g>
	<path fill="#FFFFFF" d="M47.871,216.178c0,0.15-0.122,0.272-0.272,0.272h-8.083c-0.15,0-0.272-0.122-0.272-0.272v-8.087
		c0-0.148,0.122-0.271,0.272-0.271h8.083c0.149,0,0.272,0.123,0.272,0.271V216.178L47.871,216.178z"/>
</g>
<g>
	<path fill="#FFFFFF" d="M61.251,216.178c0,0.15-0.123,0.272-0.272,0.272h-8.087c-0.149,0-0.272-0.122-0.272-0.272v-8.087
		c0-0.148,0.123-0.271,0.272-0.271h8.087c0.149,0,0.272,0.123,0.272,0.271V216.178z"/>
</g>
<g>
	<path fill="#FFFFFF" d="M74.628,216.178c0,0.15-0.122,0.272-0.272,0.272h-8.085c-0.15,0-0.273-0.122-0.273-0.272v-8.087
		c0-0.148,0.123-0.271,0.273-0.271h8.085c0.15,0,0.272,0.123,0.272,0.271V216.178z"/>
</g>
<g>
	<path fill="#FFFFFF" d="M88.007,216.178c0,0.15-0.123,0.272-0.272,0.272h-8.086c-0.15,0-0.273-0.122-0.273-0.272v-8.087
		c0-0.148,0.123-0.271,0.273-0.271h8.086c0.149,0,0.272,0.123,0.272,0.271V216.178z"/>
</g>
<g>
	<path fill="#FFFFFF" d="M101.384,216.178c0,0.15-0.122,0.272-0.272,0.272h-8.084c-0.148,0-0.271-0.122-0.271-0.272v-8.087
		c0-0.148,0.123-0.271,0.271-0.271h8.084c0.15,0,0.272,0.123,0.272,0.271V216.178z"/>
</g>
<g>
	<path fill="#FFFFFF" d="M114.762,216.178c0,0.15-0.121,0.272-0.271,0.272h-8.086c-0.15,0-0.272-0.122-0.272-0.272v-8.087
		c0-0.148,0.122-0.271,0.272-0.271h8.086c0.15,0,0.271,0.123,0.271,0.271V216.178z"/>
</g>
<g>
	<path fill="#FFFFFF" d="M141.518,216.178c0,0.15-0.123,0.272-0.272,0.272h-8.086c-0.15,0-0.272-0.122-0.272-0.272v-8.087
		c0-0.148,0.122-0.271,0.272-0.271h8.086c0.149,0,0.272,0.123,0.272,0.271V216.178z"/>
</g>
<g>
	<path fill="#FFFFFF" d="M154.896,216.178c0,0.15-0.123,0.272-0.271,0.272h-8.086c-0.15,0-0.273-0.122-0.273-0.272v-8.087
		c0-0.148,0.123-0.271,0.273-0.271h8.086c0.148,0,0.271,0.123,0.271,0.271V216.178z"/>
</g>
<g>
	<path fill="#FFFFFF" d="M168.273,216.178c0,0.15-0.123,0.272-0.271,0.272h-8.086c-0.15,0-0.271-0.122-0.271-0.272v-8.087
		c0-0.148,0.121-0.271,0.271-0.271h8.086c0.148,0,0.271,0.123,0.271,0.271V216.178z"/>
</g>
<g>
	<path fill="#FFFFFF" d="M21.115,229.621c0,0.149-0.123,0.272-0.272,0.272h-8.082c-0.15,0-0.272-0.123-0.272-0.272v-8.085
		c0-0.15,0.122-0.271,0.272-0.271h8.082c0.149,0,0.272,0.121,0.272,0.271V229.621z"/>
</g>
<g>
	<path fill="#FFFFFF" d="M34.493,229.621c0,0.149-0.122,0.272-0.272,0.272h-8.086c-0.15,0-0.272-0.123-0.272-0.272v-8.085
		c0-0.15,0.122-0.271,0.272-0.271h8.086c0.15,0,0.272,0.121,0.272,0.271V229.621z"/>
</g>
<g>
	<path fill="#FFFFFF" d="M47.871,229.621c0,0.149-0.122,0.272-0.272,0.272h-8.083c-0.15,0-0.272-0.123-0.272-0.272v-8.085
		c0-0.15,0.122-0.271,0.272-0.271h8.083c0.149,0,0.272,0.121,0.272,0.271V229.621L47.871,229.621z"/>
</g>
<g>
	<path fill="#FFFFFF" d="M61.251,229.621c0,0.149-0.123,0.272-0.272,0.272h-8.087c-0.149,0-0.272-0.123-0.272-0.272v-8.085
		c0-0.15,0.123-0.271,0.272-0.271h8.087c0.149,0,0.272,0.121,0.272,0.271V229.621z"/>
</g>
<g>
	<path fill="#FFFFFF" d="M74.628,229.621c0,0.149-0.122,0.272-0.272,0.272h-8.085c-0.15,0-0.273-0.123-0.273-0.272v-8.085
		c0-0.15,0.123-0.271,0.273-0.271h8.085c0.15,0,0.272,0.121,0.272,0.271V229.621z"/>
</g>
<g>
	<path fill="#FFFFFF" d="M88.007,229.621c0,0.149-0.123,0.272-0.272,0.272h-8.086c-0.15,0-0.273-0.123-0.273-0.272v-8.085
		c0-0.15,0.123-0.271,0.273-0.271h8.086c0.149,0,0.272,0.121,0.272,0.271V229.621z"/>
</g>
<g>
	<path fill="#FFFFFF" d="M101.384,229.621c0,0.149-0.122,0.272-0.272,0.272h-8.084c-0.148,0-0.271-0.123-0.271-0.272v-8.085
		c0-0.15,0.123-0.271,0.271-0.271h8.084c0.15,0,0.272,0.121,0.272,0.271V229.621z"/>
</g>
<g>
	<path fill="#FFFFFF" d="M114.762,229.621c0,0.149-0.121,0.272-0.271,0.272h-8.086c-0.15,0-0.272-0.123-0.272-0.272v-8.085
		c0-0.15,0.122-0.271,0.272-0.271h8.086c0.15,0,0.271,0.121,0.271,0.271V229.621z"/>
</g>
<g>
	<path fill="#FFFFFF" d="M141.518,229.621c0,0.149-0.123,0.272-0.272,0.272h-8.086c-0.15,0-0.272-0.123-0.272-0.272v-8.085
		c0-0.15,0.122-0.271,0.272-0.271h8.086c0.149,0,0.272,0.121,0.272,0.271V229.621z"/>
</g>
<g>
	<path fill="#FFFFFF" d="M154.896,229.621c0,0.149-0.123,0.272-0.271,0.272h-8.086c-0.15,0-0.273-0.123-0.273-0.272v-8.085
		c0-0.15,0.123-0.271,0.273-0.271h8.086c0.148,0,0.271,0.121,0.271,0.271V229.621z"/>
</g>
<g>
	<path fill="#FFFFFF" d="M168.273,229.621c0,0.149-0.123,0.272-0.271,0.272h-8.086c-0.15,0-0.271-0.123-0.271-0.272v-8.085
		c0-0.15,0.121-0.271,0.271-0.271h8.086c0.148,0,0.271,0.121,0.271,0.271V229.621z"/>
</g>
<g>
	<path fill="#FFFFFF" d="M21.115,243.066c0,0.149-0.123,0.271-0.272,0.271h-8.082c-0.15,0-0.272-0.122-0.272-0.271v-8.086
		c0-0.149,0.122-0.272,0.272-0.272h8.082c0.149,0,0.272,0.123,0.272,0.272V243.066z"/>
</g>
<g>
	<path fill="#FFFFFF" d="M34.493,243.066c0,0.149-0.122,0.271-0.272,0.271h-8.086c-0.15,0-0.272-0.122-0.272-0.271v-8.086
		c0-0.149,0.122-0.272,0.272-0.272h8.086c0.15,0,0.272,0.123,0.272,0.272V243.066z"/>
</g>
<g>
	<path fill="#FFFFFF" d="M47.871,243.066c0,0.149-0.122,0.271-0.272,0.271h-8.083c-0.15,0-0.272-0.122-0.272-0.271v-8.086
		c0-0.149,0.122-0.272,0.272-0.272h8.083c0.149,0,0.272,0.123,0.272,0.272V243.066L47.871,243.066z"/>
</g>
<g>
	<path fill="#FFFFFF" d="M61.251,243.066c0,0.149-0.123,0.271-0.272,0.271h-8.087c-0.149,0-0.272-0.122-0.272-0.271v-8.086
		c0-0.149,0.123-0.272,0.272-0.272h8.087c0.149,0,0.272,0.123,0.272,0.272V243.066z"/>
</g>
<g>
	<path fill="#FFFFFF" d="M74.628,243.066c0,0.149-0.122,0.271-0.272,0.271h-8.085c-0.15,0-0.273-0.122-0.273-0.271v-8.086
		c0-0.149,0.123-0.272,0.273-0.272h8.085c0.15,0,0.272,0.123,0.272,0.272V243.066z"/>
</g>
<g>
	<path fill="#FFFFFF" d="M88.007,243.066c0,0.149-0.123,0.271-0.272,0.271h-8.086c-0.15,0-0.273-0.122-0.273-0.271v-8.086
		c0-0.149,0.123-0.272,0.273-0.272h8.086c0.149,0,0.272,0.123,0.272,0.272V243.066z"/>
</g>
<g>
	<path fill="#FFFFFF" d="M101.384,243.066c0,0.149-0.122,0.271-0.272,0.271h-8.084c-0.148,0-0.271-0.122-0.271-0.271v-8.086
		c0-0.149,0.123-0.272,0.271-0.272h8.084c0.15,0,0.272,0.123,0.272,0.272V243.066z"/>
</g>
<g>
	<path fill="#FFFFFF" d="M114.762,243.066c0,0.149-0.121,0.271-0.271,0.271h-8.086c-0.15,0-0.272-0.122-0.272-0.271v-8.086
		c0-0.149,0.122-0.272,0.272-0.272h8.086c0.15,0,0.271,0.123,0.271,0.272V243.066z"/>
</g>
<g>
	<path fill="#FFFFFF" d="M141.518,243.066c0,0.149-0.123,0.271-0.272,0.271h-8.086c-0.15,0-0.272-0.122-0.272-0.271v-8.086
		c0-0.149,0.122-0.272,0.272-0.272h8.086c0.149,0,0.272,0.123,0.272,0.272V243.066z"/>
</g>
<g>
	<path fill="#FFFFFF" d="M154.896,243.066c0,0.149-0.123,0.271-0.271,0.271h-8.086c-0.15,0-0.273-0.122-0.273-0.271v-8.086
		c0-0.149,0.123-0.272,0.273-0.272h8.086c0.148,0,0.271,0.123,0.271,0.272V243.066z"/>
</g>
<g>
	<path fill="#FFFFFF" d="M168.273,243.066c0,0.149-0.123,0.271-0.271,0.271h-8.086c-0.15,0-0.271-0.122-0.271-0.271v-8.086
		c0-0.149,0.121-0.272,0.271-0.272h8.086c0.148,0,0.271,0.123,0.271,0.272V243.066z"/>
</g>
<g>
	<path fill="#FFFFFF" d="M21.115,256.51c0,0.149-0.123,0.272-0.272,0.272h-8.082c-0.15,0-0.272-0.123-0.272-0.272v-8.085
		c0-0.149,0.122-0.271,0.272-0.271h8.082c0.149,0,0.272,0.122,0.272,0.271V256.51z"/>
</g>
<g>
	<path fill="#FFFFFF" d="M34.493,256.51c0,0.149-0.122,0.272-0.272,0.272h-8.086c-0.15,0-0.272-0.123-0.272-0.272v-8.085
		c0-0.149,0.122-0.271,0.272-0.271h8.086c0.15,0,0.272,0.122,0.272,0.271V256.51z"/>
</g>
<g>
	<path fill="#FFFFFF" d="M101.384,256.51c0,0.149-0.122,0.272-0.272,0.272h-8.084c-0.148,0-0.271-0.123-0.271-0.272v-8.085
		c0-0.149,0.123-0.271,0.271-0.271h8.084c0.15,0,0.272,0.122,0.272,0.271V256.51z"/>
</g>
<g>
	<path fill="#FFFFFF" d="M114.762,256.51c0,0.149-0.121,0.272-0.271,0.272h-8.086c-0.15,0-0.272-0.123-0.272-0.272v-8.085
		c0-0.149,0.122-0.271,0.272-0.271h8.086c0.15,0,0.271,0.122,0.271,0.271V256.51z"/>
</g>
<g>
	<path fill="#FFFFFF" d="M141.518,256.51c0,0.149-0.123,0.272-0.272,0.272h-8.086c-0.15,0-0.272-0.123-0.272-0.272v-8.085
		c0-0.149,0.122-0.271,0.272-0.271h8.086c0.149,0,0.272,0.122,0.272,0.271V256.51z"/>
</g>
<g>
	<path fill="#FFFFFF" d="M154.896,256.51c0,0.149-0.123,0.272-0.271,0.272h-8.086c-0.15,0-0.273-0.123-0.273-0.272v-8.085
		c0-0.149,0.123-0.271,0.273-0.271h8.086c0.148,0,0.271,0.122,0.271,0.271V256.51z"/>
</g>
<g>
	<path fill="#FFFFFF" d="M168.273,256.51c0,0.149-0.123,0.272-0.271,0.272h-8.086c-0.15,0-0.271-0.123-0.271-0.272v-8.085
		c0-0.149,0.121-0.271,0.271-0.271h8.086c0.148,0,0.271,0.122,0.271,0.271V256.51z"/>
</g>
<g>
	<path fill="#FFFFFF" d="M88.007,256.51c0,0.149-0.123,0.272-0.272,0.272H39.516c-0.149,0-0.272-0.123-0.272-0.272v-8.085
		c0-0.149,0.123-0.271,0.272-0.271h48.219c0.149,0,0.272,0.122,0.272,0.271V256.51z"/>
</g>
<rect x="66.204" y="14.588" fill="#BEC6C3" width="4.89" height="27.803"/>
<rect x="45.427" y="14.588" fill="#BEC6C3" width="4.889" height="27.803"/>
<rect x="24.651" y="14.588" fill="#BEC6C3" width="4.888" height="27.803"/>
<circle fill="#FF5000" cx="68.647" cy="8.25" r="8.25"/>
<circle fill="#FF5000" cx="47.871" cy="8.25" r="8.25"/>
<rect y="41.094" fill="#0069A6" width="180" height="156.408"/>
<g>
	<path fill="#004E59" d="M163.959,171.464c0,4.252-3.479,7.73-7.73,7.73H23.773c-4.252,0-7.731-3.479-7.731-7.73V69.656
		c0-4.252,3.479-7.731,7.731-7.731h132.456c4.252,0,7.729,3.479,7.729,7.731L163.959,171.464L163.959,171.464z"/>
</g>
<g>
	<path fill="#004E59" d="M163.959,171.464c0,4.252-3.479,7.73-7.73,7.73H23.773c-4.252,0-7.731-3.479-7.731-7.73V69.656
		c0-4.252,3.479-7.731,7.731-7.731h132.456c4.252,0,7.729,3.479,7.729,7.731L163.959,171.464L163.959,171.464z"/>
</g>
<circle fill="#FF5000" cx="27.095" cy="8.251" r="8.249"/>
</svg>
