<?xml version="1.0" encoding="utf-8"?>
<!-- Generator: Adobe Illustrator 16.0.0, SVG Export Plug-In . SVG Version: 6.00 Build 0)  -->
<!DOCTYPE svg PUBLIC "-//W3C//DTD SVG 1.1//EN" "http://www.w3.org/Graphics/SVG/1.1/DTD/svg11.dtd">
<svg version="1.1" id="Layer_1" xmlns="http://www.w3.org/2000/svg" xmlns:xlink="http://www.w3.org/1999/xlink" x="0px" y="0px"
	 width="180px" height="350px" viewBox="0 0 180 350" enable-background="new 0 0 180 350" xml:space="preserve">
<rect y="283.218" fill="#BEC6C3" width="180" height="66.853"/>
<g>
	<path fill="#FFFFFF" d="M21.115,301.894c0,0.15-0.123,0.272-0.272,0.272h-8.082c-0.15,0-0.272-0.122-0.272-0.272v-8.087
		c0-0.149,0.122-0.272,0.272-0.272h8.082c0.149,0,0.272,0.123,0.272,0.272V301.894z"/>
</g>
<g>
	<path fill="#FFFFFF" d="M34.493,301.894c0,0.15-0.122,0.272-0.272,0.272h-8.086c-0.15,0-0.272-0.122-0.272-0.272v-8.087
		c0-0.149,0.122-0.272,0.272-0.272h8.086c0.15,0,0.272,0.123,0.272,0.272V301.894z"/>
</g>
<g>
	<path fill="#FFFFFF" d="M47.871,301.894c0,0.15-0.122,0.272-0.272,0.272h-8.083c-0.15,0-0.272-0.122-0.272-0.272v-8.087
		c0-0.149,0.122-0.272,0.272-0.272h8.083c0.149,0,0.272,0.123,0.272,0.272V301.894L47.871,301.894z"/>
</g>
<g>
	<path fill="#FFFFFF" d="M61.251,301.894c0,0.15-0.123,0.272-0.272,0.272h-8.087c-0.149,0-0.272-0.122-0.272-0.272v-8.087
		c0-0.149,0.123-0.272,0.272-0.272h8.087c0.149,0,0.272,0.123,0.272,0.272V301.894z"/>
</g>
<g>
	<path fill="#FFFFFF" d="M74.628,301.894c0,0.15-0.122,0.272-0.272,0.272h-8.085c-0.15,0-0.273-0.122-0.273-0.272v-8.087
		c0-0.149,0.123-0.272,0.273-0.272h8.085c0.15,0,0.272,0.123,0.272,0.272V301.894z"/>
</g>
<g>
	<path fill="#FFFFFF" d="M88.007,301.894c0,0.15-0.123,0.272-0.272,0.272h-8.086c-0.15,0-0.273-0.122-0.273-0.272v-8.087
		c0-0.149,0.123-0.272,0.273-0.272h8.086c0.149,0,0.272,0.123,0.272,0.272V301.894z"/>
</g>
<g>
	<path fill="#FFFFFF" d="M101.384,301.894c0,0.15-0.122,0.272-0.272,0.272h-8.084c-0.149,0-0.272-0.122-0.272-0.272v-8.087
		c0-0.149,0.123-0.272,0.272-0.272h8.084c0.15,0,0.272,0.123,0.272,0.272V301.894z"/>
</g>
<g>
	<path fill="#FFFFFF" d="M114.762,301.894c0,0.15-0.122,0.272-0.272,0.272h-8.086c-0.15,0-0.272-0.122-0.272-0.272v-8.087
		c0-0.149,0.122-0.272,0.272-0.272h8.086c0.15,0,0.272,0.123,0.272,0.272V301.894z"/>
</g>
<g>
	<path fill="#FFFFFF" d="M141.517,301.894c0,0.15-0.122,0.272-0.272,0.272h-8.086c-0.15,0-0.272-0.122-0.272-0.272v-8.087
		c0-0.149,0.122-0.272,0.272-0.272h8.086c0.15,0,0.272,0.123,0.272,0.272V301.894z"/>
</g>
<g>
	<path fill="#FFFFFF" d="M154.897,301.894c0,0.15-0.123,0.272-0.272,0.272h-8.086c-0.15,0-0.273-0.122-0.273-0.272v-8.087
		c0-0.149,0.123-0.272,0.273-0.272h8.086c0.149,0,0.272,0.123,0.272,0.272V301.894z"/>
</g>
<g>
	<path fill="#FFFFFF" d="M168.274,301.894c0,0.15-0.123,0.272-0.272,0.272h-8.086c-0.15,0-0.272-0.122-0.272-0.272v-8.087
		c0-0.149,0.122-0.272,0.272-0.272h8.086c0.149,0,0.272,0.123,0.272,0.272V301.894z"/>
</g>
<g>
	<path fill="#FFFFFF" d="M21.115,315.337c0,0.149-0.123,0.272-0.272,0.272h-8.082c-0.15,0-0.272-0.123-0.272-0.272v-8.085
		c0-0.15,0.122-0.272,0.272-0.272h8.082c0.149,0,0.272,0.122,0.272,0.272V315.337z"/>
</g>
<g>
	<path fill="#FFFFFF" d="M34.493,315.337c0,0.149-0.122,0.272-0.272,0.272h-8.086c-0.15,0-0.272-0.123-0.272-0.272v-8.085
		c0-0.15,0.122-0.272,0.272-0.272h8.086c0.15,0,0.272,0.122,0.272,0.272V315.337z"/>
</g>
<g>
	<path fill="#FFFFFF" d="M47.871,315.337c0,0.149-0.122,0.272-0.272,0.272h-8.083c-0.15,0-0.272-0.123-0.272-0.272v-8.085
		c0-0.15,0.122-0.272,0.272-0.272h8.083c0.149,0,0.272,0.122,0.272,0.272V315.337L47.871,315.337z"/>
</g>
<g>
	<path fill="#FFFFFF" d="M61.251,315.337c0,0.149-0.123,0.272-0.272,0.272h-8.087c-0.149,0-0.272-0.123-0.272-0.272v-8.085
		c0-0.15,0.123-0.272,0.272-0.272h8.087c0.149,0,0.272,0.122,0.272,0.272V315.337z"/>
</g>
<g>
	<path fill="#FFFFFF" d="M74.628,315.337c0,0.149-0.122,0.272-0.272,0.272h-8.085c-0.15,0-0.273-0.123-0.273-0.272v-8.085
		c0-0.15,0.123-0.272,0.273-0.272h8.085c0.15,0,0.272,0.122,0.272,0.272V315.337z"/>
</g>
<g>
	<path fill="#FFFFFF" d="M88.007,315.337c0,0.149-0.123,0.272-0.272,0.272h-8.086c-0.15,0-0.273-0.123-0.273-0.272v-8.085
		c0-0.15,0.123-0.272,0.273-0.272h8.086c0.149,0,0.272,0.122,0.272,0.272V315.337z"/>
</g>
<g>
	<path fill="#FFFFFF" d="M101.384,315.337c0,0.149-0.122,0.272-0.272,0.272h-8.084c-0.149,0-0.272-0.123-0.272-0.272v-8.085
		c0-0.15,0.123-0.272,0.272-0.272h8.084c0.15,0,0.272,0.122,0.272,0.272V315.337z"/>
</g>
<g>
	<path fill="#FFFFFF" d="M114.762,315.337c0,0.149-0.122,0.272-0.272,0.272h-8.086c-0.15,0-0.272-0.123-0.272-0.272v-8.085
		c0-0.15,0.122-0.272,0.272-0.272h8.086c0.15,0,0.272,0.122,0.272,0.272V315.337z"/>
</g>
<g>
	<path fill="#FFFFFF" d="M141.517,315.337c0,0.149-0.122,0.272-0.272,0.272h-8.086c-0.15,0-0.272-0.123-0.272-0.272v-8.085
		c0-0.15,0.122-0.272,0.272-0.272h8.086c0.15,0,0.272,0.122,0.272,0.272V315.337z"/>
</g>
<g>
	<path fill="#FFFFFF" d="M154.897,315.337c0,0.149-0.123,0.272-0.272,0.272h-8.086c-0.15,0-0.273-0.123-0.273-0.272v-8.085
		c0-0.15,0.123-0.272,0.273-0.272h8.086c0.149,0,0.272,0.122,0.272,0.272V315.337z"/>
</g>
<g>
	<path fill="#FFFFFF" d="M168.274,315.337c0,0.149-0.123,0.272-0.272,0.272h-8.086c-0.15,0-0.272-0.123-0.272-0.272v-8.085
		c0-0.15,0.122-0.272,0.272-0.272h8.086c0.149,0,0.272,0.122,0.272,0.272V315.337z"/>
</g>
<g>
	<path fill="#FFFFFF" d="M21.115,328.782c0,0.15-0.123,0.272-0.272,0.272h-8.082c-0.15,0-0.272-0.122-0.272-0.272v-8.086
		c0-0.149,0.122-0.272,0.272-0.272h8.082c0.149,0,0.272,0.123,0.272,0.272V328.782z"/>
</g>
<g>
	<path fill="#FFFFFF" d="M34.493,328.782c0,0.15-0.122,0.272-0.272,0.272h-8.086c-0.15,0-0.272-0.122-0.272-0.272v-8.086
		c0-0.149,0.122-0.272,0.272-0.272h8.086c0.15,0,0.272,0.123,0.272,0.272V328.782z"/>
</g>
<g>
	<path fill="#FFFFFF" d="M47.871,328.782c0,0.15-0.122,0.272-0.272,0.272h-8.083c-0.15,0-0.272-0.122-0.272-0.272v-8.086
		c0-0.149,0.122-0.272,0.272-0.272h8.083c0.149,0,0.272,0.123,0.272,0.272V328.782L47.871,328.782z"/>
</g>
<g>
	<path fill="#FFFFFF" d="M61.251,328.782c0,0.15-0.123,0.272-0.272,0.272h-8.087c-0.149,0-0.272-0.122-0.272-0.272v-8.086
		c0-0.149,0.123-0.272,0.272-0.272h8.087c0.149,0,0.272,0.123,0.272,0.272V328.782z"/>
</g>
<g>
	<path fill="#FFFFFF" d="M74.628,328.782c0,0.15-0.122,0.272-0.272,0.272h-8.085c-0.15,0-0.273-0.122-0.273-0.272v-8.086
		c0-0.149,0.123-0.272,0.273-0.272h8.085c0.15,0,0.272,0.123,0.272,0.272V328.782z"/>
</g>
<g>
	<path fill="#FFFFFF" d="M88.007,328.782c0,0.15-0.123,0.272-0.272,0.272h-8.086c-0.15,0-0.273-0.122-0.273-0.272v-8.086
		c0-0.149,0.123-0.272,0.273-0.272h8.086c0.149,0,0.272,0.123,0.272,0.272V328.782z"/>
</g>
<g>
	<path fill="#FFFFFF" d="M101.384,328.782c0,0.15-0.122,0.272-0.272,0.272h-8.084c-0.149,0-0.272-0.122-0.272-0.272v-8.086
		c0-0.149,0.123-0.272,0.272-0.272h8.084c0.15,0,0.272,0.123,0.272,0.272V328.782z"/>
</g>
<g>
	<path fill="#FFFFFF" d="M114.762,328.782c0,0.15-0.122,0.272-0.272,0.272h-8.086c-0.15,0-0.272-0.122-0.272-0.272v-8.086
		c0-0.149,0.122-0.272,0.272-0.272h8.086c0.15,0,0.272,0.123,0.272,0.272V328.782z"/>
</g>
<g>
	<path fill="#FFFFFF" d="M141.517,328.782c0,0.15-0.122,0.272-0.272,0.272h-8.086c-0.15,0-0.272-0.122-0.272-0.272v-8.086
		c0-0.149,0.122-0.272,0.272-0.272h8.086c0.15,0,0.272,0.123,0.272,0.272V328.782z"/>
</g>
<g>
	<path fill="#FFFFFF" d="M154.897,328.782c0,0.15-0.123,0.272-0.272,0.272h-8.086c-0.15,0-0.273-0.122-0.273-0.272v-8.086
		c0-0.149,0.123-0.272,0.273-0.272h8.086c0.149,0,0.272,0.123,0.272,0.272V328.782z"/>
</g>
<g>
	<path fill="#FFFFFF" d="M168.274,328.782c0,0.15-0.123,0.272-0.272,0.272h-8.086c-0.15,0-0.272-0.122-0.272-0.272v-8.086
		c0-0.149,0.122-0.272,0.272-0.272h8.086c0.149,0,0.272,0.123,0.272,0.272V328.782z"/>
</g>
<g>
	<path fill="#FFFFFF" d="M21.115,342.226c0,0.149-0.123,0.272-0.272,0.272h-8.082c-0.15,0-0.272-0.123-0.272-0.272v-8.085
		c0-0.15,0.122-0.272,0.272-0.272h8.082c0.149,0,0.272,0.122,0.272,0.272V342.226z"/>
</g>
<g>
	<path fill="#FFFFFF" d="M34.493,342.226c0,0.149-0.122,0.272-0.272,0.272h-8.086c-0.15,0-0.272-0.123-0.272-0.272v-8.085
		c0-0.15,0.122-0.272,0.272-0.272h8.086c0.15,0,0.272,0.122,0.272,0.272V342.226z"/>
</g>
<g>
	<path fill="#FFFFFF" d="M101.384,342.226c0,0.149-0.122,0.272-0.272,0.272h-8.084c-0.149,0-0.272-0.123-0.272-0.272v-8.085
		c0-0.15,0.123-0.272,0.272-0.272h8.084c0.15,0,0.272,0.122,0.272,0.272V342.226z"/>
</g>
<g>
	<path fill="#FFFFFF" d="M114.762,342.226c0,0.149-0.122,0.272-0.272,0.272h-8.086c-0.15,0-0.272-0.123-0.272-0.272v-8.085
		c0-0.15,0.122-0.272,0.272-0.272h8.086c0.15,0,0.272,0.122,0.272,0.272V342.226z"/>
</g>
<g>
	<path fill="#FFFFFF" d="M141.517,342.226c0,0.149-0.122,0.272-0.272,0.272h-8.086c-0.15,0-0.272-0.123-0.272-0.272v-8.085
		c0-0.15,0.122-0.272,0.272-0.272h8.086c0.15,0,0.272,0.122,0.272,0.272V342.226z"/>
</g>
<g>
	<path fill="#FFFFFF" d="M154.897,342.226c0,0.149-0.123,0.272-0.272,0.272h-8.086c-0.15,0-0.273-0.123-0.273-0.272v-8.085
		c0-0.15,0.123-0.272,0.273-0.272h8.086c0.149,0,0.272,0.122,0.272,0.272V342.226z"/>
</g>
<g>
	<path fill="#FFFFFF" d="M168.274,342.226c0,0.149-0.123,0.272-0.272,0.272h-8.086c-0.15,0-0.272-0.123-0.272-0.272v-8.085
		c0-0.15,0.122-0.272,0.272-0.272h8.086c0.149,0,0.272,0.122,0.272,0.272V342.226z"/>
</g>
<g>
	<path fill="#FFFFFF" d="M88.007,342.226c0,0.149-0.123,0.272-0.272,0.272H39.516c-0.149,0-0.272-0.123-0.272-0.272v-8.085
		c0-0.15,0.123-0.272,0.272-0.272h48.219c0.149,0,0.272,0.122,0.272,0.272V342.226z"/>
</g>
<rect x="66.204" y="100.304" fill="#BEC6C3" width="4.89" height="27.803"/>
<rect x="45.427" y="100.304" fill="#BEC6C3" width="4.889" height="27.803"/>
<rect x="24.651" y="100.304" fill="#BEC6C3" width="4.888" height="27.803"/>
<circle fill="#FF5000" cx="68.647" cy="93.966" r="8.25"/>
<circle fill="#FF5000" cx="47.871" cy="93.966" r="8.25"/>
<rect y="126.81" fill="#0069A6" width="180" height="156.408"/>
<g>
	<path fill="#004E59" d="M163.959,257.179c0,4.252-3.479,7.731-7.73,7.731H23.773c-4.252,0-7.731-3.479-7.731-7.731V155.372
		c0-4.252,3.479-7.731,7.731-7.731h132.455c4.252,0,7.73,3.479,7.73,7.731V257.179z"/>
</g>
<g>
	<path fill="#004E59" d="M163.959,257.179c0,4.252-3.479,7.731-7.73,7.731H23.773c-4.252,0-7.731-3.479-7.731-7.731V155.372
		c0-4.252,3.479-7.731,7.731-7.731h132.455c4.252,0,7.73,3.479,7.73,7.731V257.179z"/>
</g>
<circle fill="#FF5000" cx="27.095" cy="93.967" r="8.249"/>
</svg>
