<?xml version="1.0" encoding="utf-8"?>
<!-- Generator: Adobe Illustrator 16.2.1, SVG Export Plug-In . SVG Version: 6.00 Build 0)  -->
<!DOCTYPE svg PUBLIC "-//W3C//DTD SVG 1.1//EN" "http://www.w3.org/Graphics/SVG/1.1/DTD/svg11.dtd">
<svg version="1.1" id="Layer_1" xmlns="http://www.w3.org/2000/svg" xmlns:xlink="http://www.w3.org/1999/xlink" x="0px" y="0px"
	 width="180px" height="254.728px" viewBox="0 0 180 254.728" enable-background="new 0 0 180 254.728" xml:space="preserve">
<rect fill="#929288" width="180" height="254.728"/>
<path fill="#164E5B" d="M41.933,81.667c0-26.546,21.522-48.063,48.065-48.063s48.066,21.518,48.066,48.063
	s-21.523,48.064-48.066,48.064C63.456,129.731,41.933,108.214,41.933,81.667z"/>
<path fill="#FF5000" d="M82.943,81.666c0-3.896,3.151-7.057,7.053-7.057s7.061,3.161,7.061,7.057c0,3.896-3.158,7.058-7.061,7.058
	S82.943,85.56,82.943,81.666z"/>
<path fill="#004E59" d="M15.855,192.964c0-1.463,1.184-2.646,2.645-2.646s2.647,1.183,2.647,2.646s-1.188,2.646-2.647,2.646
	C17.039,195.61,15.855,194.425,15.855,192.964z"/>
<path fill="#004E59" d="M27.771,192.964c0-1.463,1.18-2.646,2.647-2.646c1.456,0,2.643,1.183,2.643,2.646s-1.187,2.646-2.643,2.646
	C28.951,195.61,27.771,194.425,27.771,192.964z"/>
<path fill="#004E59" d="M39.683,192.964c0-1.463,1.186-2.646,2.647-2.646c1.466,0,2.646,1.183,2.646,2.646s-1.181,2.646-2.646,2.646
	C40.869,195.61,39.683,194.425,39.683,192.964z"/>
<path fill="#004E59" d="M51.6,192.964c0-1.463,1.188-2.646,2.647-2.646c1.465,0,2.649,1.183,2.649,2.646s-1.186,2.646-2.649,2.646
	C52.786,195.61,51.6,194.425,51.6,192.964z"/>
<path fill="#004E59" d="M63.52,192.964c0-1.463,1.186-2.646,2.64-2.646c1.465,0,2.654,1.183,2.654,2.646s-1.189,2.646-2.654,2.646
	C64.706,195.61,63.52,194.425,63.52,192.964z"/>
<path fill="#004E59" d="M75.434,192.964c0-1.463,1.185-2.646,2.646-2.646s2.647,1.183,2.647,2.646s-1.187,2.646-2.647,2.646
	C76.619,195.61,75.434,194.425,75.434,192.964z"/>
<path fill="#004E59" d="M87.348,192.964c0-1.463,1.188-2.646,2.647-2.646c1.458,0,2.647,1.183,2.647,2.646s-1.188,2.646-2.647,2.646
	C88.535,195.61,87.348,194.425,87.348,192.964z"/>
<path fill="#004E59" d="M99.266,192.964c0-1.463,1.188-2.646,2.646-2.646c1.463,0,2.65,1.183,2.65,2.646s-1.189,2.646-2.65,2.646
	C100.453,195.61,99.266,194.425,99.266,192.964z"/>
<path fill="#004E59" d="M111.184,192.964c0-1.463,1.184-2.646,2.643-2.646c1.463,0,2.65,1.183,2.65,2.646s-1.188,2.646-2.65,2.646
	C112.367,195.61,111.184,194.425,111.184,192.964z"/>
<path fill="#004E59" d="M123.102,192.964c0-1.463,1.182-2.646,2.646-2.646c1.457,0,2.645,1.183,2.645,2.646
	s-1.188,2.646-2.645,2.646C124.283,195.61,123.102,194.425,123.102,192.964z"/>
<path fill="#004E59" d="M135.014,192.964c0-1.463,1.184-2.646,2.646-2.646c1.461,0,2.646,1.183,2.646,2.646
	s-1.188,2.646-2.646,2.646C136.197,195.61,135.014,194.425,135.014,192.964z"/>
<path fill="#004E59" d="M146.93,192.964c0-1.463,1.184-2.646,2.646-2.646c1.465,0,2.648,1.183,2.648,2.646s-1.186,2.646-2.648,2.646
	S146.93,194.425,146.93,192.964z"/>
<path fill="#004E59" d="M158.846,192.964c0-1.463,1.186-2.646,2.646-2.646c1.463,0,2.652,1.183,2.652,2.646
	s-1.189,2.646-2.652,2.646C160.031,195.61,158.846,194.425,158.846,192.964z"/>
<path fill="#004E59" d="M15.855,203.515c0-1.461,1.184-2.646,2.645-2.646s2.647,1.185,2.647,2.646c0,1.462-1.188,2.646-2.647,2.646
	C17.039,206.162,15.855,204.977,15.855,203.515z"/>
<path fill="#004E59" d="M27.771,203.515c0-1.461,1.18-2.646,2.647-2.646c1.456,0,2.643,1.185,2.643,2.646
	c0,1.462-1.187,2.646-2.643,2.646C28.951,206.162,27.771,204.977,27.771,203.515z"/>
<path fill="#004E59" d="M39.683,203.515c0-1.461,1.186-2.646,2.647-2.646c1.466,0,2.646,1.185,2.646,2.646
	c0,1.462-1.181,2.646-2.646,2.646C40.869,206.162,39.683,204.977,39.683,203.515z"/>
<path fill="#004E59" d="M51.6,203.515c0-1.461,1.188-2.646,2.647-2.646c1.465,0,2.649,1.185,2.649,2.646
	c0,1.462-1.186,2.646-2.649,2.646C52.786,206.162,51.6,204.977,51.6,203.515z"/>
<path fill="#004E59" d="M63.52,203.515c0-1.461,1.186-2.646,2.64-2.646c1.465,0,2.654,1.185,2.654,2.646
	c0,1.462-1.189,2.646-2.654,2.646C64.706,206.162,63.52,204.977,63.52,203.515z"/>
<circle fill="#004E59" cx="78.081" cy="203.514" r="2.646"/>
<path fill="#004E59" d="M87.348,203.515c0-1.461,1.188-2.646,2.647-2.646c1.458,0,2.647,1.185,2.647,2.646
	c0,1.462-1.188,2.646-2.647,2.646C88.535,206.161,87.348,204.977,87.348,203.515z"/>
<path fill="#004E59" d="M99.266,203.515c0-1.461,1.188-2.646,2.646-2.646c1.463,0,2.65,1.185,2.65,2.646
	c0,1.462-1.189,2.646-2.65,2.646C100.453,206.162,99.266,204.977,99.266,203.515z"/>
<path fill="#004E59" d="M111.184,203.515c0-1.461,1.184-2.646,2.643-2.646c1.463,0,2.65,1.185,2.65,2.646
	c0,1.462-1.188,2.646-2.65,2.646C112.367,206.162,111.184,204.977,111.184,203.515z"/>
<path fill="#004E59" d="M123.102,203.515c0-1.461,1.182-2.646,2.646-2.646c1.457,0,2.645,1.185,2.645,2.646
	c0,1.462-1.188,2.646-2.645,2.646C124.283,206.162,123.102,204.977,123.102,203.515z"/>
<path fill="#004E59" d="M135.014,203.515c0-1.461,1.184-2.646,2.646-2.646c1.461,0,2.646,1.185,2.646,2.646
	c0,1.462-1.188,2.646-2.646,2.646C136.197,206.162,135.014,204.977,135.014,203.515z"/>
<path fill="#004E59" d="M146.93,203.515c0-1.461,1.184-2.646,2.646-2.646c1.465,0,2.648,1.185,2.648,2.646
	c0,1.462-1.186,2.646-2.648,2.646C148.113,206.162,146.93,204.977,146.93,203.515z"/>
<path fill="#004E59" d="M158.846,203.515c0-1.461,1.186-2.646,2.646-2.646c1.463,0,2.652,1.185,2.652,2.646
	c0,1.462-1.189,2.646-2.652,2.646C160.031,206.162,158.846,204.977,158.846,203.515z"/>
<path fill="#004E59" d="M15.855,214.066c0-1.463,1.184-2.646,2.645-2.646s2.647,1.183,2.647,2.646c0,1.464-1.188,2.646-2.647,2.646
	C17.039,216.714,15.855,215.53,15.855,214.066z"/>
<path fill="#004E59" d="M27.771,214.066c0-1.463,1.18-2.646,2.647-2.646c1.456,0,2.643,1.183,2.643,2.646
	c0,1.464-1.187,2.646-2.643,2.646C28.951,216.714,27.771,215.53,27.771,214.066z"/>
<path fill="#004E59" d="M39.683,214.066c0-1.463,1.186-2.646,2.647-2.646c1.466,0,2.646,1.183,2.646,2.646
	c0,1.464-1.181,2.646-2.646,2.646C40.869,216.714,39.683,215.53,39.683,214.066z"/>
<path fill="#004E59" d="M51.6,214.066c0-1.463,1.188-2.646,2.647-2.646c1.465,0,2.649,1.183,2.649,2.646
	c0,1.464-1.186,2.646-2.649,2.646C52.786,216.714,51.6,215.53,51.6,214.066z"/>
<path fill="#004E59" d="M63.52,214.066c0-1.463,1.186-2.646,2.64-2.646c1.465,0,2.654,1.183,2.654,2.646
	c0,1.464-1.189,2.646-2.654,2.646C64.706,216.714,63.52,215.53,63.52,214.066z"/>
<path fill="#004E59" d="M75.434,214.066c0-1.463,1.185-2.646,2.646-2.646s2.647,1.183,2.647,2.646c0,1.464-1.187,2.646-2.647,2.646
	C76.619,216.714,75.434,215.53,75.434,214.066z"/>
<path fill="#004E59" d="M87.348,214.066c0-1.463,1.188-2.646,2.647-2.646c1.458,0,2.647,1.183,2.647,2.646
	c0,1.464-1.188,2.646-2.647,2.646C88.535,216.713,87.348,215.53,87.348,214.066z"/>
<path fill="#004E59" d="M99.266,214.066c0-1.463,1.188-2.646,2.646-2.646c1.463,0,2.65,1.183,2.65,2.646
	c0,1.464-1.189,2.646-2.65,2.646C100.453,216.714,99.266,215.53,99.266,214.066z"/>
<path fill="#004E59" d="M111.184,214.066c0-1.463,1.184-2.646,2.643-2.646c1.463,0,2.65,1.183,2.65,2.646
	c0,1.464-1.188,2.646-2.65,2.646C112.367,216.714,111.184,215.53,111.184,214.066z"/>
<path fill="#004E59" d="M123.102,214.066c0-1.463,1.182-2.646,2.646-2.646c1.457,0,2.645,1.183,2.645,2.646
	c0,1.464-1.188,2.646-2.645,2.646C124.283,216.714,123.102,215.53,123.102,214.066z"/>
<path fill="#004E59" d="M135.014,214.066c0-1.463,1.184-2.646,2.646-2.646c1.461,0,2.646,1.183,2.646,2.646
	c0,1.464-1.188,2.646-2.646,2.646C136.197,216.714,135.014,215.53,135.014,214.066z"/>
<path fill="#004E59" d="M146.93,214.066c0-1.463,1.184-2.646,2.646-2.646c1.465,0,2.648,1.183,2.648,2.646
	c0,1.464-1.186,2.646-2.648,2.646C148.113,216.714,146.93,215.53,146.93,214.066z"/>
<path fill="#004E59" d="M158.846,214.066c0-1.463,1.186-2.646,2.646-2.646c1.463,0,2.652,1.183,2.652,2.646
	c0,1.464-1.189,2.646-2.652,2.646C160.031,216.714,158.846,215.53,158.846,214.066z"/>
<path fill="#004E59" d="M15.855,224.619c0-1.462,1.184-2.646,2.645-2.646s2.647,1.184,2.647,2.646c0,1.463-1.188,2.648-2.647,2.648
	C17.039,227.268,15.855,226.082,15.855,224.619z"/>
<path fill="#004E59" d="M27.771,224.619c0-1.462,1.18-2.646,2.647-2.646c1.456,0,2.643,1.184,2.643,2.646
	c0,1.463-1.187,2.648-2.643,2.648C28.951,227.268,27.771,226.082,27.771,224.619z"/>
<path fill="#004E59" d="M39.683,224.619c0-1.462,1.186-2.646,2.647-2.646c1.466,0,2.646,1.184,2.646,2.646
	c0,1.463-1.181,2.648-2.646,2.648C40.869,227.268,39.683,226.082,39.683,224.619z"/>
<path fill="#004E59" d="M51.6,224.619c0-1.462,1.188-2.646,2.647-2.646c1.465,0,2.649,1.184,2.649,2.646
	c0,1.463-1.186,2.648-2.649,2.648C52.786,227.268,51.6,226.082,51.6,224.619z"/>
<path fill="#004E59" d="M63.52,224.619c0-1.462,1.186-2.646,2.64-2.646c1.465,0,2.654,1.184,2.654,2.646
	c0,1.463-1.189,2.648-2.654,2.648C64.706,227.268,63.52,226.082,63.52,224.619z"/>
<path fill="#004E59" d="M75.434,224.619c0-1.462,1.185-2.646,2.646-2.646s2.647,1.184,2.647,2.646c0,1.463-1.187,2.648-2.647,2.648
	C76.619,227.268,75.434,226.082,75.434,224.619z"/>
<path fill="#004E59" d="M87.348,224.619c0-1.462,1.188-2.646,2.647-2.646c1.458,0,2.647,1.184,2.647,2.646
	c0,1.463-1.188,2.648-2.647,2.648C88.535,227.268,87.348,226.082,87.348,224.619z"/>
<path fill="#004E59" d="M99.266,224.619c0-1.462,1.188-2.646,2.646-2.646c1.463,0,2.65,1.184,2.65,2.646
	c0,1.463-1.189,2.648-2.65,2.648C100.453,227.268,99.266,226.082,99.266,224.619z"/>
<path fill="#004E59" d="M111.184,224.619c0-1.462,1.184-2.646,2.643-2.646c1.463,0,2.65,1.184,2.65,2.646
	c0,1.463-1.188,2.648-2.65,2.648C112.367,227.268,111.184,226.082,111.184,224.619z"/>
<path fill="#004E59" d="M123.102,224.619c0-1.462,1.182-2.646,2.646-2.646c1.457,0,2.645,1.184,2.645,2.646
	c0,1.463-1.188,2.648-2.645,2.648C124.283,227.268,123.102,226.082,123.102,224.619z"/>
<path fill="#004E59" d="M135.014,224.619c0-1.462,1.184-2.646,2.646-2.646c1.461,0,2.646,1.184,2.646,2.646
	c0,1.463-1.188,2.648-2.646,2.648C136.197,227.268,135.014,226.082,135.014,224.619z"/>
<path fill="#004E59" d="M146.93,224.619c0-1.462,1.184-2.646,2.646-2.646c1.465,0,2.648,1.184,2.648,2.646
	c0,1.463-1.186,2.648-2.648,2.648S146.93,226.082,146.93,224.619z"/>
<path fill="#004E59" d="M158.846,224.619c0-1.462,1.186-2.646,2.646-2.646c1.463,0,2.652,1.184,2.652,2.646
	c0,1.463-1.189,2.648-2.652,2.648C160.031,227.268,158.846,226.082,158.846,224.619z"/>
<path fill="#004E59" d="M15.855,235.171c0-1.463,1.184-2.646,2.645-2.646s2.647,1.183,2.647,2.646s-1.188,2.646-2.647,2.646
	C17.039,237.818,15.855,236.634,15.855,235.171z"/>
<path fill="#004E59" d="M27.771,235.171c0-1.463,1.18-2.646,2.647-2.646c1.456,0,2.643,1.183,2.643,2.646s-1.187,2.646-2.643,2.646
	C28.951,237.818,27.771,236.634,27.771,235.171z"/>
<path fill="#004E59" d="M39.683,235.171c0-1.463,1.186-2.646,2.647-2.646c1.466,0,2.646,1.183,2.646,2.646s-1.181,2.646-2.646,2.646
	C40.869,237.818,39.683,236.634,39.683,235.171z"/>
<path fill="#004E59" d="M51.6,235.171c0-1.463,1.188-2.646,2.647-2.646c1.465,0,2.649,1.183,2.649,2.646s-1.186,2.646-2.649,2.646
	C52.786,237.818,51.6,236.634,51.6,235.171z"/>
<path fill="#004E59" d="M63.52,235.171c0-1.463,1.186-2.646,2.64-2.646c1.465,0,2.654,1.183,2.654,2.646s-1.189,2.646-2.654,2.646
	C64.706,237.818,63.52,236.634,63.52,235.171z"/>
<path fill="#004E59" d="M75.434,235.171c0-1.463,1.185-2.646,2.646-2.646s2.647,1.183,2.647,2.646s-1.187,2.646-2.647,2.646
	C76.619,237.818,75.434,236.634,75.434,235.171z"/>
<path fill="#004E59" d="M87.348,235.171c0-1.463,1.188-2.646,2.647-2.646c1.458,0,2.647,1.183,2.647,2.646s-1.188,2.646-2.647,2.646
	C88.535,237.817,87.348,236.634,87.348,235.171z"/>
<path fill="#004E59" d="M99.266,235.171c0-1.463,1.188-2.646,2.646-2.646c1.463,0,2.65,1.183,2.65,2.646s-1.189,2.646-2.65,2.646
	C100.453,237.818,99.266,236.634,99.266,235.171z"/>
<path fill="#004E59" d="M111.184,235.171c0-1.463,1.184-2.646,2.643-2.646c1.463,0,2.65,1.183,2.65,2.646s-1.188,2.646-2.65,2.646
	C112.367,237.818,111.184,236.634,111.184,235.171z"/>
<path fill="#004E59" d="M123.102,235.171c0-1.463,1.182-2.646,2.646-2.646c1.457,0,2.645,1.183,2.645,2.646
	s-1.188,2.646-2.645,2.646C124.283,237.818,123.102,236.634,123.102,235.171z"/>
<path fill="#004E59" d="M135.014,235.171c0-1.463,1.184-2.646,2.646-2.646c1.461,0,2.646,1.183,2.646,2.646
	s-1.188,2.646-2.646,2.646C136.197,237.818,135.014,236.634,135.014,235.171z"/>
<path fill="#004E59" d="M146.93,235.171c0-1.463,1.184-2.646,2.646-2.646c1.465,0,2.648,1.183,2.648,2.646s-1.186,2.646-2.648,2.646
	C148.113,237.818,146.93,236.634,146.93,235.171z"/>
<path fill="#004E59" d="M158.846,235.171c0-1.463,1.186-2.646,2.646-2.646c1.463,0,2.652,1.183,2.652,2.646
	s-1.189,2.646-2.652,2.646C160.031,237.818,158.846,236.634,158.846,235.171z"/>
<rect x="15.174" y="176.502" fill="#0069A6" width="149.648" height="2.855"/>
</svg>
