<?xml version="1.0" encoding="utf-8"?>
<!-- Generator: Adobe Illustrator 16.2.1, SVG Export Plug-In . SVG Version: 6.00 Build 0)  -->
<!DOCTYPE svg PUBLIC "-//W3C//DTD SVG 1.1//EN" "http://www.w3.org/Graphics/SVG/1.1/DTD/svg11.dtd">
<svg version="1.1" id="Layer_1" xmlns="http://www.w3.org/2000/svg" xmlns:xlink="http://www.w3.org/1999/xlink" x="0px" y="0px"
	 width="180px" height="196.03px" viewBox="0 0 180 196.03" enable-background="new 0 0 180 196.03" xml:space="preserve">
<g>
	<rect y="66.865" fill="#FF5000" width="9.953" height="78.06"/>
	<rect y="66.865" fill="#FF5000" width="175.544" height="9.958"/>
	<g>
		<rect x="10.128" fill="#BEC6C3" width="27.682" height="136.978"/>
		<line fill="none" stroke="#929288" stroke-miterlimit="10" x1="10.128" y1="131.785" x2="17.415" y2="131.785"/>
		<line fill="none" stroke="#929288" stroke-miterlimit="10" x1="10.128" y1="128.592" x2="13.772" y2="128.592"/>
		<line fill="none" stroke="#929288" stroke-miterlimit="10" x1="10.128" y1="125.397" x2="13.772" y2="125.397"/>
		<line fill="none" stroke="#929288" stroke-miterlimit="10" x1="10.128" y1="122.202" x2="13.772" y2="122.202"/>
		<line fill="none" stroke="#929288" stroke-miterlimit="10" x1="10.128" y1="119.007" x2="13.772" y2="119.007"/>
		<line fill="none" stroke="#929288" stroke-miterlimit="10" x1="10.128" y1="115.812" x2="17.415" y2="115.812"/>
		<line fill="none" stroke="#929288" stroke-miterlimit="10" x1="10.128" y1="112.617" x2="13.772" y2="112.617"/>
		<line fill="none" stroke="#929288" stroke-miterlimit="10" x1="10.128" y1="109.421" x2="13.772" y2="109.421"/>
		<line fill="none" stroke="#929288" stroke-miterlimit="10" x1="10.128" y1="106.227" x2="13.772" y2="106.227"/>
		<line fill="none" stroke="#929288" stroke-miterlimit="10" x1="10.128" y1="103.033" x2="13.772" y2="103.033"/>
		<line fill="none" stroke="#929288" stroke-miterlimit="10" x1="10.128" y1="99.838" x2="17.415" y2="99.838"/>
		<line fill="none" stroke="#929288" stroke-miterlimit="10" x1="10.128" y1="96.644" x2="13.772" y2="96.644"/>
		<line fill="none" stroke="#929288" stroke-miterlimit="10" x1="10.128" y1="93.448" x2="13.772" y2="93.448"/>
		<line fill="none" stroke="#929288" stroke-miterlimit="10" x1="10.128" y1="90.253" x2="13.772" y2="90.253"/>
		<line fill="none" stroke="#929288" stroke-miterlimit="10" x1="10.128" y1="87.058" x2="13.772" y2="87.058"/>
		<line fill="none" stroke="#929288" stroke-miterlimit="10" x1="10.128" y1="83.864" x2="17.415" y2="83.864"/>
		<line fill="none" stroke="#929288" stroke-miterlimit="10" x1="10.128" y1="80.669" x2="13.772" y2="80.669"/>
		<line fill="none" stroke="#929288" stroke-miterlimit="10" x1="10.128" y1="77.474" x2="13.772" y2="77.474"/>
		<line fill="none" stroke="#929288" stroke-miterlimit="10" x1="10.128" y1="74.28" x2="13.772" y2="74.28"/>
		<line fill="none" stroke="#929288" stroke-miterlimit="10" x1="10.128" y1="71.084" x2="13.772" y2="71.084"/>
		<line fill="none" stroke="#929288" stroke-miterlimit="10" x1="10.128" y1="67.889" x2="17.415" y2="67.889"/>
		<line fill="none" stroke="#929288" stroke-miterlimit="10" x1="10.128" y1="64.695" x2="13.772" y2="64.695"/>
		<line fill="none" stroke="#929288" stroke-miterlimit="10" x1="10.128" y1="61.5" x2="13.772" y2="61.5"/>
		<line fill="none" stroke="#929288" stroke-miterlimit="10" x1="10.128" y1="58.306" x2="13.772" y2="58.306"/>
		<line fill="none" stroke="#929288" stroke-miterlimit="10" x1="10.128" y1="55.11" x2="13.772" y2="55.11"/>
		<line fill="none" stroke="#929288" stroke-miterlimit="10" x1="10.128" y1="51.916" x2="17.415" y2="51.916"/>
		<line fill="none" stroke="#929288" stroke-miterlimit="10" x1="10.128" y1="48.72" x2="13.772" y2="48.72"/>
		<line fill="none" stroke="#929288" stroke-miterlimit="10" x1="10.128" y1="45.526" x2="13.772" y2="45.526"/>
		<line fill="none" stroke="#929288" stroke-miterlimit="10" x1="10.128" y1="42.331" x2="13.772" y2="42.331"/>
		<line fill="none" stroke="#929288" stroke-miterlimit="10" x1="10.128" y1="39.136" x2="13.772" y2="39.136"/>
		<line fill="none" stroke="#929288" stroke-miterlimit="10" x1="10.128" y1="35.942" x2="17.415" y2="35.942"/>
		<line fill="none" stroke="#929288" stroke-miterlimit="10" x1="10.128" y1="32.747" x2="13.772" y2="32.747"/>
		<line fill="none" stroke="#929288" stroke-miterlimit="10" x1="10.128" y1="29.552" x2="13.772" y2="29.552"/>
		<line fill="none" stroke="#929288" stroke-miterlimit="10" x1="10.128" y1="26.356" x2="13.772" y2="26.356"/>
		<line fill="none" stroke="#929288" stroke-miterlimit="10" x1="10.128" y1="23.162" x2="13.772" y2="23.162"/>
		<line fill="none" stroke="#929288" stroke-miterlimit="10" x1="10.128" y1="19.967" x2="17.415" y2="19.967"/>
		<line fill="none" stroke="#929288" stroke-miterlimit="10" x1="10.128" y1="16.773" x2="13.772" y2="16.773"/>
		<line fill="none" stroke="#929288" stroke-miterlimit="10" x1="10.128" y1="13.578" x2="13.772" y2="13.578"/>
		<line fill="none" stroke="#929288" stroke-miterlimit="10" x1="10.128" y1="10.383" x2="13.772" y2="10.383"/>
		<line fill="none" stroke="#929288" stroke-miterlimit="10" x1="10.128" y1="7.188" x2="13.772" y2="7.188"/>
		<line fill="none" stroke="#929288" stroke-miterlimit="10" x1="10.128" y1="3.993" x2="17.415" y2="3.993"/>
	</g>
	<rect x="170.047" y="66.865" fill="#FF5000" width="9.953" height="78.06"/>
	<rect x="37.38" y="147.711" fill="#1CCFC9" width="21.339" height="11.516"/>
	<circle fill="#FFFBF2" cx="31.454" cy="6.52" r="2.353"/>
	<rect x="34.356" y="99.713" fill="#EA7200" width="5.16" height="68.157"/>
	<polygon fill="#FFB700" points="49.837,99.713 34.356,99.713 42.097,88.992 	"/>
	<rect x="39.517" y="99.713" fill="#004E59" width="5.16" height="68.157"/>
	<rect x="44.677" y="99.713" fill="#EA7200" width="5.16" height="68.157"/>
	<polygon fill="#004E59" points="43.457,90.875 42.097,88.992 40.736,90.875 	"/>
	<g>
		<rect x="49.837" y="100.331" fill="#0069A6" width="10.875" height="55.628"/>
		<rect x="57.546" y="79.742" fill="#BEC6C3" width="5.59" height="4.342"/>
		<rect x="49.837" y="104.099" fill="#BEC6C3" width="10.875" height="2.937"/>
		<rect x="49.837" y="78.821" fill="#004E59" width="10.875" height="25.917"/>
		<rect x="62.089" y="78.821" fill="#004E59" width="2.094" height="25.917"/>
		<rect x="49.837" y="78.821" fill="#0069A6" width="10.875" height="6.182"/>
	</g>
	<polygon fill="#BEC6C3" points="77.703,126.06 65.958,126.06 68.166,19.155 75.494,19.155 	"/>
	<polygon fill="#FFB700" points="79.229,139.554 64.432,139.554 65.512,84.443 78.148,84.443 	"/>
	<path fill="#929288" d="M92.329,4.814c-1.947,2.602-5.043,4.293-8.542,4.293c-3.5,0-6.597-1.691-8.542-4.293h-0.167V4.63
		c0,0-6.072,0.001-10.979,0.001c-4.907,0-22.876,11.285-27.784,26.986h3.68c0,0,6.87-8.342,17.665-12.267
		c8.253-3.001,10.051,4.036,10.441,10.915h7.419c0.077-3.834,0.426-7.798,1.773-9.414C79.07,18.69,81.75,17.3,84.767,17.3
		c3.093,0,5.838,1.453,7.614,3.707h8.211V4.814H92.329z"/>
	<rect x="67.454" y="29.899" fill="#004E59" width="8.645" height="2.701"/>
	<rect x="81.939" y="76.091" fill="#929288" width="14.248" height="47.752"/>
	<path fill="#929288" d="M96.389,48.784v12.847l-7.609,5.708l-7.04-5.708V48.784c-5.032,2.641-8.466,7.913-8.466,13.989
		c0,8.721,7.07,15.791,15.791,15.791c8.72,0,15.791-7.069,15.791-15.791C104.855,56.696,101.42,51.424,96.389,48.784z"/>
	<g>
		<polygon fill="#BEC6C3" points="114.563,91.621 104.106,91.621 104.106,72.411 		"/>
		<rect x="103.731" y="90.553" fill="#0069A6" width="11.207" height="60.367"/>
		<rect x="103.731" y="97.835" fill="#004E59" width="11.207" height="0.949"/>
	</g>
	<rect x="138.711" y="92.869" fill="#FFB700" width="15.019" height="39.821"/>
	<rect x="138.711" y="94.586" fill="#0069A6" width="15.019" height="6.179"/>
	<g>
		<path fill="#FFB700" d="M166.134,90.291c0,2.551-2.088,4.638-4.639,4.638h-30.544c-2.552,0-4.639-2.087-4.639-4.638V59.747
			c0-2.552,2.087-4.639,4.639-4.639h30.544c2.55,0,4.639,2.087,4.639,4.639V90.291z"/>
	</g>
	<rect x="126.312" y="37.944" fill="#1CCFC9" width="39.822" height="24.717"/>
	<rect x="126.312" y="60.601" fill="#0069A6" width="39.822" height="8.926"/>
	<g>
		<rect x="116.5" y="91.057" fill="#00C4B3" width="9.19" height="45.752"/>
		<rect x="124.579" y="74.123" fill="#00C4B3" width="4.723" height="7.388"/>
		<rect x="126.926" y="96.085" fill="#00C4B3" width="1.691" height="2.478"/>
		<rect x="115.52" y="73.366" fill="#004E59" width="10.952" height="25.524"/>
		<rect x="128.613" y="73.39" fill="#004E59" width="1.574" height="25.5"/>
	</g>
	<rect y="117.709" fill="#FF5000" width="180" height="78.321"/>
</g>
<g>
	<g>
		<defs>
			<rect id="SVGID_1_" x="126.312" y="37.944" width="39.822" height="24.717"/>
		</defs>
		<clipPath id="SVGID_2_">
			<use xlink:href="#SVGID_1_"  overflow="visible"/>
		</clipPath>
		<g clip-path="url(#SVGID_2_)">
			<path fill="#FF5000" d="M166.273,31.577c0-0.851-0.696-1.546-1.547-1.546h-9.449c-0.851,0-1.546,0.695-1.546,1.546v2.491
				c0,0.851-0.696,1.546-1.547,1.546h-7.245c-0.85,0-1.545-0.695-1.545-1.546v-3.821c0-0.851-0.696-1.546-1.547-1.546h-6.23
				c-0.851,0-1.547,0.695-1.547,1.546v0.271c0,0.85-0.694,1.546-1.546,1.546h-5.853c-0.852,0-1.546,0.695-1.546,1.546v15.999
				c0,0.85,0.694,1.546,1.546,1.546h5.727c0.85,0,1.546-0.696,1.546-1.546v-2.286c0-0.85,0.696-1.546,1.547-1.546h1.5
				c0.85,0,1.546,0.696,1.546,1.546v5.837c0,0.851,0.695,1.546,1.547,1.546h13.48c0.852,0,1.547-0.695,1.547-1.546v-2.491
				c0-0.851,0.696-1.546,1.546-1.546h8.07c0.85,0,1.546-0.696,1.546-1.546V31.577L166.273,31.577z"/>
		</g>
	</g>
</g>
<g>
	<path fill="#FF5000" d="M137.348,64.232c0-1.714,2.433-6.752,2.433-6.752c0.371-0.765,0.975-0.765,1.346,0
		c0,0,2.432,5.038,2.432,6.752c0,1.715-1.391,3.105-3.104,3.105C138.74,67.337,137.348,65.947,137.348,64.232z"/>
</g>
<g>
	<path fill="#FF5000" d="M137.348,78.61c0-1.715,2.433-6.752,2.433-6.752c0.371-0.766,0.975-0.766,1.346,0
		c0,0,2.432,5.037,2.432,6.752s-1.391,3.105-3.104,3.105C138.74,81.715,137.348,80.325,137.348,78.61z"/>
</g>
</svg>
