<?xml version="1.0" encoding="utf-8"?>
<!-- Generator: Adobe Illustrator 16.2.1, SVG Export Plug-In . SVG Version: 6.00 Build 0)  -->
<!DOCTYPE svg PUBLIC "-//W3C//DTD SVG 1.1//EN" "http://www.w3.org/Graphics/SVG/1.1/DTD/svg11.dtd">
<svg version="1.1" id="Layer_1" xmlns="http://www.w3.org/2000/svg" xmlns:xlink="http://www.w3.org/1999/xlink" x="0px" y="0px"
	 width="180px" height="348.85px" viewBox="0 0 180 348.85" enable-background="new 0 0 180 348.85" xml:space="preserve">
<g>
	<path fill="#0069A6" d="M86.033,348.85"/>
	<path fill="#0069A6" d="M86.033,348.85"/>
	<g>
		<rect y="103.267" fill="#EA7200" width="180" height="245.583"/>
		<circle fill="#FFB700" cx="33.196" cy="272.65" r="18.459"/>
		<circle fill="#164E5B" cx="37.907" cy="267.938" r="2.416"/>
		<g>
			<circle fill="#164E5B" cx="18.504" cy="120.173" r="2.646"/>
			<path fill="#164E5B" d="M27.774,120.173c0-1.463,1.179-2.645,2.646-2.645c1.457,0,2.645,1.182,2.645,2.645
				c0,1.462-1.188,2.646-2.645,2.646C28.954,122.819,27.774,121.635,27.774,120.173z"/>
			<circle fill="#164E5B" cx="42.333" cy="120.173" r="2.647"/>
			<circle fill="#164E5B" cx="54.253" cy="120.173" r="2.649"/>
			<path fill="#164E5B" d="M63.523,120.173c0-1.463,1.184-2.645,2.641-2.645c1.463,0,2.653,1.182,2.653,2.645
				c0,1.462-1.189,2.646-2.653,2.646C64.708,122.819,63.523,121.635,63.523,120.173z"/>
			<circle fill="#164E5B" cx="78.085" cy="120.173" r="2.647"/>
			<circle fill="#164E5B" cx="90" cy="120.173" r="2.648"/>
			<path fill="#164E5B" d="M99.271,120.173c0-1.463,1.186-2.645,2.645-2.645c1.464,0,2.648,1.182,2.648,2.645
				c0,1.462-1.186,2.646-2.648,2.646C100.456,122.819,99.271,121.635,99.271,120.173z"/>
			<path fill="#164E5B" d="M111.188,120.173c0-1.463,1.183-2.645,2.642-2.645c1.464,0,2.653,1.182,2.653,2.645
				c0,1.462-1.189,2.646-2.653,2.646C112.37,122.819,111.188,121.635,111.188,120.173z"/>
			<path fill="#164E5B" d="M123.105,120.173c0-1.463,1.182-2.645,2.646-2.645c1.46,0,2.646,1.182,2.646,2.645
				c0,1.462-1.186,2.646-2.646,2.646C124.287,122.819,123.105,121.635,123.105,120.173z"/>
			<circle fill="#164E5B" cx="137.665" cy="120.173" r="2.646"/>
			<circle fill="#164E5B" cx="149.583" cy="120.173" r="2.648"/>
			<circle fill="#164E5B" cx="161.499" cy="120.173" r="2.649"/>
			<circle fill="#164E5B" cx="18.504" cy="130.725" r="2.646"/>
			<path fill="#164E5B" d="M27.774,130.725c0-1.462,1.179-2.645,2.646-2.645c1.457,0,2.645,1.183,2.645,2.645
				s-1.188,2.646-2.645,2.646C28.954,133.371,27.774,132.187,27.774,130.725z"/>
			<circle fill="#164E5B" cx="42.333" cy="130.725" r="2.647"/>
			<circle fill="#164E5B" cx="54.253" cy="130.725" r="2.649"/>
			<path fill="#164E5B" d="M63.523,130.725c0-1.462,1.184-2.645,2.641-2.645c1.463,0,2.653,1.183,2.653,2.645
				s-1.189,2.646-2.653,2.646C64.708,133.371,63.523,132.187,63.523,130.725z"/>
			<circle fill="#164E5B" cx="78.085" cy="130.725" r="2.647"/>
			<circle fill="#164E5B" cx="90" cy="130.725" r="2.648"/>
			<path fill="#164E5B" d="M99.271,130.725c0-1.462,1.186-2.645,2.645-2.645c1.464,0,2.648,1.183,2.648,2.645
				s-1.186,2.646-2.648,2.646C100.456,133.371,99.271,132.187,99.271,130.725z"/>
			<path fill="#164E5B" d="M111.188,130.725c0-1.462,1.183-2.645,2.642-2.645c1.464,0,2.653,1.183,2.653,2.645
				s-1.189,2.646-2.653,2.646C112.37,133.371,111.188,132.187,111.188,130.725z"/>
			<path fill="#164E5B" d="M123.105,130.725c0-1.462,1.182-2.645,2.646-2.645c1.46,0,2.646,1.183,2.646,2.645
				s-1.186,2.646-2.646,2.646C124.287,133.371,123.105,132.187,123.105,130.725z"/>
			<circle fill="#164E5B" cx="137.665" cy="130.725" r="2.646"/>
			<circle fill="#164E5B" cx="149.583" cy="130.725" r="2.648"/>
			<circle fill="#164E5B" cx="161.499" cy="130.725" r="2.649"/>
			<circle fill="#164E5B" cx="18.504" cy="141.276" r="2.646"/>
			<path fill="#164E5B" d="M27.774,141.276c0-1.463,1.179-2.645,2.646-2.645c1.457,0,2.645,1.182,2.645,2.645
				c0,1.463-1.188,2.647-2.645,2.647C28.954,143.924,27.774,142.739,27.774,141.276z"/>
			<circle fill="#164E5B" cx="42.333" cy="141.276" r="2.647"/>
			<circle fill="#164E5B" cx="54.253" cy="141.276" r="2.649"/>
			<path fill="#164E5B" d="M63.523,141.276c0-1.463,1.184-2.645,2.641-2.645c1.463,0,2.653,1.182,2.653,2.645
				c0,1.463-1.189,2.647-2.653,2.647C64.708,143.924,63.523,142.739,63.523,141.276z"/>
			<circle fill="#164E5B" cx="78.085" cy="141.276" r="2.647"/>
			<circle fill="#164E5B" cx="90" cy="141.276" r="2.648"/>
			<path fill="#164E5B" d="M99.271,141.276c0-1.463,1.186-2.645,2.645-2.645c1.464,0,2.648,1.182,2.648,2.645
				c0,1.463-1.186,2.647-2.648,2.647C100.456,143.924,99.271,142.739,99.271,141.276z"/>
			<path fill="#164E5B" d="M111.188,141.276c0-1.463,1.183-2.645,2.642-2.645c1.464,0,2.653,1.182,2.653,2.645
				c0,1.463-1.189,2.647-2.653,2.647C112.37,143.924,111.188,142.739,111.188,141.276z"/>
			<path fill="#164E5B" d="M123.105,141.276c0-1.463,1.182-2.645,2.646-2.645c1.46,0,2.646,1.182,2.646,2.645
				c0,1.463-1.186,2.647-2.646,2.647C124.287,143.924,123.105,142.739,123.105,141.276z"/>
			<circle fill="#164E5B" cx="137.665" cy="141.276" r="2.646"/>
			<circle fill="#164E5B" cx="149.583" cy="141.276" r="2.648"/>
			<circle fill="#164E5B" cx="161.499" cy="141.276" r="2.649"/>
			<path fill="#164E5B" d="M15.858,151.828c0-1.46,1.183-2.645,2.646-2.645c1.46,0,2.647,1.185,2.647,2.645
				c0,1.464-1.187,2.648-2.647,2.648C17.041,154.477,15.858,153.292,15.858,151.828z"/>
			<path fill="#164E5B" d="M27.774,151.828c0-1.46,1.179-2.645,2.646-2.645c1.457,0,2.645,1.185,2.645,2.645
				c0,1.464-1.188,2.648-2.645,2.648C28.954,154.477,27.774,153.292,27.774,151.828z"/>
			<path fill="#164E5B" d="M39.687,151.828c0-1.46,1.185-2.645,2.649-2.645s2.645,1.185,2.645,2.645
				c0,1.464-1.181,2.648-2.645,2.648S39.687,153.292,39.687,151.828z"/>
			<path fill="#164E5B" d="M51.604,151.828c0-1.46,1.186-2.645,2.647-2.645c1.464,0,2.65,1.185,2.65,2.645
				c0,1.464-1.186,2.648-2.65,2.648C52.79,154.477,51.604,153.292,51.604,151.828z"/>
			<path fill="#164E5B" d="M63.523,151.828c0-1.46,1.184-2.645,2.641-2.645c1.463,0,2.653,1.185,2.653,2.645
				c0,1.464-1.189,2.648-2.653,2.648C64.708,154.477,63.523,153.292,63.523,151.828z"/>
			<path fill="#164E5B" d="M75.438,151.828c0-1.46,1.184-2.645,2.646-2.645s2.648,1.185,2.648,2.645
				c0,1.464-1.187,2.648-2.648,2.648S75.438,153.292,75.438,151.828z"/>
			<path fill="#164E5B" d="M87.352,151.828c0-1.46,1.188-2.645,2.648-2.645s2.646,1.185,2.646,2.645
				c0,1.464-1.188,2.648-2.646,2.648C88.54,154.477,87.352,153.292,87.352,151.828z"/>
			<path fill="#164E5B" d="M99.271,151.828c0-1.46,1.186-2.645,2.645-2.645c1.464,0,2.648,1.185,2.648,2.645
				c0,1.464-1.186,2.648-2.648,2.648C100.456,154.477,99.271,153.292,99.271,151.828z"/>
			<path fill="#164E5B" d="M111.188,151.828c0-1.46,1.183-2.645,2.642-2.645c1.464,0,2.653,1.185,2.653,2.645
				c0,1.464-1.189,2.648-2.653,2.648C112.37,154.477,111.188,153.292,111.188,151.828z"/>
			<path fill="#164E5B" d="M123.105,151.828c0-1.46,1.182-2.645,2.646-2.645c1.46,0,2.646,1.185,2.646,2.645
				c0,1.464-1.186,2.648-2.646,2.648C124.287,154.477,123.105,153.292,123.105,151.828z"/>
			<path fill="#164E5B" d="M135.02,151.828c0-1.46,1.184-2.645,2.646-2.645c1.459,0,2.646,1.185,2.646,2.645
				c0,1.464-1.188,2.648-2.646,2.648C136.202,154.477,135.02,153.292,135.02,151.828z"/>
			<path fill="#164E5B" d="M146.936,151.828c0-1.46,1.183-2.645,2.646-2.645s2.649,1.185,2.649,2.645
				c0,1.464-1.187,2.648-2.649,2.648S146.936,153.292,146.936,151.828z"/>
			<path fill="#164E5B" d="M158.85,151.828c0-1.46,1.188-2.645,2.647-2.645s2.649,1.185,2.649,2.645
				c0,1.464-1.188,2.648-2.649,2.648S158.85,153.292,158.85,151.828z"/>
			<circle fill="#164E5B" cx="18.504" cy="162.381" r="2.646"/>
			<path fill="#164E5B" d="M27.774,162.381c0-1.462,1.179-2.646,2.646-2.646c1.457,0,2.645,1.184,2.645,2.646
				c0,1.463-1.188,2.647-2.645,2.647C28.954,165.028,27.774,163.844,27.774,162.381z"/>
			<circle fill="#164E5B" cx="42.333" cy="162.381" r="2.647"/>
			<circle fill="#164E5B" cx="54.253" cy="162.381" r="2.649"/>
			<path fill="#164E5B" d="M63.523,162.381c0-1.462,1.184-2.646,2.641-2.646c1.463,0,2.653,1.184,2.653,2.646
				c0,1.463-1.189,2.647-2.653,2.647C64.708,165.028,63.523,163.844,63.523,162.381z"/>
			<circle fill="#164E5B" cx="78.085" cy="162.381" r="2.647"/>
			<circle fill="#164E5B" cx="90" cy="162.381" r="2.648"/>
			<path fill="#164E5B" d="M99.271,162.381c0-1.462,1.186-2.646,2.645-2.646c1.464,0,2.648,1.184,2.648,2.646
				c0,1.463-1.186,2.647-2.648,2.647C100.456,165.028,99.271,163.844,99.271,162.381z"/>
			<path fill="#164E5B" d="M111.188,162.381c0-1.462,1.183-2.646,2.642-2.646c1.464,0,2.653,1.184,2.653,2.646
				c0,1.463-1.189,2.647-2.653,2.647C112.37,165.028,111.188,163.844,111.188,162.381z"/>
			<path fill="#164E5B" d="M123.105,162.381c0-1.462,1.182-2.646,2.646-2.646c1.46,0,2.646,1.184,2.646,2.646
				c0,1.463-1.186,2.647-2.646,2.647C124.287,165.028,123.105,163.844,123.105,162.381z"/>
			<circle fill="#164E5B" cx="137.665" cy="162.381" r="2.646"/>
			<circle fill="#164E5B" cx="149.583" cy="162.381" r="2.648"/>
			<circle fill="#164E5B" cx="161.499" cy="162.381" r="2.649"/>
			<circle fill="#164E5B" cx="18.504" cy="172.934" r="2.646"/>
			<path fill="#164E5B" d="M27.774,172.934c0-1.462,1.179-2.646,2.646-2.646c1.457,0,2.645,1.184,2.645,2.646
				s-1.188,2.646-2.645,2.646C28.954,175.579,27.774,174.396,27.774,172.934z"/>
			<circle fill="#164E5B" cx="42.333" cy="172.934" r="2.647"/>
			<circle fill="#164E5B" cx="54.253" cy="172.934" r="2.649"/>
			<path fill="#164E5B" d="M63.523,172.934c0-1.462,1.184-2.646,2.641-2.646c1.463,0,2.653,1.184,2.653,2.646
				s-1.189,2.646-2.653,2.646C64.708,175.579,63.523,174.396,63.523,172.934z"/>
			<circle fill="#164E5B" cx="78.085" cy="172.934" r="2.647"/>
			<circle fill="#164E5B" cx="90" cy="172.934" r="2.648"/>
			<path fill="#164E5B" d="M99.271,172.934c0-1.462,1.186-2.646,2.645-2.646c1.464,0,2.648,1.184,2.648,2.646
				s-1.186,2.646-2.648,2.646C100.456,175.579,99.271,174.396,99.271,172.934z"/>
			<path fill="#164E5B" d="M111.188,172.934c0-1.462,1.183-2.646,2.642-2.646c1.464,0,2.653,1.184,2.653,2.646
				s-1.189,2.646-2.653,2.646C112.37,175.579,111.188,174.396,111.188,172.934z"/>
			<path fill="#164E5B" d="M123.105,172.934c0-1.462,1.182-2.646,2.646-2.646c1.46,0,2.646,1.184,2.646,2.646
				s-1.186,2.646-2.646,2.646C124.287,175.579,123.105,174.396,123.105,172.934z"/>
			<circle fill="#164E5B" cx="137.665" cy="172.934" r="2.646"/>
			<circle fill="#164E5B" cx="149.583" cy="172.934" r="2.648"/>
			<circle fill="#164E5B" cx="161.499" cy="172.934" r="2.649"/>
			<circle fill="#164E5B" cx="18.504" cy="183.485" r="2.646"/>
			<path fill="#164E5B" d="M27.774,183.484c0-1.461,1.179-2.646,2.646-2.646c1.457,0,2.645,1.187,2.645,2.646
				c0,1.461-1.188,2.647-2.645,2.647C28.954,186.133,27.774,184.945,27.774,183.484z"/>
			<circle fill="#164E5B" cx="42.333" cy="183.485" r="2.647"/>
			<circle fill="#164E5B" cx="54.253" cy="183.485" r="2.649"/>
			<path fill="#164E5B" d="M63.523,183.484c0-1.461,1.184-2.646,2.641-2.646c1.463,0,2.653,1.187,2.653,2.646
				c0,1.461-1.189,2.647-2.653,2.647C64.708,186.133,63.523,184.945,63.523,183.484z"/>
			<circle fill="#164E5B" cx="78.085" cy="183.485" r="2.647"/>
			<circle fill="#164E5B" cx="90" cy="183.485" r="2.648"/>
			<path fill="#164E5B" d="M99.271,183.484c0-1.461,1.186-2.646,2.645-2.646c1.464,0,2.648,1.187,2.648,2.646
				c0,1.461-1.186,2.647-2.648,2.647C100.456,186.133,99.271,184.945,99.271,183.484z"/>
			<path fill="#164E5B" d="M111.188,183.484c0-1.461,1.183-2.646,2.642-2.646c1.464,0,2.653,1.187,2.653,2.646
				c0,1.461-1.189,2.647-2.653,2.647C112.37,186.133,111.188,184.945,111.188,183.484z"/>
			<path fill="#164E5B" d="M123.105,183.484c0-1.461,1.182-2.646,2.646-2.646c1.46,0,2.646,1.187,2.646,2.646
				c0,1.461-1.186,2.647-2.646,2.647C124.287,186.133,123.105,184.945,123.105,183.484z"/>
			<circle fill="#164E5B" cx="137.665" cy="183.485" r="2.646"/>
			<circle fill="#164E5B" cx="149.583" cy="183.485" r="2.648"/>
			<circle fill="#164E5B" cx="161.499" cy="183.485" r="2.649"/>
			<path fill="#164E5B" d="M15.858,194.036c0-1.462,1.183-2.644,2.646-2.644c1.46,0,2.647,1.182,2.647,2.644
				c0,1.465-1.187,2.647-2.647,2.647C17.041,196.686,15.858,195.501,15.858,194.036z"/>
			<path fill="#164E5B" d="M27.774,194.036c0-1.462,1.179-2.644,2.646-2.644c1.457,0,2.645,1.182,2.645,2.644
				c0,1.465-1.188,2.647-2.645,2.647C28.954,196.686,27.774,195.501,27.774,194.036z"/>
			<path fill="#164E5B" d="M39.687,194.036c0-1.462,1.185-2.644,2.649-2.644s2.645,1.182,2.645,2.644
				c0,1.465-1.181,2.647-2.645,2.647S39.687,195.501,39.687,194.036z"/>
			<path fill="#164E5B" d="M51.604,194.036c0-1.462,1.186-2.644,2.647-2.644c1.464,0,2.65,1.182,2.65,2.644
				c0,1.465-1.186,2.647-2.65,2.647C52.79,196.686,51.604,195.501,51.604,194.036z"/>
			<path fill="#164E5B" d="M63.523,194.036c0-1.462,1.184-2.644,2.641-2.644c1.463,0,2.653,1.182,2.653,2.644
				c0,1.465-1.189,2.647-2.653,2.647C64.708,196.686,63.523,195.501,63.523,194.036z"/>
			<path fill="#164E5B" d="M75.438,194.036c0-1.462,1.184-2.644,2.646-2.644s2.648,1.182,2.648,2.644
				c0,1.465-1.187,2.647-2.648,2.647S75.438,195.501,75.438,194.036z"/>
			<path fill="#164E5B" d="M87.352,194.036c0-1.462,1.188-2.644,2.648-2.644s2.646,1.182,2.646,2.644
				c0,1.465-1.188,2.647-2.646,2.647C88.54,196.686,87.352,195.501,87.352,194.036z"/>
			<path fill="#164E5B" d="M99.271,194.036c0-1.462,1.186-2.644,2.645-2.644c1.464,0,2.648,1.182,2.648,2.644
				c0,1.465-1.186,2.647-2.648,2.647C100.456,196.686,99.271,195.501,99.271,194.036z"/>
			<path fill="#164E5B" d="M111.188,194.036c0-1.462,1.183-2.644,2.642-2.644c1.464,0,2.653,1.182,2.653,2.644
				c0,1.465-1.189,2.647-2.653,2.647C112.37,196.686,111.188,195.501,111.188,194.036z"/>
			<path fill="#164E5B" d="M123.105,194.036c0-1.462,1.182-2.644,2.646-2.644c1.46,0,2.646,1.182,2.646,2.644
				c0,1.465-1.186,2.647-2.646,2.647C124.287,196.686,123.105,195.501,123.105,194.036z"/>
			<path fill="#164E5B" d="M135.02,194.036c0-1.462,1.184-2.644,2.646-2.644c1.459,0,2.646,1.182,2.646,2.644
				c0,1.465-1.188,2.647-2.646,2.647C136.202,196.686,135.02,195.501,135.02,194.036z"/>
			<path fill="#164E5B" d="M146.936,194.036c0-1.462,1.183-2.644,2.646-2.644s2.649,1.182,2.649,2.644
				c0,1.465-1.187,2.647-2.649,2.647S146.936,195.501,146.936,194.036z"/>
			<path fill="#164E5B" d="M158.85,194.036c0-1.462,1.188-2.644,2.647-2.644s2.649,1.182,2.649,2.644
				c0,1.465-1.188,2.647-2.649,2.647S158.85,195.501,158.85,194.036z"/>
			<circle fill="#164E5B" cx="18.504" cy="204.59" r="2.646"/>
			<path fill="#164E5B" d="M27.774,204.59c0-1.464,1.179-2.646,2.646-2.646c1.457,0,2.645,1.184,2.645,2.646
				c0,1.462-1.188,2.646-2.645,2.646C28.954,207.234,27.774,206.052,27.774,204.59z"/>
			<circle fill="#164E5B" cx="42.333" cy="204.59" r="2.646"/>
			<circle fill="#164E5B" cx="54.253" cy="204.59" r="2.648"/>
			<path fill="#164E5B" d="M63.523,204.59c0-1.464,1.184-2.646,2.641-2.646c1.463,0,2.653,1.184,2.653,2.646
				c0,1.462-1.189,2.646-2.653,2.646C64.708,207.234,63.523,206.052,63.523,204.59z"/>
			<circle fill="#164E5B" cx="78.085" cy="204.59" r="2.646"/>
			<circle fill="#164E5B" cx="90" cy="204.59" r="2.648"/>
			<path fill="#164E5B" d="M99.271,204.59c0-1.464,1.186-2.646,2.645-2.646c1.464,0,2.648,1.184,2.648,2.646
				c0,1.462-1.186,2.646-2.648,2.646C100.456,207.234,99.271,206.052,99.271,204.59z"/>
			<path fill="#164E5B" d="M111.188,204.59c0-1.464,1.183-2.646,2.642-2.646c1.464,0,2.653,1.184,2.653,2.646
				c0,1.462-1.189,2.646-2.653,2.646C112.37,207.234,111.188,206.052,111.188,204.59z"/>
			<path fill="#164E5B" d="M123.105,204.59c0-1.464,1.182-2.646,2.646-2.646c1.46,0,2.646,1.184,2.646,2.646
				c0,1.462-1.186,2.646-2.646,2.646C124.287,207.234,123.105,206.052,123.105,204.59z"/>
			<circle fill="#164E5B" cx="137.665" cy="204.59" r="2.646"/>
			<circle fill="#164E5B" cx="149.583" cy="204.59" r="2.648"/>
			<circle fill="#164E5B" cx="161.499" cy="204.59" r="2.648"/>
			<path fill="#164E5B" d="M15.858,215.141c0-1.461,1.183-2.645,2.646-2.645c1.46,0,2.647,1.184,2.647,2.645
				c0,1.465-1.187,2.647-2.647,2.647C17.041,217.788,15.858,216.604,15.858,215.141z"/>
			<path fill="#164E5B" d="M27.774,215.141c0-1.461,1.179-2.645,2.646-2.645c1.457,0,2.645,1.184,2.645,2.645
				c0,1.465-1.188,2.647-2.645,2.647C28.954,217.788,27.774,216.604,27.774,215.141z"/>
			<path fill="#164E5B" d="M39.687,215.141c0-1.461,1.185-2.645,2.649-2.645s2.645,1.184,2.645,2.645
				c0,1.465-1.181,2.647-2.645,2.647S39.687,216.604,39.687,215.141z"/>
			<path fill="#164E5B" d="M51.604,215.141c0-1.461,1.186-2.645,2.647-2.645c1.464,0,2.65,1.184,2.65,2.645
				c0,1.465-1.186,2.647-2.65,2.647C52.79,217.788,51.604,216.604,51.604,215.141z"/>
			<path fill="#164E5B" d="M63.523,215.141c0-1.461,1.184-2.645,2.641-2.645c1.463,0,2.653,1.184,2.653,2.645
				c0,1.465-1.189,2.647-2.653,2.647C64.708,217.788,63.523,216.604,63.523,215.141z"/>
			<path fill="#164E5B" d="M75.438,215.141c0-1.461,1.184-2.645,2.646-2.645s2.648,1.184,2.648,2.645
				c0,1.465-1.187,2.647-2.648,2.647S75.438,216.604,75.438,215.141z"/>
			<path fill="#164E5B" d="M87.352,215.141c0-1.461,1.188-2.645,2.648-2.645s2.646,1.184,2.646,2.645
				c0,1.465-1.188,2.647-2.646,2.647C88.54,217.788,87.352,216.604,87.352,215.141z"/>
			<path fill="#164E5B" d="M99.271,215.141c0-1.461,1.186-2.645,2.645-2.645c1.464,0,2.648,1.184,2.648,2.645
				c0,1.465-1.186,2.647-2.648,2.647C100.456,217.788,99.271,216.604,99.271,215.141z"/>
			<path fill="#164E5B" d="M111.188,215.141c0-1.461,1.183-2.645,2.642-2.645c1.464,0,2.653,1.184,2.653,2.645
				c0,1.465-1.189,2.647-2.653,2.647C112.37,217.788,111.188,216.604,111.188,215.141z"/>
			<path fill="#164E5B" d="M123.105,215.141c0-1.461,1.182-2.645,2.646-2.645c1.46,0,2.646,1.184,2.646,2.645
				c0,1.465-1.186,2.647-2.646,2.647C124.287,217.788,123.105,216.604,123.105,215.141z"/>
			<path fill="#164E5B" d="M135.02,215.141c0-1.461,1.184-2.645,2.646-2.645c1.459,0,2.646,1.184,2.646,2.645
				c0,1.465-1.188,2.647-2.646,2.647C136.202,217.788,135.02,216.604,135.02,215.141z"/>
			<path fill="#164E5B" d="M146.936,215.141c0-1.461,1.183-2.645,2.646-2.645s2.649,1.184,2.649,2.645
				c0,1.465-1.187,2.647-2.649,2.647S146.936,216.604,146.936,215.141z"/>
			<path fill="#164E5B" d="M158.85,215.141c0-1.461,1.188-2.645,2.647-2.645s2.649,1.184,2.649,2.645
				c0,1.465-1.188,2.647-2.649,2.647S158.85,216.604,158.85,215.141z"/>
			<circle fill="#164E5B" cx="18.504" cy="225.694" r="2.646"/>
			<path fill="#164E5B" d="M27.774,225.693c0-1.461,1.179-2.646,2.646-2.646c1.457,0,2.645,1.186,2.645,2.646
				s-1.188,2.646-2.645,2.646C28.954,228.339,27.774,227.154,27.774,225.693z"/>
			<circle fill="#164E5B" cx="42.333" cy="225.694" r="2.647"/>
			<circle fill="#164E5B" cx="54.253" cy="225.694" r="2.649"/>
			<path fill="#164E5B" d="M63.523,225.693c0-1.461,1.184-2.646,2.641-2.646c1.463,0,2.653,1.186,2.653,2.646
				s-1.189,2.646-2.653,2.646C64.708,228.339,63.523,227.154,63.523,225.693z"/>
			<circle fill="#164E5B" cx="78.085" cy="225.694" r="2.647"/>
			<circle fill="#164E5B" cx="90" cy="225.694" r="2.648"/>
			<path fill="#164E5B" d="M99.271,225.693c0-1.461,1.186-2.646,2.645-2.646c1.464,0,2.648,1.186,2.648,2.646
				s-1.186,2.646-2.648,2.646C100.456,228.339,99.271,227.154,99.271,225.693z"/>
			<path fill="#164E5B" d="M111.188,225.693c0-1.461,1.183-2.646,2.642-2.646c1.464,0,2.653,1.186,2.653,2.646
				s-1.189,2.646-2.653,2.646C112.37,228.339,111.188,227.154,111.188,225.693z"/>
			<path fill="#164E5B" d="M123.105,225.693c0-1.461,1.182-2.646,2.646-2.646c1.46,0,2.646,1.186,2.646,2.646
				s-1.186,2.646-2.646,2.646C124.287,228.339,123.105,227.154,123.105,225.693z"/>
			<circle fill="#164E5B" cx="137.665" cy="225.694" r="2.646"/>
			<circle fill="#164E5B" cx="149.583" cy="225.694" r="2.648"/>
			<circle fill="#164E5B" cx="161.499" cy="225.694" r="2.649"/>
		</g>
		<rect x="109.041" y="269.913" fill="#BEC6C3" width="23.509" height="5.535"/>
		<rect x="139.458" y="269.913" fill="#BEC6C3" width="23.511" height="5.535"/>
	</g>
</g>
<g>
	<path fill="#FFB700" d="M7.745,27.058C7.745,12.114,19.859,0,34.805,0c14.941,0,27.059,12.114,27.059,27.058
		c0,14.945-12.117,27.062-27.059,27.062C19.859,54.119,7.745,42.003,7.745,27.058z"/>
</g>
<g>
	<path fill="#004E59" d="M64.832,30.425H4.773C3.243,30.425,2,29.182,2,27.65c0-1.533,1.243-2.776,2.773-2.776h60.058
		c1.533,0,2.777,1.243,2.777,2.776C67.608,29.182,66.365,30.425,64.832,30.425z"/>
</g>
<g>
	<polygon fill="#31ABB7" points="98.385,85.501 92.016,103.267 93.152,103.267 102.523,86.316 	"/>
	<polygon fill="#31ABB7" points="151.534,85.501 157.902,103.267 156.764,103.267 147.393,86.316 	"/>
</g>
<path fill="#243A3D" d="M76.899,78.336c11.407,6.446,28.66,10.556,47.969,10.556c19.413,0,36.743-4.154,48.155-10.661"/>
<path fill="#0069A6" d="M174.337,78.314C169.1,73.076,152.229,67.28,124.96,67.28c-27.272,0-45.104,6.76-49.379,11.034"/>
<path fill="#00C4B3" d="M142.039,69.413c0-9.434-7.646-17.08-17.079-17.08l0,0c-9.433,0-17.081,7.646-17.081,17.08"/>
<polygon fill="#31ABB7" points="127.236,83.561 122.866,83.561 124.357,103.267 125.742,103.267 "/>
</svg>
