<?xml version="1.0" encoding="utf-8"?>
<!-- Generator: Adobe Illustrator 16.2.1, SVG Export Plug-In . SVG Version: 6.00 Build 0)  -->
<!DOCTYPE svg PUBLIC "-//W3C//DTD SVG 1.1//EN" "http://www.w3.org/Graphics/SVG/1.1/DTD/svg11.dtd">
<svg version="1.1" id="Layer_1" xmlns="http://www.w3.org/2000/svg" xmlns:xlink="http://www.w3.org/1999/xlink" x="0px" y="0px" viewBox="0 0 180 219.879" enable-background="new 0 0 180 219.879" xml:space="preserve">
<g>
	<rect fill="#BEC6C3" width="180" height="219.879"/>
	<g>
		<circle fill="#FFFFFF" cx="25.192" cy="26.025" r="3.554"/>
		<circle fill="#FFFFFF" cx="47.043" cy="26.025" r="3.554"/>
		<circle fill="#FFFFFF" cx="68.896" cy="26.025" r="3.554"/>
		<circle fill="#FFFFFF" cx="90.748" cy="26.025" r="3.553"/>
		<circle fill="#FFFFFF" cx="112.599" cy="26.025" r="3.554"/>
		<circle fill="#FFFFFF" cx="134.451" cy="26.025" r="3.554"/>
		<circle fill="#FFFFFF" cx="156.303" cy="26.025" r="3.554"/>
	</g>
	<g>
		<circle fill="#FFFFFF" cx="25.192" cy="47.374" r="3.554"/>
		<circle fill="#FFFFFF" cx="47.043" cy="47.374" r="3.554"/>
		<circle fill="#FFFFFF" cx="68.896" cy="47.374" r="3.554"/>
		<circle fill="#FFFFFF" cx="90.748" cy="47.373" r="3.553"/>
		<circle fill="#FFFFFF" cx="112.599" cy="47.374" r="3.554"/>
		<circle fill="#FFFFFF" cx="134.451" cy="47.374" r="3.554"/>
		<circle fill="#FFFFFF" cx="156.303" cy="47.374" r="3.554"/>
	</g>
	<g>
		<circle fill="#FFFFFF" cx="25.192" cy="68.721" r="3.554"/>
		<circle fill="#FFFFFF" cx="47.043" cy="68.721" r="3.554"/>
		<circle fill="#FFFFFF" cx="68.896" cy="68.721" r="3.554"/>
		<circle fill="#FFFFFF" cx="90.748" cy="68.721" r="3.553"/>
		<circle fill="#FFFFFF" cx="112.599" cy="68.721" r="3.554"/>
		<circle fill="#FFFFFF" cx="134.451" cy="68.721" r="3.554"/>
		<circle fill="#FFFFFF" cx="156.303" cy="68.721" r="3.554"/>
	</g>
	<g>
		<circle fill="#FFFFFF" cx="25.192" cy="90.069" r="3.554"/>
		<circle fill="#FFFFFF" cx="47.043" cy="90.069" r="3.554"/>
		<circle fill="#FFFFFF" cx="68.896" cy="90.069" r="3.554"/>
		<circle fill="#FFFFFF" cx="90.748" cy="90.069" r="3.553"/>
		<circle fill="#FFFFFF" cx="112.599" cy="90.069" r="3.554"/>
		<circle fill="#FFFFFF" cx="134.451" cy="90.069" r="3.554"/>
		<circle fill="#FFFFFF" cx="156.303" cy="90.069" r="3.554"/>
	</g>
	<g>
		<circle fill="#FFFFFF" cx="25.192" cy="111.417" r="3.553"/>
		<circle fill="#FFFFFF" cx="47.043" cy="111.417" r="3.553"/>
		<circle fill="#FFFFFF" cx="68.896" cy="111.417" r="3.553"/>
		<circle fill="#FFFFFF" cx="90.748" cy="111.417" r="3.553"/>
		<circle fill="#FFFFFF" cx="112.599" cy="111.417" r="3.553"/>
		<circle fill="#FFFFFF" cx="134.451" cy="111.417" r="3.553"/>
		<circle fill="#FFFFFF" cx="156.303" cy="111.417" r="3.553"/>
	</g>
	<g>
		<circle fill="#FFFFFF" cx="25.192" cy="132.765" r="3.553"/>
		<circle fill="#FFFFFF" cx="47.043" cy="132.765" r="3.553"/>
		<circle fill="#FFFFFF" cx="68.896" cy="132.765" r="3.553"/>
		<circle fill="#FFFFFF" cx="90.748" cy="132.765" r="3.553"/>
		<circle fill="#FFFFFF" cx="112.599" cy="132.765" r="3.553"/>
		<circle fill="#FFFFFF" cx="134.451" cy="132.765" r="3.553"/>
		<circle fill="#FFFFFF" cx="156.303" cy="132.765" r="3.553"/>
	</g>
	<g>
		<circle fill="#FFFFFF" cx="25.192" cy="154.113" r="3.554"/>
		<circle fill="#FFFFFF" cx="47.043" cy="154.113" r="3.554"/>
		<circle fill="#FFFFFF" cx="68.896" cy="154.113" r="3.554"/>
		<circle fill="#FFFFFF" cx="90.748" cy="154.113" r="3.553"/>
		<circle fill="#FFFFFF" cx="112.599" cy="154.113" r="3.554"/>
		<circle fill="#FFFFFF" cx="134.451" cy="154.113" r="3.554"/>
		<circle fill="#FFFFFF" cx="156.303" cy="154.113" r="3.554"/>
	</g>
	<g>
		<circle fill="#FFFFFF" cx="25.192" cy="175.46" r="3.554"/>
		<circle fill="#FFFFFF" cx="47.043" cy="175.46" r="3.554"/>
		<circle fill="#FFFFFF" cx="68.896" cy="175.46" r="3.554"/>
		<circle fill="#FFFFFF" cx="90.748" cy="175.46" r="3.553"/>
		<circle fill="#FFFFFF" cx="112.599" cy="175.46" r="3.554"/>
		<circle fill="#FFFFFF" cx="134.451" cy="175.46" r="3.554"/>
		<circle fill="#FFFFFF" cx="156.303" cy="175.46" r="3.554"/>
	</g>
	<circle fill="#FFFFFF" cx="25.192" cy="196.808" r="3.554"/>
	<circle fill="#FFFFFF" cx="47.043" cy="196.808" r="3.554"/>
	<circle fill="#FFFFFF" cx="68.896" cy="196.808" r="3.554"/>
	<circle fill="#FFFFFF" cx="90.748" cy="196.808" r="3.553"/>
	<circle fill="#FFFFFF" cx="112.599" cy="196.808" r="3.554"/>
	<circle fill="#FFFFFF" cx="134.451" cy="196.808" r="3.554"/>
	<circle fill="#FFFFFF" cx="156.303" cy="196.808" r="3.554"/>
	
		<polyline fill="none" stroke="#1CCFC9" stroke-width="2" stroke-linecap="round" stroke-linejoin="round" stroke-miterlimit="10" points="
		25.192,196.809 47.043,196.809 47.043,175.46 25.192,154.113 68.896,111.417 68.896,132.764 90.747,132.764 112.599,154.113 
		112.599,111.417 134.451,132.764 156.303,111.417 156.303,90.069 134.451,68.721 112.599,68.721 112.599,47.374 90.747,47.374 	"/>
	
		<polyline fill="none" stroke="#F9BE00" stroke-width="2" stroke-linecap="round" stroke-linejoin="round" stroke-miterlimit="10" points="
		47.043,68.721 47.043,90.069 68.896,90.069 90.747,111.417 90.747,154.113 112.599,175.46 134.451,154.113 156.303,175.46 
		156.303,196.809 	"/>
	<circle fill="#FFB700" cx="90.748" cy="47.373" r="1.741"/>
	<circle fill="#FFB700" cx="25.192" cy="196.808" r="1.741"/>
	<circle fill="#FF5000" cx="156.303" cy="196.808" r="1.741"/>
	<circle fill="#FF5000" cx="47.043" cy="68.721" r="1.741"/>
	
		<polyline fill="none" stroke="#EA7200" stroke-width="2" stroke-linecap="round" stroke-linejoin="round" stroke-miterlimit="10" points="
		25.192,26.025 25.192,47.374 47.043,47.374 68.896,26.025 68.896,47.374 	"/>
	<circle fill="#0069A6" cx="68.896" cy="47.373" r="1.741"/>
	<circle fill="#0069A6" cx="25.192" cy="26.025" r="1.741"/>
</g>
</svg>
