<?xml version="1.0" encoding="utf-8"?>
<!-- Generator: Adobe Illustrator 16.0.0, SVG Export Plug-In . SVG Version: 6.00 Build 0)  -->
<!DOCTYPE svg PUBLIC "-//W3C//DTD SVG 1.1//EN" "http://www.w3.org/Graphics/SVG/1.1/DTD/svg11.dtd">
<svg version="1.1" id="Layer_1" xmlns="http://www.w3.org/2000/svg" xmlns:xlink="http://www.w3.org/1999/xlink" x="0px" y="0px"
	 width="180px" height="350px" viewBox="0 0 180 350" enable-background="new 0 0 180 350" xml:space="preserve">
<g>
	<rect y="219.694" fill="#FF5000" width="9.953" height="78.061"/>
	<rect y="219.694" fill="#FF5000" width="175.543" height="9.959"/>
	<g>
		<rect x="10.128" y="152.83" fill="#BEC6C3" width="27.682" height="136.978"/>
		<line fill="none" stroke="#929288" stroke-miterlimit="10" x1="10.128" y1="284.615" x2="17.415" y2="284.615"/>
		<line fill="none" stroke="#929288" stroke-miterlimit="10" x1="10.128" y1="281.422" x2="13.771" y2="281.422"/>
		<line fill="none" stroke="#929288" stroke-miterlimit="10" x1="10.128" y1="278.228" x2="13.771" y2="278.228"/>
		<line fill="none" stroke="#929288" stroke-miterlimit="10" x1="10.128" y1="275.031" x2="13.771" y2="275.031"/>
		<line fill="none" stroke="#929288" stroke-miterlimit="10" x1="10.128" y1="271.837" x2="13.771" y2="271.837"/>
		<line fill="none" stroke="#929288" stroke-miterlimit="10" x1="10.128" y1="268.643" x2="17.415" y2="268.643"/>
		<line fill="none" stroke="#929288" stroke-miterlimit="10" x1="10.128" y1="265.447" x2="13.771" y2="265.447"/>
		<line fill="none" stroke="#929288" stroke-miterlimit="10" x1="10.128" y1="262.251" x2="13.771" y2="262.251"/>
		<line fill="none" stroke="#929288" stroke-miterlimit="10" x1="10.128" y1="259.058" x2="13.771" y2="259.058"/>
		<line fill="none" stroke="#929288" stroke-miterlimit="10" x1="10.128" y1="255.863" x2="13.771" y2="255.863"/>
		<line fill="none" stroke="#929288" stroke-miterlimit="10" x1="10.128" y1="252.668" x2="17.415" y2="252.668"/>
		<line fill="none" stroke="#929288" stroke-miterlimit="10" x1="10.128" y1="249.474" x2="13.771" y2="249.474"/>
		<line fill="none" stroke="#929288" stroke-miterlimit="10" x1="10.128" y1="246.278" x2="13.771" y2="246.278"/>
		<line fill="none" stroke="#929288" stroke-miterlimit="10" x1="10.128" y1="243.084" x2="13.771" y2="243.084"/>
		<line fill="none" stroke="#929288" stroke-miterlimit="10" x1="10.128" y1="239.888" x2="13.771" y2="239.888"/>
		<line fill="none" stroke="#929288" stroke-miterlimit="10" x1="10.128" y1="236.693" x2="17.415" y2="236.693"/>
		<line fill="none" stroke="#929288" stroke-miterlimit="10" x1="10.128" y1="233.499" x2="13.771" y2="233.499"/>
		<line fill="none" stroke="#929288" stroke-miterlimit="10" x1="10.128" y1="230.304" x2="13.771" y2="230.304"/>
		<line fill="none" stroke="#929288" stroke-miterlimit="10" x1="10.128" y1="227.109" x2="13.771" y2="227.109"/>
		<line fill="none" stroke="#929288" stroke-miterlimit="10" x1="10.128" y1="223.914" x2="13.771" y2="223.914"/>
		<line fill="none" stroke="#929288" stroke-miterlimit="10" x1="10.128" y1="220.72" x2="17.415" y2="220.72"/>
		<line fill="none" stroke="#929288" stroke-miterlimit="10" x1="10.128" y1="217.524" x2="13.771" y2="217.524"/>
		<line fill="none" stroke="#929288" stroke-miterlimit="10" x1="10.128" y1="214.33" x2="13.771" y2="214.33"/>
		<line fill="none" stroke="#929288" stroke-miterlimit="10" x1="10.128" y1="211.136" x2="13.771" y2="211.136"/>
		<line fill="none" stroke="#929288" stroke-miterlimit="10" x1="10.128" y1="207.94" x2="13.771" y2="207.94"/>
		<line fill="none" stroke="#929288" stroke-miterlimit="10" x1="10.128" y1="204.745" x2="17.415" y2="204.745"/>
		<line fill="none" stroke="#929288" stroke-miterlimit="10" x1="10.128" y1="201.55" x2="13.771" y2="201.55"/>
		<line fill="none" stroke="#929288" stroke-miterlimit="10" x1="10.128" y1="198.355" x2="13.771" y2="198.355"/>
		<line fill="none" stroke="#929288" stroke-miterlimit="10" x1="10.128" y1="195.161" x2="13.771" y2="195.161"/>
		<line fill="none" stroke="#929288" stroke-miterlimit="10" x1="10.128" y1="191.967" x2="13.771" y2="191.967"/>
		<line fill="none" stroke="#929288" stroke-miterlimit="10" x1="10.128" y1="188.771" x2="17.415" y2="188.771"/>
		<line fill="none" stroke="#929288" stroke-miterlimit="10" x1="10.128" y1="185.577" x2="13.771" y2="185.577"/>
		<line fill="none" stroke="#929288" stroke-miterlimit="10" x1="10.128" y1="182.382" x2="13.771" y2="182.382"/>
		<line fill="none" stroke="#929288" stroke-miterlimit="10" x1="10.128" y1="179.187" x2="13.771" y2="179.187"/>
		<line fill="none" stroke="#929288" stroke-miterlimit="10" x1="10.128" y1="175.992" x2="13.771" y2="175.992"/>
		<line fill="none" stroke="#929288" stroke-miterlimit="10" x1="10.128" y1="172.798" x2="17.415" y2="172.798"/>
		<line fill="none" stroke="#929288" stroke-miterlimit="10" x1="10.128" y1="169.603" x2="13.771" y2="169.603"/>
		<line fill="none" stroke="#929288" stroke-miterlimit="10" x1="10.128" y1="166.408" x2="13.771" y2="166.408"/>
		<line fill="none" stroke="#929288" stroke-miterlimit="10" x1="10.128" y1="163.213" x2="13.771" y2="163.213"/>
		<line fill="none" stroke="#929288" stroke-miterlimit="10" x1="10.128" y1="160.019" x2="13.771" y2="160.019"/>
		<line fill="none" stroke="#929288" stroke-miterlimit="10" x1="10.128" y1="156.823" x2="17.415" y2="156.823"/>
	</g>
	<rect x="170.046" y="219.694" fill="#FF5000" width="9.954" height="78.061"/>
	<rect x="37.38" y="300.541" fill="#1CCFC9" width="21.339" height="11.517"/>
	<circle fill="#FFFBF2" cx="31.453" cy="159.35" r="2.353"/>
	<rect x="34.356" y="252.543" fill="#EA7200" width="5.16" height="68.156"/>
	<polygon fill="#FFB700" points="49.837,252.543 34.356,252.543 42.097,241.821 	"/>
	<rect x="39.517" y="252.543" fill="#004E59" width="5.16" height="68.156"/>
	<rect x="44.677" y="252.543" fill="#EA7200" width="5.16" height="68.156"/>
	<polygon fill="#004E59" points="43.456,243.705 42.097,241.821 40.736,243.705 	"/>
	<g>
		<rect x="49.837" y="253.161" fill="#0069A6" width="10.875" height="55.628"/>
		<rect x="57.545" y="232.571" fill="#BEC6C3" width="5.592" height="4.343"/>
		<rect x="49.837" y="256.929" fill="#BEC6C3" width="10.875" height="2.938"/>
		<rect x="49.837" y="231.651" fill="#004E59" width="10.875" height="25.917"/>
		<rect x="62.089" y="231.651" fill="#004E59" width="2.094" height="25.917"/>
		<rect x="49.837" y="231.651" fill="#0069A6" width="10.875" height="6.183"/>
	</g>
	<polygon fill="#BEC6C3" points="77.702,278.89 65.958,278.89 68.165,171.985 75.493,171.985 	"/>
	<polygon fill="#FFB700" points="79.229,292.385 64.432,292.385 65.512,237.272 78.148,237.272 	"/>
	<path fill="#929288" d="M92.328,157.645c-1.947,2.603-5.043,4.294-8.542,4.294c-3.5,0-6.597-1.691-8.542-4.294h-0.168v-0.184
		c0,0-6.072,0.001-10.979,0.001c-4.907,0-22.877,11.284-27.784,26.985h3.68c0,0,6.87-8.342,17.665-12.267
		c8.252-3.001,10.051,4.036,10.44,10.915h7.42c0.077-3.834,0.426-7.798,1.772-9.414c1.778-2.161,4.459-3.552,7.476-3.552
		c3.093,0,5.838,1.453,7.614,3.707h8.211v-16.192H92.328z"/>
	<rect x="67.453" y="182.729" fill="#004E59" width="8.646" height="2.701"/>
	<rect x="81.939" y="228.921" fill="#929288" width="14.248" height="47.752"/>
	<path fill="#929288" d="M96.389,201.614v12.848l-7.609,5.708l-7.04-5.708v-12.848c-5.031,2.641-8.466,7.913-8.466,13.989
		c0,8.721,7.069,15.79,15.791,15.79c8.72,0,15.791-7.069,15.791-15.79C104.854,209.526,101.42,204.255,96.389,201.614z"/>
	<g>
		<polygon fill="#BEC6C3" points="114.563,244.451 104.105,244.451 104.105,225.241 		"/>
		<rect x="103.731" y="243.384" fill="#0069A6" width="11.206" height="60.366"/>
		<rect x="103.731" y="250.666" fill="#004E59" width="11.206" height="0.949"/>
	</g>
	<rect x="138.712" y="245.699" fill="#FFB700" width="15.018" height="39.821"/>
	<rect x="138.712" y="247.416" fill="#0069A6" width="15.018" height="6.18"/>
	<g>
		<path fill="#FFB700" d="M166.133,243.12c0,2.551-2.088,4.639-4.639,4.639H130.95c-2.551,0-4.639-2.088-4.639-4.639v-30.544
			c0-2.552,2.088-4.638,4.639-4.638h30.544c2.551,0,4.639,2.086,4.639,4.638V243.12z"/>
	</g>
	<rect x="126.312" y="190.774" fill="#1CCFC9" width="39.821" height="24.717"/>
	<rect x="126.312" y="213.431" fill="#0069A6" width="39.821" height="8.926"/>
	<g>
		<rect x="116.499" y="243.888" fill="#00C4B3" width="9.19" height="45.751"/>
		<rect x="124.579" y="226.953" fill="#00C4B3" width="4.723" height="7.388"/>
		<rect x="126.926" y="248.915" fill="#00C4B3" width="1.69" height="2.479"/>
		<rect x="115.52" y="226.196" fill="#004E59" width="10.952" height="25.523"/>
		<rect x="128.613" y="226.22" fill="#004E59" width="1.573" height="25.5"/>
	</g>
	<rect y="270.539" fill="#FF5000" width="179.999" height="78.322"/>
</g>
<g>
	<g>
		<defs>
			<rect id="SVGID_1_" x="126.312" y="190.774" width="39.821" height="24.717"/>
		</defs>
		<clipPath id="SVGID_2_">
			<use xlink:href="#SVGID_1_"  overflow="visible"/>
		</clipPath>
		<g clip-path="url(#SVGID_2_)">
			<path fill="#FF5000" d="M166.272,184.406c0-0.851-0.695-1.546-1.547-1.546h-9.449c-0.851,0-1.546,0.695-1.546,1.546v2.491
				c0,0.852-0.695,1.547-1.547,1.547h-7.244c-0.851,0-1.546-0.695-1.546-1.547v-3.821c0-0.851-0.695-1.546-1.547-1.546h-6.23
				c-0.851,0-1.547,0.695-1.547,1.546v0.271c0,0.851-0.694,1.546-1.545,1.546h-5.854c-0.852,0-1.546,0.695-1.546,1.547v15.998
				c0,0.851,0.694,1.546,1.546,1.546h5.727c0.851,0,1.547-0.695,1.547-1.546v-2.286c0-0.85,0.695-1.546,1.546-1.546h1.5
				c0.851,0,1.547,0.696,1.547,1.546v5.837c0,0.851,0.695,1.546,1.546,1.546h13.481c0.852,0,1.546-0.695,1.546-1.546v-2.491
				c0-0.851,0.696-1.546,1.547-1.546h8.069c0.852,0,1.546-0.695,1.546-1.546V184.406L166.272,184.406z"/>
		</g>
	</g>
</g>
<g>
	<path fill="#FF5000" d="M137.348,217.062c0-1.715,2.434-6.752,2.434-6.752c0.37-0.766,0.975-0.766,1.345,0
		c0,0,2.433,5.037,2.433,6.752s-1.39,3.105-3.104,3.105S137.348,218.777,137.348,217.062z"/>
</g>
<g>
	<path fill="#FF5000" d="M137.348,231.44c0-1.715,2.434-6.753,2.434-6.753c0.37-0.765,0.975-0.765,1.345,0.001
		c0,0,2.433,5.037,2.433,6.752s-1.39,3.105-3.104,3.105S137.348,233.155,137.348,231.44z"/>
</g>
</svg>
