<?xml version="1.0" encoding="utf-8"?>
<!-- Generator: Adobe Illustrator 16.2.1, SVG Export Plug-In . SVG Version: 6.00 Build 0)  -->
<!DOCTYPE svg PUBLIC "-//W3C//DTD SVG 1.1//EN" "http://www.w3.org/Graphics/SVG/1.1/DTD/svg11.dtd">
<svg version="1.1" id="Layer_1" xmlns="http://www.w3.org/2000/svg" xmlns:xlink="http://www.w3.org/1999/xlink" x="0px" y="0px"
	 width="180px" height="149.043px" viewBox="0 0 180 149.043" enable-background="new 0 0 180 149.043" xml:space="preserve">
<g>
	<rect fill="#00C4B3" width="179.999" height="149.042"/>
	<g>
		<path fill="#0069A6" d="M180,27.193c0,4.972-4.027,9-8.999,9s-9.001-4.028-9.001-9c0,4.972-4.027,9-8.999,9s-9-4.028-9-9
			c0,4.972-4.028,9-9.002,9c-4.97,0-8.999-4.028-8.999-9c0,4.972-4.029,9-8.999,9c-4.972,0-9-4.028-9-9c0,4.972-4.03,9-9,9
			c-4.972,0-9-4.028-9-9c0,4.972-4.03,9-9.001,9c-4.97,0-9.001-4.028-9.001-9c0,4.972-4.028,9-8.999,9c-4.97,0-8.999-4.028-8.999-9
			c0,4.972-4.029,9-9,9c-4.972,0-9.002-4.028-9.002-9c0,4.972-4.028,9-8.999,9s-8.999-4.027-8.999-9c0,4.972-4.03,9-9.001,9
			s-9-4.027-9-9v121.849h180V27.193z"/>
	</g>
	<path fill="#EA7200" d="M73.908,89.426c0,0-6.601,12.328-14.742,12.328c-8.145,0-20.908-12.328-20.908-12.328
		s12.764-12.328,20.908-12.328C67.308,77.098,73.908,89.426,73.908,89.426z"/>
	<polygon fill="#EA7200" points="28.807,79.975 38.258,89.426 28.807,98.878 	"/>
	<circle fill="#FFFFFF" cx="61.835" cy="84.751" r="1.694"/>
	<circle fill="#00C4B3" cx="80.172" cy="83.982" r="2.158"/>
	<circle fill="#00C4B3" cx="80.172" cy="68.863" r="2.158"/>
	<circle fill="#00C4B3" cx="87.984" cy="76.421" r="2.158"/>
	<rect x="110.984" y="97.374" fill="#BEC6C3" width="42.808" height="51.669"/>
	<rect x="117.245" y="95.104" fill="#0069A6" width="5.653" height="7.772"/>
	<rect x="129.562" y="95.104" fill="#0069A6" width="5.652" height="7.772"/>
	<rect x="141.879" y="95.104" fill="#0069A6" width="5.652" height="7.772"/>
	<path fill="#0069A6" d="M125.422,149.042v-12.389c0-4.183,3.391-7.571,7.572-7.571l0,0c4.182,0,7.57,3.39,7.57,7.571v12.389"/>
</g>
</svg>
