<?xml version="1.0" encoding="utf-8"?>
<!-- Generator: Adobe Illustrator 16.2.1, SVG Export Plug-In . SVG Version: 6.00 Build 0)  -->
<!DOCTYPE svg PUBLIC "-//W3C//DTD SVG 1.1//EN" "http://www.w3.org/Graphics/SVG/1.1/DTD/svg11.dtd">
<svg version="1.1" id="Layer_1" xmlns="http://www.w3.org/2000/svg" xmlns:xlink="http://www.w3.org/1999/xlink" x="0px" y="0px"
	 width="180px" height="194.011px" viewBox="0 0 180 194.011" enable-background="new 0 0 180 194.011" xml:space="preserve">
<g>
	<path fill="#EA7200" d="M70.717,59.588c-0.227,3.109-2.963,5.654-6.081,5.654H42.332c-3.118,0-5.854-2.545-6.081-5.654
		L33.856,26.68c-0.227-3.109,2.14-5.654,5.258-5.654h28.74c3.118,0,5.484,2.545,5.258,5.654L70.717,59.588z"/>
</g>
<path fill="#1CCFC9" d="M16.299,13.144c0,0,13.345-13.639,27.845,7.879h-7.848C36.296,21.023,33.108,8.441,16.299,13.144z"/>
<path fill="#0069A6" d="M31.835,6.929c0,0,9.788,3.125,10.418,13.985c0.63,10.859,0.63,10.859,0.63,10.859h6.106
	C48.99,31.773,49.892,9.323,31.835,6.929z"/>
<path fill="#0069A6" d="M40.416,0.503c0,0,7.254,8.592,5.491,21.872h4.158c0,0,1.996-14.438-9.648-22.375"/>
<path fill="#1CCFC9" d="M48.998,23.309c0,0-1.831-10.509,5.099-12.122c6.93-1.613,8.945,6.061,8.945,6.061s-2.419-4.271-7.131-3.011
	c-4.712,1.26-2.427,8.138-2.427,8.138L48.998,23.309z"/>
<path fill="#0069A6" d="M53.148,21.023c0,0-3.46-10.231,4.77-19.639c0,0-5.04,12.736,1.008,19.639v3.545h-5.443L53.148,21.023z"/>
<path fill="#1CCFC9" d="M58.166,20.03c0,0-1.592-17.133,13.695-18.646c0,0-13.271,8.889-8.063,19.639
	c5.208,10.75,4.536,10.75,4.536,10.75L58.12,30.615L58.166,20.03z"/>
<path fill="#0069A6" d="M61.538,21.67c0-9.305,7.542-16.849,16.849-16.848c0.646,0,1.28,0.044,1.907,0.116
	c-8.406,0.948-14.941,8.073-14.941,16.732H61.538z"/>
<path fill="#0069A6" d="M37.783,27.443V23.57c0-5.573-4.518-10.092-10.091-10.092c-5.573,0-10.091,4.519-10.091,10.092v1.39
	c0-4.759,3.857-8.614,8.616-8.614c4.756,0,8.614,3.855,8.614,8.614v1.539"/>
<path fill="#1CCFC9" d="M66.154,30.555l-1.171-7.399c0-4.73,6.179-9.738,10.91-9.738c4.733,0,8.568,3.836,8.568,8.567v1.781
	c0-2.814-1.924-6.922-6.922-6.922c-3.824,0-6.924,3.098-6.924,6.922v3.551"/>
<rect x="31.835" y="21.023" fill="#FF5000" width="43.238" height="10.75"/>
<path fill="#1CCFC9" d="M43.639,15.623c0,0-7.056,2.016-6.804,13.48c0.252,11.467,8.063,14.742,8.063,14.742
	s-8.189-19.688,1.134-22.82h2.897C48.931,21.023,49.939,14.489,43.639,15.623z"/>
<path fill="#1CCFC9" d="M54.903,21.023h4.024c0,0,5.292,4.469,1.68,15.725c0,0,8.819-5.46,4.774-15.725
	C61.942,12.302,54.903,17.136,54.903,21.023z"/>
<g>
	<rect y="64.773" fill="#0069A6" width="180" height="129.237"/>
	<rect x="151.221" y="153.405" fill="#00C4B3" width="7.16" height="14.456"/>
	<rect x="151.221" y="160.633" fill="#004E59" width="7.16" height="7.229"/>
	<g>
		<circle fill="#FFFFFF" cx="28.044" cy="158.696" r="13.578"/>
		<path fill="#00C4B3" d="M41.622,158.696c0,7.499-6.079,13.577-13.578,13.577c-7.498,0-13.578-6.078-13.578-13.577"/>
	</g>
	<g>
		<circle fill="#FFFFFF" cx="64.854" cy="158.696" r="13.577"/>
		<path fill="#EA7200" d="M75.338,150.068c4.765,5.79,3.935,14.346-1.855,19.11c-5.79,4.766-14.347,3.936-19.113-1.855"/>
	</g>
	<g>
		<circle fill="#FFFFFF" cx="101.666" cy="158.696" r="13.578"/>
		<path fill="#F9BE00" d="M106.482,171.391c-7.014,2.66-14.854-0.867-17.51-7.879c-2.66-7.012,0.868-14.851,7.877-17.511"/>
	</g>
	<rect x="15.661" y="127.965" fill="#FFB700" width="147.558" height="2.856"/>
</g>
</svg>
