<?xml version="1.0" encoding="utf-8"?>
<!-- Generator: Adobe Illustrator 16.2.1, SVG Export Plug-In . SVG Version: 6.00 Build 0)  -->
<!DOCTYPE svg PUBLIC "-//W3C//DTD SVG 1.1//EN" "http://www.w3.org/Graphics/SVG/1.1/DTD/svg11.dtd">
<svg version="1.1" id="Layer_1" xmlns="http://www.w3.org/2000/svg" xmlns:xlink="http://www.w3.org/1999/xlink" x="0px" y="0px"
	 width="180px" height="161.16px" viewBox="0 0 180 161.16" enable-background="new 0 0 180 161.16" xml:space="preserve">
<rect fill="#004E59" width="180" height="161.16"/>
<path fill="#FF5000" d="M145.193,33.123c0-3.537,2.867-6.408,6.404-6.408c3.541,0,6.408,2.871,6.408,6.408
	c0,3.539-2.867,6.408-6.408,6.408C148.062,39.531,145.193,36.662,145.193,33.123z"/>
<path fill="#FFB700" d="M124.837,33.123c0-3.537,2.868-6.408,6.406-6.408c3.539,0,6.407,2.871,6.407,6.408
	c0,3.539-2.868,6.408-6.407,6.408C127.705,39.531,124.837,36.662,124.837,33.123z"/>
<rect x="23.973" y="116.74" fill="#BEC6C3" width="133.777" height="3.797"/>
<rect x="89.099" y="112.362" fill="#1CCFC9" width="3.526" height="13.327"/>
<rect x="23.973" y="101.408" fill="#BEC6C3" width="133.777" height="3.798"/>
<rect x="23.973" y="132.07" fill="#BEC6C3" width="133.777" height="3.798"/>
<rect x="45.494" y="97.031" fill="#FFB700" width="3.526" height="13.328"/>
<rect x="138.713" y="127.306" fill="#EA7200" width="3.525" height="13.328"/>
</svg>
