<?xml version="1.0" encoding="utf-8"?>
<!-- Generator: Adobe Illustrator 16.0.0, SVG Export Plug-In . SVG Version: 6.00 Build 0)  -->
<!DOCTYPE svg PUBLIC "-//W3C//DTD SVG 1.1//EN" "http://www.w3.org/Graphics/SVG/1.1/DTD/svg11.dtd">
<svg version="1.1" xmlns="http://www.w3.org/2000/svg" xmlns:xlink="http://www.w3.org/1999/xlink" x="0px" y="0px" width="1080px"
	 height="720px" viewBox="0 0 1080 720" enable-background="new 0 0 1080 720" xml:space="preserve">
<g id="Layer_1">
	<g id="Layer_2_1_">
		<rect x="0.013" fill="#F9F8F8" width="1080" height="720"/>
	</g>
</g>
<g id="Layer_2">
	<g>
		<path fill="#FFC627" d="M467.504,469.711h0.968l2.782-7.753h-1.221v-1.699h6.312v1.699h-1.222l2.784,7.753h0.967v1.716h-4.294
			v-1.697h1.29l-0.627-1.834h-4.176l-0.627,1.834h1.356v1.697h-4.294V469.711z M474.718,466.303l-1.562-4.396l-1.562,4.396H474.718z
			"/>
		<path fill="#FFC627" d="M483.508,469.033c0-0.797,0.475-1.322,1.171-1.322c0.747,0,1.223,0.559,1.223,1.102
			c0,0.271-0.052,0.475-0.153,0.68c0.406,0.287,1.034,0.475,1.764,0.475c1.223,0,2.003-0.542,2.003-1.511
			c0-0.916-0.934-1.357-2.054-1.748c-2.069-0.746-3.531-1.408-3.531-3.479c0-1.781,1.445-3.173,3.7-3.173
			c2.088,0,3.702,1.068,3.702,2.41c0,0.799-0.494,1.256-1.138,1.256c-0.781,0-1.223-0.576-1.223-1.139
			c0-0.271,0.051-0.39,0.119-0.523c-0.305-0.188-0.78-0.341-1.478-0.341c-1.102,0-1.747,0.562-1.747,1.375
			c0,0.917,0.933,1.324,2.053,1.731c2.004,0.715,3.514,1.406,3.514,3.478c0,2.124-1.646,3.327-3.938,3.327
			C485.29,471.63,483.508,470.391,483.508,469.033z"/>
		<path fill="#FFC627" d="M493.027,465.843c0-3.273,2.376-5.787,5.771-5.787c3.377,0,5.684,2.527,5.684,5.787
			c0,3.277-2.375,5.787-5.769,5.787C495.335,471.63,493.027,469.103,493.027,465.843z M502.498,465.843
			c0-2.324-1.578-4.006-3.734-4.006c-2.172,0-3.75,1.664-3.75,4.006c0,2.326,1.578,4.006,3.75,4.006
			C500.919,469.849,502.498,468.186,502.498,465.843z"/>
		<path fill="#FFC627" d="M506.943,467.353v-5.379h-1.223v-1.715h4.481v1.715h-1.342v5.277c0,1.715,0.865,2.632,2.29,2.632
			c1.443,0,2.31-0.832,2.31-2.562v-5.348h-1.342v-1.715h4.431v1.715h-1.223v5.348c0,2.916-1.713,4.309-4.176,4.309
			C508.657,471.63,506.943,470.237,506.943,467.353z"/>
		<path fill="#FFC627" d="M519.822,469.711h1.392v-7.788h-2.069v1.766h-1.816v-3.43h9.689v3.43h-1.815v-1.766h-2.07v7.788h1.393
			v1.716h-4.702V469.711z"/>
		<path fill="#FFC627" d="M528.037,469.711h1.272v-7.737h-1.272v-1.715h4.582v1.715h-1.393v2.953h5.159v-2.953h-1.392v-1.715h4.581
			v1.715h-1.271v7.737h1.271v1.716h-4.581v-1.716h1.392v-3.104h-5.159v3.104h1.393v1.716h-4.582V469.711z"/>
		<path fill="#FFC627" d="M544.562,469.711h1.273v-7.737h-1.273v-1.715h4.668v1.715h-1.475v7.756h3.068v-1.578h1.852v3.275h-8.113
			V469.711z"/>
		<path fill="#FFC627" d="M553.691,465.843c0-3.273,2.377-5.787,5.771-5.787c3.379,0,5.686,2.527,5.686,5.787
			c0,3.277-2.377,5.787-5.77,5.787C556,471.63,553.691,469.103,553.691,465.843z M563.162,465.843c0-2.324-1.578-4.006-3.732-4.006
			c-2.172,0-3.75,1.664-3.75,4.006c0,2.326,1.578,4.006,3.75,4.006C561.584,469.849,563.162,468.186,563.162,465.843z"/>
		<path fill="#FFC627" d="M569.697,463.722v5.989h1.391v1.716h-4.531v-1.716h1.271v-7.737h-1.271v-1.715h2.902l5.498,7.009v-5.294
			h-1.393v-1.715h4.482v1.715h-1.225v9.471l-1.035,0.033L569.697,463.722z"/>
		<path fill="#FFC627" d="M579.166,469.711h1.271v-7.737h-1.271v-1.715h4.227c4.039,0,6.43,2.105,6.43,5.482
			c0,3.411-2.256,5.686-6.635,5.686h-4.021V469.711z M583.459,469.711c2.885,0,4.379-1.56,4.379-3.952
			c0-2.443-1.729-3.785-4.514-3.785h-0.967v7.737H583.459z"/>
		<path fill="#FFC627" d="M591.383,465.843c0-3.273,2.375-5.787,5.77-5.787c3.379,0,5.686,2.527,5.686,5.787
			c0,3.277-2.377,5.787-5.77,5.787C593.689,471.63,591.383,469.103,591.383,465.843z M600.852,465.843
			c0-2.324-1.578-4.006-3.73-4.006c-2.176,0-3.752,1.664-3.752,4.006c0,2.326,1.576,4.006,3.752,4.006
			C599.273,469.849,600.852,468.186,600.852,465.843z"/>
		<path fill="#FFC627" d="M607.387,463.722v5.989h1.393v1.716h-4.535v-1.716h1.275v-7.737h-1.275v-1.715h2.902l5.5,7.009v-5.294
			h-1.393v-1.715h4.482v1.715h-1.225v9.471l-1.033,0.033L607.387,463.722z"/>
	</g>
	<g>
		<path fill="#FFC627" d="M488.997,487.986h1.273v-7.738h-1.273v-1.714h4.465c2.73,0,4.072,1.258,4.072,2.936
			c0,1.29-0.799,2.122-1.9,2.495c1.39,0.407,2.223,1.222,2.223,2.613c0,1.851-1.494,3.123-4.209,3.123h-4.65V487.986z
			 M493.477,483.271c1.341,0,2.088-0.613,2.088-1.579c0-0.95-0.781-1.477-2.14-1.477h-1.255v3.056H493.477z M493.681,488.022
			c1.322,0,2.205-0.544,2.205-1.613c0-1.036-0.815-1.612-2.256-1.612h-1.46v3.226H493.681z"/>
		<path fill="#FFC627" d="M499.111,487.986h1.273v-7.738h-1.273v-1.714h4.328c2.562,0,4.395,1.105,4.395,3.379
			c0,1.441-0.882,2.544-2.104,3.036l1.714,3.037h1.274v1.715h-2.58l-2.24-4.241c-0.238,0.016-0.458,0.034-0.679,0.034
			c-0.356,0-0.679,0-0.917-0.019v2.511h1.393v1.715h-4.583V487.986z M505.848,481.98c0-1.172-0.966-1.732-2.512-1.732h-1.035v3.581
			c0.204,0.018,0.475,0.033,1.086,0.033C504.83,483.862,505.848,483.151,505.848,481.98z"/>
		<path fill="#FFC627" d="M509.632,487.986h1.272v-7.738h-1.272v-1.714h8.332v3.192h-1.833v-1.494h-3.309v2.986h3.376v1.629h-3.376
			v3.157h3.326v-1.493h1.832v3.189h-8.349V487.986z"/>
		<path fill="#FFC627" d="M520.205,480.248h-1.188v-1.714h4.752v1.714h-1.476l1.814,5.874l2.767-6.501h1.019l2.768,6.501
			l1.696-5.874h-1.528v-1.714h4.752v1.714h-1.188l-3.003,9.572h-1.07l-2.986-6.872l-3.004,6.872h-1.07L520.205,480.248z"/>
		<path fill="#FFC627" d="M536.597,487.986h1.358v-7.738h-1.358v-1.714h4.633v1.714h-1.357v7.738h1.357v1.715h-4.633V487.986z"/>
		<path fill="#FFC627" d="M545.625,481.997v5.989h1.393v1.715h-4.533v-1.715h1.275v-7.738h-1.275v-1.714h2.902l5.498,7.009v-5.295
			h-1.391v-1.714h4.48v1.714h-1.223v9.47l-1.035,0.034L545.625,481.997z"/>
		<path fill="#FFC627" d="M555.244,484.153c0-3.446,2.615-5.821,5.873-5.821c2.598,0,4.33,1.357,4.33,2.698
			c0,0.814-0.529,1.375-1.225,1.375c-0.764,0-1.291-0.476-1.291-1.206c0-0.22,0.053-0.442,0.121-0.576
			c-0.322-0.255-0.967-0.51-1.986-0.51c-2.174,0-3.834,1.613-3.834,4.022c0,2.46,1.783,4.039,3.666,4.039
			c1.17,0,1.982-0.255,2.697-0.714v-1.918h-2.785v-1.629h4.668v5.787h-1.832v-0.832c-0.779,0.613-1.781,1.037-3.037,1.037
			C557.859,489.906,555.244,487.733,555.244,484.153z"/>
		<path fill="#FFC627" d="M571.301,484.117c0-3.36,2.613-5.785,5.871-5.785c2.598,0,4.328,1.357,4.328,2.698
			c0,0.814-0.525,1.375-1.225,1.375c-0.76,0-1.289-0.476-1.289-1.206c0-0.22,0.051-0.442,0.121-0.576
			c-0.322-0.255-0.967-0.51-1.986-0.51c-2.172,0-3.834,1.664-3.834,3.989c0,2.239,1.559,4.021,3.92,4.021
			c1.305,0,2.373-0.58,3.207-1.478l1.271,1.324c-1.084,1.205-2.699,1.936-4.479,1.936
			C573.76,489.906,571.301,487.598,571.301,484.117z"/>
		<path fill="#FFC627" d="M582.891,484.117c0-3.273,2.375-5.785,5.77-5.785c3.377,0,5.686,2.528,5.686,5.785
			c0,3.277-2.377,5.789-5.77,5.789C585.197,489.906,582.891,487.377,582.891,484.117z M592.359,484.117
			c0-2.324-1.578-4.004-3.734-4.004c-2.17,0-3.748,1.664-3.748,4.004c0,2.327,1.578,4.007,3.748,4.007
			C590.781,488.124,592.359,486.46,592.359,484.117z"/>
	</g>
	<g>
		<path fill="#FFC627" d="M519.798,225.251h-5.136v12.8c0.983,1.165,5.513,7.322,5.513,21.038c0,4.698-0.536,10.283-1.909,16.854
			l4.275,2.227c1.398-5.246,1.959-10.74,1.959-16.192c0-8.953-1.487-17.797-3.109-25.256
			C520.236,231.433,519.847,227.789,519.798,225.251 M554.896,241.121c0.873,1.802,1.564,3.335,2.102,4.628
			c0.516-5.706,1.691-14.307,4.422-20.498h-10.648c0.143,1.062,0.344,2.349,0.59,3.763
			C552.045,232.863,553.184,237.624,554.896,241.121 M514.663,274.062l1.395,0.732c1.238-6.133,1.727-11.344,1.727-15.706
			c-0.006-8.283-1.706-13.53-3.121-16.491V274.062z M540.584,269.91c-0.307,6.371-1.205,12.521-1.926,16.651l2.957,1.546
			l3.443-1.778c-0.889-5.441-2.215-10.091-3.451-13.63C541.256,271.675,540.91,270.744,540.584,269.91 M534.817,231.94
			c0-2.735,0.351-4.966,0.765-6.689h-5.147c-0.053,0.568-0.094,1.223-0.094,2.015c0,2.705,0.42,6.789,1.933,12.687
			c1.633,6.34,2.359,13.732,2.365,21.243c-0.006,7.607-0.766,15.318-2.133,22.167l3.921,2.038
			c0.847-4.985,1.871-12.494,1.871-19.693c0-0.382-0.004-0.77-0.01-1.155l2.248-0.578c0.033,0.074,4.518,8.354,6.752,21.204
			l4.127-2.125c-1.623-10.326-5.939-20.136-11.611-31.725C535.955,243.474,534.817,236.915,534.817,231.94 M564.055,225.251
			c-1.996,4.04-3.305,9.923-4.02,15.113c-0.896,6.252-1.041,11.458-1.041,11.47l-2.379,0.138c0,0-0.006-0.093-0.092-0.435
			c-0.088-0.342-0.236-0.891-0.506-1.669c-0.518-1.562-1.498-4.055-3.275-7.701c-2.613-5.413-3.855-12.896-4.377-16.916h-4.119
			c-0.031,0.382-0.051,0.802-0.051,1.28c0,3.734,0.93,10.44,5.717,20.366c6.436,13.318,9.361,22.262,10.016,31.756l6.18-3.189
			c-2.42-8.773-3.307-16.216-3.307-22.398c-0.004-14.081,4.6-21.608,6.018-23.592v-4.223H564.055z M565.195,253.065
			c0,5.838,0.828,12.903,3.09,21.274l0.533-0.277v-39.754c-0.211,0.448-0.418,0.928-0.633,1.465
			C566.705,239.456,565.195,245.138,565.195,253.065 M541.807,226.531c0-0.47,0.02-0.888,0.041-1.28h-3.787
			c-0.438,1.615-0.851,3.833-0.851,6.689c0,4.607,1.042,10.785,4.736,18.333c5.543,11.341,9.924,21.188,11.693,31.623l3.957-2.041
			c-0.484-9.503-3.211-18.188-9.834-31.92C542.844,237.743,541.807,230.666,541.807,226.531 M527.949,227.266
			c0-0.77,0.033-1.422,0.089-2.015h-5.849c0.046,2.328,0.412,5.813,1.535,10.963c1.645,7.541,3.169,16.546,3.169,25.764
			c0,5.793-0.605,11.667-2.187,17.324l5.587,2.908c1.257-6.503,1.953-13.819,1.953-21.015c0-7.358-0.724-14.577-2.285-20.65
			C528.401,234.497,527.949,230.216,527.949,227.266"/>
	</g>
	<path fill="#FFC627" d="M512.111,275.72l29.491,15.37l29.77-15.362v-53.135h-59.26V275.72z M510.516,276.688v-55.691h62.447v55.21
		v0.485l-31.361,16.185L510.516,276.688z"/>
	<g>
		<path fill="#555334" d="M444.005,355.939l-0.469,7.835c-2.328,1.633-5.873,2.705-8.908,2.705c-7.461,0-12.4-6.155-12.4-15.577
			c0-8.581,3.823-17.347,13.104-17.347c2.658,0,5.641,0.84,7.462,2.05l0.743,7.742h-3.308c-0.838-4.71-2.891-7.464-5.272-7.464
			c-3.451,0-4.66,5.227-4.66,14.087c0,9.514,1.727,14.179,5.222,14.179c2.703,0,4.664-2.987,5.365-8.21H444.005z"/>
		<path fill="#555334" d="M468.5,365.922h-21.405v-2.335c1.917-0.14,2.704-1.212,2.704-3.263v-20.706
			c0-2.103-1.025-3.032-2.704-3.173v-2.332h13.15v2.332c-1.96,0.141-2.8,1.12-2.8,3.218v19.029c0,3.217,0.376,4.895,2.894,4.895
			c2.519,0,4.291-2.005,5.783-5.734h3.22L468.5,365.922z"/>
		<path fill="#555334" d="M481.69,341.156h-0.094l-2.842,11.097h5.594L481.69,341.156z M496.379,365.922h-11.799v-2.335
			c1.305-0.327,1.91-1.072,1.91-2.287c0-0.558-0.136-1.163-0.509-2.75l-0.89-3.592h-7.083l-0.844,2.895
			c-0.278,0.931-0.419,2.189-0.419,2.799c0,1.351,0.791,2.422,2.239,2.936v2.335h-7.739v-2.335c1.629-0.838,2.188-1.864,3.587-6.856
			l5.69-19.91l-0.7-2.707h7.464l6.105,23.739c1.166,4.476,1.588,5.174,2.986,5.734V365.922z"/>
		<path fill="#555334" d="M508.905,336.445v12.732c4.289,0,6.481-1.307,6.481-6.436
			C515.386,337.471,513.104,336.308,508.905,336.445 M498.318,365.922v-2.335c2.146-0.14,2.938-0.885,2.938-3.499v-20.52
			c0-1.962-0.747-3.123-2.938-3.123v-2.332h12.688c7.785,0,12.588,2.892,12.588,8.44c0,3.406-2.282,6.297-5.83,7.603
			c2.612,3.963,4.619,10.678,6.484,12.546c0.28,0.278,1.163,0.793,1.535,0.885v2.335h-8.251c-0.604-0.842-1.026-1.544-1.349-2.289
			l-5.321-12.127h-1.957v8.631c0,2.097,0.559,3.4,2.887,3.45v2.335H498.318z"/>
		<path fill="#555334" d="M550.297,334.113v6.761h-3.078c-2.006-3.68-3.406-4.429-6.387-4.429h-1.775v11.614
			c3.408,0,5.133-1.026,5.596-3.78h3.031v10.307h-3.031c-0.463-2.983-2.143-4.197-5.596-4.197v8.861c0,2.659,0.418,4.337,2.85,4.337
			c2.469,0,4.471-2.005,5.777-5.734h3.127l-0.793,8.069h-21.36v-2.335c2.054-0.187,2.754-1.161,2.754-3.45v-20.611
			c0-2.051-0.935-3.03-2.754-3.08v-2.332H550.297z"/>
		<path fill="#555334" d="M552.445,365.922v-2.335c2.285-0.981,3.174-2.143,3.217-6.994v-16.975
			c-0.842-1.867-1.674-2.798-2.936-3.173v-2.332h8.068l11.658,19.122h0.094V341.67c0-3.402-0.75-4.85-3.174-5.225v-2.332h8.391
			v2.332c-2.002,0.234-2.889,1.682-2.889,4.428v25.326h-2.422l-14.361-23.595h-0.094v15.804c0,2.892,0.977,4.71,3.588,5.179v2.335
			H552.445z"/>
		<path fill="#555334" d="M600.799,355.939l-0.467,7.835c-2.332,1.633-5.877,2.705-8.906,2.705c-7.461,0-12.406-6.155-12.406-15.577
			c0-8.581,3.824-17.347,13.105-17.347c2.656,0,5.637,0.84,7.459,2.05l0.748,7.742h-3.311c-0.844-4.71-2.893-7.464-5.27-7.464
			c-3.455,0-4.666,5.227-4.666,14.087c0,9.514,1.723,14.179,5.227,14.179c2.703,0,4.662-2.987,5.359-8.21H600.799z"/>
		<path fill="#555334" d="M625.217,334.113v6.761h-3.078c-2.008-3.68-3.406-4.429-6.393-4.429h-1.773v11.614
			c3.404,0,5.135-1.026,5.6-3.78h3.029v10.307h-3.029c-0.465-2.983-2.143-4.197-5.6-4.197v8.861c0,2.659,0.418,4.337,2.846,4.337
			c2.473,0,4.479-2.005,5.783-5.734h3.127l-0.791,8.069h-21.359v-2.335c2.047-0.187,2.748-1.161,2.748-3.45v-20.611
			c0-2.051-0.93-3.03-2.748-3.08v-2.332H625.217z"/>
		<path fill="#555334" d="M649.645,343.485c1.77-0.651,2.656-1.583,2.656-3.029c0-2.329-1.443-4.429-3.029-4.429
			c-0.936,0-1.68,0.837-1.68,1.911c0,0.559,0.186,1.212,0.605,2.146L649.645,343.485z M644.613,348.572
			c-1.824,0.788-2.568,1.816-2.568,3.401c0,1.45,0.979,4.385,2.281,7.043c1.076,2.191,2.102,3.217,3.312,3.217
			c0.604,0,1.541-0.466,2.152-1.071L644.613,348.572z M660.934,349.458c-0.893,0.421-1.125,0.795-1.871,2.33l-3.264,6.812
			l0.562,1.351c0.883,2.146,1.627,2.939,3.309,3.917c1.029,0.605,1.264,0.745,1.264,1.024v1.446h-7.795
			c-0.977,0-1.488-1.12-2.189-2.705c-1.725,1.68-4.104,2.705-6.201,2.705c-4.85,0-8.631-4.57-8.631-10.398
			c0-4.525,2.426-7.741,7.465-9.932l-0.139-0.328c-0.885-2.098-1.443-3.731-1.443-5.037c0-3.822,3.729-7.087,8.156-7.087
			c3.404,0,5.969,2.563,5.969,5.921c0,2.472-1.541,3.964-5.129,5.969l-0.42,0.234l4.008,9.886c0.84-1.349,1.174-2.563,1.174-3.963
			c0-1.258-0.471-1.96-1.355-2.145v-2.331h6.531V349.458z"/>
		<path fill="#555334" d="M443.856,374.928v7.087H440.5c-1.488-4.012-2.983-4.804-8.065-4.76v11.612
			c3.915,0,5.129-1.299,5.549-3.774h3.081v10.309h-3.081c-0.513-3.128-2.144-4.201-5.549-4.201v10.216
			c0,1.771,0.839,2.846,2.704,2.981v2.334h-13.293v-2.334c1.959-0.093,2.939-0.931,2.939-3.636v-20.054
			c0-2.143-0.701-3.355-2.939-3.453v-2.327H443.856z"/>
		<path fill="#555334" d="M456.128,377.258v12.729c4.293,0,6.482-1.302,6.482-6.432
			C462.611,378.283,460.332,377.119,456.128,377.258 M445.543,406.731v-2.329c2.146-0.143,2.937-0.89,2.937-3.502v-20.52
			c0-1.956-0.744-3.123-2.937-3.123v-2.333h12.683c7.793,0,12.595,2.893,12.595,8.44c0,3.407-2.285,6.299-5.832,7.603
			c2.611,3.963,4.618,10.678,6.483,12.545c0.279,0.281,1.169,0.792,1.538,0.89v2.329h-8.254c-0.605-0.84-1.024-1.538-1.355-2.286
			l-5.314-12.121h-1.958v8.625c0,2.1,0.559,3.404,2.891,3.453v2.329H445.543z"/>
		<path fill="#555334" d="M496.067,374.928v6.76h-3.079c-2.01-3.685-3.401-4.433-6.388-4.433h-1.775v11.612
			c3.406,0,5.131-1.022,5.596-3.774h3.031v10.309h-3.031c-0.465-2.99-2.141-4.201-5.596-4.201v8.864c0,2.654,0.42,4.333,2.844,4.333
			c2.473,0,4.479-2.003,5.783-5.733h3.123l-0.787,8.067h-21.363v-2.334c2.058-0.186,2.752-1.165,2.752-3.45v-20.612
			c0-2.052-0.934-3.031-2.752-3.08v-2.327H496.067z"/>
		<path fill="#555334" d="M508.316,400.808c0,2.892,0.333,3.59,1.777,3.59c3.403,0,4.197-5.688,4.197-13.848
			c0-11.053-2.612-13.339-5.975-13.295V400.808z M508.649,374.928c8.63,0,13.853,5.969,13.853,15.898
			c0,7.509-2.897,15.905-12.968,15.905h-11.428v-2.334c2.006-0.276,2.564-1.256,2.564-3.493v-20.756
			c0-1.633-0.883-2.705-2.564-2.894v-2.327H508.649z"/>
		<path fill="#555334" d="M544.467,374.928v6.76h-3.078c-2.004-3.685-3.4-4.433-6.388-4.433h-1.776v11.612
			c3.408,0,5.135-1.022,5.6-3.774h3.029v10.309h-3.029c-0.465-2.99-2.142-4.201-5.6-4.201v8.864c0,2.654,0.423,4.333,2.85,4.333
			c2.471,0,4.477-2.003,5.78-5.733h3.129l-0.793,8.067h-21.363v-2.334c2.054-0.186,2.75-1.165,2.75-3.45v-20.612
			c0-2.052-0.931-3.031-2.75-3.08v-2.327H544.467z"/>
		<path fill="#555334" d="M557.297,377.258v12.729c4.289,0,6.48-1.302,6.48-6.432C563.777,378.283,561.49,377.119,557.297,377.258
			 M546.709,406.731v-2.329c2.145-0.143,2.939-0.89,2.939-3.502v-20.52c0-1.956-0.746-3.123-2.939-3.123v-2.333h12.686
			c7.787,0,12.592,2.893,12.592,8.44c0,3.407-2.287,6.299-5.834,7.603c2.615,3.963,4.619,10.678,6.484,12.545
			c0.277,0.281,1.17,0.792,1.541,0.89v2.329h-8.254c-0.605-0.84-1.027-1.538-1.355-2.286l-5.312-12.121h-1.959v8.625
			c0,2.1,0.559,3.404,2.891,3.453v2.329H546.709z"/>
		<path fill="#555334" d="M576.281,406.731v-2.329c1.908-0.143,2.842-1.029,2.842-3.126V380.24c0-1.815-1.021-2.936-2.842-2.982
			v-2.333h13.521v2.333c-1.865,0-3.029,0.979-3.029,3.028v20.803c0,2.424,1.023,3.216,3.029,3.313v2.329H576.281z"/>
		<path fill="#555334" d="M612.238,396.752l-0.469,7.832c-2.33,1.635-5.875,2.708-8.908,2.708c-7.461,0-12.406-6.155-12.406-15.579
			c0-8.578,3.826-17.346,13.107-17.346c2.66,0,5.645,0.84,7.461,2.051l0.746,7.74h-3.312c-0.84-4.708-2.891-7.458-5.27-7.458
			c-3.449,0-4.662,5.222-4.662,14.08c0,9.517,1.725,14.178,5.223,14.178c2.705,0,4.662-2.983,5.361-8.206H612.238z"/>
		<path fill="#555334" d="M614.477,406.731v-2.329c1.871-0.143,2.611-1.073,2.611-3.502v-20.238c0-2.379-0.887-3.219-2.611-3.404
			v-2.333h13.059v2.333c-1.818,0.14-2.797,1.025-2.797,3.265v10.027h0.092l4.615-5.828c2.01-2.476,2.752-4.151,2.752-5.088
			c0-1.445-0.463-2.049-2.281-2.376v-2.333h10.816v2.333c-1.908,0-3.871,1.397-6.527,4.896l-4.01,5.271l7.879,13.01
			c2.518,4.104,2.615,3.968,3.963,3.968v2.329h-9.094l-8.113-14.226h-0.092v8.861c0,2.1,1.072,3.035,2.797,3.035v2.329H614.477z"/>
		<path fill="#555334" d="M646.756,397.265c0.979,4.664,3.121,7.693,5.504,7.693c1.723,0,3.031-1.536,3.031-3.591
			c0-1.725-0.98-3.45-3.449-6.014l-4.152-4.386c-3.035-3.123-4.383-5.782-4.383-8.577c0-4.667,3.635-8.021,8.674-8.021
			c2.982,0,6.291,1.259,8.668,3.308v6.855h-3.211l-0.055-0.186c-0.787-4.709-2.932-7.647-5.541-7.647
			c-1.59,0-2.662,1.117-2.662,2.796c0,1.26,0.889,2.846,2.518,4.524l3.688,3.777c5.039,5.222,6.244,7.321,6.244,10.773
			c0,5.13-3.963,8.721-9.648,8.721c-2.662,0-5.459-0.702-8.209-2.007l-0.371-8.021H646.756z"/>
	</g>
	<rect x="421.852" y="483.778" fill="#FFC627" width="59.942" height="1.302"/>
	<rect x="601.684" y="483.778" fill="#FFC627" width="59.945" height="1.302"/>
</g>
</svg>
