<?xml version="1.0" encoding="utf-8"?>
<!-- Generator: Adobe Illustrator 16.0.0, SVG Export Plug-In . SVG Version: 6.00 Build 0)  -->
<!DOCTYPE svg PUBLIC "-//W3C//DTD SVG 1.1//EN" "http://www.w3.org/Graphics/SVG/1.1/DTD/svg11.dtd">
<svg version="1.1" id="Layer_1" xmlns="http://www.w3.org/2000/svg" xmlns:xlink="http://www.w3.org/1999/xlink" x="0px" y="0px"
	 width="1080px" height="720px" viewBox="0 0 1080 720" enable-background="new 0 0 1080 720" xml:space="preserve">
<g id="Layer_1_1_">
	<g id="Layer_2_1_">
		<rect x="0.013" y="0" fill="#F7323F" width="1080" height="720"/>
	</g>
</g>
<polygon fill="#1CCFC9" points="445.846,292.009 383.067,255.769 383.067,255.769 383.067,328.259 445.846,364.505 "/>
<polygon fill="#FFFFFF" points="383.067,255.769 445.846,292.009 508.61,255.769 445.846,219.519 "/>
<polygon fill="#004E59" points="445.846,364.505 508.615,328.259 508.615,255.769 508.61,255.769 445.846,292.009 "/>
<polygon fill="#1CCFC9" points="571.39,292.009 508.61,255.769 508.61,255.769 508.61,328.259 571.39,364.505 "/>
<polygon fill="#FFFFFF" points="508.61,255.769 571.39,292.009 634.156,255.769 571.39,219.519 "/>
<polygon fill="#004E59" points="571.39,364.505 634.16,328.259 634.16,255.769 634.156,255.769 571.39,292.009 "/>
<polygon fill="#1CCFC9" points="508.622,400.765 445.842,364.525 445.842,364.525 445.842,437.014 508.622,473.26 "/>
<polygon fill="#FFFFFF" points="445.842,364.525 508.622,400.765 571.386,364.525 508.622,328.275 "/>
<polygon fill="#004E59" points="508.622,473.26 571.39,437.014 571.39,364.525 571.386,364.525 508.622,400.765 "/>
<polygon fill="#1CCFC9" points="634.172,400.765 571.39,364.525 571.39,364.525 571.39,437.014 634.172,473.26 "/>
<polygon fill="#FFFFFF" points="571.39,364.525 634.172,400.765 696.935,364.525 634.172,328.275 "/>
<polygon fill="#004E59" points="634.172,473.26 696.939,437.014 696.939,364.525 696.935,364.525 634.172,400.765 "/>
<polygon fill="#1CCFC9" points="759.718,400.765 696.935,364.525 696.935,364.525 696.935,437.014 759.718,473.26 "/>
<polygon fill="#FFFFFF" points="696.935,364.525 759.718,400.765 822.48,364.525 759.718,328.275 "/>
<polygon fill="#004E59" points="759.718,473.26 822.485,437.014 822.485,364.525 822.48,364.525 759.718,400.765 "/>
<polygon fill="#1CCFC9" points="508.615,183.267 445.837,147.028 445.837,147.028 445.837,219.517 508.615,255.763 "/>
<polygon fill="#FFFFFF" points="445.837,147.028 508.615,183.267 571.381,147.028 508.615,110.778 "/>
<polygon fill="#004E59" points="508.615,255.763 571.386,219.517 571.386,147.028 571.381,147.028 508.615,183.267 "/>
<polygon fill="#1CCFC9" points="383.071,400.763 320.292,364.523 320.292,364.523 320.292,437.012 383.071,473.258 "/>
<polygon fill="#FFFFFF" points="320.292,364.523 383.071,400.763 445.837,364.523 383.071,328.273 "/>
<polygon fill="#004E59" points="383.071,473.258 445.842,437.012 445.842,364.523 445.837,364.523 383.071,400.763 "/>
<polygon fill="#1CCFC9" points="320.296,292.005 257.517,255.765 257.517,255.765 257.517,328.255 320.296,364.5 "/>
<polygon fill="#FFFFFF" points="257.517,255.765 320.296,292.005 383.063,255.765 320.296,219.515 "/>
<polygon fill="#004E59" points="320.296,364.5 383.067,328.255 383.067,255.765 383.063,255.765 320.296,292.005 "/>
<polygon fill="#1CCFC9" points="696.948,509.52 634.168,473.281 634.168,473.281 634.168,545.77 696.948,582.015 "/>
<polygon fill="#FFFFFF" points="634.168,473.281 696.948,509.52 759.713,473.281 696.948,437.03 "/>
<polygon fill="#004E59" points="696.948,582.015 759.718,545.77 759.718,473.281 759.713,473.281 696.948,509.52 "/>
</svg>
