<?xml version="1.0" encoding="utf-8"?>
<!-- Generator: Adobe Illustrator 16.2.1, SVG Export Plug-In . SVG Version: 6.00 Build 0)  -->
<!DOCTYPE svg PUBLIC "-//W3C//DTD SVG 1.1//EN" "http://www.w3.org/Graphics/SVG/1.1/DTD/svg11.dtd">
<svg version="1.1" id="Layer_1" xmlns="http://www.w3.org/2000/svg" xmlns:xlink="http://www.w3.org/1999/xlink" x="0px" y="0px"
	 width="32.001px" height="36px" viewBox="0 0 32.001 36" enable-background="new 0 0 32.001 36" xml:space="preserve">
<polygon fill="#1CCFC9" points="24.002,8.999 16.001,4.5 16.001,4.5 16.001,13.5 24.002,18 "/>
<polygon fill="#FFFFFF" points="16.001,4.5 24.002,8.999 32,4.5 24.002,0 "/>
<polygon fill="#004E59" points="24.002,18 32.001,13.5 32.001,4.5 32,4.5 24.002,8.999 "/>
<polygon fill="#AFB5B8" points="8.002,8.999 0.001,4.5 0.001,4.5 0.001,13.5 8.002,18 "/>
<polygon fill="#FFFFFE" points="0.001,4.5 8.002,8.999 15.999,4.5 8.002,0 "/>
<polygon fill="#7D868C" points="8.002,18 16.001,13.5 16.001,4.5 15.999,4.5 8.002,8.999 "/>
<polygon fill="#808081" points="16,22.5 24,18 32,22.5 32,31.5 24,36 16,31.5 "/>
<polygon fill="#808081" points="0,22.5 8,18 16,22.5 16,31.5 8,36 0,31.5 "/>
</svg>
