<?xml version="1.0" encoding="utf-8"?>
<!-- Generator: Adobe Illustrator 16.2.1, SVG Export Plug-In . SVG Version: 6.00 Build 0)  -->
<!DOCTYPE svg PUBLIC "-//W3C//DTD SVG 1.1//EN" "http://www.w3.org/Graphics/SVG/1.1/DTD/svg11.dtd">
<svg version="1.1" id="Layer_1" xmlns="http://www.w3.org/2000/svg" xmlns:xlink="http://www.w3.org/1999/xlink" x="0px" y="0px"
	 width="313px" height="158px" viewBox="0 0 313 158" enable-background="new 0 0 313 158" xml:space="preserve">
<rect x="12.923" y="70.516" fill="#EA7200" width="15.434" height="4.221"/>
<path fill="#1CCFC9" d="M31.842,99.858c0,2.063-1.683,3.733-3.759,3.733H13.197c-2.076,0-3.76-1.67-3.76-3.733V78.417
	c0-2.061,1.684-3.733,3.76-3.733h14.885c2.077,0,3.759,1.673,3.759,3.733V99.858z"/>
<path fill="#EA7200" d="M31.842,96.767v3.091c0,2.063-1.683,3.733-3.759,3.733H13.197c-2.076,0-3.76-1.67-3.76-3.733v-3.091"/>
<rect x="13.907" y="83.228" fill="#FFFFFF" width="13.372" height="8.216"/>
<rect x="36.534" y="70.516" fill="#0069A6" width="15.433" height="4.221"/>
<path fill="#1CCFC9" d="M55.452,99.858c0,2.063-1.683,3.733-3.76,3.733H36.808c-2.076,0-3.76-1.67-3.76-3.733V78.417
	c0-2.061,1.684-3.733,3.76-3.733h14.885c2.077,0,3.76,1.673,3.76,3.733V99.858z"/>
<path fill="#0069A6" d="M55.452,84.837v15.021c0,2.063-1.683,3.733-3.76,3.733H36.808c-2.076,0-3.76-1.67-3.76-3.733V84.837"/>
<rect x="37.518" y="83.228" fill="#FFFFFF" width="13.371" height="8.216"/>
<rect x="68.659" y="70.516" fill="#F9BE00" width="15.433" height="4.221"/>
<path fill="#1CCFC9" d="M87.578,99.858c0,2.063-1.683,3.733-3.76,3.733H68.933c-2.077,0-3.76-1.67-3.76-3.733V78.417
	c0-2.061,1.684-3.733,3.76-3.733h14.885c2.077,0,3.76,1.673,3.76,3.733V99.858z"/>
<path fill="#F9BE00" d="M87.578,89.609v10.249c0,2.063-1.683,3.733-3.76,3.733H68.933c-2.077,0-3.76-1.67-3.76-3.733V89.609"/>
<rect x="69.643" y="83.228" fill="#FFFFFF" width="13.372" height="8.216"/>
<g>
	<path fill="#FF5000" d="M107.286,108.039c0,2.4-1.961,4.348-4.379,4.348H4.38c-2.419,0-4.38-1.947-4.38-4.348l0,0
		c0-2.4,1.961-4.348,4.38-4.348h98.527C105.325,103.691,107.286,105.639,107.286,108.039L107.286,108.039z"/>
	<g>
		<path fill="#FFFFFF" d="M3.191,108.039c0-0.717,0.587-1.299,1.308-1.299c0.724,0,1.311,0.582,1.311,1.299
			c0,0.72-0.587,1.3-1.311,1.3C3.779,109.339,3.191,108.759,3.191,108.039z"/>
		<ellipse fill="#FFFFFF" cx="11.046" cy="108.039" rx="1.309" ry="1.299"/>
		<ellipse fill="#FFFFFF" cx="17.591" cy="108.039" rx="1.308" ry="1.299"/>
		<ellipse fill="#FFFFFF" cx="24.135" cy="108.039" rx="1.309" ry="1.299"/>
		<ellipse fill="#FFFFFF" cx="30.68" cy="108.039" rx="1.309" ry="1.299"/>
		<ellipse fill="#FFFFFF" cx="37.225" cy="108.039" rx="1.309" ry="1.299"/>
		<ellipse fill="#FFFFFF" cx="43.771" cy="108.039" rx="1.309" ry="1.299"/>
		<ellipse fill="#FFFFFF" cx="50.316" cy="108.039" rx="1.309" ry="1.299"/>
		<ellipse fill="#FFFFFF" cx="56.861" cy="108.039" rx="1.309" ry="1.299"/>
		<ellipse fill="#FFFFFF" cx="63.406" cy="108.039" rx="1.309" ry="1.299"/>
		<ellipse fill="#FFFFFF" cx="69.951" cy="108.039" rx="1.309" ry="1.299"/>
		<ellipse fill="#FFFFFF" cx="76.496" cy="108.039" rx="1.309" ry="1.299"/>
		<ellipse fill="#FFFFFF" cx="83.042" cy="108.039" rx="1.309" ry="1.299"/>
		<ellipse fill="#FFFFFF" cx="96.132" cy="108.039" rx="1.309" ry="1.299"/>
		<ellipse fill="#FFFFFF" cx="102.677" cy="108.039" rx="1.309" ry="1.299"/>
		<ellipse fill="#FFFFFF" cx="89.587" cy="108.039" rx="1.309" ry="1.299"/>
	</g>
	<ellipse fill="#FFFFFF" cx="102.911" cy="108.163" rx="1.309" ry="1.3"/>
</g>
<g>
	<path fill="#FF5000" d="M107.286,153.652c0,2.401-1.961,4.348-4.379,4.348H4.38C1.961,158,0,156.054,0,153.652l0,0
		c0-2.399,1.961-4.348,4.38-4.348h98.527C105.325,149.305,107.286,151.253,107.286,153.652L107.286,153.652z"/>
	<g>
		<path fill="#FFFFFF" d="M3.191,153.652c0-0.716,0.587-1.299,1.308-1.299c0.724,0,1.311,0.583,1.311,1.299
			c0,0.719-0.587,1.301-1.311,1.301C3.779,154.953,3.191,154.371,3.191,153.652z"/>
		<ellipse fill="#FFFFFF" cx="11.046" cy="153.652" rx="1.309" ry="1.299"/>
		<ellipse fill="#FFFFFF" cx="17.591" cy="153.652" rx="1.308" ry="1.299"/>
		<ellipse fill="#FFFFFF" cx="24.135" cy="153.652" rx="1.309" ry="1.299"/>
		<ellipse fill="#FFFFFF" cx="30.68" cy="153.652" rx="1.309" ry="1.299"/>
		<ellipse fill="#FFFFFF" cx="37.225" cy="153.652" rx="1.309" ry="1.299"/>
		<ellipse fill="#FFFFFF" cx="43.771" cy="153.652" rx="1.309" ry="1.299"/>
		<ellipse fill="#FFFFFF" cx="50.316" cy="153.652" rx="1.309" ry="1.299"/>
		<ellipse fill="#FFFFFF" cx="56.861" cy="153.652" rx="1.309" ry="1.299"/>
		<ellipse fill="#FFFFFF" cx="63.406" cy="153.652" rx="1.309" ry="1.299"/>
		<ellipse fill="#FFFFFF" cx="69.951" cy="153.652" rx="1.309" ry="1.299"/>
		<ellipse fill="#FFFFFF" cx="76.496" cy="153.652" rx="1.309" ry="1.299"/>
		<ellipse fill="#FFFFFF" cx="83.042" cy="153.652" rx="1.309" ry="1.299"/>
		<ellipse fill="#FFFFFF" cx="96.132" cy="153.652" rx="1.309" ry="1.299"/>
		<ellipse fill="#FFFFFF" cx="102.677" cy="153.652" rx="1.309" ry="1.299"/>
		<ellipse fill="#FFFFFF" cx="89.587" cy="153.652" rx="1.309" ry="1.299"/>
	</g>
</g>
<rect x="52.042" y="139.354" fill="#0069A6" width="39.681" height="9.934"/>
<rect x="57.132" y="131.622" fill="#FF5000" width="36.293" height="7.667"/>
<g>
	<rect x="71.45" y="133.288" fill="#FFB700" width="1.649" height="4.337"/>
	<rect x="77.457" y="133.288" fill="#FFB700" width="1.65" height="4.337"/>
</g>
<rect x="50.375" y="121.314" fill="#004E59" width="41.266" height="10.308"/>
<rect x="49.692" y="123.378" fill="#FFFFFF" width="42.631" height="6.183"/>
<g>
	<path fill="#0069A6" d="M107.286,55.969c0,2.403-1.961,4.347-4.379,4.347H4.38c-2.419,0-4.38-1.944-4.38-4.347l0,0
		c0-2.398,1.961-4.346,4.38-4.346h98.527C105.325,51.623,107.286,53.571,107.286,55.969L107.286,55.969z"/>
	<path fill="#FFFFFF" d="M3.191,55.969c0-0.716,0.587-1.299,1.308-1.299c0.724,0,1.311,0.583,1.311,1.299
		c0,0.719-0.587,1.3-1.311,1.3C3.779,57.27,3.191,56.688,3.191,55.969z"/>
	<ellipse fill="#FFFFFF" cx="11.046" cy="55.969" rx="1.309" ry="1.299"/>
	<ellipse fill="#FFFFFF" cx="17.591" cy="55.969" rx="1.308" ry="1.299"/>
	<ellipse fill="#FFFFFF" cx="24.135" cy="55.969" rx="1.309" ry="1.299"/>
	<ellipse fill="#FFFFFF" cx="30.68" cy="55.969" rx="1.309" ry="1.299"/>
	<ellipse fill="#FFFFFF" cx="37.225" cy="55.969" rx="1.309" ry="1.299"/>
	<ellipse fill="#FFFFFF" cx="43.771" cy="55.969" rx="1.309" ry="1.299"/>
	<ellipse fill="#FFFFFF" cx="50.316" cy="55.969" rx="1.309" ry="1.299"/>
	<ellipse fill="#FFFFFF" cx="56.861" cy="55.969" rx="1.309" ry="1.299"/>
	<ellipse fill="#FFFFFF" cx="63.406" cy="55.969" rx="1.309" ry="1.299"/>
	<ellipse fill="#FFFFFF" cx="69.951" cy="55.969" rx="1.309" ry="1.299"/>
	<ellipse fill="#FFFFFF" cx="76.496" cy="55.969" rx="1.309" ry="1.299"/>
	<ellipse fill="#FFFFFF" cx="83.042" cy="55.969" rx="1.309" ry="1.299"/>
	<ellipse fill="#FFFFFF" cx="96.132" cy="55.969" rx="1.309" ry="1.299"/>
	<ellipse fill="#FFFFFF" cx="102.677" cy="55.969" rx="1.309" ry="1.299"/>
	<ellipse fill="#FFFFFF" cx="89.587" cy="55.969" rx="1.309" ry="1.299"/>
</g>
<ellipse fill="#1CCFC9" cx="282.314" cy="65.171" rx="20.073" ry="19.932"/>
<path fill="none" stroke="#EA7200" stroke-width="3" stroke-miterlimit="10" d="M299.596,82.328
	c-4.423,4.392-10.532,7.108-17.28,7.108c-13.498,0-24.439-10.863-24.439-24.265c0-13.401,10.942-24.265,24.439-24.265"/>
<line fill="none" stroke="#EA7200" stroke-width="6" stroke-miterlimit="10" x1="282.315" y1="89.436" x2="282.315" y2="98.969"/>
<polygon fill="#FF5000" stroke="#FF5000" stroke-miterlimit="10" points="298.56,101.355 265.13,101.355 268.583,95.17 
	295.108,95.17 "/>
<g>
	<defs>
		<ellipse id="SVGID_1_" cx="282.314" cy="65.171" rx="20.073" ry="19.932"/>
	</defs>
	<clipPath id="SVGID_2_">
		<use xlink:href="#SVGID_1_"  overflow="visible"/>
	</clipPath>
	<g clip-path="url(#SVGID_2_)">
		<path fill="#004E59" d="M303.237,45.205c0-3.118-2.551-5.669-5.669-5.669h-11.431c-3.118,0-5.669,0.29-5.669,0.645
			s-2.514,0.645-5.585,0.645s-5.585,2.551-5.585,5.669v4.397c0,3.118,2.514,5.669,5.585,5.669s5.585,1.922,5.585,4.271
			s2.551,4.271,5.669,4.271h1.914c3.118,0,5.669-2.551,5.669-5.669v-0.467c0-3.118,2.141-5.669,4.758-5.669
			c2.617,0,4.759-2.551,4.759-5.669V45.205z"/>
	</g>
</g>
<g>
	<defs>
		<ellipse id="SVGID_3_" cx="282.314" cy="65.171" rx="20.073" ry="19.932"/>
	</defs>
	<clipPath id="SVGID_4_">
		<use xlink:href="#SVGID_3_"  overflow="visible"/>
	</clipPath>
	<g clip-path="url(#SVGID_4_)">
		<path fill="#004E59" d="M275.516,75.69c-2.176,0-3.914-2.367-3.863-5.26c0.051-2.893-2.045-5.26-4.66-5.26
			s-4.753,2.551-4.753,5.669v5.162c0,3.118,1.069,5.669,2.376,5.669c1.307,0,2.376,1.021,2.376,2.27c0,1.249,2.551,2.27,5.669,2.27
			h1.325c3.118,0,5.627-2.367,5.577-5.26S277.692,75.69,275.516,75.69z"/>
	</g>
</g>
<g>
	<defs>
		<ellipse id="SVGID_5_" cx="282.314" cy="65.171" rx="20.073" ry="19.932"/>
	</defs>
	<clipPath id="SVGID_6_">
		<use xlink:href="#SVGID_5_"  overflow="visible"/>
	</clipPath>
	<g clip-path="url(#SVGID_6_)">
		<path fill="#004E59" d="M306.312,79.5c0,3.118-2.551,5.669-5.669,5.669h-2.368c-3.118,0-5.669-2.551-5.669-5.669v-1.714
			c0-3.118,2.551-5.669,5.669-5.669h2.368c3.118,0,5.669,2.551,5.669,5.669V79.5z"/>
	</g>
</g>
<g>
	<rect x="210.209" y="102.205" fill="#BEC6C3" width="102.791" height="55.795"/>
	<rect x="224.289" y="118.33" fill="#004E59" width="36.067" height="23.545"/>
	<path fill="#FF5000" d="M292.885,122.987c3.958,0,7.165,3.186,7.165,7.116c0,3.928-3.207,7.113-7.165,7.113"/>
	<path fill="#FFB700" d="M292.885,137.217c-3.956,0-7.164-3.186-7.164-7.113c0-3.931,3.208-7.116,7.164-7.116"/>
</g>
<rect x="107.571" fill="#929288" width="102.729" height="158"/>
<ellipse fill="#184E5B" cx="158.936" cy="51.493" rx="27.433" ry="27.236"/>
<path fill="#FF5000" d="M154.908,51.492c0-2.208,1.799-3.999,4.024-3.999c2.229,0,4.032,1.792,4.032,3.999c0,2.207-1.802,4-4.032,4
	C156.707,55.492,154.908,53.699,154.908,51.492z"/>
<g>
	<ellipse fill="#004E59" cx="118.131" cy="110.542" rx="1.51" ry="1.498"/>
	<path fill="#004E59" d="M123.421,110.542c0-0.829,0.673-1.498,1.51-1.498c0.831,0,1.509,0.669,1.509,1.498
		c0,0.828-0.678,1.5-1.509,1.5C124.094,112.042,123.421,111.37,123.421,110.542z"/>
	<ellipse fill="#004E59" cx="131.73" cy="110.542" rx="1.51" ry="1.498"/>
	<ellipse fill="#004E59" cx="138.532" cy="110.542" rx="1.512" ry="1.498"/>
	<path fill="#004E59" d="M143.823,110.542c0-0.829,0.676-1.498,1.507-1.498c0.835,0,1.514,0.669,1.514,1.498
		c0,0.828-0.679,1.5-1.514,1.5C144.499,112.042,143.823,111.37,143.823,110.542z"/>
	<ellipse fill="#004E59" cx="152.134" cy="110.542" rx="1.51" ry="1.498"/>
	<ellipse fill="#004E59" cx="158.934" cy="110.542" rx="1.511" ry="1.498"/>
	<ellipse fill="#004E59" cx="165.736" cy="110.542" rx="1.511" ry="1.498"/>
	<path fill="#004E59" d="M171.026,110.542c0-0.829,0.675-1.498,1.508-1.498c0.835,0,1.514,0.669,1.514,1.498
		c0,0.828-0.679,1.5-1.514,1.5C171.701,112.042,171.026,111.37,171.026,110.542z"/>
	<ellipse fill="#004E59" cx="179.337" cy="110.542" rx="1.509" ry="1.498"/>
	<ellipse fill="#004E59" cx="186.137" cy="110.542" rx="1.51" ry="1.498"/>
	<ellipse fill="#004E59" cx="192.938" cy="110.542" rx="1.511" ry="1.498"/>
	<ellipse fill="#004E59" cx="199.739" cy="110.542" rx="1.512" ry="1.498"/>
	<ellipse fill="#004E59" cx="118.131" cy="116.52" rx="1.51" ry="1.498"/>
	<path fill="#004E59" d="M123.421,116.52c0-0.826,0.673-1.498,1.51-1.498c0.831,0,1.509,0.672,1.509,1.498
		c0,0.83-0.678,1.502-1.509,1.502C124.094,118.021,123.421,117.35,123.421,116.52z"/>
	<ellipse fill="#004E59" cx="131.73" cy="116.52" rx="1.51" ry="1.498"/>
	<ellipse fill="#004E59" cx="138.532" cy="116.52" rx="1.512" ry="1.498"/>
	<path fill="#004E59" d="M143.823,116.52c0-0.826,0.676-1.498,1.507-1.498c0.835,0,1.514,0.672,1.514,1.498
		c0,0.83-0.679,1.502-1.514,1.502C144.499,118.021,143.823,117.35,143.823,116.52z"/>
	<ellipse fill="#004E59" cx="152.134" cy="116.52" rx="1.51" ry="1.498"/>
	<ellipse fill="#004E59" cx="158.934" cy="116.52" rx="1.511" ry="1.498"/>
	<path fill="#004E59" d="M164.225,116.52c0-0.826,0.677-1.498,1.509-1.498c0.836,0,1.513,0.672,1.513,1.498
		c0,0.83-0.677,1.502-1.513,1.502C164.902,118.021,164.225,117.35,164.225,116.52z"/>
	<path fill="#004E59" d="M171.026,116.52c0-0.826,0.675-1.498,1.508-1.498c0.835,0,1.514,0.672,1.514,1.498
		c0,0.83-0.679,1.502-1.514,1.502C171.701,118.021,171.026,117.35,171.026,116.52z"/>
	<ellipse fill="#004E59" cx="179.337" cy="116.52" rx="1.509" ry="1.498"/>
	<ellipse fill="#004E59" cx="186.137" cy="116.52" rx="1.51" ry="1.498"/>
	<ellipse fill="#004E59" cx="192.938" cy="116.52" rx="1.511" ry="1.498"/>
	<ellipse fill="#004E59" cx="199.739" cy="116.52" rx="1.512" ry="1.498"/>
	<ellipse fill="#004E59" cx="118.131" cy="122.5" rx="1.51" ry="1.499"/>
	<path fill="#004E59" d="M123.421,122.5c0-0.829,0.673-1.499,1.51-1.499c0.831,0,1.509,0.67,1.509,1.499s-0.678,1.5-1.509,1.5
		C124.094,124,123.421,123.329,123.421,122.5z"/>
	<ellipse fill="#004E59" cx="131.73" cy="122.5" rx="1.51" ry="1.499"/>
	<ellipse fill="#004E59" cx="138.532" cy="122.5" rx="1.512" ry="1.499"/>
	<path fill="#004E59" d="M143.823,122.5c0-0.829,0.676-1.499,1.507-1.499c0.835,0,1.514,0.67,1.514,1.499s-0.679,1.5-1.514,1.5
		C144.499,124,143.823,123.329,143.823,122.5z"/>
	<ellipse fill="#004E59" cx="152.134" cy="122.5" rx="1.51" ry="1.499"/>
	<ellipse fill="#004E59" cx="158.934" cy="122.5" rx="1.511" ry="1.499"/>
	<ellipse fill="#004E59" cx="165.736" cy="122.5" rx="1.511" ry="1.499"/>
	<path fill="#004E59" d="M171.026,122.5c0-0.829,0.675-1.499,1.508-1.499c0.835,0,1.514,0.67,1.514,1.499s-0.679,1.5-1.514,1.5
		C171.701,124,171.026,123.329,171.026,122.5z"/>
	<ellipse fill="#004E59" cx="179.337" cy="122.5" rx="1.509" ry="1.499"/>
	<ellipse fill="#004E59" cx="186.137" cy="122.5" rx="1.51" ry="1.499"/>
	<ellipse fill="#004E59" cx="192.938" cy="122.5" rx="1.511" ry="1.499"/>
	<ellipse fill="#004E59" cx="199.739" cy="122.5" rx="1.512" ry="1.499"/>
	<ellipse fill="#004E59" cx="118.131" cy="128.481" rx="1.51" ry="1.502"/>
	<path fill="#004E59" d="M123.421,128.481c0-0.83,0.673-1.502,1.51-1.502c0.831,0,1.509,0.672,1.509,1.502
		c0,0.828-0.678,1.499-1.509,1.499C124.094,129.98,123.421,129.31,123.421,128.481z"/>
	<ellipse fill="#004E59" cx="131.73" cy="128.481" rx="1.51" ry="1.502"/>
	<ellipse fill="#004E59" cx="138.532" cy="128.481" rx="1.512" ry="1.502"/>
	<path fill="#004E59" d="M143.823,128.481c0-0.83,0.676-1.502,1.507-1.502c0.835,0,1.514,0.672,1.514,1.502
		c0,0.828-0.679,1.499-1.514,1.499C144.499,129.98,143.823,129.31,143.823,128.481z"/>
	<ellipse fill="#004E59" cx="152.134" cy="128.481" rx="1.51" ry="1.502"/>
	<ellipse fill="#004E59" cx="158.934" cy="128.481" rx="1.511" ry="1.502"/>
	<ellipse fill="#004E59" cx="165.736" cy="128.481" rx="1.511" ry="1.502"/>
	<ellipse fill="#004E59" cx="172.537" cy="128.481" rx="1.511" ry="1.502"/>
	<ellipse fill="#004E59" cx="179.337" cy="128.481" rx="1.509" ry="1.502"/>
	<ellipse fill="#004E59" cx="186.137" cy="128.481" rx="1.51" ry="1.502"/>
	<ellipse fill="#004E59" cx="192.938" cy="128.481" rx="1.511" ry="1.502"/>
	<ellipse fill="#004E59" cx="199.739" cy="128.481" rx="1.512" ry="1.502"/>
	<ellipse fill="#004E59" cx="118.131" cy="134.459" rx="1.51" ry="1.498"/>
	<path fill="#004E59" d="M123.421,134.459c0-0.828,0.673-1.498,1.51-1.498c0.831,0,1.509,0.67,1.509,1.498s-0.678,1.499-1.509,1.499
		C124.094,135.958,123.421,135.287,123.421,134.459z"/>
	<ellipse fill="#004E59" cx="131.73" cy="134.459" rx="1.51" ry="1.498"/>
	<ellipse fill="#004E59" cx="138.532" cy="134.459" rx="1.512" ry="1.498"/>
	<path fill="#004E59" d="M143.823,134.459c0-0.828,0.676-1.498,1.507-1.498c0.835,0,1.514,0.67,1.514,1.498
		s-0.679,1.499-1.514,1.499C144.499,135.958,143.823,135.287,143.823,134.459z"/>
	<ellipse fill="#004E59" cx="152.134" cy="134.459" rx="1.51" ry="1.498"/>
	<ellipse fill="#004E59" cx="158.934" cy="134.459" rx="1.511" ry="1.498"/>
	<ellipse fill="#004E59" cx="165.736" cy="134.459" rx="1.511" ry="1.498"/>
	<path fill="#004E59" d="M171.026,134.459c0-0.828,0.675-1.498,1.508-1.498c0.835,0,1.514,0.67,1.514,1.498
		s-0.679,1.499-1.514,1.499C171.701,135.958,171.026,135.287,171.026,134.459z"/>
	<ellipse fill="#004E59" cx="179.337" cy="134.459" rx="1.509" ry="1.498"/>
	<ellipse fill="#004E59" cx="186.137" cy="134.459" rx="1.51" ry="1.498"/>
	<ellipse fill="#004E59" cx="192.938" cy="134.459" rx="1.511" ry="1.498"/>
	<ellipse fill="#004E59" cx="199.739" cy="134.459" rx="1.512" ry="1.498"/>
	<ellipse fill="#004E59" cx="118.131" cy="140.438" rx="1.51" ry="1.498"/>
	<path fill="#004E59" d="M123.421,140.438c0-0.827,0.673-1.498,1.51-1.498c0.831,0,1.509,0.671,1.509,1.498
		c0,0.828-0.678,1.5-1.509,1.5C124.094,141.938,123.421,141.267,123.421,140.438z"/>
	<ellipse fill="#004E59" cx="131.73" cy="140.438" rx="1.51" ry="1.498"/>
	<ellipse fill="#004E59" cx="138.532" cy="140.438" rx="1.512" ry="1.498"/>
	<path fill="#004E59" d="M143.823,140.438c0-0.827,0.676-1.498,1.507-1.498c0.835,0,1.514,0.671,1.514,1.498
		c0,0.828-0.679,1.5-1.514,1.5C144.499,141.938,143.823,141.267,143.823,140.438z"/>
	<ellipse fill="#004E59" cx="152.134" cy="140.438" rx="1.51" ry="1.498"/>
	<ellipse fill="#004E59" cx="158.934" cy="140.438" rx="1.511" ry="1.498"/>
	<ellipse fill="#004E59" cx="165.736" cy="140.438" rx="1.511" ry="1.498"/>
	<path fill="#004E59" d="M171.026,140.438c0-0.827,0.675-1.498,1.508-1.498c0.835,0,1.514,0.671,1.514,1.498
		c0,0.828-0.679,1.5-1.514,1.5C171.701,141.938,171.026,141.267,171.026,140.438z"/>
	<ellipse fill="#004E59" cx="179.337" cy="140.438" rx="1.509" ry="1.498"/>
	<ellipse fill="#004E59" cx="186.137" cy="140.438" rx="1.51" ry="1.498"/>
	<ellipse fill="#004E59" cx="192.938" cy="140.438" rx="1.511" ry="1.498"/>
	<ellipse fill="#004E59" cx="199.739" cy="140.438" rx="1.512" ry="1.498"/>
	<ellipse fill="#004E59" cx="118.131" cy="146.418" rx="1.51" ry="1.499"/>
	<path fill="#004E59" d="M123.421,146.418c0-0.827,0.673-1.499,1.51-1.499c0.831,0,1.509,0.672,1.509,1.499
		c0,0.829-0.678,1.499-1.509,1.499C124.094,147.917,123.421,147.247,123.421,146.418z"/>
	<ellipse fill="#004E59" cx="131.73" cy="146.418" rx="1.51" ry="1.499"/>
	<ellipse fill="#004E59" cx="138.532" cy="146.418" rx="1.512" ry="1.499"/>
	<path fill="#004E59" d="M143.823,146.418c0-0.827,0.676-1.499,1.507-1.499c0.835,0,1.514,0.672,1.514,1.499
		c0,0.829-0.679,1.499-1.514,1.499C144.499,147.917,143.823,147.247,143.823,146.418z"/>
	<ellipse fill="#004E59" cx="152.134" cy="146.418" rx="1.51" ry="1.499"/>
	<ellipse fill="#004E59" cx="158.934" cy="146.418" rx="1.511" ry="1.499"/>
	<ellipse fill="#004E59" cx="165.736" cy="146.418" rx="1.511" ry="1.499"/>
	<ellipse fill="#004E59" cx="172.537" cy="146.418" rx="1.511" ry="1.499"/>
	<ellipse fill="#004E59" cx="179.337" cy="146.418" rx="1.509" ry="1.499"/>
	<ellipse fill="#004E59" cx="186.137" cy="146.418" rx="1.51" ry="1.499"/>
	<ellipse fill="#004E59" cx="192.938" cy="146.418" rx="1.511" ry="1.499"/>
	<ellipse fill="#004E59" cx="199.739" cy="146.418" rx="1.512" ry="1.499"/>
</g>
<rect x="116.232" y="101.213" fill="#0069A6" width="85.407" height="1.619"/>
<path fill="#FFB700" d="M8.757,158V42.949c0-2.4-1.959-4.347-4.379-4.347C1.961,38.603,0,40.549,0,42.949V158H8.757z M4.378,41.878
	c0.724,0,1.31,0.582,1.31,1.299c0,0.718-0.585,1.299-1.31,1.299c-0.722,0-1.308-0.581-1.308-1.299
	C3.07,42.46,3.656,41.878,4.378,41.878z M4.378,48.376c0.724,0,1.31,0.582,1.31,1.3c0,0.718-0.585,1.299-1.31,1.299
	c-0.722,0-1.308-0.581-1.308-1.299C3.07,48.958,3.656,48.376,4.378,48.376z M4.378,54.875c0.724,0,1.31,0.58,1.31,1.3
	c0,0.717-0.585,1.3-1.31,1.3c-0.722,0-1.308-0.583-1.308-1.3C3.07,55.455,3.656,54.875,4.378,54.875z M4.378,61.374
	c0.724,0,1.31,0.58,1.31,1.298c0,0.718-0.585,1.299-1.31,1.299c-0.722,0-1.308-0.581-1.308-1.299
	C3.07,61.953,3.656,61.374,4.378,61.374z M4.378,67.872c0.724,0,1.31,0.581,1.31,1.298c0,0.72-0.585,1.301-1.31,1.301
	c-0.722,0-1.308-0.581-1.308-1.301C3.07,68.453,3.656,67.872,4.378,67.872z M4.378,74.37c0.724,0,1.31,0.581,1.31,1.298
	c0,0.719-0.585,1.301-1.31,1.301c-0.722,0-1.308-0.582-1.308-1.301C3.07,74.951,3.656,74.37,4.378,74.37z M4.378,80.866
	c0.724,0,1.31,0.583,1.31,1.302c0,0.718-0.585,1.299-1.31,1.299c-0.722,0-1.308-0.581-1.308-1.299
	C3.07,81.449,3.656,80.866,4.378,80.866z M4.378,87.366c0.724,0,1.31,0.582,1.31,1.3c0,0.718-0.585,1.301-1.31,1.301
	c-0.722,0-1.308-0.583-1.308-1.301C3.07,87.947,3.656,87.366,4.378,87.366z M4.378,93.865c0.724,0,1.31,0.581,1.31,1.3
	c0,0.717-0.585,1.3-1.31,1.3c-0.722,0-1.308-0.583-1.308-1.3C3.07,94.446,3.656,93.865,4.378,93.865z M4.378,100.363
	c0.724,0,1.31,0.582,1.31,1.3c0,0.716-0.585,1.298-1.31,1.298c-0.722,0-1.308-0.582-1.308-1.298
	C3.07,100.945,3.656,100.363,4.378,100.363z M4.378,106.862c0.724,0,1.31,0.581,1.31,1.301c0,0.717-0.585,1.3-1.31,1.3
	c-0.722,0-1.308-0.583-1.308-1.3C3.07,107.443,3.656,106.862,4.378,106.862z M4.378,113.362c0.724,0,1.31,0.581,1.31,1.3
	c0,0.718-0.585,1.298-1.31,1.298c-0.722,0-1.308-0.58-1.308-1.298C3.07,113.943,3.656,113.362,4.378,113.362z M4.378,119.861
	c0.724,0,1.31,0.581,1.31,1.298c0,0.719-0.585,1.3-1.31,1.3c-0.722,0-1.308-0.581-1.308-1.3
	C3.07,120.442,3.656,119.861,4.378,119.861z M4.378,126.357c0.724,0,1.31,0.581,1.31,1.301c0,0.719-0.585,1.3-1.31,1.3
	c-0.722,0-1.308-0.581-1.308-1.3C3.07,126.938,3.656,126.357,4.378,126.357z M4.378,132.855c0.724,0,1.31,0.583,1.31,1.303
	c0,0.716-0.585,1.297-1.31,1.297c-0.722,0-1.308-0.581-1.308-1.297C3.07,133.438,3.656,132.855,4.378,132.855z M4.378,139.354
	c0.724,0,1.31,0.582,1.31,1.301c0,0.718-0.585,1.3-1.31,1.3c-0.722,0-1.308-0.582-1.308-1.3
	C3.07,139.937,3.656,139.354,4.378,139.354z M3.07,147.152c0-0.719,0.585-1.299,1.308-1.299c0.724,0,1.31,0.58,1.31,1.299v0.001
	v0.001c0,0.718-0.585,1.301-1.31,1.301c-0.722,0-1.308-0.583-1.308-1.301V147.152L3.07,147.152z M4.378,152.354
	c0.724,0,1.31,0.581,1.31,1.299c0,0.719-0.585,1.301-1.31,1.301c-0.722,0-1.308-0.582-1.308-1.301
	C3.07,152.935,3.656,152.354,4.378,152.354z"/>
<path fill="#FFB700" d="M107.286,158V42.949c0-2.4-1.959-4.347-4.379-4.347c-2.417,0-4.378,1.947-4.378,4.347V158H107.286z
	 M102.907,41.878c0.725,0,1.31,0.582,1.31,1.299c0,0.718-0.585,1.299-1.31,1.299c-0.723,0-1.308-0.581-1.308-1.299
	C101.599,42.46,102.184,41.878,102.907,41.878z M102.907,48.376c0.725,0,1.31,0.582,1.31,1.3c0,0.718-0.585,1.299-1.31,1.299
	c-0.723,0-1.308-0.581-1.308-1.299C101.599,48.958,102.184,48.376,102.907,48.376z M102.907,54.875c0.725,0,1.31,0.58,1.31,1.3
	c0,0.717-0.585,1.3-1.31,1.3c-0.723,0-1.308-0.583-1.308-1.3C101.599,55.455,102.184,54.875,102.907,54.875z M102.907,61.374
	c0.725,0,1.31,0.58,1.31,1.298c0,0.718-0.585,1.299-1.31,1.299c-0.723,0-1.308-0.581-1.308-1.299
	C101.599,61.953,102.184,61.374,102.907,61.374z M102.907,67.872c0.725,0,1.31,0.581,1.31,1.298c0,0.72-0.585,1.301-1.31,1.301
	c-0.723,0-1.308-0.581-1.308-1.301C101.599,68.453,102.184,67.872,102.907,67.872z M102.907,74.37c0.725,0,1.31,0.581,1.31,1.298
	c0,0.719-0.585,1.301-1.31,1.301c-0.723,0-1.308-0.582-1.308-1.301C101.599,74.951,102.184,74.37,102.907,74.37z M102.907,80.866
	c0.725,0,1.31,0.583,1.31,1.302c0,0.718-0.585,1.299-1.31,1.299c-0.723,0-1.308-0.581-1.308-1.299
	C101.599,81.449,102.184,80.866,102.907,80.866z M102.907,87.366c0.725,0,1.31,0.582,1.31,1.3c0,0.718-0.585,1.301-1.31,1.301
	c-0.723,0-1.308-0.583-1.308-1.301C101.599,87.947,102.184,87.366,102.907,87.366z M102.907,93.865c0.725,0,1.31,0.581,1.31,1.3
	c0,0.717-0.585,1.3-1.31,1.3c-0.723,0-1.308-0.583-1.308-1.3C101.599,94.446,102.184,93.865,102.907,93.865z M102.907,100.363
	c0.725,0,1.31,0.582,1.31,1.3c0,0.716-0.585,1.298-1.31,1.298c-0.723,0-1.308-0.582-1.308-1.298
	C101.599,100.945,102.184,100.363,102.907,100.363z M102.907,113.362c0.725,0,1.31,0.581,1.31,1.3c0,0.718-0.585,1.298-1.31,1.298
	c-0.723,0-1.308-0.58-1.308-1.298C101.599,113.943,102.184,113.362,102.907,113.362z M102.907,119.861
	c0.725,0,1.31,0.581,1.31,1.298c0,0.719-0.585,1.3-1.31,1.3c-0.723,0-1.308-0.581-1.308-1.3
	C101.599,120.442,102.184,119.861,102.907,119.861z M102.907,126.357c0.725,0,1.31,0.581,1.31,1.301c0,0.719-0.585,1.3-1.31,1.3
	c-0.723,0-1.308-0.581-1.308-1.3C101.599,126.938,102.184,126.357,102.907,126.357z M102.907,132.855c0.725,0,1.31,0.583,1.31,1.303
	c0,0.716-0.585,1.297-1.31,1.297c-0.723,0-1.308-0.581-1.308-1.297C101.599,133.438,102.184,132.855,102.907,132.855z
	 M102.907,139.354c0.725,0,1.31,0.582,1.31,1.301c0,0.718-0.585,1.3-1.31,1.3c-0.723,0-1.308-0.582-1.308-1.3
	C101.599,139.937,102.184,139.354,102.907,139.354z M102.907,145.854c0.725,0,1.31,0.58,1.31,1.299c0,0.718-0.585,1.301-1.31,1.301
	c-0.723,0-1.308-0.583-1.308-1.301C101.599,146.434,102.184,145.854,102.907,145.854z M102.907,152.351
	c0.725,0,1.31,0.581,1.31,1.301c0,0.718-0.585,1.3-1.31,1.3c-0.723,0-1.308-0.582-1.308-1.3
	C101.599,152.932,102.184,152.351,102.907,152.351z"/>
</svg>
