<?xml version="1.0" encoding="utf-8"?>
<!-- Generator: Adobe Illustrator 16.2.1, SVG Export Plug-In . SVG Version: 6.00 Build 0)  -->
<!DOCTYPE svg PUBLIC "-//W3C//DTD SVG 1.1//EN" "http://www.w3.org/Graphics/SVG/1.1/DTD/svg11.dtd">
<svg version="1.1" id="Layer_1" xmlns="http://www.w3.org/2000/svg" xmlns:xlink="http://www.w3.org/1999/xlink" x="0px" y="0px"
	 width="338px" height="170px" viewBox="0 0 338 170" enable-background="new 0 0 338 170" xml:space="preserve">
<rect x="13.955" y="75.872" fill="#EA7200" width="16.667" height="4.542"/>
<path fill="#1CCFC9" d="M34.385,107.441c0,2.22-1.817,4.018-4.059,4.018H14.251c-2.242,0-4.06-1.798-4.06-4.018V84.373
	c0-2.218,1.818-4.017,4.06-4.017h16.074c2.243,0,4.059,1.8,4.059,4.017v23.068H34.385z"/>
<path fill="#EA7200" d="M34.385,104.117v3.324c0,2.22-1.817,4.018-4.059,4.018H14.251c-2.242,0-4.06-1.798-4.06-4.018v-3.324"/>
<rect x="15.018" y="89.55" fill="#FFFFFF" width="14.439" height="8.838"/>
<rect x="39.452" y="75.872" fill="#0069A6" width="16.666" height="4.542"/>
<path fill="#1CCFC9" d="M59.881,107.441c0,2.22-1.818,4.018-4.061,4.018H39.748c-2.242,0-4.061-1.798-4.061-4.018V84.373
	c0-2.218,1.818-4.017,4.061-4.017h16.074c2.243,0,4.061,1.8,4.061,4.017L59.881,107.441L59.881,107.441z"/>
<path fill="#0069A6" d="M59.881,91.28v16.161c0,2.22-1.818,4.018-4.061,4.018H39.748c-2.242,0-4.061-1.798-4.061-4.018V91.28"/>
<rect x="40.515" y="89.55" fill="#FFFFFF" width="14.439" height="8.838"/>
<rect x="74.143" y="75.872" fill="#F9BE00" width="16.666" height="4.542"/>
<path fill="#1CCFC9" d="M94.573,107.441c0,2.22-1.817,4.018-4.061,4.018H74.439c-2.243,0-4.061-1.798-4.061-4.018V84.373
	c0-2.218,1.818-4.017,4.061-4.017h16.074c2.243,0,4.061,1.8,4.061,4.017V107.441z"/>
<path fill="#F9BE00" d="M94.573,96.415v11.026c0,2.22-1.817,4.018-4.061,4.018H74.439c-2.243,0-4.061-1.798-4.061-4.018V96.415"/>
<rect x="75.206" y="89.55" fill="#FFFFFF" width="14.44" height="8.838"/>
<g>
	<path fill="#FF5000" d="M115.855,116.244c0,2.583-2.118,4.678-4.729,4.678H4.729c-2.612,0-4.729-2.095-4.729-4.678l0,0
		c0-2.583,2.118-4.678,4.729-4.678h106.397C113.738,111.566,115.855,113.661,115.855,116.244L115.855,116.244z"/>
	<g>
		<path fill="#FFFFFF" d="M3.446,116.244c0-0.771,0.634-1.397,1.413-1.397c0.782,0,1.416,0.627,1.416,1.397
			c0,0.774-0.634,1.399-1.416,1.399C4.081,117.644,3.446,117.019,3.446,116.244z"/>
		<ellipse fill="#FFFFFF" cx="11.928" cy="116.245" rx="1.414" ry="1.398"/>
		<ellipse fill="#FFFFFF" cx="18.996" cy="116.245" rx="1.413" ry="1.398"/>
		<ellipse fill="#FFFFFF" cx="26.062" cy="116.245" rx="1.414" ry="1.398"/>
		<ellipse fill="#FFFFFF" cx="33.131" cy="116.245" rx="1.413" ry="1.398"/>
		<ellipse fill="#FFFFFF" cx="40.198" cy="116.245" rx="1.414" ry="1.398"/>
		<ellipse fill="#FFFFFF" cx="47.267" cy="116.245" rx="1.414" ry="1.398"/>
		<ellipse fill="#FFFFFF" cx="54.335" cy="116.245" rx="1.414" ry="1.398"/>
		<ellipse fill="#FFFFFF" cx="61.402" cy="116.245" rx="1.414" ry="1.398"/>
		<ellipse fill="#FFFFFF" cx="68.47" cy="116.245" rx="1.414" ry="1.398"/>
		<ellipse fill="#FFFFFF" cx="75.538" cy="116.245" rx="1.414" ry="1.398"/>
		<ellipse fill="#FFFFFF" cx="82.606" cy="116.245" rx="1.414" ry="1.398"/>
		<ellipse fill="#FFFFFF" cx="89.675" cy="116.245" rx="1.414" ry="1.398"/>
		<ellipse fill="#FFFFFF" cx="103.81" cy="116.245" rx="1.414" ry="1.398"/>
		<ellipse fill="#FFFFFF" cx="110.878" cy="116.245" rx="1.414" ry="1.398"/>
		<ellipse fill="#FFFFFF" cx="96.742" cy="116.245" rx="1.414" ry="1.398"/>
	</g>
	<ellipse fill="#FFFFFF" cx="111.131" cy="116.378" rx="1.414" ry="1.398"/>
</g>
<g>
	<path fill="#FF5000" d="M115.855,165.321c0,2.583-2.118,4.679-4.729,4.679H4.729C2.118,170,0,167.907,0,165.321l0,0
		c0-2.581,2.118-4.677,4.729-4.677h106.397C113.738,160.645,115.855,162.74,115.855,165.321L115.855,165.321z"/>
	<g>
		<path fill="#FFFFFF" d="M3.446,165.321c0-0.771,0.634-1.396,1.413-1.396c0.782,0,1.416,0.625,1.416,1.396
			c0,0.774-0.634,1.399-1.416,1.399C4.081,166.721,3.446,166.096,3.446,165.321z"/>
		<ellipse fill="#FFFFFF" cx="11.928" cy="165.322" rx="1.414" ry="1.397"/>
		<ellipse fill="#FFFFFF" cx="18.996" cy="165.322" rx="1.413" ry="1.397"/>
		<ellipse fill="#FFFFFF" cx="26.062" cy="165.322" rx="1.414" ry="1.397"/>
		<ellipse fill="#FFFFFF" cx="33.131" cy="165.322" rx="1.413" ry="1.397"/>
		<ellipse fill="#FFFFFF" cx="40.198" cy="165.322" rx="1.414" ry="1.397"/>
		<ellipse fill="#FFFFFF" cx="47.267" cy="165.322" rx="1.414" ry="1.397"/>
		<ellipse fill="#FFFFFF" cx="54.335" cy="165.322" rx="1.414" ry="1.397"/>
		<ellipse fill="#FFFFFF" cx="61.402" cy="165.322" rx="1.414" ry="1.397"/>
		<ellipse fill="#FFFFFF" cx="68.47" cy="165.322" rx="1.414" ry="1.397"/>
		<ellipse fill="#FFFFFF" cx="75.538" cy="165.322" rx="1.414" ry="1.397"/>
		<ellipse fill="#FFFFFF" cx="82.606" cy="165.322" rx="1.414" ry="1.397"/>
		<ellipse fill="#FFFFFF" cx="89.675" cy="165.322" rx="1.414" ry="1.397"/>
		<ellipse fill="#FFFFFF" cx="103.81" cy="165.322" rx="1.414" ry="1.397"/>
		<ellipse fill="#FFFFFF" cx="110.878" cy="165.322" rx="1.414" ry="1.397"/>
		<ellipse fill="#FFFFFF" cx="96.742" cy="165.322" rx="1.414" ry="1.397"/>
	</g>
</g>
<rect x="56.199" y="149.938" fill="#0069A6" width="42.851" height="10.688"/>
<rect x="61.695" y="141.618" fill="#FF5000" width="39.191" height="8.249"/>
<g>
	<rect x="77.157" y="143.411" fill="#FFB700" width="1.78" height="4.666"/>
	<rect x="83.644" y="143.411" fill="#FFB700" width="1.782" height="4.666"/>
</g>
<rect x="54.398" y="130.527" fill="#004E59" width="44.562" height="11.091"/>
<rect x="53.661" y="132.748" fill="#FFFFFF" width="46.036" height="6.652"/>
<g>
	<path fill="#0069A6" d="M115.855,60.219c0,2.586-2.118,4.677-4.729,4.677H4.729C2.118,64.896,0,62.805,0,60.219l0,0
		c0-2.58,2.118-4.676,4.729-4.676h106.397C113.738,55.543,115.855,57.639,115.855,60.219L115.855,60.219z"/>
	<path fill="#FFFFFF" d="M3.446,60.219c0-0.77,0.634-1.397,1.413-1.397c0.782,0,1.416,0.627,1.416,1.397
		c0,0.774-0.634,1.399-1.416,1.399C4.081,61.62,3.446,60.993,3.446,60.219z"/>
	<ellipse fill="#FFFFFF" cx="11.928" cy="60.22" rx="1.414" ry="1.398"/>
	<ellipse fill="#FFFFFF" cx="18.996" cy="60.22" rx="1.413" ry="1.398"/>
	<ellipse fill="#FFFFFF" cx="26.062" cy="60.22" rx="1.414" ry="1.398"/>
	<ellipse fill="#FFFFFF" cx="33.131" cy="60.22" rx="1.413" ry="1.398"/>
	<ellipse fill="#FFFFFF" cx="40.198" cy="60.22" rx="1.414" ry="1.398"/>
	<ellipse fill="#FFFFFF" cx="47.267" cy="60.22" rx="1.414" ry="1.398"/>
	<ellipse fill="#FFFFFF" cx="54.335" cy="60.22" rx="1.414" ry="1.398"/>
	<ellipse fill="#FFFFFF" cx="61.402" cy="60.22" rx="1.414" ry="1.398"/>
	<ellipse fill="#FFFFFF" cx="68.47" cy="60.22" rx="1.414" ry="1.398"/>
	<ellipse fill="#FFFFFF" cx="75.538" cy="60.22" rx="1.414" ry="1.398"/>
	<ellipse fill="#FFFFFF" cx="82.606" cy="60.22" rx="1.414" ry="1.398"/>
	<ellipse fill="#FFFFFF" cx="89.675" cy="60.22" rx="1.414" ry="1.398"/>
	<ellipse fill="#FFFFFF" cx="103.81" cy="60.22" rx="1.414" ry="1.398"/>
	<ellipse fill="#FFFFFF" cx="110.878" cy="60.22" rx="1.414" ry="1.398"/>
	<ellipse fill="#FFFFFF" cx="96.742" cy="60.22" rx="1.414" ry="1.398"/>
</g>
<ellipse fill="#1CCFC9" cx="304.863" cy="70.121" rx="21.676" ry="21.446"/>
<path fill="none" stroke="#EA7200" stroke-width="3" stroke-miterlimit="10" d="M323.525,88.581
	c-4.776,4.726-11.373,7.647-18.66,7.647c-14.576,0-26.391-11.688-26.391-26.108c0-14.419,11.814-26.108,26.391-26.108"/>
<line fill="none" stroke="#EA7200" stroke-width="6" stroke-miterlimit="10" x1="304.863" y1="96.229" x2="304.863" y2="106.485"/>
<polygon fill="#FF5000" stroke="#FF5000" stroke-miterlimit="10" points="322.407,109.054 286.307,109.054 290.035,102.398 
	318.679,102.398 "/>
<g>
	<g>
		<defs>
			<ellipse id="SVGID_1_" cx="304.863" cy="70.121" rx="21.676" ry="21.446"/>
		</defs>
		<clipPath id="SVGID_2_">
			<use xlink:href="#SVGID_1_"  overflow="visible"/>
		</clipPath>
		<g clip-path="url(#SVGID_2_)">
			<path fill="#004E59" d="M327.456,48.639c0-3.355-2.754-6.1-6.12-6.1h-12.345c-3.366,0-6.122,0.312-6.122,0.694
				s-2.714,0.694-6.031,0.694c-3.315,0-6.03,2.745-6.03,6.1v4.731c0,3.354,2.715,6.099,6.03,6.099c3.317,0,6.031,2.068,6.031,4.596
				s2.756,4.595,6.122,4.595h2.066c3.367,0,6.123-2.745,6.123-6.1v-0.502c0-3.354,2.312-6.1,5.138-6.1s5.138-2.745,5.138-6.1V48.639
				z"/>
		</g>
	</g>
</g>
<g>
	<g>
		<defs>
			<ellipse id="SVGID_3_" cx="304.863" cy="70.121" rx="21.676" ry="21.446"/>
		</defs>
		<clipPath id="SVGID_4_">
			<use xlink:href="#SVGID_3_"  overflow="visible"/>
		</clipPath>
		<g clip-path="url(#SVGID_4_)">
			<path fill="#004E59" d="M297.521,81.438c-2.35,0-4.227-2.546-4.172-5.659c0.056-3.113-2.208-5.66-5.031-5.66
				c-2.824,0-5.133,2.746-5.133,6.1v5.554c0,3.354,1.154,6.1,2.566,6.1c1.411,0,2.565,1.099,2.565,2.441
				c0,1.346,2.755,2.443,6.122,2.443h1.431c3.366,0,6.076-2.548,6.021-5.659C301.839,83.985,299.871,81.438,297.521,81.438z"/>
		</g>
	</g>
</g>
<g>
	<g>
		<defs>
			<ellipse id="SVGID_5_" cx="304.863" cy="70.121" rx="21.676" ry="21.446"/>
		</defs>
		<clipPath id="SVGID_6_">
			<use xlink:href="#SVGID_5_"  overflow="visible"/>
		</clipPath>
		<g clip-path="url(#SVGID_6_)">
			<path fill="#004E59" d="M330.778,85.537c0,3.355-2.755,6.101-6.123,6.101H322.1c-3.367,0-6.123-2.745-6.123-6.101v-1.844
				c0-3.354,2.756-6.099,6.123-6.099h2.556c3.368,0,6.123,2.745,6.123,6.099V85.537z"/>
		</g>
	</g>
</g>
<g>
	<rect x="226.999" y="109.967" fill="#BEC6C3" width="111.001" height="60.033"/>
	<rect x="242.203" y="127.316" fill="#004E59" width="38.947" height="25.334"/>
	<path fill="#FF5000" d="M316.278,132.327c4.274,0,7.737,3.429,7.737,7.657c0,4.226-3.463,7.653-7.737,7.653"/>
	<path fill="#FFB700" d="M316.278,147.639c-4.271,0-7.736-3.429-7.736-7.654c0-4.229,3.465-7.655,7.736-7.655"/>
</g>
<rect x="116.163" fill="#929288" width="110.934" height="170"/>
<ellipse fill="#184E5B" cx="171.63" cy="55.404" rx="29.625" ry="29.305"/>
<path fill="#FF5000" d="M167.281,55.403c0-2.375,1.942-4.303,4.345-4.303c2.407,0,4.354,1.928,4.354,4.303s-1.946,4.304-4.354,4.304
	C169.224,59.707,167.281,57.777,167.281,55.403z"/>
<g>
	<ellipse fill="#004E59" cx="127.566" cy="118.938" rx="1.631" ry="1.612"/>
	<path fill="#004E59" d="M133.279,118.938c0-0.893,0.727-1.611,1.631-1.611c0.897,0,1.629,0.719,1.629,1.611
		c0,0.891-0.732,1.614-1.629,1.614C134.006,120.552,133.279,119.828,133.279,118.938z"/>
	<ellipse fill="#004E59" cx="142.251" cy="118.938" rx="1.631" ry="1.612"/>
	<ellipse fill="#004E59" cx="149.597" cy="118.938" rx="1.632" ry="1.612"/>
	<path fill="#004E59" d="M155.311,118.938c0-0.893,0.73-1.611,1.627-1.611c0.902,0,1.635,0.719,1.635,1.611
		c0,0.891-0.733,1.614-1.635,1.614C156.041,120.552,155.311,119.828,155.311,118.938z"/>
	<ellipse fill="#004E59" cx="164.285" cy="118.938" rx="1.631" ry="1.612"/>
	<ellipse fill="#004E59" cx="171.628" cy="118.938" rx="1.633" ry="1.612"/>
	<ellipse fill="#004E59" cx="178.974" cy="118.938" rx="1.632" ry="1.612"/>
	<path fill="#004E59" d="M184.686,118.938c0-0.893,0.729-1.611,1.629-1.611c0.902,0,1.635,0.719,1.635,1.611
		c0,0.891-0.732,1.614-1.635,1.614C185.415,120.552,184.686,119.828,184.686,118.938z"/>
	<ellipse fill="#004E59" cx="193.661" cy="118.938" rx="1.629" ry="1.612"/>
	<ellipse fill="#004E59" cx="201.004" cy="118.938" rx="1.63" ry="1.612"/>
	<ellipse fill="#004E59" cx="208.348" cy="118.938" rx="1.633" ry="1.612"/>
	<ellipse fill="#004E59" cx="215.691" cy="118.938" rx="1.634" ry="1.612"/>
	<ellipse fill="#004E59" cx="127.566" cy="125.37" rx="1.631" ry="1.612"/>
	<path fill="#004E59" d="M133.279,125.369c0-0.89,0.727-1.611,1.631-1.611c0.897,0,1.629,0.722,1.629,1.611
		c0,0.893-0.732,1.616-1.629,1.616C134.006,126.985,133.279,126.262,133.279,125.369z"/>
	<ellipse fill="#004E59" cx="142.251" cy="125.37" rx="1.631" ry="1.612"/>
	<ellipse fill="#004E59" cx="149.597" cy="125.37" rx="1.632" ry="1.612"/>
	<path fill="#004E59" d="M155.311,125.369c0-0.89,0.73-1.611,1.627-1.611c0.902,0,1.635,0.722,1.635,1.611
		c0,0.893-0.733,1.616-1.635,1.616C156.041,126.985,155.311,126.262,155.311,125.369z"/>
	<ellipse fill="#004E59" cx="164.285" cy="125.37" rx="1.631" ry="1.612"/>
	<ellipse fill="#004E59" cx="171.628" cy="125.37" rx="1.633" ry="1.612"/>
	<path fill="#004E59" d="M177.342,125.369c0-0.89,0.731-1.611,1.63-1.611c0.903,0,1.634,0.722,1.634,1.611
		c0,0.893-0.73,1.616-1.634,1.616C178.073,126.985,177.342,126.262,177.342,125.369z"/>
	<path fill="#004E59" d="M184.686,125.369c0-0.89,0.729-1.611,1.629-1.611c0.902,0,1.635,0.722,1.635,1.611
		c0,0.893-0.732,1.616-1.635,1.616C185.415,126.985,184.686,126.262,184.686,125.369z"/>
	<ellipse fill="#004E59" cx="193.661" cy="125.37" rx="1.629" ry="1.612"/>
	<ellipse fill="#004E59" cx="201.004" cy="125.37" rx="1.63" ry="1.612"/>
	<ellipse fill="#004E59" cx="208.348" cy="125.37" rx="1.633" ry="1.612"/>
	<ellipse fill="#004E59" cx="215.691" cy="125.37" rx="1.634" ry="1.612"/>
	<ellipse fill="#004E59" cx="127.566" cy="131.804" rx="1.631" ry="1.613"/>
	<path fill="#004E59" d="M133.279,131.804c0-0.893,0.727-1.612,1.631-1.612c0.897,0,1.629,0.72,1.629,1.612
		c0,0.892-0.732,1.614-1.629,1.614C134.006,133.418,133.279,132.695,133.279,131.804z"/>
	<ellipse fill="#004E59" cx="142.251" cy="131.804" rx="1.631" ry="1.613"/>
	<ellipse fill="#004E59" cx="149.597" cy="131.804" rx="1.632" ry="1.613"/>
	<path fill="#004E59" d="M155.311,131.804c0-0.893,0.73-1.612,1.627-1.612c0.902,0,1.635,0.72,1.635,1.612
		c0,0.892-0.733,1.614-1.635,1.614C156.041,133.418,155.311,132.695,155.311,131.804z"/>
	<ellipse fill="#004E59" cx="164.285" cy="131.804" rx="1.631" ry="1.613"/>
	<ellipse fill="#004E59" cx="171.628" cy="131.804" rx="1.633" ry="1.613"/>
	<ellipse fill="#004E59" cx="178.974" cy="131.804" rx="1.632" ry="1.613"/>
	<path fill="#004E59" d="M184.686,131.804c0-0.893,0.729-1.612,1.629-1.612c0.902,0,1.635,0.72,1.635,1.612
		c0,0.892-0.732,1.614-1.635,1.614C185.415,133.418,184.686,132.695,184.686,131.804z"/>
	<ellipse fill="#004E59" cx="193.661" cy="131.804" rx="1.629" ry="1.613"/>
	<ellipse fill="#004E59" cx="201.004" cy="131.804" rx="1.63" ry="1.613"/>
	<ellipse fill="#004E59" cx="208.348" cy="131.804" rx="1.633" ry="1.613"/>
	<ellipse fill="#004E59" cx="215.691" cy="131.804" rx="1.634" ry="1.613"/>
	<ellipse fill="#004E59" cx="127.566" cy="138.238" rx="1.631" ry="1.616"/>
	<path fill="#004E59" d="M133.279,138.238c0-0.894,0.727-1.616,1.631-1.616c0.897,0,1.629,0.723,1.629,1.616
		c0,0.891-0.732,1.614-1.629,1.614C134.006,139.853,133.279,139.131,133.279,138.238z"/>
	<ellipse fill="#004E59" cx="142.251" cy="138.238" rx="1.631" ry="1.616"/>
	<ellipse fill="#004E59" cx="149.597" cy="138.238" rx="1.632" ry="1.616"/>
	<path fill="#004E59" d="M155.311,138.238c0-0.894,0.73-1.616,1.627-1.616c0.902,0,1.635,0.723,1.635,1.616
		c0,0.891-0.733,1.614-1.635,1.614C156.041,139.853,155.311,139.131,155.311,138.238z"/>
	<ellipse fill="#004E59" cx="164.285" cy="138.238" rx="1.631" ry="1.616"/>
	<ellipse fill="#004E59" cx="171.628" cy="138.238" rx="1.633" ry="1.616"/>
	<ellipse fill="#004E59" cx="178.974" cy="138.238" rx="1.632" ry="1.616"/>
	<ellipse fill="#004E59" cx="186.318" cy="138.238" rx="1.631" ry="1.616"/>
	<ellipse fill="#004E59" cx="193.661" cy="138.238" rx="1.629" ry="1.616"/>
	<ellipse fill="#004E59" cx="201.004" cy="138.238" rx="1.63" ry="1.616"/>
	<ellipse fill="#004E59" cx="208.348" cy="138.238" rx="1.633" ry="1.616"/>
	<ellipse fill="#004E59" cx="215.691" cy="138.238" rx="1.634" ry="1.616"/>
	<ellipse fill="#004E59" cx="127.566" cy="144.671" rx="1.631" ry="1.612"/>
	<path fill="#004E59" d="M133.279,144.671c0-0.891,0.727-1.611,1.631-1.611c0.897,0,1.629,0.721,1.629,1.611
		s-0.732,1.613-1.629,1.613C134.006,146.284,133.279,145.562,133.279,144.671z"/>
	<ellipse fill="#004E59" cx="142.251" cy="144.671" rx="1.631" ry="1.612"/>
	<ellipse fill="#004E59" cx="149.597" cy="144.671" rx="1.632" ry="1.612"/>
	<path fill="#004E59" d="M155.311,144.671c0-0.891,0.73-1.611,1.627-1.611c0.902,0,1.635,0.721,1.635,1.611
		s-0.733,1.613-1.635,1.613C156.041,146.284,155.311,145.562,155.311,144.671z"/>
	<ellipse fill="#004E59" cx="164.285" cy="144.671" rx="1.631" ry="1.612"/>
	<ellipse fill="#004E59" cx="171.628" cy="144.671" rx="1.633" ry="1.612"/>
	<ellipse fill="#004E59" cx="178.974" cy="144.671" rx="1.632" ry="1.612"/>
	<path fill="#004E59" d="M184.686,144.671c0-0.891,0.729-1.611,1.629-1.611c0.902,0,1.635,0.721,1.635,1.611
		s-0.732,1.613-1.635,1.613C185.415,146.284,184.686,145.562,184.686,144.671z"/>
	<ellipse fill="#004E59" cx="193.661" cy="144.671" rx="1.629" ry="1.612"/>
	<ellipse fill="#004E59" cx="201.004" cy="144.671" rx="1.63" ry="1.612"/>
	<ellipse fill="#004E59" cx="208.348" cy="144.671" rx="1.633" ry="1.612"/>
	<ellipse fill="#004E59" cx="215.691" cy="144.671" rx="1.634" ry="1.612"/>
	<ellipse fill="#004E59" cx="127.566" cy="151.104" rx="1.631" ry="1.612"/>
	<path fill="#004E59" d="M133.279,151.104c0-0.889,0.727-1.611,1.631-1.611c0.897,0,1.629,0.723,1.629,1.611
		c0,0.891-0.732,1.614-1.629,1.614C134.006,152.718,133.279,151.996,133.279,151.104z"/>
	<ellipse fill="#004E59" cx="142.251" cy="151.104" rx="1.631" ry="1.612"/>
	<ellipse fill="#004E59" cx="149.597" cy="151.104" rx="1.632" ry="1.612"/>
	<path fill="#004E59" d="M155.311,151.104c0-0.889,0.73-1.611,1.627-1.611c0.902,0,1.635,0.723,1.635,1.611
		c0,0.891-0.733,1.614-1.635,1.614C156.041,152.718,155.311,151.996,155.311,151.104z"/>
	<ellipse fill="#004E59" cx="164.285" cy="151.104" rx="1.631" ry="1.612"/>
	<ellipse fill="#004E59" cx="171.628" cy="151.104" rx="1.633" ry="1.612"/>
	<ellipse fill="#004E59" cx="178.974" cy="151.104" rx="1.632" ry="1.612"/>
	<path fill="#004E59" d="M184.686,151.104c0-0.889,0.729-1.611,1.629-1.611c0.902,0,1.635,0.723,1.635,1.611
		c0,0.891-0.732,1.614-1.635,1.614C185.415,152.718,184.686,151.996,184.686,151.104z"/>
	<ellipse fill="#004E59" cx="193.661" cy="151.104" rx="1.629" ry="1.612"/>
	<ellipse fill="#004E59" cx="201.004" cy="151.104" rx="1.63" ry="1.612"/>
	<ellipse fill="#004E59" cx="208.348" cy="151.104" rx="1.633" ry="1.612"/>
	<ellipse fill="#004E59" cx="215.691" cy="151.104" rx="1.634" ry="1.612"/>
	<ellipse fill="#004E59" cx="127.566" cy="157.539" rx="1.631" ry="1.613"/>
	<path fill="#004E59" d="M133.279,157.538c0-0.89,0.727-1.612,1.631-1.612c0.897,0,1.629,0.723,1.629,1.612
		c0,0.892-0.732,1.613-1.629,1.613C134.006,159.151,133.279,158.43,133.279,157.538z"/>
	<ellipse fill="#004E59" cx="142.251" cy="157.539" rx="1.631" ry="1.613"/>
	<ellipse fill="#004E59" cx="149.597" cy="157.539" rx="1.632" ry="1.613"/>
	<path fill="#004E59" d="M155.311,157.538c0-0.89,0.73-1.612,1.627-1.612c0.902,0,1.635,0.723,1.635,1.612
		c0,0.892-0.733,1.613-1.635,1.613C156.041,159.151,155.311,158.43,155.311,157.538z"/>
	<ellipse fill="#004E59" cx="164.285" cy="157.539" rx="1.631" ry="1.613"/>
	<ellipse fill="#004E59" cx="171.628" cy="157.539" rx="1.633" ry="1.613"/>
	<ellipse fill="#004E59" cx="178.974" cy="157.539" rx="1.632" ry="1.613"/>
	<ellipse fill="#004E59" cx="186.318" cy="157.539" rx="1.631" ry="1.613"/>
	<ellipse fill="#004E59" cx="193.661" cy="157.539" rx="1.629" ry="1.613"/>
	<ellipse fill="#004E59" cx="201.004" cy="157.539" rx="1.63" ry="1.613"/>
	<ellipse fill="#004E59" cx="208.348" cy="157.539" rx="1.633" ry="1.613"/>
	<ellipse fill="#004E59" cx="215.691" cy="157.539" rx="1.634" ry="1.613"/>
</g>
<rect x="125.516" y="108.899" fill="#0069A6" width="92.229" height="1.743"/>
<path fill="#FFB700" d="M9.456,170V46.211c0-2.583-2.115-4.678-4.729-4.678C2.118,41.535,0,43.628,0,46.211V170H9.456z
	 M4.728,45.058c0.782,0,1.415,0.627,1.415,1.398c0,0.772-0.631,1.397-1.415,1.397c-0.78,0-1.413-0.625-1.413-1.397
	C3.315,45.685,3.948,45.058,4.728,45.058z M4.728,52.05c0.782,0,1.415,0.626,1.415,1.399c0,0.772-0.631,1.397-1.415,1.397
	c-0.78,0-1.413-0.625-1.413-1.397C3.315,52.676,3.948,52.05,4.728,52.05z M4.728,59.042c0.782,0,1.415,0.624,1.415,1.398
	c0,0.772-0.631,1.399-1.415,1.399c-0.78,0-1.413-0.627-1.413-1.399C3.315,59.667,3.948,59.042,4.728,59.042z M4.728,66.035
	c0.782,0,1.415,0.624,1.415,1.396S5.511,68.83,4.728,68.83c-0.78,0-1.413-0.625-1.413-1.398C3.315,66.658,3.948,66.035,4.728,66.035
	z M4.728,73.026c0.782,0,1.415,0.625,1.415,1.397c0,0.775-0.631,1.4-1.415,1.4c-0.78,0-1.413-0.625-1.413-1.4
	C3.315,73.652,3.948,73.026,4.728,73.026z M4.728,80.019c0.782,0,1.415,0.625,1.415,1.396c0,0.773-0.631,1.399-1.415,1.399
	c-0.78,0-1.413-0.626-1.413-1.399C3.315,80.644,3.948,80.019,4.728,80.019z M4.728,87.008c0.782,0,1.415,0.628,1.415,1.4
	s-0.631,1.398-1.415,1.398c-0.78,0-1.413-0.626-1.413-1.398S3.948,87.008,4.728,87.008z M4.728,94.002
	c0.782,0,1.415,0.626,1.415,1.398s-0.631,1.398-1.415,1.398c-0.78,0-1.413-0.626-1.413-1.398
	C3.315,94.627,3.948,94.002,4.728,94.002z M4.728,100.994c0.782,0,1.415,0.624,1.415,1.398c0,0.771-0.631,1.398-1.415,1.398
	c-0.78,0-1.413-0.627-1.413-1.398C3.315,101.618,3.948,100.994,4.728,100.994z M4.728,107.986c0.782,0,1.415,0.625,1.415,1.397
	c0,0.771-0.631,1.396-1.415,1.396c-0.78,0-1.413-0.626-1.413-1.396C3.315,108.611,3.948,107.986,4.728,107.986z M4.728,114.978
	c0.782,0,1.415,0.626,1.415,1.4c0,0.771-0.631,1.398-1.415,1.398c-0.78,0-1.413-0.628-1.413-1.398
	C3.315,115.604,3.948,114.978,4.728,114.978z M4.728,121.971c0.782,0,1.415,0.626,1.415,1.399c0,0.772-0.631,1.396-1.415,1.396
	c-0.78,0-1.413-0.624-1.413-1.396C3.315,122.597,3.948,121.971,4.728,121.971z M4.728,128.964c0.782,0,1.415,0.625,1.415,1.397
	s-0.631,1.398-1.415,1.398c-0.78,0-1.413-0.626-1.413-1.398S3.948,128.964,4.728,128.964z M4.728,135.954
	c0.782,0,1.415,0.624,1.415,1.399c0,0.773-0.631,1.398-1.415,1.398c-0.78,0-1.413-0.625-1.413-1.398
	C3.315,136.578,3.948,135.954,4.728,135.954z M4.728,142.945c0.782,0,1.415,0.627,1.415,1.402c0,0.77-0.631,1.396-1.415,1.396
	c-0.78,0-1.413-0.626-1.413-1.396C3.315,143.572,3.948,142.945,4.728,142.945z M4.728,149.938c0.782,0,1.415,0.626,1.415,1.399
	s-0.631,1.398-1.415,1.398c-0.78,0-1.413-0.625-1.413-1.398C3.315,150.565,3.948,149.938,4.728,149.938z M3.315,158.328
	c0-0.773,0.632-1.397,1.413-1.397c0.782,0,1.415,0.624,1.415,1.397l0,0v0.003c0,0.771-0.631,1.398-1.415,1.398
	c-0.78,0-1.413-0.627-1.413-1.398V158.328L3.315,158.328z M4.728,163.925c0.782,0,1.415,0.625,1.415,1.396
	c0,0.775-0.631,1.401-1.415,1.401c-0.78,0-1.413-0.626-1.413-1.401C3.315,164.55,3.948,163.925,4.728,163.925z"/>
<path fill="#FFB700" d="M115.855,170V46.211c0-2.583-2.116-4.678-4.729-4.678c-2.61,0-4.728,2.095-4.728,4.678V170H115.855z
	 M111.126,45.058c0.783,0,1.415,0.627,1.415,1.398c0,0.772-0.632,1.397-1.415,1.397c-0.781,0-1.413-0.625-1.413-1.397
	C109.714,45.685,110.346,45.058,111.126,45.058z M111.126,52.05c0.783,0,1.415,0.626,1.415,1.399c0,0.772-0.632,1.397-1.415,1.397
	c-0.781,0-1.413-0.625-1.413-1.397C109.714,52.676,110.346,52.05,111.126,52.05z M111.126,59.042c0.783,0,1.415,0.624,1.415,1.398
	c0,0.772-0.632,1.399-1.415,1.399c-0.781,0-1.413-0.627-1.413-1.399C109.714,59.667,110.346,59.042,111.126,59.042z M111.126,66.035
	c0.783,0,1.415,0.624,1.415,1.396s-0.632,1.398-1.415,1.398c-0.781,0-1.413-0.625-1.413-1.398
	C109.714,66.658,110.346,66.035,111.126,66.035z M111.126,73.026c0.783,0,1.415,0.625,1.415,1.397c0,0.775-0.632,1.4-1.415,1.4
	c-0.781,0-1.413-0.625-1.413-1.4C109.714,73.652,110.346,73.026,111.126,73.026z M111.126,80.019c0.783,0,1.415,0.625,1.415,1.396
	c0,0.773-0.632,1.399-1.415,1.399c-0.781,0-1.413-0.626-1.413-1.399C109.714,80.644,110.346,80.019,111.126,80.019z M111.126,87.008
	c0.783,0,1.415,0.628,1.415,1.4s-0.632,1.398-1.415,1.398c-0.781,0-1.413-0.626-1.413-1.398S110.346,87.008,111.126,87.008z
	 M111.126,94.002c0.783,0,1.415,0.626,1.415,1.398s-0.632,1.398-1.415,1.398c-0.781,0-1.413-0.626-1.413-1.398
	C109.714,94.627,110.346,94.002,111.126,94.002z M111.126,100.994c0.783,0,1.415,0.624,1.415,1.398c0,0.771-0.632,1.398-1.415,1.398
	c-0.781,0-1.413-0.627-1.413-1.398C109.714,101.618,110.346,100.994,111.126,100.994z M111.126,107.986
	c0.783,0,1.415,0.625,1.415,1.397c0,0.771-0.632,1.396-1.415,1.396c-0.781,0-1.413-0.626-1.413-1.396
	C109.714,108.611,110.346,107.986,111.126,107.986z M111.126,121.971c0.783,0,1.415,0.626,1.415,1.399
	c0,0.772-0.632,1.396-1.415,1.396c-0.781,0-1.413-0.624-1.413-1.396C109.714,122.597,110.346,121.971,111.126,121.971z
	 M111.126,128.964c0.783,0,1.415,0.625,1.415,1.397s-0.632,1.398-1.415,1.398c-0.781,0-1.413-0.626-1.413-1.398
	S110.346,128.964,111.126,128.964z M111.126,135.954c0.783,0,1.415,0.624,1.415,1.399c0,0.773-0.632,1.398-1.415,1.398
	c-0.781,0-1.413-0.625-1.413-1.398C109.714,136.578,110.346,135.954,111.126,135.954z M111.126,142.945
	c0.783,0,1.415,0.627,1.415,1.402c0,0.77-0.632,1.396-1.415,1.396c-0.781,0-1.413-0.626-1.413-1.396
	C109.714,143.572,110.346,142.945,111.126,142.945z M111.126,149.938c0.783,0,1.415,0.626,1.415,1.399s-0.632,1.398-1.415,1.398
	c-0.781,0-1.413-0.625-1.413-1.398C109.714,150.565,110.346,149.938,111.126,149.938z M111.126,156.931
	c0.783,0,1.415,0.624,1.415,1.397s-0.632,1.4-1.415,1.4c-0.781,0-1.413-0.627-1.413-1.4S110.346,156.931,111.126,156.931z
	 M111.126,163.923c0.783,0,1.415,0.623,1.415,1.398c0,0.773-0.632,1.398-1.415,1.398c-0.781,0-1.413-0.625-1.413-1.398
	C109.714,164.546,110.346,163.923,111.126,163.923z"/>
</svg>
