<?xml version="1.0" encoding="utf-8"?>
<!-- Generator: Adobe Illustrator 16.2.1, SVG Export Plug-In . SVG Version: 6.00 Build 0)  -->
<!DOCTYPE svg PUBLIC "-//W3C//DTD SVG 1.1//EN" "http://www.w3.org/Graphics/SVG/1.1/DTD/svg11.dtd">
<svg version="1.1" id="Layer_1" xmlns="http://www.w3.org/2000/svg" xmlns:xlink="http://www.w3.org/1999/xlink" x="0px" y="0px"
	 width="338px" height="160px" viewBox="0 0 338 160" enable-background="new 0 0 338 160" xml:space="preserve">
<rect fill="#EA7200" width="110.755" height="118.772"/>
<g>
	<path fill="#D8DCDA" d="M102.809,98.105c0,2.974-2.43,5.405-5.399,5.405H11.895c-2.97,0-5.399-2.432-5.399-5.405v-6.989
		c0-2.972,2.43-5.404,5.399-5.404H97.41c2.969,0,5.399,2.433,5.399,5.404V98.105z"/>
</g>
<circle fill="#1CCFC9" cx="17.67" cy="94.61" r="3.891"/>
<rect x="32.222" y="91.062" fill="#0069A6" width="3.505" height="7.095"/>
<rect x="25.642" y="91.062" fill="#0069A6" width="3.505" height="7.095"/>
<rect x="7.273" y="72.152" fill="#004E59" width="95.536" height="1.761"/>
<ellipse fill="#FFB700" cx="16.298" cy="54.156" rx="9.026" ry="9.047"/>
<g>
	<g>
		<defs>
			<path id="SVGID_1_" d="M19.92,45.87c-4.565-2.006-9.888,0.077-11.888,4.654c-2.002,4.575,0.076,9.91,4.642,11.917
				c4.566,2.005,9.889-0.078,11.89-4.655C26.566,53.211,24.485,47.875,19.92,45.87z"/>
		</defs>
		<clipPath id="SVGID_2_">
			<use xlink:href="#SVGID_1_"  overflow="visible"/>
		</clipPath>
		
			<line clip-path="url(#SVGID_2_)" fill="none" stroke="#004E59" stroke-width="4" stroke-miterlimit="10" x1="21.548" y1="42.15" x2="17.028" y2="52.485"/>
	</g>
</g>
<ellipse fill="#FFB700" cx="42.088" cy="54.156" rx="9.024" ry="9.047"/>
<g>
	<g>
		<defs>
			<path id="SVGID_3_" d="M50.49,57.458c1.82-4.65-0.466-9.9-5.106-11.725c-4.638-1.825-9.876,0.467-11.698,5.118
				c-1.82,4.651,0.466,9.9,5.106,11.726C43.433,64.402,48.671,62.11,50.49,57.458z"/>
		</defs>
		<clipPath id="SVGID_4_">
			<use xlink:href="#SVGID_3_"  overflow="visible"/>
		</clipPath>
		
			<line clip-path="url(#SVGID_4_)" fill="none" stroke="#004E59" stroke-width="4" stroke-miterlimit="10" x1="54.263" y1="58.943" x2="43.782" y2="54.82"/>
	</g>
</g>
<ellipse fill="#FFB700" cx="67.879" cy="54.156" rx="9.026" ry="9.047"/>
<g>
	<g>
		<defs>
			<path id="SVGID_5_" d="M60.417,49.067c-2.803,4.132-1.735,9.759,2.386,12.568c4.122,2.81,9.736,1.739,12.539-2.392
				c2.803-4.13,1.735-9.759-2.387-12.568C68.835,43.865,63.22,44.936,60.417,49.067z"/>
		</defs>
		<clipPath id="SVGID_6_">
			<use xlink:href="#SVGID_5_"  overflow="visible"/>
		</clipPath>
		
			<line clip-path="url(#SVGID_6_)" fill="none" stroke="#004E59" stroke-width="4" stroke-miterlimit="10" x1="57.067" y1="46.784" x2="66.376" y2="53.13"/>
	</g>
</g>
<path fill="#FFB700" d="M99.033,46.877c-4.009-2.968-9.66-2.117-12.621,1.902c-2.962,4.018-2.114,9.684,1.896,12.652
	c4.009,2.969,9.66,2.118,12.622-1.901C103.891,55.513,103.042,49.846,99.033,46.877z"/>
<g>
	<g>
		<defs>
			<path id="SVGID_7_" d="M99.033,46.877c-4.009-2.968-9.66-2.117-12.621,1.902c-2.962,4.018-2.114,9.684,1.896,12.652
				c4.009,2.969,9.66,2.118,12.622-1.901C103.891,55.513,103.042,49.846,99.033,46.877z"/>
		</defs>
		<clipPath id="SVGID_8_">
			<use xlink:href="#SVGID_7_"  overflow="visible"/>
		</clipPath>
		
			<line clip-path="url(#SVGID_8_)" fill="none" stroke="#004E59" stroke-width="4" stroke-miterlimit="10" x1="101.439" y1="43.612" x2="94.75" y2="52.688"/>
	</g>
</g>
<g>
	<rect y="118.772" fill="#929288" width="110.755" height="41.228"/>
	<g>
		<path fill="#EBEAE7" d="M97.169,141.601c0,2.973-2.43,5.405-5.399,5.405H17.748c-2.969,0-5.399-2.433-5.399-5.405v-4.865
			c0-2.973,2.43-5.405,5.399-5.405H91.77c2.97,0,5.399,2.433,5.399,5.405V141.601z"/>
	</g>
	<rect x="86.837" y="134.711" fill="#FFB700" width="4.406" height="8.914"/>
	<rect x="86.837" y="139.166" fill="#EA7200" width="4.406" height="4.459"/>
	<circle fill="#FF5000" cx="22.187" cy="139.166" r="3.427"/>
	<circle fill="#00C4B3" cx="34.716" cy="139.166" r="3.427"/>
	<circle fill="#00C4B3" cx="48.064" cy="139.166" r="3.427"/>
</g>
<g>
	<rect x="225.65" y="22.433" fill="#BEC6C3" width="112.35" height="137.567"/>
	<g>
		<circle fill="#FFFFFF" cx="241.375" cy="38.716" r="2.22"/>
		<circle fill="#FFFFFF" cx="255.013" cy="38.716" r="2.221"/>
		<circle fill="#FFFFFF" cx="268.652" cy="38.716" r="2.221"/>
		<circle fill="#FFFFFF" cx="282.292" cy="38.716" r="2.221"/>
		<circle fill="#FFFFFF" cx="295.931" cy="38.716" r="2.221"/>
		<circle fill="#FFFFFF" cx="309.57" cy="38.716" r="2.221"/>
		<circle fill="#FFFFFF" cx="323.208" cy="38.716" r="2.221"/>
	</g>
	<g>
		<circle fill="#FFFFFF" cx="241.375" cy="52.073" r="2.219"/>
		<circle fill="#FFFFFF" cx="255.013" cy="52.072" r="2.221"/>
		<circle fill="#FFFFFF" cx="268.652" cy="52.072" r="2.221"/>
		<circle fill="#FFFFFF" cx="282.292" cy="52.072" r="2.221"/>
		<circle fill="#FFFFFF" cx="295.931" cy="52.072" r="2.221"/>
		<circle fill="#FFFFFF" cx="309.57" cy="52.072" r="2.221"/>
		<circle fill="#FFFFFF" cx="323.208" cy="52.072" r="2.221"/>
	</g>
	<g>
		<circle fill="#FFFFFF" cx="241.375" cy="65.429" r="2.22"/>
		<circle fill="#FFFFFF" cx="255.013" cy="65.429" r="2.221"/>
		<circle fill="#FFFFFF" cx="268.652" cy="65.429" r="2.221"/>
		<circle fill="#FFFFFF" cx="282.292" cy="65.429" r="2.221"/>
		<circle fill="#FFFFFF" cx="295.931" cy="65.429" r="2.221"/>
		<circle fill="#FFFFFF" cx="309.57" cy="65.429" r="2.221"/>
		<circle fill="#FFFFFF" cx="323.208" cy="65.429" r="2.221"/>
	</g>
	<g>
		<circle fill="#FFFFFF" cx="241.375" cy="78.786" r="2.219"/>
		<circle fill="#FFFFFF" cx="255.013" cy="78.787" r="2.221"/>
		<circle fill="#FFFFFF" cx="268.652" cy="78.787" r="2.221"/>
		<circle fill="#FFFFFF" cx="282.292" cy="78.787" r="2.221"/>
		<circle fill="#FFFFFF" cx="295.931" cy="78.787" r="2.221"/>
		<circle fill="#FFFFFF" cx="309.57" cy="78.787" r="2.221"/>
		<circle fill="#FFFFFF" cx="323.208" cy="78.787" r="2.221"/>
	</g>
	<g>
		<circle fill="#FFFFFF" cx="241.375" cy="92.142" r="2.22"/>
		<circle fill="#FFFFFF" cx="255.013" cy="92.142" r="2.221"/>
		<circle fill="#FFFFFF" cx="268.652" cy="92.142" r="2.221"/>
		<circle fill="#FFFFFF" cx="282.292" cy="92.142" r="2.221"/>
		<circle fill="#FFFFFF" cx="295.931" cy="92.142" r="2.221"/>
		<circle fill="#FFFFFF" cx="309.57" cy="92.142" r="2.221"/>
		<circle fill="#FFFFFF" cx="323.208" cy="92.142" r="2.221"/>
	</g>
	<g>
		<circle fill="#FFFFFF" cx="241.375" cy="105.498" r="2.219"/>
		<circle fill="#FFFFFF" cx="255.013" cy="105.499" r="2.221"/>
		<circle fill="#FFFFFF" cx="268.652" cy="105.499" r="2.221"/>
		<circle fill="#FFFFFF" cx="282.292" cy="105.499" r="2.221"/>
		<circle fill="#FFFFFF" cx="295.931" cy="105.499" r="2.221"/>
		<circle fill="#FFFFFF" cx="309.57" cy="105.499" r="2.221"/>
		<circle fill="#FFFFFF" cx="323.208" cy="105.499" r="2.221"/>
	</g>
	<g>
		<circle fill="#FFFFFF" cx="241.375" cy="118.854" r="2.22"/>
		<circle fill="#FFFFFF" cx="255.013" cy="118.854" r="2.221"/>
		<circle fill="#FFFFFF" cx="268.652" cy="118.854" r="2.221"/>
		<circle fill="#FFFFFF" cx="282.292" cy="118.854" r="2.221"/>
		<circle fill="#FFFFFF" cx="295.931" cy="118.854" r="2.221"/>
		<circle fill="#FFFFFF" cx="309.57" cy="118.854" r="2.221"/>
		<circle fill="#FFFFFF" cx="323.208" cy="118.854" r="2.221"/>
	</g>
	<g>
		<circle fill="#FFFFFF" cx="241.375" cy="132.21" r="2.22"/>
		<circle fill="#FFFFFF" cx="255.013" cy="132.209" r="2.22"/>
		<circle fill="#FFFFFF" cx="268.652" cy="132.209" r="2.22"/>
		<circle fill="#FFFFFF" cx="282.292" cy="132.209" r="2.22"/>
		<circle fill="#FFFFFF" cx="295.931" cy="132.209" r="2.22"/>
		<circle fill="#FFFFFF" cx="309.57" cy="132.209" r="2.22"/>
		<circle fill="#FFFFFF" cx="323.208" cy="132.209" r="2.22"/>
	</g>
	<circle fill="#FFFFFF" cx="241.375" cy="145.566" r="2.22"/>
	<circle fill="#FFFFFF" cx="255.013" cy="145.567" r="2.22"/>
	<circle fill="#FFFFFF" cx="268.652" cy="145.567" r="2.22"/>
	<circle fill="#FFFFFF" cx="282.292" cy="145.567" r="2.22"/>
	<circle fill="#FFFFFF" cx="295.931" cy="145.567" r="2.22"/>
	<circle fill="#FFFFFF" cx="309.57" cy="145.567" r="2.22"/>
	<circle fill="#FFFFFF" cx="323.208" cy="145.567" r="2.22"/>
	
		<polyline fill="none" stroke="#1CCFC9" stroke-width="2" stroke-linecap="round" stroke-linejoin="round" stroke-miterlimit="10" points="
		241.375,145.565 255.015,145.565 255.015,132.209 241.375,118.854 268.653,92.141 268.653,105.498 282.292,105.498 
		295.931,118.854 295.931,92.141 309.57,105.498 323.209,92.141 323.209,78.786 309.57,65.429 295.931,65.429 295.931,52.072 
		282.292,52.072 	"/>
	
		<polyline fill="none" stroke="#F9BE00" stroke-width="2" stroke-linecap="round" stroke-linejoin="round" stroke-miterlimit="10" points="
		255.015,65.429 255.015,78.786 268.653,78.786 282.292,92.141 282.292,118.854 295.931,132.209 309.57,118.854 323.209,132.209 
		323.209,145.565 	"/>
	<circle fill="#FFB700" cx="282.292" cy="52.073" r="1.087"/>
	<circle fill="#FFB700" cx="241.375" cy="145.566" r="1.087"/>
	<circle fill="#FF5000" cx="323.209" cy="145.566" r="1.087"/>
	<circle fill="#FF5000" cx="255.015" cy="65.429" r="1.089"/>
	
		<polyline fill="none" stroke="#EA7200" stroke-width="2" stroke-linecap="round" stroke-linejoin="round" stroke-miterlimit="10" points="
		241.375,38.716 241.375,52.072 255.015,52.072 268.653,38.716 268.653,52.072 	"/>
	<circle fill="#0069A6" cx="268.653" cy="52.073" r="1.089"/>
	<circle fill="#0069A6" cx="241.375" cy="38.716" r="1.087"/>
</g>
<g>
	<circle fill="#004E59" cx="17.313" cy="17.808" r="3.588"/>
</g>
<g>
	<circle fill="#FF5000" cx="17.313" cy="17.808" r="2.029"/>
</g>
<g>
	<rect x="110.702" y="91.497" fill="#0069A6" width="115.875" height="68.503"/>
	<rect x="208.051" y="133.799" fill="#00C4B3" width="4.608" height="9.328"/>
	<rect x="208.051" y="138.459" fill="#004E59" width="4.608" height="4.666"/>
	<g>
		<ellipse fill="#FFFFFF" cx="128.755" cy="137.212" rx="8.741" ry="8.764"/>
		<path fill="#00C4B3" d="M137.497,137.212c0,4.84-3.915,8.759-8.742,8.759c-4.826,0-8.74-3.919-8.74-8.759"/>
	</g>
	<g>
		<ellipse fill="#FFFFFF" cx="152.452" cy="137.212" rx="8.741" ry="8.764"/>
		<path fill="#EA7200" d="M159.201,131.643c3.067,3.737,2.531,9.258-1.194,12.333c-3.728,3.074-9.236,2.539-12.303-1.197"/>
	</g>
	<g>
		<ellipse fill="#FFFFFF" cx="176.151" cy="137.212" rx="8.74" ry="8.764"/>
		<path fill="#F9BE00" d="M179.25,145.402c-4.516,1.716-9.561-0.561-11.272-5.084c-1.712-4.527,0.558-9.583,5.072-11.299"/>
	</g>
	<rect x="120.785" y="117.378" fill="#FFB700" width="94.99" height="1.843"/>
</g>
<g>
	<path fill="#EA7200" d="M182.387,85.345c-0.244,3.36-3.197,6.112-6.565,6.112h-19.536c-3.367,0-6.322-2.752-6.567-6.112
		l-2.152-29.644c-0.244-3.362,2.311-6.112,5.678-6.112h25.615c3.367,0,5.922,2.75,5.679,6.112L182.387,85.345z"/>
</g>
<path fill="#1CCFC9" d="M130.929,42.127c0,0,12.606-12.914,26.302,7.461h-7.414C149.818,49.588,146.807,37.673,130.929,42.127z"/>
<path fill="#0069A6" d="M145.604,36.242c0,0,9.246,2.958,9.841,13.242c0.595,10.284,0.595,10.284,0.595,10.284h5.768
	C161.809,59.768,162.66,38.509,145.604,36.242z"/>
<path fill="#0069A6" d="M153.71,30.158c0,0,6.853,8.135,5.187,20.709h3.928c0,0,1.886-13.67-9.114-21.186"/>
<path fill="#1CCFC9" d="M161.816,51.751c0,0-1.729-9.95,4.816-11.477c6.547-1.526,8.45,5.738,8.45,5.738s-2.284-4.044-6.736-2.851
	c-4.451,1.193-2.293,7.706-2.293,7.706L161.816,51.751z"/>
<path fill="#0069A6" d="M165.737,49.588c0,0-3.269-9.688,4.507-18.596c0,0-4.761,12.058,0.951,18.596v3.356h-5.142L165.737,49.588z"
	/>
<path fill="#1CCFC9" d="M170.478,48.647c0,0-1.505-16.223,12.937-17.654c0,0-12.537,8.416-7.618,18.595
	c4.918,10.18,4.285,10.18,4.285,10.18l-9.649-1.098L170.478,48.647z"/>
<path fill="#0069A6" d="M173.661,50.2c0-8.81,7.126-15.954,15.915-15.954c0.611,0,1.211,0.042,1.804,0.109
	c-7.94,0.898-14.114,7.645-14.114,15.845H173.661z"/>
<path fill="#0069A6" d="M151.222,55.666v-3.667c0-5.277-4.268-9.556-9.532-9.556c-5.264,0-9.532,4.279-9.532,9.556v1.315
	c0-4.505,3.645-8.157,8.139-8.157c4.493,0,8.137,3.652,8.137,8.157v1.458"/>
<path fill="#1CCFC9" d="M178.022,58.612l-1.106-7.007c0-4.479,5.836-9.221,10.306-9.221c4.471,0,8.093,3.633,8.093,8.113v1.687
	c0-2.665-1.817-6.555-6.539-6.555c-3.612,0-6.541,2.935-6.541,6.555v3.361"/>
<rect x="145.604" y="49.588" fill="#FF5000" width="40.843" height="10.18"/>
<path fill="#1CCFC9" d="M156.754,44.474c0,0-6.666,1.909-6.426,12.765c0.238,10.856,7.616,13.958,7.616,13.958
	s-7.736-18.643,1.071-21.609h2.737C161.753,49.588,162.705,43.401,156.754,44.474z"/>
<path fill="#1CCFC9" d="M167.395,49.588h3.801c0,0,5,4.23,1.588,14.889c0,0,8.33-5.169,4.51-14.889
	C174.044,41.329,167.395,45.907,167.395,49.588z"/>
</svg>
