<?xml version="1.0" encoding="utf-8"?>
<!-- Generator: Adobe Illustrator 16.2.1, SVG Export Plug-In . SVG Version: 6.00 Build 0)  -->
<!DOCTYPE svg PUBLIC "-//W3C//DTD SVG 1.1//EN" "http://www.w3.org/Graphics/SVG/1.1/DTD/svg11.dtd">
<svg version="1.1" id="Layer_1" xmlns="http://www.w3.org/2000/svg" xmlns:xlink="http://www.w3.org/1999/xlink" x="0px" y="0px"
	 width="338px" height="145px" viewBox="0 0 338 145" enable-background="new 0 0 338 145" xml:space="preserve">
<rect y="65.583" fill="#FF5000" width="6.137" height="47.995"/>
<rect y="65.583" fill="#FF5000" width="108.234" height="6.123"/>
<line fill="none" stroke="#929288" stroke-miterlimit="10" x1="6.244" y1="105.499" x2="10.737" y2="105.499"/>
<line fill="none" stroke="#929288" stroke-miterlimit="10" x1="6.244" y1="103.536" x2="8.491" y2="103.536"/>
<line fill="none" stroke="#929288" stroke-miterlimit="10" x1="6.244" y1="101.57" x2="8.491" y2="101.57"/>
<line fill="none" stroke="#929288" stroke-miterlimit="10" x1="6.244" y1="99.606" x2="8.491" y2="99.606"/>
<line fill="none" stroke="#929288" stroke-miterlimit="10" x1="6.244" y1="97.642" x2="8.491" y2="97.642"/>
<line fill="none" stroke="#929288" stroke-miterlimit="10" x1="6.244" y1="95.679" x2="10.737" y2="95.679"/>
<rect x="104.844" y="65.583" fill="#FF5000" width="6.138" height="47.995"/>
<rect x="23.045" y="115.29" fill="#1CCFC9" width="13.157" height="7.082"/>
<path fill="#BEC6C3" d="M6.244,24.474v84.219h17.068V24.474H6.244z M19.393,29.927c-0.803,0-1.452-0.647-1.452-1.447
	c0-0.796,0.649-1.445,1.452-1.445c0.8,0,1.45,0.649,1.45,1.445C20.842,29.281,20.194,29.927,19.393,29.927z"/>
<rect x="21.183" y="85.779" fill="#EA7200" width="3.181" height="41.906"/>
<polygon fill="#FFB700" points="30.728,85.779 21.183,85.779 25.956,79.188 "/>
<rect x="24.364" y="85.779" fill="#004E59" width="3.181" height="41.906"/>
<rect x="27.545" y="85.779" fill="#EA7200" width="3.181" height="41.906"/>
<polygon fill="#004E59" points="26.794,80.347 25.956,79.188 25.117,80.347 "/>
<g>
	<rect x="30.728" y="86.161" fill="#0069A6" width="6.705" height="34.202"/>
	<rect x="35.48" y="73.501" fill="#BEC6C3" width="3.445" height="2.668"/>
	<rect x="30.728" y="88.475" fill="#BEC6C3" width="6.705" height="1.808"/>
	<rect x="30.728" y="72.936" fill="#004E59" width="6.705" height="15.934"/>
	<rect x="38.283" y="72.936" fill="#004E59" width="1.29" height="15.934"/>
	<rect x="30.728" y="72.936" fill="#0069A6" width="6.705" height="3.802"/>
</g>
<polygon fill="#BEC6C3" points="47.909,101.979 40.668,101.979 42.027,36.25 46.546,36.25 "/>
<polygon fill="#FFB700" points="48.85,110.275 39.726,110.275 40.393,76.393 48.183,76.393 "/>
<path fill="#929288" d="M56.925,27.434c-1.2,1.601-3.109,2.64-5.266,2.64c-2.157,0-4.065-1.04-5.266-2.64h-0.103v-0.112
	c0,0-3.744,0-6.769,0c-3.027,0-14.105,6.938-17.132,16.59h2.27c0,0,4.235-5.127,10.891-7.541c5.089-1.845,6.198,2.481,6.438,6.71
	h4.575c0.046-2.357,0.262-4.794,1.092-5.788c1.097-1.328,2.75-2.184,4.61-2.184c1.907,0,3.6,0.894,4.695,2.279h5.062v-9.956H56.925z
	"/>
<rect x="41.59" y="42.856" fill="#004E59" width="5.329" height="1.662"/>
<rect x="50.521" y="71.256" fill="#929288" width="8.785" height="29.361"/>
<path fill="#929288" d="M59.43,54.467v7.9l-4.692,3.508l-4.34-3.508v-7.9c-3.104,1.624-5.22,4.865-5.22,8.602
	c0,5.361,4.36,9.709,9.737,9.709c5.377,0,9.735-4.348,9.735-9.709C64.649,59.332,62.532,56.091,59.43,54.467z"/>
<g>
	<polygon fill="#BEC6C3" points="70.636,80.804 64.188,80.804 64.188,68.994 	"/>
	<rect x="63.958" y="80.146" fill="#0069A6" width="6.909" height="37.117"/>
	<rect x="63.958" y="84.626" fill="#004E59" width="6.909" height="0.586"/>
</g>
<rect x="85.525" y="81.572" fill="#FFB700" width="9.261" height="24.482"/>
<rect x="85.525" y="82.627" fill="#0069A6" width="9.261" height="3.801"/>
<g>
	<path fill="#FFB700" d="M102.431,73.636c0,5.061-4.133,9.203-9.183,9.203h-6.187c-5.051,0-9.183-4.143-9.183-9.203v-6.077
		c0-5.062,4.132-9.202,9.183-9.202h6.187c5.05,0,9.183,4.141,9.183,9.202V73.636z"/>
</g>
<rect x="77.879" y="47.802" fill="#1CCFC9" width="24.553" height="15.198"/>
<rect x="77.879" y="61.733" fill="#0069A6" width="24.553" height="5.489"/>
<g>
	<rect x="71.829" y="80.457" fill="#00C4B3" width="5.666" height="28.133"/>
	<rect x="76.81" y="70.045" fill="#00C4B3" width="2.914" height="4.543"/>
	<rect x="78.257" y="83.55" fill="#00C4B3" width="1.043" height="1.522"/>
	<rect x="71.225" y="69.58" fill="#004E59" width="6.753" height="15.693"/>
	<rect x="79.298" y="69.597" fill="#004E59" width="0.97" height="15.68"/>
</g>
<rect y="96.845" fill="#FF5000" width="110.981" height="48.155"/>
<g>
	<g>
		<path fill="#FFB700" d="M171.815,63.503c-0.021-0.002-2.337-0.217-4.622-0.486c-2.284-0.265-4.6-0.59-4.622-0.593
			c-1.661-0.23-1.986-0.5-1.974-0.857c0.013-0.351,0.364-0.604,2.042-0.718l2.557-0.159l2.558-0.126
			c0.366-0.017,0.646-0.037,0.861-0.059c-0.213-0.051-0.493-0.112-0.859-0.179l-2.522-0.475l-2.521-0.508
			c-1.664-0.343-1.974-0.633-1.937-0.99c0.037-0.356,0.399-0.577,2.1-0.577l2.569,0.013l2.565,0.045c0.375,0.008,0.662,0.006,0.88,0
			c-0.206-0.066-0.475-0.144-0.83-0.233l-2.477-0.643l-2.472-0.673c-1.623-0.452-1.916-0.774-1.858-1.121
			c0.061-0.341,0.44-0.546,2.105-0.438l2.547,0.185l2.541,0.212c0.365,0.034,0.646,0.048,0.86,0.055
			c-0.199-0.078-0.462-0.172-0.807-0.286l-2.419-0.805l-2.413-0.837c-1.577-0.557-1.845-0.897-1.763-1.236
			c0.083-0.338,0.479-0.521,2.146-0.293l2.537,0.356l2.528,0.386c0.361,0.059,0.64,0.092,0.852,0.115
			c-0.197-0.094-0.458-0.207-0.802-0.346l-2.374-0.974l-2.37-1.002c-1.551-0.667-1.797-1.014-1.688-1.356
			c0.104-0.332,0.513-0.485,2.175-0.147l5.018,1.092c0.36,0.083,0.641,0.138,0.856,0.176c-0.188-0.106-0.438-0.235-0.766-0.396
			l-2.296-1.127l-2.285-1.159c-1.499-0.771-1.722-1.146-1.593-1.47c0.125-0.326,0.539-0.451,2.149-0.006l2.454,0.691l2.443,0.723
			c0.357,0.107,0.633,0.182,0.845,0.231c-0.178-0.116-0.414-0.261-0.727-0.44l-2.208-1.277l-2.195-1.307
			c-1.434-0.866-1.627-1.253-1.478-1.568c0.149-0.316,0.573-0.414,2.158,0.142l4.805,1.751c0.341,0.127,0.604,0.218,0.81,0.282
			c-0.173-0.132-0.409-0.296-0.719-0.503l-2.128-1.433l-2.115-1.459c-1.363-0.955-1.529-1.353-1.358-1.655
			c0.171-0.307,0.604-0.373,2.155,0.293l4.69,2.077c0.337,0.154,0.597,0.264,0.801,0.342c-0.164-0.14-0.383-0.32-0.675-0.543
			l-2.023-1.567l-2.005-1.596c-1.312-1.06-1.457-1.471-1.265-1.764c0.196-0.298,0.617-0.332,2.102,0.425l2.264,1.173l2.265,1.207
			c0.331,0.18,0.589,0.31,0.788,0.403c-0.153-0.15-0.354-0.34-0.629-0.579l-1.905-1.697l-1.887-1.72
			c-1.234-1.14-1.348-1.557-1.138-1.837c0.212-0.278,0.644-0.287,2.082,0.572l2.186,1.324l2.167,1.35
			c0.305,0.194,0.547,0.335,0.734,0.441c-0.146-0.166-0.343-0.378-0.609-0.645l-1.787-1.82l-1.762-1.84
			c-1.146-1.209-1.228-1.633-1-1.897s0.666-0.245,2.048,0.718l2.099,1.472l2.075,1.497c0.296,0.217,0.531,0.376,0.713,0.494
			c-0.133-0.17-0.312-0.391-0.555-0.671l-1.669-1.942l-1.645-1.966c-1.082-1.303-1.137-1.734-0.89-1.983
			c0.251-0.255,0.672-0.201,1.979,0.843l1.999,1.614l1.977,1.638c0.286,0.242,0.513,0.417,0.688,0.547
			c-0.118-0.178-0.28-0.405-0.5-0.697l-1.529-2.042l-1.506-2.068c-0.983-1.366-1.015-1.787-0.746-2.027
			c0.27-0.24,0.683-0.158,1.92,0.973l1.874,1.73l1.85,1.754c0.262,0.25,0.471,0.438,0.634,0.577
			c-0.108-0.186-0.254-0.426-0.457-0.732l-1.381-2.135l-1.358-2.156c-0.886-1.421-0.887-1.844-0.605-2.063
			c0.278-0.212,0.702-0.106,1.86,1.109l1.759,1.856l1.731,1.878c0.248,0.271,0.445,0.473,0.598,0.625
			c-0.096-0.196-0.229-0.449-0.412-0.772l-1.246-2.24l-1.222-2.255c-0.795-1.49-0.77-1.912-0.472-2.112
			c0.299-0.199,0.702-0.063,1.789,1.238l1.633,1.979l1.604,1.998c0.232,0.29,0.416,0.509,0.562,0.67
			c-0.081-0.198-0.193-0.454-0.352-0.786l-1.089-2.308l-1.06-2.33c-0.692-1.533-0.631-1.963-0.327-2.139
			c0.305-0.174,0.704-0.013,1.684,1.332l1.486,2.068l1.459,2.084c0.211,0.308,0.381,0.536,0.516,0.707
			c-0.068-0.202-0.162-0.462-0.292-0.794l-0.928-2.371l-0.898-2.388c-0.579-1.566-0.489-1.989-0.175-2.144
			c0.314-0.153,0.706,0.033,1.599,1.454l1.345,2.172l1.316,2.185c0.187,0.312,0.336,0.548,0.456,0.726
			c-0.053-0.213-0.133-0.487-0.248-0.844l-0.77-2.443l-0.739-2.456c-0.471-1.595-0.352-2.006-0.027-2.139
			c0.326-0.131,0.704,0.082,1.502,1.572l1.198,2.261l1.17,2.279c0.167,0.328,0.302,0.578,0.412,0.765
			c-0.04-0.213-0.099-0.487-0.188-0.843l-0.599-2.482l-0.57-2.497c-0.362-1.646-0.218-2.054,0.114-2.166
			c0.331-0.112,0.694,0.128,1.381,1.642l1.033,2.322l1.014,2.351c0.146,0.345,0.264,0.606,0.36,0.803
			c-0.024-0.21-0.063-0.485-0.124-0.838l-0.825-5.03c-0.249-1.654-0.074-2.052,0.266-2.139c0.338-0.083,0.684,0.173,1.268,1.743
			c0,0.001,0.438,1.2,0.878,2.395l0.846,2.407c0.118,0.342,0.216,0.603,0.297,0.798c-0.011-0.218-0.031-0.505-0.071-0.877
			l-0.26-2.551l-0.222-2.534c-0.135-1.656,0.065-2.038,0.407-2.1c0.346-0.067,0.673,0.224,1.151,1.838l0.714,2.458l0.682,2.464
			c0.097,0.356,0.181,0.628,0.248,0.833c0.004-0.216,0.002-0.498-0.012-0.866l-0.083-2.553l-0.053-2.562
			c-0.023-1.686,0.204-2.058,0.553-2.1c0.364-0.04,0.65,0.262,1.015,1.885l0.544,2.485l0.517,2.514
			c0.071,0.371,0.137,0.649,0.193,0.863c0.017-0.213,0.034-0.491,0.046-0.851l0.087-2.545l0.123-2.548
			c0.088-1.67,0.336-2.026,0.687-2.043c0.353,0.001,0.634,0.307,0.889,1.96l0.379,2.521l0.345,2.526
			c0.049,0.36,0.091,0.635,0.131,0.845c0.033-0.217,0.07-0.502,0.107-0.876l0.527-5.088c0.177-1.685,0.4-2.004,0.751-2.004
			c0.352-0.001,0.574,0.317,0.753,2.003l0.537,5.072c0.045,0.423,0.09,0.731,0.135,0.952c0.043-0.221,0.088-0.529,0.133-0.952
			l0.538-5.072c0.179-1.684,0.402-2.003,0.751-2.003c0.353-0.001,0.576,0.317,0.753,2.003l0.536,5.072
			c0.046,0.423,0.093,0.731,0.135,0.952c0.042-0.221,0.089-0.529,0.134-0.952l0.537-5.072c0.18-1.684,0.401-2.003,0.752-2.003
			c0.349-0.001,0.572,0.317,0.752,2.003l0.535,5.072c0.047,0.423,0.093,0.731,0.136,0.953c0.044-0.222,0.088-0.53,0.135-0.953
			l0.538-5.072c0.177-1.684,0.4-2.003,0.751-2.003c0.35-0.001,0.572,0.317,0.751,2.003l0.537,5.072
			c0.046,0.423,0.092,0.729,0.133,0.952c0.045-0.223,0.089-0.529,0.135-0.952l0.536-5.072c0.18-1.684,0.402-2.003,0.755-2.003
			c0.35-0.001,0.573,0.317,0.75,2.003l0.537,5.072c0.045,0.423,0.092,0.731,0.135,0.953c0.043-0.222,0.09-0.53,0.133-0.953
			l0.538-5.072c0.178-1.684,0.4-2.003,0.751-2.003c0.352-0.001,0.575,0.317,0.755,2.003l0.535,5.072
			c0.045,0.423,0.091,0.731,0.133,0.952c0.044-0.221,0.09-0.529,0.133-0.952l0.539-5.072c0.178-1.684,0.402-2.003,0.753-2.003l0,0
			c0.35,0,0.575,0.319,0.752,2.003l0.536,5.072c0.046,0.423,0.093,0.729,0.135,0.952c0.044-0.223,0.089-0.529,0.135-0.952
			l0.538-5.072c0.177-1.684,0.4-2.003,0.751-2.003l0,0c0.351,0,0.574,0.319,0.754,2.003l0.536,5.072
			c0.045,0.423,0.091,0.731,0.134,0.952c0.04-0.221,0.086-0.529,0.131-0.952l0.539-5.072c0.178-1.684,0.403-2.003,0.753-2.003
			c0.351-0.001,0.573,0.317,0.752,2.003l0.98,9.254l-0.618,0.066l-0.98-9.255c-0.045-0.423-0.091-0.73-0.134-0.952
			c-0.042,0.223-0.086,0.529-0.133,0.952l-0.539,5.072c-0.18,1.684-0.401,2.002-0.754,2.002c-0.35,0-0.573-0.318-0.753-2.002
			l-0.534-5.072c-0.045-0.423-0.091-0.73-0.135-0.952c-0.042,0.223-0.088,0.528-0.132,0.952l-0.538,5.072
			c-0.177,1.684-0.4,2.002-0.753,2.002c-0.351,0-0.573-0.318-0.752-2.002l-0.536-5.072c-0.044-0.424-0.09-0.732-0.134-0.954
			c-0.042,0.222-0.088,0.53-0.133,0.954l-0.539,5.072c-0.178,1.685-0.401,2.002-0.753,2.002c-0.349,0-0.574-0.318-0.752-2.002
			l-0.535-5.072c-0.047-0.423-0.093-0.73-0.133-0.952c-0.045,0.223-0.091,0.529-0.135,0.952l-0.536,5.072
			c-0.182,1.684-0.402,2.002-0.754,2.002s-0.574-0.318-0.753-2.002l-0.537-5.072c-0.044-0.423-0.088-0.73-0.133-0.952
			c-0.042,0.223-0.089,0.529-0.133,0.952l-0.538,5.072c-0.179,1.684-0.402,2.002-0.753,2.002s-0.573-0.318-0.753-2.002l-0.536-5.072
			c-0.045-0.423-0.09-0.73-0.133-0.952c-0.043,0.223-0.09,0.529-0.135,0.952l-0.536,5.072c-0.18,1.685-0.402,2.002-0.752,2.002
			c-0.353,0-0.574-0.318-0.753-2.002l-0.537-5.072c-0.045-0.424-0.091-0.732-0.134-0.954c-0.043,0.222-0.09,0.53-0.133,0.954
			l-0.538,5.072c-0.177,1.684-0.4,2.002-0.752,2.002c-0.351,0-0.574-0.318-0.754-2.002l-0.535-5.072
			c-0.047-0.423-0.091-0.73-0.136-0.952c-0.042,0.223-0.088,0.529-0.133,0.952l-0.537,5.072c-0.18,1.684-0.402,2.002-0.752,2.002
			c-0.351,0-0.575-0.318-0.755-2.002l-0.535-5.072c-0.044-0.423-0.091-0.73-0.135-0.952c-0.04,0.223-0.087,0.529-0.131,0.952
			l-0.527,5.086c-0.164,1.714-0.358,2.02-0.706,2.024c-0.003,0-0.007,0-0.008,0c-0.339,0-0.54-0.303-0.761-1.972l-0.344-2.52
			l-0.377-2.518c-0.083-0.529-0.161-0.872-0.228-1.094c-0.042,0.229-0.085,0.579-0.114,1.113l-0.123,2.543l-0.086,2.539
			c-0.049,1.699-0.224,2.011-0.565,2.039c-0.368,0.022-0.569-0.256-0.906-1.946l-0.516-2.508l-0.542-2.48
			c-0.115-0.514-0.217-0.848-0.296-1.063c-0.026,0.232-0.049,0.59-0.04,1.136l0.05,2.554l0.084,2.547
			c0.065,1.711-0.087,2.035-0.428,2.088c-0.346,0.051-0.583-0.213-1.032-1.868l-0.679-2.459l-0.715-2.453
			c-0.155-0.519-0.28-0.855-0.376-1.067c-0.01,0.229-0.008,0.577,0.036,1.104l0.221,2.529l0.256,2.542
			c0.186,1.713,0.058,2.05-0.28,2.125c-0.34,0.081-0.595-0.173-1.149-1.779l-0.843-2.4c-0.439-1.192-0.876-2.391-0.876-2.391
			c-0.188-0.503-0.336-0.824-0.447-1.027c0.005,0.23,0.033,0.584,0.112,1.115l0.822,5.02c0.293,1.671,0.188,2.013-0.142,2.108
			c-0.331,0.1-0.608-0.133-1.282-1.724l-1.009-2.345l-1.033-2.317c-0.217-0.481-0.385-0.789-0.506-0.984
			c0.021,0.232,0.071,0.587,0.189,1.118l0.566,2.491l0.601,2.477c0.409,1.661,0.326,2.009,0.004,2.129
			c-0.324,0.122-0.615-0.094-1.39-1.623l-1.165-2.274l-1.196-2.258c-0.259-0.48-0.45-0.784-0.587-0.973
			c0.036,0.227,0.111,0.567,0.259,1.074l0.737,2.45l0.768,2.438c0.527,1.641,0.472,1.997,0.155,2.136
			c-0.316,0.143-0.618-0.049-1.491-1.513l-1.312-2.179l-1.343-2.166c-0.288-0.458-0.498-0.744-0.647-0.922
			c0.053,0.225,0.149,0.565,0.335,1.068l0.896,2.381l0.925,2.367c0.626,1.574,0.59,1.93,0.288,2.09
			c-0.304,0.165-0.625-0.011-1.6-1.421l-1.457-2.08l-1.482-2.064c-0.312-0.43-0.54-0.696-0.697-0.862
			c0.066,0.223,0.188,0.559,0.41,1.053l1.062,2.323l1.084,2.303c0.738,1.541,0.728,1.899,0.435,2.081
			c-0.296,0.181-0.623,0.031-1.689-1.313l-1.604-1.993l-1.628-1.974c-0.348-0.416-0.596-0.674-0.77-0.833
			c0.084,0.219,0.227,0.542,0.48,1.017l1.218,2.254l1.243,2.233c0.845,1.496,0.861,1.854,0.58,2.057
			c-0.278,0.2-0.613,0.075-1.768-1.188l-1.729-1.874l-1.753-1.854c-0.374-0.389-0.637-0.627-0.818-0.775
			c0.093,0.211,0.257,0.521,0.54,0.974l1.354,2.152l1.382,2.13c0.934,1.423,0.971,1.78,0.705,2
			c-0.266,0.217-0.606,0.119-1.837-1.057l-1.845-1.75l-1.868-1.726c-0.393-0.359-0.67-0.577-0.86-0.708
			c0.11,0.204,0.296,0.507,0.61,0.945l1.505,2.062l1.524,2.038c1.029,1.361,1.091,1.713,0.84,1.951
			c-0.249,0.232-0.601,0.155-1.924-0.954l-1.972-1.634l-1.994-1.609c-0.413-0.331-0.701-0.53-0.9-0.649
			c0.124,0.2,0.334,0.491,0.68,0.911l1.643,1.96l1.665,1.938c1.124,1.295,1.213,1.645,0.979,1.898
			c-0.234,0.252-0.591,0.198-1.975-0.813l-4.164-2.961c-0.447-0.313-0.754-0.494-0.963-0.6c0.135,0.186,0.356,0.457,0.723,0.842
			l1.757,1.837l1.783,1.817c1.217,1.224,1.33,1.568,1.112,1.838c-0.216,0.268-0.572,0.235-2.013-0.674l-2.16-1.348l-2.181-1.321
			c-0.46-0.274-0.776-0.434-0.989-0.528c0.146,0.18,0.391,0.438,0.787,0.804l1.883,1.719l1.902,1.692
			c1.277,1.124,1.408,1.457,1.211,1.737c-0.197,0.283-0.559,0.273-2.08-0.55l-2.26-1.206l-2.258-1.169
			c-0.472-0.242-0.792-0.375-1.011-0.453c0.161,0.169,0.425,0.413,0.851,0.757l2.001,1.592l2.015,1.562
			c1.359,1.043,1.516,1.368,1.338,1.662s-0.538,0.31-2.101-0.406l-4.679-2.072c-0.502-0.215-0.842-0.333-1.067-0.394
			c0.169,0.153,0.439,0.373,0.873,0.677l2.109,1.458l2.126,1.429c1.437,0.953,1.613,1.267,1.457,1.575
			c-0.159,0.304-0.512,0.345-2.111-0.259l-4.795-1.745c-0.51-0.179-0.854-0.271-1.081-0.318c0.182,0.144,0.47,0.347,0.929,0.626
			l4.392,2.58c1.474,0.841,1.668,1.14,1.531,1.455c-0.138,0.316-0.492,0.381-2.137-0.115l-2.438-0.724l-2.45-0.688
			c-0.513-0.142-0.858-0.209-1.085-0.242c0.189,0.134,0.495,0.321,0.981,0.57L168,47.958l2.291,1.125
			c1.54,0.744,1.757,1.03,1.641,1.354c-0.116,0.326-0.464,0.412-2.143,0.028l-5.005-1.09c-0.534-0.109-0.892-0.157-1.125-0.172
			c0.199,0.12,0.517,0.283,1.012,0.497l2.363,1.002l2.369,0.969c1.599,0.645,1.835,0.916,1.744,1.249
			c-0.093,0.33-0.432,0.44-2.125,0.173l-2.522-0.387l-2.53-0.357c-0.536-0.073-0.891-0.092-1.125-0.093
			c0.205,0.106,0.53,0.247,1.032,0.425l2.409,0.834l2.415,0.805c1.614,0.527,1.864,0.781,1.795,1.118
			c-0.068,0.339-0.404,0.471-2.101,0.319l-2.534-0.214l-2.541-0.183c-0.53-0.036-0.883-0.032-1.112-0.018
			c0.213,0.092,0.548,0.212,1.073,0.358l2.466,0.672l2.471,0.64c1.657,0.419,1.928,0.657,1.881,0.997
			c-0.048,0.34-0.37,0.495-2.095,0.458l-2.564-0.046l-2.562-0.012c-0.541,0-0.897,0.025-1.131,0.056
			c0.222,0.077,0.565,0.173,1.094,0.281l2.518,0.507l2.518,0.474c1.692,0.309,1.98,0.527,1.958,0.871
			c-0.024,0.343-0.335,0.521-2.044,0.597l-2.551,0.125l-2.553,0.158c-0.539,0.038-0.892,0.086-1.119,0.132
			c0.223,0.064,0.568,0.135,1.098,0.21c0.022,0.002,2.328,0.328,4.608,0.591c2.277,0.267,4.583,0.481,4.607,0.483L171.815,63.503z"
			/>
	</g>
</g>
<g>
	<rect x="226.892" fill="#00C4B3" width="111.108" height="145"/>
</g>
<g>
	<ellipse fill="#004E59" cx="300.155" cy="53.337" rx="3.584" ry="3.574"/>
</g>
<g>
	<ellipse fill="#004E59" cx="313.043" cy="53.337" rx="3.584" ry="3.574"/>
</g>
<g>
	<ellipse fill="#004E59" cx="277.362" cy="92.638" rx="3.585" ry="3.574"/>
</g>
<g>
	<path fill="#004E59" d="M271.083,25.691c0,1.937-1.587,3.517-3.525,3.517h-26.438c-1.94,0-3.528-1.58-3.528-3.517V12.755
		c0-1.936,1.586-3.518,3.528-3.518h26.438c1.938,0,3.525,1.582,3.525,3.518V25.691z"/>
</g>
<g>
	<path fill="#FFFFFF" d="M288.708,126.492c-6.599,0-11.968-5.354-11.968-11.934V91.876h1.243v22.682
		c0,5.893,4.81,10.692,10.722,10.692c5.875,0,10.73-4.802,10.826-10.705V53.498h1.245v61.06
		C300.671,121.141,295.256,126.492,288.708,126.492z"/>
</g>
<g>
	<path fill="#FFFFFF" d="M293.672,144.982H266.53v-1.239h27.142c5.097,0,9.864-1.984,13.422-5.591
		c3.514-3.561,5.407-8.274,5.329-13.267v-71.85h1.241v71.837c0.085,5.322-1.934,10.35-5.685,14.149
		C304.185,142.868,299.104,144.982,293.672,144.982z"/>
</g>
<g>
	<ellipse fill="#FF5000" cx="300.156" cy="53.337" rx="2.023" ry="2.023"/>
</g>
<g>
	<ellipse fill="#FF5000" cx="277.362" cy="92.637" rx="2.027" ry="2.022"/>
</g>
<g>
	<g>
		<defs>
			<rect id="SVGID_1_" x="237.591" y="9.237" width="33.386" height="19.972"/>
		</defs>
		<clipPath id="SVGID_2_">
			<use xlink:href="#SVGID_1_"  overflow="visible"/>
		</clipPath>
		<g clip-path="url(#SVGID_2_)">
			<path fill="#FFB700" d="M331.15,23.921c-0.396,0-0.614-0.471-0.781-1.677l-0.573-4.139c-0.056-0.41-0.114-0.681-0.165-0.86
				c-0.05,0.18-0.105,0.45-0.162,0.86l-0.571,4.139c-0.169,1.206-0.387,1.677-0.784,1.677c-0.394,0-0.61-0.471-0.781-1.677
				l-0.57-4.139c-0.059-0.41-0.115-0.681-0.164-0.86c-0.05,0.18-0.11,0.45-0.165,0.86l-0.572,4.139
				c-0.167,1.206-0.385,1.677-0.782,1.677c-0.395,0-0.613-0.471-0.779-1.677l-0.573-4.139c-0.057-0.41-0.116-0.681-0.162-0.86
				c-0.051,0.18-0.11,0.45-0.165,0.86l-0.573,4.139c-0.167,1.206-0.386,1.677-0.78,1.677c-0.396,0-0.614-0.471-0.781-1.677
				l-0.574-4.139c-0.056-0.41-0.113-0.681-0.163-0.86c-0.051,0.18-0.109,0.45-0.166,0.86l-0.572,4.139
				c-0.165,1.206-0.384,1.677-0.779,1.677c-0.395,0-0.614-0.471-0.782-1.677l-0.572-4.139c-0.058-0.41-0.114-0.681-0.164-0.86
				c-0.05,0.18-0.109,0.45-0.166,0.86l-0.571,4.139c-0.167,1.206-0.386,1.677-0.78,1.677l0,0c-0.396,0-0.614-0.471-0.782-1.677
				l-0.573-4.139c-0.055-0.41-0.113-0.681-0.163-0.86c-0.049,0.18-0.108,0.45-0.163,0.86l-0.575,4.139
				c-0.165,1.206-0.382,1.677-0.779,1.677c-0.395,0-0.613-0.471-0.782-1.677l-0.572-4.139c-0.056-0.409-0.112-0.681-0.163-0.86
				c-0.051,0.18-0.107,0.451-0.165,0.86l-0.571,4.139c-0.168,1.206-0.387,1.677-0.782,1.677l0,0c-0.395,0-0.613-0.471-0.781-1.677
				l-0.573-4.139c-0.058-0.409-0.115-0.681-0.164-0.86c-0.049,0.18-0.105,0.45-0.165,0.86l-0.571,4.139
				c-0.169,1.206-0.385,1.677-0.782,1.677c-0.395,0-0.614-0.471-0.783-1.677l-0.57-4.139c-0.058-0.41-0.114-0.681-0.165-0.86
				c-0.048,0.18-0.107,0.45-0.163,0.86l-0.572,4.139c-0.168,1.206-0.386,1.677-0.779,1.677c-0.396,0-0.616-0.471-0.781-1.677
				l-0.573-4.139c-0.057-0.409-0.115-0.681-0.166-0.86c-0.049,0.18-0.105,0.45-0.162,0.86l-0.574,4.139
				c-0.167,1.206-0.386,1.677-0.781,1.677l0,0c-0.395,0-0.613-0.471-0.779-1.677l-0.573-4.139c-0.058-0.41-0.114-0.681-0.165-0.86
				c-0.05,0.18-0.107,0.45-0.165,0.86l-0.571,4.139c-0.165,1.206-0.386,1.677-0.782,1.677c-0.395,0-0.612-0.471-0.779-1.677
				l-0.575-4.139c-0.056-0.409-0.112-0.681-0.161-0.86c-0.05,0.18-0.11,0.451-0.165,0.86l-0.574,4.139
				c-0.169,1.206-0.385,1.677-0.78,1.677l0,0c-0.395,0-0.613-0.471-0.782-1.677l-0.571-4.139c-0.058-0.409-0.116-0.681-0.165-0.86
				c-0.05,0.18-0.107,0.45-0.164,0.86l-0.573,4.139c-0.165,1.206-0.385,1.677-0.779,1.677c-0.396,0-0.613-0.471-0.781-1.677
				l-0.572-4.139c-0.058-0.41-0.114-0.681-0.164-0.86c-0.049,0.18-0.108,0.45-0.165,0.86l-0.572,4.139
				c-0.166,1.206-0.386,1.677-0.781,1.677s-0.612-0.471-0.78-1.677l-0.573-4.139c-0.057-0.409-0.115-0.681-0.164-0.86
				c-0.051,0.18-0.107,0.45-0.164,0.86l-0.571,4.139c-0.167,1.206-0.387,1.677-0.785,1.677c-0.394,0-0.61-0.471-0.779-1.677
				l-0.572-4.139c-0.055-0.41-0.115-0.681-0.164-0.86c-0.049,0.18-0.108,0.45-0.165,0.86l-0.571,4.139
				c-0.168,1.206-0.387,1.677-0.781,1.677c-0.396,0-0.613-0.471-0.78-1.677l-0.574-4.139c-0.056-0.41-0.115-0.681-0.164-0.86
				c-0.048,0.18-0.106,0.45-0.163,0.86l-0.573,4.139c-0.168,1.206-0.388,1.677-0.782,1.677l0,0c-0.395,0-0.613-0.471-0.78-1.677
				l-0.573-4.139c-0.055-0.41-0.115-0.681-0.165-0.86c-0.048,0.18-0.107,0.45-0.163,0.86l-0.572,4.139
				c-0.167,1.206-0.387,1.677-0.782,1.677c-0.393,0-0.612-0.471-0.78-1.677l-0.571-4.139c-0.059-0.41-0.117-0.681-0.165-0.86
				c-0.051,0.18-0.108,0.45-0.165,0.86l-0.572,4.139c-0.168,1.206-0.386,1.677-0.782,1.677c-0.395,0-0.612-0.471-0.78-1.677
				l-0.571-4.139c-0.057-0.41-0.116-0.681-0.165-0.86c-0.049,0.18-0.109,0.45-0.166,0.86l-0.571,4.139
				c-0.166,1.206-0.385,1.677-0.78,1.677c-0.395,0-0.614-0.471-0.782-1.677l-0.573-4.139c-0.055-0.41-0.115-0.681-0.166-0.86
				c-0.048,0.18-0.105,0.45-0.161,0.86l-0.574,4.139c-0.167,1.206-0.384,1.677-0.78,1.677c-0.395,0-0.615-0.471-0.781-1.677
				l-0.573-4.139c-0.055-0.41-0.113-0.681-0.163-0.86c-0.05,0.18-0.109,0.45-0.164,0.86l-0.573,4.139
				c-0.168,1.206-0.385,1.677-0.782,1.677l0,0c-0.395,0-0.612-0.471-0.78-1.677l-0.573-4.139c-0.056-0.41-0.115-0.681-0.163-0.86
				c-0.049,0.18-0.109,0.45-0.165,0.86l-0.572,4.139c-0.166,1.206-0.385,1.677-0.781,1.677c-0.395,0-0.613-0.471-0.78-1.677
				l-0.574-4.139c-0.055-0.41-0.112-0.681-0.163-0.86c-0.05,0.18-0.108,0.45-0.166,0.86l-0.571,4.139
				c-0.167,1.206-0.385,1.677-0.78,1.677c-0.396,0-0.614-0.471-0.78-1.677l-0.574-4.139c-0.056-0.409-0.116-0.681-0.164-0.86
				c-0.049,0.18-0.107,0.45-0.164,0.86l-0.573,4.139c-0.168,1.206-0.385,1.677-0.781,1.677c-0.395,0-0.613-0.471-0.78-1.677
				l-0.574-4.139c-0.057-0.41-0.115-0.681-0.164-0.86c-0.049,0.18-0.107,0.45-0.165,0.86l-0.571,4.139
				c-0.168,1.206-0.387,1.677-0.78,1.677c-0.396,0-0.614-0.471-0.781-1.677l-0.574-4.139c-0.056-0.409-0.114-0.681-0.163-0.86
				c-0.051,0.18-0.108,0.451-0.165,0.86l-0.572,4.139c-0.165,1.206-0.385,1.677-0.78,1.677c-0.396,0-0.615-0.471-0.781-1.677
				l-0.574-4.139c-0.057-0.409-0.113-0.681-0.164-0.86c-0.05,0.18-0.107,0.451-0.162,0.86l-0.574,4.139
				c-0.167,1.206-0.386,1.677-0.78,1.677s-0.614-0.471-0.781-1.677l-0.573-4.139c-0.057-0.41-0.115-0.681-0.164-0.86
				c-0.049,0.18-0.107,0.45-0.163,0.86l-0.574,4.139c-0.168,1.206-0.385,1.677-0.781,1.677c-0.395,0-0.612-0.471-0.78-1.677
				l-0.574-4.139c-0.055-0.41-0.114-0.681-0.164-0.86c-0.048,0.18-0.107,0.45-0.162,0.86l-0.576,4.139
				c-0.164,1.206-0.383,1.677-0.78,1.677c-0.395,0-0.614-0.471-0.779-1.677l-0.572-4.139c-0.059-0.41-0.116-0.681-0.165-0.86
				c-0.051,0.18-0.107,0.45-0.164,0.86l-0.572,4.139c-0.168,1.206-0.386,1.677-0.781,1.677c-0.395,0-0.612-0.471-0.781-1.677
				l-1.044-7.554l0.616-0.085l1.044,7.553c0.057,0.408,0.115,0.682,0.164,0.859c0.05-0.179,0.109-0.452,0.165-0.859l0.572-4.139
				c0.166-1.205,0.385-1.675,0.781-1.675c0.395,0,0.612,0.471,0.78,1.675l0.574,4.139c0.056,0.408,0.115,0.682,0.162,0.859
				c0.051-0.179,0.107-0.452,0.165-0.859l0.574-4.139c0.168-1.205,0.385-1.675,0.779-1.675c0.397,0,0.616,0.471,0.782,1.675
				l0.573,4.139c0.056,0.408,0.114,0.682,0.163,0.859c0.05-0.179,0.106-0.452,0.164-0.859l0.573-4.139
				c0.166-1.205,0.386-1.675,0.781-1.675c0.395,0,0.612,0.471,0.781,1.675l0.573,4.139c0.057,0.408,0.113,0.682,0.164,0.859
				c0.049-0.179,0.107-0.452,0.163-0.859l0.573-4.139c0.169-1.205,0.386-1.675,0.78-1.675l0,0c0.396,0,0.613,0.471,0.78,1.675
				l0.574,4.139c0.057,0.408,0.115,0.682,0.165,0.859c0.049-0.179,0.107-0.452,0.163-0.859l0.573-4.139
				c0.167-1.205,0.385-1.675,0.781-1.675l0,0c0.396,0,0.613,0.471,0.78,1.675l0.571,4.139c0.06,0.408,0.116,0.682,0.166,0.859
				c0.05-0.179,0.106-0.452,0.164-0.859l0.573-4.139c0.166-1.205,0.385-1.675,0.78-1.675s0.613,0.471,0.782,1.675l0.572,4.139
				c0.057,0.408,0.115,0.682,0.164,0.859c0.05-0.179,0.107-0.452,0.164-0.859l0.573-4.139c0.167-1.205,0.385-1.675,0.781-1.675
				c0.395,0,0.612,0.471,0.781,1.675l0.572,4.139c0.059,0.408,0.115,0.682,0.165,0.859c0.048-0.179,0.107-0.452,0.164-0.859
				l0.572-4.139c0.166-1.205,0.386-1.675,0.781-1.675c0.394,0,0.612,0.471,0.781,1.675l0.571,4.139
				c0.058,0.408,0.114,0.682,0.165,0.859c0.05-0.179,0.107-0.452,0.164-0.859l0.573-4.139c0.166-1.205,0.385-1.675,0.781-1.675
				c0.396,0,0.613,0.471,0.78,1.675l0.573,4.139c0.058,0.408,0.115,0.682,0.163,0.859c0.05-0.179,0.109-0.452,0.165-0.859
				l0.575-4.139c0.166-1.205,0.383-1.675,0.779-1.675c0.393,0,0.612,0.471,0.781,1.675l0.571,4.139
				c0.06,0.408,0.116,0.682,0.165,0.859c0.05-0.179,0.106-0.452,0.166-0.859l0.57-4.139c0.166-1.205,0.388-1.675,0.779-1.675
				c0.398,0,0.615,0.471,0.783,1.675l0.573,4.139c0.055,0.408,0.114,0.682,0.165,0.859c0.047-0.179,0.107-0.452,0.164-0.859
				l0.571-4.139c0.168-1.205,0.387-1.675,0.782-1.675s0.612,0.471,0.781,1.675l0.572,4.139c0.056,0.408,0.115,0.682,0.163,0.859
				c0.051-0.179,0.109-0.452,0.164-0.859l0.573-4.139c0.166-1.205,0.385-1.675,0.782-1.675c0.394,0,0.613,0.471,0.78,1.675
				l0.571,4.139c0.059,0.408,0.116,0.682,0.165,0.859c0.05-0.179,0.109-0.452,0.166-0.859l0.571-4.139
				c0.167-1.205,0.385-1.675,0.781-1.675c0.394,0,0.613,0.471,0.781,1.675l0.573,4.139c0.056,0.408,0.115,0.682,0.163,0.859
				c0.051-0.179,0.109-0.452,0.165-0.859l0.573-4.139c0.165-1.205,0.384-1.675,0.78-1.675c0.396,0,0.613,0.471,0.78,1.675
				l0.574,4.139c0.057,0.408,0.114,0.682,0.164,0.859c0.048-0.179,0.105-0.452,0.163-0.859l0.573-4.139
				c0.168-1.205,0.385-1.675,0.781-1.675c0.394,0,0.613,0.471,0.779,1.675l0.574,4.139c0.057,0.408,0.116,0.682,0.162,0.859
				c0.051-0.179,0.111-0.452,0.166-0.859l0.574-4.139c0.165-1.205,0.384-1.675,0.78-1.675c0.394,0,0.611,0.471,0.778,1.675
				l0.574,4.139c0.057,0.408,0.114,0.682,0.164,0.859c0.05-0.179,0.107-0.452,0.165-0.859l0.571-4.139
				c0.168-1.205,0.387-1.675,0.782-1.675c0.395,0,0.614,0.471,0.779,1.675l0.574,4.139c0.057,0.408,0.114,0.682,0.165,0.859
				c0.051-0.179,0.106-0.452,0.164-0.859l0.573-4.139c0.168-1.205,0.385-1.675,0.78-1.675c0.395,0,0.614,0.471,0.781,1.675
				l0.572,4.139c0.059,0.408,0.116,0.682,0.165,0.859c0.05-0.179,0.108-0.452,0.164-0.859l0.573-4.139
				c0.168-1.205,0.386-1.675,0.782-1.675l0,0c0.393,0,0.614,0.471,0.777,1.675l0.572,4.139c0.06,0.408,0.116,0.682,0.165,0.859
				c0.051-0.179,0.108-0.452,0.165-0.859l0.572-4.139c0.167-1.205,0.387-1.675,0.781-1.675c0.396,0,0.613,0.471,0.78,1.675
				l0.574,4.139c0.057,0.408,0.115,0.682,0.163,0.859c0.051-0.179,0.108-0.452,0.165-0.859l0.574-4.139
				c0.164-1.205,0.384-1.675,0.778-1.675c0.396,0,0.613,0.471,0.782,1.675l0.572,4.139c0.059,0.408,0.113,0.682,0.166,0.859
				c0.049-0.179,0.105-0.452,0.163-0.859l0.573-4.139c0.166-1.205,0.386-1.675,0.779-1.675c0.396,0,0.614,0.471,0.781,1.675
				l0.573,4.139c0.056,0.408,0.115,0.682,0.164,0.859c0.05-0.179,0.108-0.452,0.165-0.859l0.574-4.139
				c0.164-1.205,0.384-1.675,0.778-1.675c0.396,0,0.613,0.471,0.78,1.675l0.575,4.139c0.056,0.408,0.114,0.682,0.163,0.859
				c0.051-0.179,0.108-0.452,0.165-0.859l0.572-4.139c0.167-1.205,0.387-1.675,0.781-1.675l0,0c0.395,0,0.613,0.471,0.78,1.675
				l0.573,4.139c0.058,0.408,0.114,0.682,0.164,0.859c0.051-0.179,0.105-0.452,0.165-0.859l0.57-4.139
				c0.168-1.205,0.387-1.675,0.782-1.675c0.394,0,0.613,0.471,0.782,1.675l0.571,4.139c0.058,0.408,0.114,0.682,0.165,0.859
				c0.05-0.179,0.108-0.452,0.163-0.859l0.573-4.139c0.168-1.205,0.388-1.675,0.781-1.675s0.612,0.471,0.779,1.675l0.575,4.139
				c0.055,0.408,0.114,0.682,0.164,0.859c0.049-0.179,0.107-0.452,0.165-0.859l0.569-4.139c0.168-1.205,0.388-1.675,0.783-1.675
				c0.394,0,0.612,0.471,0.781,1.675l0.572,4.139c0.056,0.408,0.115,0.682,0.165,0.859c0.048-0.179,0.107-0.452,0.162-0.859
				l0.571-4.139c0.169-1.205,0.387-1.675,0.785-1.675c0.392,0,0.611,0.471,0.78,1.675l0.571,4.139
				c0.059,0.408,0.114,0.682,0.163,0.859c0.051-0.179,0.109-0.452,0.166-0.859l0.572-4.139c0.167-1.205,0.385-1.675,0.781-1.675
				c0.395,0,0.613,0.471,0.779,1.675l0.573,4.139c0.057,0.408,0.115,0.682,0.163,0.859c0.052-0.179,0.111-0.452,0.166-0.859
				l0.571-4.139c0.169-1.205,0.385-1.675,0.78-1.675c0.396,0,0.616,0.471,0.785,1.675l0.569,4.139
				c0.057,0.408,0.113,0.682,0.165,0.859c0.051-0.179,0.106-0.452,0.164-0.859l1.046-7.553l0.616,0.085l-1.048,7.554
				C331.764,23.451,331.544,23.921,331.15,23.921z"/>
		</g>
	</g>
</g>
<g>
	<ellipse fill="#004E59" cx="325.646" cy="53.337" rx="3.583" ry="3.574"/>
</g>
<g>
	<ellipse fill="#FFB700" cx="325.744" cy="53.337" rx="2.023" ry="2.023"/>
</g>
<g>
	<ellipse fill="#0069A6" cx="313.043" cy="53.337" rx="2.023" ry="2.023"/>
</g>
<line fill="none" stroke="#929288" stroke-miterlimit="10" x1="6.244" y1="93.714" x2="8.491" y2="93.714"/>
<line fill="none" stroke="#929288" stroke-miterlimit="10" x1="6.244" y1="91.749" x2="8.491" y2="91.749"/>
<line fill="none" stroke="#929288" stroke-miterlimit="10" x1="6.244" y1="89.785" x2="8.491" y2="89.785"/>
<line fill="none" stroke="#929288" stroke-miterlimit="10" x1="6.244" y1="87.821" x2="8.491" y2="87.821"/>
<line fill="none" stroke="#929288" stroke-miterlimit="10" x1="6.244" y1="85.856" x2="10.737" y2="85.856"/>
<line fill="none" stroke="#929288" stroke-miterlimit="10" x1="6.244" y1="83.894" x2="8.491" y2="83.894"/>
<line fill="none" stroke="#929288" stroke-miterlimit="10" x1="6.244" y1="81.928" x2="8.491" y2="81.928"/>
<line fill="none" stroke="#929288" stroke-miterlimit="10" x1="6.244" y1="79.963" x2="8.491" y2="79.963"/>
<line fill="none" stroke="#929288" stroke-miterlimit="10" x1="6.244" y1="78.001" x2="8.491" y2="78.001"/>
<line fill="none" stroke="#929288" stroke-miterlimit="10" x1="6.244" y1="76.035" x2="10.737" y2="76.035"/>
<line fill="none" stroke="#929288" stroke-miterlimit="10" x1="6.244" y1="74.071" x2="8.491" y2="74.071"/>
<line fill="none" stroke="#929288" stroke-miterlimit="10" x1="6.244" y1="72.107" x2="8.491" y2="72.107"/>
<line fill="none" stroke="#929288" stroke-miterlimit="10" x1="6.244" y1="70.143" x2="8.491" y2="70.143"/>
<line fill="none" stroke="#929288" stroke-miterlimit="10" x1="6.244" y1="68.178" x2="8.491" y2="68.178"/>
<line fill="none" stroke="#929288" stroke-miterlimit="10" x1="6.244" y1="66.215" x2="10.737" y2="66.215"/>
<line fill="none" stroke="#929288" stroke-miterlimit="10" x1="6.244" y1="64.249" x2="8.491" y2="64.249"/>
<line fill="none" stroke="#929288" stroke-miterlimit="10" x1="6.244" y1="62.286" x2="8.491" y2="62.286"/>
<line fill="none" stroke="#929288" stroke-miterlimit="10" x1="6.244" y1="60.322" x2="8.491" y2="60.322"/>
<line fill="none" stroke="#929288" stroke-miterlimit="10" x1="6.244" y1="58.358" x2="8.491" y2="58.358"/>
<line fill="none" stroke="#929288" stroke-miterlimit="10" x1="6.244" y1="56.391" x2="10.737" y2="56.391"/>
<line fill="none" stroke="#929288" stroke-miterlimit="10" x1="6.244" y1="54.429" x2="8.491" y2="54.429"/>
<line fill="none" stroke="#929288" stroke-miterlimit="10" x1="6.244" y1="52.464" x2="8.491" y2="52.464"/>
<line fill="none" stroke="#929288" stroke-miterlimit="10" x1="6.244" y1="50.5" x2="8.491" y2="50.5"/>
<line fill="none" stroke="#929288" stroke-miterlimit="10" x1="6.244" y1="48.536" x2="8.491" y2="48.536"/>
<line fill="none" stroke="#929288" stroke-miterlimit="10" x1="6.244" y1="46.572" x2="10.737" y2="46.572"/>
<line fill="none" stroke="#929288" stroke-miterlimit="10" x1="6.244" y1="44.608" x2="8.491" y2="44.608"/>
<line fill="none" stroke="#929288" stroke-miterlimit="10" x1="6.244" y1="42.642" x2="8.491" y2="42.642"/>
<line fill="none" stroke="#929288" stroke-miterlimit="10" x1="6.244" y1="40.679" x2="8.491" y2="40.679"/>
<line fill="none" stroke="#929288" stroke-miterlimit="10" x1="6.244" y1="38.713" x2="8.491" y2="38.713"/>
<line fill="none" stroke="#929288" stroke-miterlimit="10" x1="6.244" y1="36.75" x2="10.737" y2="36.75"/>
<line fill="none" stroke="#929288" stroke-miterlimit="10" x1="6.244" y1="34.787" x2="8.491" y2="34.787"/>
<line fill="none" stroke="#929288" stroke-miterlimit="10" x1="6.244" y1="32.823" x2="8.491" y2="32.823"/>
<line fill="none" stroke="#929288" stroke-miterlimit="10" x1="6.244" y1="30.857" x2="8.491" y2="30.857"/>
<line fill="none" stroke="#929288" stroke-miterlimit="10" x1="6.244" y1="28.893" x2="8.491" y2="28.893"/>
<line fill="none" stroke="#929288" stroke-miterlimit="10" x1="6.244" y1="26.929" x2="10.737" y2="26.929"/>
<g>
	<g>
		<defs>
			<rect id="SVGID_3_" x="77.879" y="47.802" width="24.565" height="15.205"/>
		</defs>
		<clipPath id="SVGID_4_">
			<use xlink:href="#SVGID_3_"  overflow="visible"/>
		</clipPath>
		<g clip-path="url(#SVGID_4_)">
			<path fill="#FF5000" d="M102.53,46.002c0-1.687-1.376-3.066-3.06-3.066h-1.615c-1.684,0-3.061,0.772-3.061,1.716
				c0,0.945-1.377,1.717-3.06,1.717h-0.255c-1.684,0-3.06-0.957-3.06-2.126s-1.293-2.126-2.876-2.126
				c-1.582,0-2.875,0.465-2.875,1.034s-1.242,1.034-2.759,1.034s-2.759,1.38-2.759,3.067v5.61c0,1.687,1.224,3.067,2.72,3.067
				c1.496,0,2.72-0.745,2.72-1.653c0-0.911,0.637-1.654,1.417-1.654s1.417,1.235,1.417,2.745c0,1.51,1.376,2.747,3.06,2.747h4.103
				c1.684,0,3.06-0.773,3.06-1.718c0-0.944,1.377-1.717,3.061-1.717h0.765c1.684,0,3.06-1.38,3.06-3.067L102.53,46.002
				L102.53,46.002z"/>
		</g>
	</g>
</g>
<g>
	<path fill="#FF5000" d="M84.687,63.972c0-1.054,0.58-2.251,0.58-2.251c0.736-1.519,1.938-1.519,2.673,0
		c0,0,0.579,1.196,0.579,2.251c0,1.056-0.858,1.91-1.915,1.91C85.545,65.882,84.687,65.028,84.687,63.972z"/>
</g>
<g>
	<path fill="#FF5000" d="M84.687,72.818c0-1.055,0.58-2.251,0.58-2.251c0.736-1.518,1.938-1.518,2.673,0
		c0,0,0.579,1.195,0.579,2.251s-0.858,1.909-1.915,1.909C85.545,74.728,84.687,73.874,84.687,72.818z"/>
</g>
<rect x="110.981" y="44.344" fill="#0069A6" width="115.91" height="100.656"/>
<ellipse fill="#004E59" cx="140.495" cy="77.121" rx="18.875" ry="18.821"/>
<path fill="#FFB700" d="M140.495,55.232c-12.122,0-21.952,9.801-21.952,21.892c0,12.091,9.83,21.892,21.952,21.892
	c12.126,0,21.955-9.801,21.955-21.892C162.449,65.033,152.621,55.232,140.495,55.232z M132.158,63.3
	c2.135-1.278,4.906-0.585,6.187,1.544c1.281,2.13,0.585,4.894-1.549,6.169c-2.138,1.278-4.907,0.587-6.188-1.545
	C129.324,67.336,130.021,64.575,132.158,63.3z M124.302,77.124c0-2.488,2.018-4.499,4.51-4.499c2.488,0,4.509,2.011,4.509,4.499
	c0,2.481-2.022,4.495-4.509,4.495C126.319,81.621,124.302,79.607,124.302,77.124z M138.938,89.491
	c-1.175,2.188-3.908,3.013-6.104,1.841s-3.024-3.899-1.847-6.088c1.175-2.189,3.91-3.015,6.105-1.841
	C139.288,84.576,140.116,87.303,138.938,89.491z M141.991,64.755c1.175-2.188,3.907-3.015,6.104-1.841
	c2.195,1.174,3.021,3.899,1.846,6.089c-1.175,2.188-3.907,3.014-6.104,1.842C141.642,69.673,140.813,66.947,141.991,64.755z
	 M148.772,90.949c-2.139,1.277-4.907,0.583-6.187-1.544c-1.28-2.133-0.585-4.895,1.551-6.17c2.137-1.276,4.907-0.586,6.187,1.546
	C151.604,86.909,150.909,89.673,148.772,90.949z M152.118,81.621c-2.491,0-4.51-2.014-4.51-4.497c0-2.485,2.021-4.498,4.51-4.498
	c2.488,0,4.509,2.013,4.509,4.498C156.627,79.607,154.605,81.621,152.118,81.621z"/>
<ellipse fill="#004E59" cx="197.376" cy="77.121" rx="18.873" ry="18.821"/>
<path fill="#FFB700" d="M197.376,55.232c-12.124,0-21.952,9.801-21.952,21.892c0,12.091,9.828,21.892,21.952,21.892
	s21.954-9.801,21.954-21.892C219.33,65.033,209.499,55.232,197.376,55.232z M189.037,63.3c2.137-1.278,4.907-0.585,6.188,1.544
	c1.28,2.13,0.587,4.894-1.552,6.169c-2.137,1.278-4.906,0.587-6.187-1.545C186.208,67.336,186.902,64.575,189.037,63.3z
	 M181.181,77.124c0-2.488,2.021-4.499,4.513-4.499c2.491,0,4.507,2.011,4.507,4.499c0,2.481-2.016,4.495-4.507,4.495
	C183.201,81.621,181.181,79.607,181.181,77.124z M195.819,89.491c-1.174,2.188-3.909,3.013-6.104,1.841
	c-2.195-1.172-3.024-3.899-1.846-6.088c1.175-2.189,3.908-3.015,6.102-1.841C196.17,84.576,196.996,87.303,195.819,89.491z
	 M198.873,64.755c1.173-2.188,3.906-3.015,6.101-1.841c2.197,1.174,3.022,3.899,1.848,6.089c-1.178,2.188-3.906,3.014-6.103,1.842
	C198.521,69.673,197.692,66.947,198.873,64.755z M205.65,90.949c-2.136,1.277-4.906,0.583-6.186-1.544
	c-1.278-2.133-0.585-4.895,1.552-6.17c2.137-1.276,4.903-0.586,6.186,1.546C208.482,86.909,207.788,89.673,205.65,90.949z
	 M208.997,81.621c-2.49,0-4.507-2.014-4.507-4.497c0-2.485,2.017-4.498,4.507-4.498c2.491,0,4.512,2.013,4.512,4.498
	C213.509,79.607,211.488,81.621,208.997,81.621z"/>
<rect x="124.384" y="114.666" fill="#BEC6C3" width="45.931" height="16.421"/>
<ellipse fill="#FF5000" cx="201.504" cy="122.455" rx="10.913" ry="10.881"/>
</svg>
