<?xml version="1.0" encoding="utf-8"?>
<!-- Generator: Adobe Illustrator 16.2.1, SVG Export Plug-In . SVG Version: 6.00 Build 0)  -->
<!DOCTYPE svg PUBLIC "-//W3C//DTD SVG 1.1//EN" "http://www.w3.org/Graphics/SVG/1.1/DTD/svg11.dtd">
<svg version="1.1" id="Layer_1" xmlns="http://www.w3.org/2000/svg" xmlns:xlink="http://www.w3.org/1999/xlink" x="0px" y="0px"
	 width="313px" height="134px" viewBox="0 0 313 134" enable-background="new 0 0 313 134" xml:space="preserve">
<rect y="60.608" fill="#FF5000" width="5.683" height="44.354"/>
<rect y="60.608" fill="#FF5000" width="100.229" height="5.659"/>
<line fill="none" stroke="#929288" stroke-miterlimit="10" x1="5.782" y1="97.496" x2="9.943" y2="97.496"/>
<line fill="none" stroke="#929288" stroke-miterlimit="10" x1="5.782" y1="95.682" x2="7.863" y2="95.682"/>
<line fill="none" stroke="#929288" stroke-miterlimit="10" x1="5.782" y1="93.865" x2="7.863" y2="93.865"/>
<line fill="none" stroke="#929288" stroke-miterlimit="10" x1="5.782" y1="92.05" x2="7.863" y2="92.05"/>
<line fill="none" stroke="#929288" stroke-miterlimit="10" x1="5.782" y1="90.235" x2="7.863" y2="90.235"/>
<line fill="none" stroke="#929288" stroke-miterlimit="10" x1="5.782" y1="88.42" x2="9.943" y2="88.42"/>
<rect x="97.089" y="60.608" fill="#FF5000" width="5.684" height="44.354"/>
<rect x="21.341" y="106.544" fill="#1CCFC9" width="12.184" height="6.545"/>
<path fill="#BEC6C3" d="M5.782,22.617v77.83h15.806v-77.83H5.782z M17.958,27.657c-0.743,0-1.344-0.598-1.344-1.337
	c0-0.736,0.601-1.336,1.344-1.336c0.741,0,1.343,0.6,1.343,1.336C19.301,27.06,18.7,27.657,17.958,27.657z"/>
<rect x="19.616" y="79.272" fill="#EA7200" width="2.946" height="38.727"/>
<polygon fill="#FFB700" points="28.455,79.272 19.616,79.272 24.036,73.182 "/>
<rect x="22.562" y="79.272" fill="#004E59" width="2.946" height="38.727"/>
<rect x="25.508" y="79.272" fill="#EA7200" width="2.946" height="38.727"/>
<polygon fill="#004E59" points="24.812,74.252 24.036,73.182 23.259,74.252 "/>
<g>
	<rect x="28.455" y="79.625" fill="#0069A6" width="6.209" height="31.608"/>
	<rect x="32.856" y="67.925" fill="#BEC6C3" width="3.191" height="2.466"/>
	<rect x="28.455" y="81.764" fill="#BEC6C3" width="6.209" height="1.669"/>
	<rect x="28.455" y="67.403" fill="#004E59" width="6.209" height="14.725"/>
	<rect x="35.451" y="67.403" fill="#004E59" width="1.195" height="14.725"/>
	<rect x="28.455" y="67.403" fill="#0069A6" width="6.209" height="3.513"/>
</g>
<polygon fill="#BEC6C3" points="44.365,94.243 37.66,94.243 38.919,33.5 43.103,33.5 "/>
<polygon fill="#FFB700" points="45.237,101.91 36.787,101.91 37.405,70.597 44.619,70.597 "/>
<path fill="#929288" d="M52.715,25.353c-1.111,1.479-2.879,2.44-4.876,2.44c-1.998,0-3.765-0.961-4.877-2.44h-0.095v-0.104
	c0,0-3.467,0-6.268,0c-2.803,0-13.062,6.411-15.865,15.332h2.102c0,0,3.922-4.738,10.085-6.969c4.713-1.705,5.739,2.293,5.962,6.201
	h4.236c0.043-2.178,0.243-4.43,1.011-5.348c1.016-1.227,2.547-2.018,4.269-2.018c1.766,0,3.334,0.826,4.348,2.106h4.688v-9.2H52.715
	z"/>
<rect x="38.514" y="39.605" fill="#004E59" width="4.935" height="1.536"/>
<rect x="46.784" y="65.851" fill="#929288" width="8.135" height="27.133"/>
<path fill="#929288" d="M55.034,50.335v7.301l-4.345,3.242l-4.019-3.242v-7.301c-2.874,1.501-4.834,4.496-4.834,7.949
	c0,4.955,4.037,8.972,9.017,8.972c4.979,0,9.015-4.017,9.015-8.972C59.867,54.831,57.907,51.836,55.034,50.335z"/>
<g>
	<polygon fill="#BEC6C3" points="65.411,74.674 59.441,74.674 59.441,63.76 	"/>
	<rect x="59.227" y="74.067" fill="#0069A6" width="6.398" height="34.301"/>
	<rect x="59.227" y="78.207" fill="#004E59" width="6.398" height="0.54"/>
</g>
<rect x="79.199" y="75.384" fill="#FFB700" width="8.576" height="22.626"/>
<rect x="79.199" y="76.36" fill="#0069A6" width="8.576" height="3.511"/>
<g>
	<path fill="#FFB700" d="M94.855,68.05c0,4.677-3.827,8.504-8.504,8.504h-5.729c-4.677,0-8.504-3.827-8.504-8.504v-5.617
		c0-4.677,3.827-8.504,8.504-8.504h5.729c4.677,0,8.504,3.827,8.504,8.504V68.05z"/>
</g>
<rect x="72.119" y="44.176" fill="#1CCFC9" width="22.737" height="14.044"/>
<rect x="72.119" y="57.05" fill="#0069A6" width="22.737" height="5.072"/>
<g>
	<rect x="66.516" y="74.354" fill="#00C4B3" width="5.247" height="25.997"/>
	<rect x="71.129" y="64.731" fill="#00C4B3" width="2.698" height="4.199"/>
	<rect x="72.469" y="77.212" fill="#00C4B3" width="0.966" height="1.407"/>
	<rect x="65.957" y="64.302" fill="#004E59" width="6.254" height="14.503"/>
	<rect x="73.433" y="64.317" fill="#004E59" width="0.898" height="14.489"/>
</g>
<rect y="89.498" fill="#FF5000" width="102.773" height="44.502"/>
<g>
	<defs>
		<rect id="SVGID_1_" x="72.119" y="44.176" width="22.737" height="14.044"/>
	</defs>
	<clipPath id="SVGID_2_">
		<use xlink:href="#SVGID_1_"  overflow="visible"/>
	</clipPath>
</g>
<g>
	<g>
		<path fill="#FFB700" d="M159.108,58.686c-0.021-0.002-2.165-0.2-4.281-0.449c-2.115-0.245-4.259-0.546-4.28-0.549
			c-1.538-0.213-1.84-0.462-1.828-0.792c0.012-0.324,0.337-0.559,1.891-0.663l2.368-0.147l2.368-0.117
			c0.339-0.016,0.599-0.035,0.798-0.055c-0.197-0.047-0.457-0.103-0.796-0.165l-2.336-0.439l-2.335-0.469
			c-1.541-0.317-1.828-0.585-1.793-0.915c0.034-0.329,0.37-0.533,1.944-0.533l2.379,0.012l2.376,0.042
			c0.347,0.007,0.613,0.005,0.815,0c-0.191-0.061-0.44-0.133-0.769-0.216l-2.293-0.594l-2.289-0.622
			c-1.503-0.417-1.774-0.715-1.721-1.035c0.056-0.316,0.408-0.505,1.95-0.405l2.358,0.171l2.353,0.196
			c0.338,0.031,0.599,0.045,0.797,0.051c-0.185-0.072-0.428-0.159-0.747-0.264l-2.24-0.744l-2.235-0.774
			c-1.46-0.515-1.708-0.829-1.632-1.142c0.077-0.313,0.443-0.481,1.987-0.271l2.349,0.329l2.342,0.357
			c0.334,0.054,0.592,0.085,0.789,0.107c-0.183-0.087-0.425-0.192-0.743-0.32l-2.199-0.9l-2.194-0.926
			c-1.437-0.617-1.665-0.937-1.564-1.253c0.096-0.307,0.475-0.449,2.014-0.136l4.646,1.009c0.335,0.077,0.593,0.127,0.794,0.162
			c-0.175-0.098-0.406-0.217-0.71-0.365l-2.126-1.042l-2.116-1.071c-1.388-0.713-1.594-1.06-1.475-1.359
			c0.116-0.301,0.499-0.417,1.991-0.005l2.272,0.638l2.263,0.668c0.331,0.099,0.586,0.168,0.782,0.214
			c-0.165-0.107-0.383-0.241-0.673-0.407l-2.044-1.18l-2.033-1.208c-1.328-0.8-1.507-1.158-1.369-1.449
			c0.139-0.292,0.531-0.382,1.999,0.131l4.45,1.618c0.315,0.118,0.559,0.202,0.75,0.261c-0.161-0.122-0.379-0.274-0.666-0.465
			l-1.972-1.324l-1.958-1.349c-1.262-0.882-1.416-1.25-1.258-1.529c0.158-0.284,0.56-0.345,1.996,0.271l4.343,1.919
			c0.312,0.142,0.554,0.244,0.742,0.316c-0.152-0.13-0.355-0.296-0.625-0.502l-1.873-1.448l-1.857-1.475
			c-1.216-0.979-1.349-1.359-1.171-1.63c0.181-0.276,0.571-0.307,1.946,0.393l2.096,1.084l2.097,1.116
			c0.307,0.166,0.545,0.286,0.729,0.372c-0.141-0.139-0.328-0.314-0.581-0.535l-1.765-1.568l-1.747-1.59
			c-1.143-1.053-1.248-1.439-1.054-1.697c0.196-0.257,0.597-0.266,1.929,0.528l2.023,1.224l2.007,1.248
			c0.283,0.179,0.507,0.31,0.68,0.407c-0.135-0.153-0.317-0.349-0.563-0.595l-1.656-1.682l-1.631-1.701
			c-1.062-1.117-1.138-1.509-0.927-1.753s0.618-0.226,1.897,0.663l1.943,1.361l1.922,1.383c0.274,0.201,0.492,0.348,0.661,0.457
			c-0.124-0.158-0.29-0.362-0.514-0.621l-1.546-1.794l-1.523-1.817c-1.001-1.204-1.053-1.603-0.824-1.833
			c0.233-0.236,0.622-0.186,1.832,0.779l1.852,1.492l1.83,1.514c0.265,0.223,0.474,0.385,0.637,0.506
			c-0.11-0.165-0.26-0.375-0.463-0.644l-1.417-1.887l-1.394-1.911c-0.911-1.262-0.94-1.651-0.691-1.873
			c0.249-0.222,0.633-0.146,1.778,0.899l1.736,1.599l1.712,1.621c0.243,0.231,0.436,0.405,0.587,0.533
			c-0.1-0.172-0.235-0.394-0.422-0.677l-1.28-1.973l-1.258-1.993c-0.82-1.313-0.821-1.704-0.56-1.906
			c0.258-0.196,0.65-0.098,1.723,1.025l1.628,1.715l1.604,1.736c0.229,0.251,0.412,0.437,0.553,0.577
			c-0.088-0.181-0.211-0.415-0.381-0.714l-1.154-2.07l-1.132-2.084c-0.736-1.377-0.713-1.767-0.437-1.952
			c0.277-0.184,0.65-0.058,1.657,1.144l1.512,1.829l1.486,1.846c0.215,0.268,0.385,0.47,0.52,0.619
			c-0.076-0.183-0.179-0.42-0.326-0.726l-1.008-2.133l-0.982-2.153c-0.64-1.417-0.584-1.815-0.302-1.977
			c0.282-0.161,0.652-0.012,1.559,1.231l1.376,1.911l1.352,1.926c0.195,0.284,0.352,0.495,0.477,0.653
			c-0.063-0.186-0.15-0.427-0.271-0.734l-0.858-2.191l-0.832-2.207c-0.537-1.448-0.454-1.838-0.163-1.981
			c0.291-0.141,0.654,0.031,1.48,1.344l1.246,2.007l1.22,2.019c0.171,0.288,0.31,0.507,0.421,0.671
			c-0.049-0.196-0.123-0.45-0.229-0.78l-0.713-2.258l-0.684-2.269c-0.436-1.474-0.326-1.854-0.026-1.977
			c0.302-0.121,0.653,0.076,1.391,1.452l1.11,2.09l1.083,2.106c0.154,0.303,0.28,0.534,0.382,0.707
			c-0.037-0.197-0.092-0.45-0.175-0.779l-0.555-2.294l-0.527-2.307c-0.336-1.521-0.202-1.898,0.106-2.001
			c0.306-0.104,0.642,0.118,1.278,1.517l0.957,2.146l0.938,2.172c0.135,0.319,0.244,0.561,0.335,0.742
			c-0.023-0.194-0.059-0.448-0.116-0.775l-0.763-4.648c-0.231-1.529-0.069-1.896,0.245-1.977c0.313-0.076,0.633,0.161,1.175,1.611
			c0,0.001,0.405,1.109,0.812,2.213l0.783,2.224c0.109,0.316,0.2,0.557,0.276,0.738c-0.01-0.202-0.03-0.467-0.067-0.811l-0.24-2.357
			l-0.205-2.342c-0.126-1.53,0.06-1.883,0.377-1.941c0.32-0.062,0.623,0.207,1.066,1.699l0.661,2.271l0.631,2.277
			c0.09,0.33,0.167,0.581,0.23,0.77c0.003-0.2,0.002-0.46-0.011-0.801l-0.078-2.359l-0.048-2.367
			c-0.021-1.558,0.189-1.902,0.511-1.941c0.338-0.036,0.603,0.242,0.941,1.742l0.503,2.296l0.478,2.324
			c0.067,0.342,0.128,0.6,0.18,0.797c0.015-0.197,0.032-0.454,0.042-0.786l0.081-2.352l0.113-2.355
			c0.082-1.543,0.312-1.872,0.636-1.888c0.328,0.001,0.587,0.284,0.824,1.812l0.35,2.33l0.319,2.334
			c0.045,0.333,0.085,0.587,0.122,0.781c0.031-0.201,0.065-0.464,0.099-0.81l0.488-4.702c0.165-1.557,0.372-1.852,0.695-1.852
			c0.327-0.001,0.533,0.293,0.698,1.851l0.498,4.687c0.041,0.391,0.083,0.676,0.124,0.88c0.04-0.204,0.082-0.489,0.123-0.88
			l0.499-4.687c0.165-1.556,0.372-1.851,0.696-1.851c0.325-0.001,0.532,0.293,0.696,1.851l0.497,4.687
			c0.042,0.391,0.085,0.676,0.125,0.88c0.039-0.204,0.082-0.489,0.124-0.88l0.497-4.687c0.166-1.556,0.372-1.851,0.696-1.851
			c0.324-0.001,0.531,0.293,0.696,1.851l0.497,4.687c0.042,0.391,0.085,0.676,0.125,0.881c0.04-0.205,0.082-0.49,0.124-0.881
			l0.498-4.687c0.165-1.556,0.372-1.851,0.696-1.851c0.324-0.001,0.53,0.293,0.696,1.851l0.497,4.687
			c0.042,0.391,0.085,0.674,0.124,0.88c0.04-0.206,0.082-0.489,0.124-0.88l0.497-4.687c0.166-1.556,0.372-1.851,0.698-1.851
			c0.324-0.001,0.531,0.293,0.695,1.851l0.497,4.687c0.042,0.391,0.085,0.676,0.125,0.881c0.04-0.205,0.083-0.49,0.123-0.881
			l0.498-4.687c0.165-1.556,0.371-1.851,0.696-1.851c0.325-0.001,0.532,0.293,0.698,1.851l0.497,4.687
			c0.041,0.391,0.084,0.676,0.123,0.88c0.04-0.204,0.083-0.489,0.123-0.88l0.499-4.687c0.164-1.556,0.372-1.851,0.697-1.851l0,0
			c0.324,0,0.532,0.295,0.697,1.851l0.496,4.687c0.042,0.391,0.085,0.674,0.125,0.88c0.04-0.206,0.081-0.489,0.124-0.88l0.498-4.687
			c0.165-1.556,0.371-1.851,0.696-1.851l0,0c0.325,0,0.532,0.295,0.698,1.851l0.496,4.687c0.042,0.391,0.085,0.676,0.124,0.88
			c0.038-0.204,0.081-0.489,0.122-0.88l0.499-4.687c0.165-1.556,0.373-1.851,0.697-1.851c0.325-0.001,0.531,0.293,0.697,1.851
			l0.907,8.552l-0.572,0.061l-0.908-8.553c-0.042-0.391-0.084-0.675-0.124-0.88c-0.039,0.206-0.08,0.489-0.123,0.88l-0.5,4.687
			c-0.165,1.556-0.371,1.851-0.696,1.851s-0.532-0.294-0.698-1.851l-0.495-4.687c-0.042-0.391-0.084-0.675-0.125-0.88
			c-0.039,0.206-0.081,0.488-0.122,0.88l-0.498,4.687c-0.165,1.556-0.372,1.851-0.697,1.851c-0.324,0-0.532-0.294-0.697-1.851
			l-0.496-4.687c-0.041-0.392-0.084-0.676-0.124-0.882c-0.039,0.206-0.082,0.49-0.123,0.882l-0.499,4.687
			c-0.165,1.557-0.372,1.851-0.697,1.851c-0.324,0-0.532-0.294-0.696-1.851l-0.497-4.687c-0.042-0.391-0.085-0.675-0.123-0.88
			c-0.04,0.206-0.083,0.489-0.125,0.88l-0.496,4.687c-0.167,1.556-0.373,1.851-0.698,1.851s-0.531-0.294-0.697-1.851l-0.497-4.687
			c-0.041-0.391-0.083-0.675-0.123-0.88c-0.04,0.206-0.083,0.489-0.124,0.88l-0.498,4.687c-0.165,1.556-0.372,1.851-0.697,1.851
			c-0.325,0-0.531-0.294-0.697-1.851l-0.497-4.687c-0.041-0.391-0.083-0.675-0.123-0.88c-0.039,0.206-0.083,0.489-0.124,0.88
			l-0.497,4.687c-0.166,1.557-0.372,1.851-0.697,1.851s-0.531-0.294-0.697-1.851l-0.497-4.687c-0.042-0.392-0.084-0.676-0.124-0.882
			c-0.04,0.206-0.083,0.49-0.123,0.882l-0.498,4.687c-0.164,1.556-0.371,1.851-0.696,1.851s-0.532-0.294-0.698-1.851l-0.497-4.687
			c-0.042-0.391-0.084-0.675-0.124-0.88c-0.039,0.206-0.082,0.489-0.123,0.88l-0.499,4.687c-0.165,1.556-0.372,1.851-0.696,1.851
			c-0.324,0-0.532-0.294-0.698-1.851l-0.496-4.687c-0.042-0.391-0.085-0.675-0.125-0.88c-0.038,0.206-0.08,0.489-0.122,0.88
			l-0.488,4.7c-0.151,1.584-0.332,1.867-0.653,1.871c-0.003,0-0.007,0-0.008,0c-0.314,0-0.5-0.28-0.704-1.822l-0.318-2.329
			l-0.35-2.326c-0.076-0.489-0.149-0.806-0.21-1.012c-0.039,0.212-0.079,0.535-0.107,1.029l-0.112,2.35l-0.08,2.346
			c-0.046,1.57-0.207,1.859-0.524,1.885c-0.341,0.02-0.528-0.237-0.839-1.799l-0.477-2.318l-0.502-2.292
			c-0.108-0.475-0.201-0.783-0.275-0.982c-0.025,0.214-0.045,0.545-0.037,1.05l0.046,2.36l0.078,2.354
			c0.061,1.581-0.08,1.881-0.396,1.93c-0.32,0.047-0.54-0.197-0.955-1.727l-0.63-2.272l-0.661-2.267
			c-0.144-0.48-0.26-0.79-0.348-0.987c-0.01,0.212-0.008,0.534,0.033,1.021l0.204,2.337l0.238,2.35
			c0.171,1.583,0.052,1.895-0.261,1.964c-0.314,0.075-0.55-0.16-1.064-1.644l-0.78-2.218c-0.407-1.102-0.812-2.209-0.812-2.209
			c-0.174-0.465-0.31-0.762-0.413-0.95c0.004,0.213,0.03,0.54,0.104,1.031l0.76,4.639c0.272,1.545,0.175,1.86-0.131,1.949
			c-0.306,0.092-0.563-0.124-1.187-1.594l-0.934-2.167l-0.956-2.141c-0.202-0.445-0.357-0.729-0.469-0.91
			c0.019,0.215,0.066,0.542,0.176,1.033l0.524,2.302l0.555,2.289c0.38,1.535,0.304,1.857,0.004,1.968
			c-0.299,0.113-0.569-0.087-1.286-1.5l-1.079-2.101l-1.108-2.087c-0.239-0.444-0.417-0.724-0.543-0.899
			c0.033,0.21,0.102,0.525,0.239,0.993l0.683,2.264l0.711,2.253c0.488,1.516,0.436,1.845,0.144,1.974
			c-0.294,0.133-0.573-0.045-1.381-1.398l-1.215-2.014l-1.245-2.001c-0.266-0.423-0.461-0.688-0.599-0.852
			c0.048,0.208,0.139,0.522,0.31,0.987l0.83,2.201l0.857,2.187c0.58,1.455,0.546,1.783,0.266,1.932
			c-0.281,0.152-0.577-0.01-1.481-1.313l-1.349-1.923l-1.372-1.907c-0.289-0.397-0.5-0.643-0.646-0.797
			c0.062,0.206,0.175,0.516,0.38,0.973l0.982,2.147l1.004,2.129c0.683,1.424,0.674,1.755,0.403,1.923
			c-0.274,0.167-0.576,0.029-1.565-1.213l-1.485-1.842l-1.507-1.824c-0.322-0.384-0.552-0.623-0.713-0.77
			c0.078,0.202,0.21,0.501,0.445,0.94l1.128,2.083l1.152,2.064c0.782,1.382,0.797,1.713,0.537,1.901
			c-0.258,0.185-0.569,0.069-1.637-1.098l-1.601-1.732l-1.624-1.713c-0.345-0.36-0.59-0.58-0.758-0.716
			c0.087,0.195,0.239,0.482,0.5,0.9l1.255,1.989l1.278,1.969c0.865,1.315,0.9,1.645,0.654,1.848c-0.246,0.2-0.562,0.11-1.701-0.977
			l-1.708-1.617l-1.731-1.595c-0.363-0.332-0.62-0.533-0.796-0.654c0.102,0.188,0.274,0.468,0.565,0.873l1.393,1.905l1.412,1.883
			c0.953,1.258,1.01,1.583,0.778,1.803c-0.231,0.215-0.557,0.143-1.781-0.881l-1.827-1.51l-1.846-1.487
			c-0.383-0.306-0.649-0.49-0.834-0.6c0.115,0.185,0.309,0.454,0.629,0.842l1.521,1.812l1.542,1.791
			c1.041,1.197,1.123,1.52,0.906,1.754c-0.217,0.233-0.547,0.183-1.828-0.751l-3.856-2.737c-0.414-0.289-0.699-0.456-0.891-0.554
			c0.124,0.172,0.329,0.422,0.668,0.778l1.627,1.698l1.652,1.679c1.127,1.131,1.231,1.449,1.03,1.699
			c-0.2,0.247-0.53,0.217-1.864-0.623l-2.001-1.246l-2.019-1.22c-0.426-0.254-0.719-0.401-0.916-0.488
			c0.136,0.166,0.362,0.405,0.729,0.743l1.744,1.588l1.761,1.564c1.183,1.039,1.304,1.346,1.121,1.605
			c-0.182,0.262-0.517,0.253-1.925-0.508l-2.093-1.115l-2.091-1.08c-0.437-0.223-0.734-0.347-0.936-0.419
			c0.149,0.157,0.393,0.382,0.787,0.7l1.853,1.471l1.867,1.444c1.258,0.964,1.403,1.264,1.238,1.536
			c-0.165,0.272-0.499,0.286-1.945-0.375l-4.333-1.915c-0.465-0.199-0.779-0.307-0.988-0.364c0.156,0.142,0.407,0.345,0.808,0.626
			l1.954,1.347l1.968,1.32c1.331,0.881,1.495,1.171,1.349,1.456c-0.147,0.281-0.474,0.319-1.955-0.239l-4.44-1.613
			c-0.472-0.165-0.79-0.25-1.001-0.294c0.168,0.133,0.435,0.321,0.86,0.579l4.066,2.384c1.366,0.777,1.545,1.053,1.419,1.345
			c-0.127,0.292-0.455,0.352-1.979-0.107l-2.258-0.669l-2.269-0.636c-0.475-0.131-0.795-0.193-1.005-0.224
			c0.176,0.124,0.459,0.297,0.909,0.527l2.111,1.069l2.122,1.04c1.426,0.688,1.626,0.952,1.519,1.252
			c-0.107,0.301-0.43,0.38-1.985,0.025l-4.634-1.007c-0.495-0.101-0.826-0.145-1.042-0.159c0.185,0.111,0.478,0.261,0.937,0.459
			l2.188,0.926l2.194,0.896c1.48,0.596,1.699,0.846,1.615,1.154c-0.085,0.305-0.399,0.407-1.967,0.16l-2.336-0.358l-2.343-0.33
			c-0.497-0.067-0.825-0.085-1.042-0.086c0.19,0.098,0.491,0.228,0.956,0.393l2.231,0.771l2.236,0.743
			c1.495,0.488,1.726,0.722,1.663,1.034c-0.064,0.313-0.375,0.435-1.946,0.295l-2.346-0.198l-2.354-0.169
			c-0.491-0.033-0.817-0.029-1.03-0.016c0.197,0.085,0.508,0.196,0.994,0.331l2.284,0.621l2.288,0.591
			c1.535,0.387,1.784,0.607,1.741,0.922c-0.044,0.314-0.342,0.457-1.94,0.423l-2.374-0.043l-2.373-0.011
			c-0.501,0-0.831,0.023-1.048,0.052c0.206,0.071,0.524,0.16,1.014,0.26l2.331,0.469l2.331,0.438
			c1.568,0.285,1.834,0.487,1.813,0.805c-0.022,0.317-0.31,0.482-1.892,0.551l-2.363,0.116l-2.363,0.146
			c-0.499,0.035-0.826,0.08-1.037,0.122c0.207,0.059,0.526,0.125,1.017,0.194c0.021,0.002,2.156,0.303,4.267,0.546
			c2.109,0.247,4.245,0.445,4.267,0.447L159.108,58.686z"/>
	</g>
</g>
<g>
	<rect x="210.109" fill="#00C4B3" width="102.891" height="134"/>
</g>
<g>
	<ellipse fill="#004E59" cx="277.954" cy="49.291" rx="3.32" ry="3.303"/>
</g>
<g>
	<ellipse fill="#004E59" cx="289.889" cy="49.291" rx="3.319" ry="3.303"/>
</g>
<g>
	<ellipse fill="#004E59" cx="256.847" cy="85.61" rx="3.32" ry="3.303"/>
</g>
<g>
	<path fill="#004E59" d="M251.032,23.742c0,1.79-1.469,3.251-3.265,3.251h-24.482c-1.797,0-3.267-1.461-3.267-3.251V11.788
		c0-1.789,1.469-3.251,3.267-3.251h24.482c1.796,0,3.265,1.462,3.265,3.251V23.742z"/>
</g>
<g>
	<path fill="#FFFFFF" d="M267.353,116.896c-6.11,0-11.082-4.948-11.082-11.028V84.906h1.152v20.961c0,5.446,4.453,9.881,9.929,9.881
		c5.44,0,9.936-4.438,10.025-9.892V49.44h1.152v56.427C278.432,111.951,273.417,116.896,267.353,116.896z"/>
</g>
<g>
	<path fill="#FFFFFF" d="M271.95,133.985h-25.133v-1.146h25.133c4.72,0,9.135-1.834,12.43-5.167c3.254-3.29,5.006-7.646,4.934-12.26
		V49.013h1.15V115.4c0.079,4.919-1.79,9.565-5.264,13.077C281.686,132.029,276.981,133.985,271.95,133.985z"/>
</g>
<g>
	<ellipse fill="#FF5000" cx="277.955" cy="49.291" rx="1.878" ry="1.869"/>
</g>
<g>
	<ellipse fill="#FF5000" cx="256.847" cy="85.61" rx="1.878" ry="1.869"/>
</g>
<g>
	<defs>
		<rect id="SVGID_3_" x="220.018" y="8.536" width="30.915" height="18.457"/>
	</defs>
	<clipPath id="SVGID_4_">
		<use xlink:href="#SVGID_3_"  overflow="visible"/>
	</clipPath>
	<g clip-path="url(#SVGID_4_)">
		<path fill="#FFB700" d="M306.657,22.107c-0.366,0-0.569-0.435-0.723-1.55l-0.531-3.825c-0.052-0.379-0.106-0.629-0.153-0.795
			c-0.046,0.166-0.098,0.416-0.151,0.795l-0.528,3.825c-0.157,1.115-0.358,1.55-0.726,1.55c-0.365,0-0.566-0.435-0.724-1.55
			l-0.528-3.825c-0.054-0.379-0.107-0.629-0.152-0.795c-0.046,0.166-0.102,0.416-0.153,0.795l-0.53,3.825
			c-0.155,1.115-0.356,1.55-0.724,1.55c-0.365,0-0.568-0.435-0.722-1.55l-0.53-3.825c-0.054-0.379-0.108-0.629-0.151-0.795
			c-0.047,0.166-0.102,0.416-0.153,0.795l-0.531,3.825c-0.154,1.115-0.356,1.55-0.723,1.55c-0.367,0-0.567-0.435-0.722-1.55
			l-0.532-3.825c-0.052-0.379-0.105-0.629-0.152-0.795c-0.046,0.166-0.1,0.416-0.153,0.795l-0.53,3.825
			c-0.153,1.115-0.355,1.55-0.722,1.55c-0.365,0-0.568-0.435-0.724-1.55l-0.53-3.825c-0.054-0.379-0.105-0.629-0.152-0.795
			c-0.046,0.166-0.1,0.416-0.153,0.795l-0.529,3.825c-0.155,1.115-0.358,1.55-0.723,1.55l0,0c-0.367,0-0.569-0.435-0.724-1.55
			l-0.531-3.825c-0.051-0.379-0.105-0.629-0.151-0.795c-0.046,0.166-0.1,0.416-0.151,0.795l-0.533,3.825
			c-0.153,1.115-0.354,1.55-0.722,1.55c-0.365,0-0.568-0.435-0.723-1.55l-0.531-3.825c-0.052-0.378-0.105-0.629-0.151-0.795
			c-0.047,0.166-0.1,0.417-0.153,0.795l-0.529,3.825c-0.155,1.115-0.358,1.55-0.724,1.55l0,0c-0.365,0-0.568-0.435-0.724-1.55
			l-0.53-3.825c-0.054-0.378-0.107-0.629-0.153-0.795c-0.045,0.166-0.098,0.416-0.152,0.795l-0.53,3.825
			c-0.155,1.115-0.356,1.55-0.724,1.55c-0.365,0-0.568-0.435-0.724-1.55l-0.529-3.825c-0.053-0.379-0.106-0.629-0.153-0.795
			c-0.044,0.166-0.1,0.416-0.151,0.795l-0.53,3.825c-0.155,1.115-0.357,1.55-0.722,1.55c-0.367,0-0.57-0.435-0.723-1.55
			l-0.531-3.825c-0.052-0.378-0.107-0.629-0.153-0.795c-0.045,0.166-0.098,0.416-0.151,0.795l-0.531,3.825
			c-0.155,1.115-0.358,1.55-0.724,1.55l0,0c-0.365,0-0.568-0.435-0.722-1.55l-0.53-3.825c-0.054-0.379-0.107-0.629-0.153-0.795
			c-0.046,0.166-0.1,0.416-0.152,0.795l-0.53,3.825c-0.153,1.115-0.358,1.55-0.724,1.55s-0.568-0.435-0.722-1.55l-0.532-3.825
			c-0.052-0.378-0.105-0.629-0.15-0.795c-0.046,0.166-0.102,0.417-0.153,0.795l-0.532,3.825c-0.155,1.115-0.356,1.55-0.722,1.55l0,0
			c-0.365,0-0.568-0.435-0.724-1.55l-0.53-3.825c-0.052-0.378-0.107-0.629-0.152-0.795c-0.046,0.166-0.1,0.416-0.153,0.795
			l-0.53,3.825c-0.153,1.115-0.357,1.55-0.722,1.55c-0.367,0-0.568-0.435-0.723-1.55l-0.531-3.825
			c-0.052-0.379-0.105-0.629-0.151-0.795c-0.046,0.166-0.1,0.416-0.153,0.795l-0.529,3.825c-0.155,1.115-0.358,1.55-0.724,1.55
			s-0.568-0.435-0.723-1.55l-0.531-3.825c-0.052-0.378-0.107-0.629-0.151-0.795c-0.047,0.166-0.1,0.416-0.152,0.795l-0.53,3.825
			c-0.155,1.115-0.358,1.55-0.726,1.55c-0.365,0-0.566-0.435-0.722-1.55l-0.53-3.825c-0.052-0.379-0.107-0.629-0.152-0.795
			c-0.046,0.166-0.1,0.416-0.153,0.795l-0.53,3.825c-0.155,1.115-0.357,1.55-0.722,1.55c-0.367,0-0.569-0.435-0.723-1.55
			l-0.532-3.825c-0.052-0.379-0.106-0.629-0.152-0.795c-0.045,0.166-0.098,0.416-0.151,0.795l-0.531,3.825
			c-0.155,1.115-0.358,1.55-0.723,1.55l0,0c-0.366,0-0.569-0.435-0.723-1.55l-0.532-3.825c-0.051-0.379-0.106-0.629-0.152-0.795
			c-0.045,0.166-0.099,0.416-0.151,0.795l-0.531,3.825c-0.154,1.115-0.357,1.55-0.723,1.55c-0.365,0-0.568-0.435-0.723-1.55
			l-0.529-3.825c-0.055-0.379-0.108-0.629-0.153-0.795c-0.047,0.166-0.1,0.416-0.153,0.795l-0.53,3.825
			c-0.155,1.115-0.356,1.55-0.723,1.55s-0.568-0.435-0.723-1.55l-0.53-3.825c-0.053-0.379-0.107-0.629-0.153-0.795
			c-0.045,0.166-0.1,0.416-0.153,0.795l-0.529,3.825c-0.154,1.115-0.357,1.55-0.723,1.55c-0.366,0-0.569-0.435-0.724-1.55
			l-0.531-3.825c-0.051-0.379-0.106-0.629-0.153-0.795c-0.045,0.166-0.098,0.416-0.15,0.795l-0.532,3.825
			c-0.154,1.115-0.356,1.55-0.722,1.55c-0.366,0-0.57-0.435-0.723-1.55l-0.531-3.825c-0.052-0.379-0.105-0.629-0.152-0.795
			c-0.046,0.166-0.1,0.416-0.152,0.795l-0.531,3.825c-0.155,1.115-0.356,1.55-0.724,1.55l0,0c-0.365,0-0.567-0.435-0.722-1.55
			l-0.531-3.825c-0.052-0.379-0.106-0.629-0.151-0.795c-0.046,0.166-0.101,0.416-0.153,0.795l-0.53,3.825
			c-0.154,1.115-0.357,1.55-0.724,1.55c-0.365,0-0.567-0.435-0.723-1.55l-0.53-3.825c-0.052-0.379-0.105-0.629-0.152-0.795
			c-0.046,0.166-0.1,0.416-0.153,0.795l-0.529,3.825c-0.155,1.115-0.357,1.55-0.723,1.55c-0.367,0-0.569-0.435-0.723-1.55
			l-0.531-3.825c-0.052-0.378-0.107-0.629-0.152-0.795c-0.046,0.166-0.1,0.416-0.152,0.795l-0.531,3.825
			c-0.155,1.115-0.356,1.55-0.724,1.55c-0.365,0-0.567-0.435-0.722-1.55l-0.531-3.825c-0.053-0.379-0.107-0.629-0.153-0.795
			c-0.045,0.166-0.099,0.416-0.152,0.795l-0.53,3.825c-0.155,1.115-0.358,1.55-0.723,1.55c-0.367,0-0.568-0.435-0.723-1.55
			l-0.531-3.825c-0.052-0.378-0.107-0.629-0.151-0.795c-0.047,0.166-0.101,0.417-0.153,0.795l-0.53,3.825
			c-0.154,1.115-0.356,1.55-0.723,1.55s-0.569-0.435-0.724-1.55l-0.53-3.825c-0.053-0.378-0.106-0.629-0.153-0.795
			c-0.046,0.166-0.1,0.417-0.151,0.795l-0.531,3.825c-0.154,1.115-0.357,1.55-0.723,1.55c-0.365,0-0.568-0.435-0.723-1.55
			l-0.53-3.825c-0.053-0.379-0.107-0.629-0.152-0.795c-0.046,0.166-0.1,0.416-0.152,0.795l-0.531,3.825
			c-0.155,1.115-0.357,1.55-0.724,1.55c-0.365,0-0.567-0.435-0.722-1.55l-0.531-3.825c-0.052-0.379-0.107-0.629-0.153-0.795
			c-0.044,0.166-0.099,0.416-0.151,0.795l-0.532,3.825c-0.153,1.115-0.355,1.55-0.723,1.55c-0.365,0-0.568-0.435-0.722-1.55
			l-0.53-3.825c-0.054-0.379-0.107-0.629-0.153-0.795c-0.047,0.166-0.099,0.416-0.152,0.795l-0.529,3.825
			c-0.156,1.115-0.358,1.55-0.724,1.55c-0.365,0-0.567-0.435-0.723-1.55l-0.967-6.981l0.57-0.078l0.967,6.98
			c0.052,0.377,0.107,0.63,0.152,0.794c0.046-0.165,0.101-0.417,0.152-0.794l0.531-3.825c0.154-1.114,0.356-1.548,0.723-1.548
			c0.366,0,0.568,0.435,0.723,1.548l0.531,3.825c0.052,0.377,0.107,0.63,0.151,0.794c0.047-0.165,0.1-0.417,0.153-0.794l0.531-3.825
			c0.155-1.114,0.356-1.548,0.722-1.548c0.368,0,0.57,0.435,0.725,1.548l0.53,3.825c0.052,0.377,0.106,0.63,0.151,0.794
			c0.046-0.165,0.099-0.417,0.153-0.794l0.53-3.825c0.154-1.114,0.357-1.548,0.724-1.548c0.365,0,0.567,0.435,0.723,1.548
			l0.53,3.825c0.053,0.377,0.106,0.63,0.152,0.794c0.046-0.165,0.1-0.417,0.152-0.794l0.531-3.825
			c0.155-1.114,0.357-1.548,0.722-1.548l0,0c0.366,0,0.569,0.435,0.723,1.548l0.532,3.825c0.051,0.377,0.106,0.63,0.152,0.794
			c0.045-0.165,0.1-0.417,0.152-0.794l0.53-3.825c0.155-1.114,0.357-1.548,0.724-1.548l0,0c0.366,0,0.568,0.435,0.722,1.548
			l0.53,3.825c0.054,0.377,0.107,0.63,0.153,0.794c0.046-0.165,0.099-0.417,0.152-0.794l0.53-3.825
			c0.155-1.114,0.357-1.548,0.723-1.548c0.366,0,0.569,0.435,0.724,1.548l0.531,3.825c0.052,0.377,0.106,0.63,0.151,0.794
			c0.046-0.165,0.1-0.417,0.152-0.794l0.531-3.825c0.155-1.114,0.357-1.548,0.724-1.548c0.365,0,0.567,0.435,0.723,1.548l0.53,3.825
			c0.054,0.377,0.107,0.63,0.153,0.794c0.045-0.165,0.099-0.417,0.152-0.794l0.53-3.825c0.154-1.114,0.357-1.548,0.723-1.548
			c0.365,0,0.568,0.435,0.723,1.548l0.53,3.825c0.053,0.377,0.106,0.63,0.152,0.794c0.047-0.165,0.1-0.417,0.153-0.794l0.53-3.825
			c0.154-1.114,0.357-1.548,0.724-1.548c0.366,0,0.568,0.435,0.722,1.548l0.531,3.825c0.053,0.377,0.107,0.63,0.151,0.794
			c0.047-0.165,0.102-0.417,0.153-0.794l0.532-3.825c0.154-1.114,0.355-1.548,0.722-1.548c0.365,0,0.568,0.435,0.724,1.548
			l0.529,3.825c0.054,0.377,0.107,0.63,0.153,0.794c0.046-0.165,0.098-0.417,0.153-0.794l0.529-3.825
			c0.154-1.114,0.358-1.548,0.722-1.548c0.368,0,0.569,0.435,0.724,1.548l0.531,3.825c0.052,0.377,0.106,0.63,0.153,0.794
			c0.044-0.165,0.099-0.417,0.152-0.794l0.53-3.825c0.155-1.114,0.357-1.548,0.723-1.548c0.366,0,0.568,0.435,0.724,1.548
			l0.53,3.825c0.052,0.377,0.106,0.63,0.152,0.794c0.046-0.165,0.1-0.417,0.151-0.794l0.531-3.825
			c0.154-1.114,0.357-1.548,0.724-1.548c0.365,0,0.568,0.435,0.723,1.548l0.529,3.825c0.054,0.377,0.107,0.63,0.153,0.794
			c0.046-0.165,0.1-0.417,0.153-0.794l0.53-3.825c0.154-1.114,0.356-1.548,0.723-1.548c0.365,0,0.568,0.435,0.723,1.548l0.531,3.825
			c0.052,0.377,0.107,0.63,0.152,0.794c0.046-0.165,0.1-0.417,0.152-0.794l0.531-3.825c0.153-1.114,0.356-1.548,0.722-1.548
			c0.367,0,0.568,0.435,0.724,1.548l0.53,3.825c0.053,0.377,0.106,0.63,0.153,0.794c0.044-0.165,0.098-0.417,0.151-0.794
			l0.531-3.825c0.155-1.114,0.356-1.548,0.723-1.548c0.365,0,0.568,0.435,0.722,1.548l0.531,3.825
			c0.053,0.377,0.107,0.63,0.151,0.794c0.047-0.165,0.102-0.417,0.153-0.794l0.532-3.825c0.153-1.114,0.355-1.548,0.722-1.548
			c0.365,0,0.566,0.435,0.722,1.548l0.53,3.825c0.054,0.377,0.107,0.63,0.153,0.794c0.046-0.165,0.1-0.417,0.153-0.794l0.529-3.825
			c0.155-1.114,0.358-1.548,0.724-1.548s0.568,0.435,0.722,1.548l0.531,3.825c0.053,0.377,0.106,0.63,0.153,0.794
			c0.047-0.165,0.099-0.417,0.152-0.794l0.531-3.825c0.155-1.114,0.356-1.548,0.723-1.548c0.365,0,0.568,0.435,0.724,1.548
			l0.529,3.825c0.055,0.377,0.108,0.63,0.153,0.794c0.046-0.165,0.1-0.417,0.151-0.794l0.532-3.825
			c0.155-1.114,0.357-1.548,0.724-1.548l0,0c0.363,0,0.568,0.435,0.72,1.548l0.53,3.825c0.055,0.377,0.107,0.63,0.153,0.794
			c0.046-0.165,0.1-0.417,0.153-0.794l0.529-3.825c0.155-1.114,0.358-1.548,0.724-1.548c0.367,0,0.568,0.435,0.722,1.548
			l0.532,3.825c0.052,0.377,0.107,0.63,0.151,0.794c0.047-0.165,0.1-0.417,0.153-0.794l0.531-3.825
			c0.153-1.114,0.356-1.548,0.722-1.548s0.568,0.435,0.724,1.548l0.53,3.825c0.054,0.377,0.105,0.63,0.153,0.794
			c0.045-0.165,0.098-0.417,0.152-0.794l0.53-3.825c0.155-1.114,0.357-1.548,0.722-1.548c0.367,0,0.569,0.435,0.724,1.548
			l0.531,3.825c0.051,0.377,0.106,0.63,0.151,0.794c0.046-0.165,0.1-0.417,0.153-0.794l0.532-3.825
			c0.152-1.114,0.355-1.548,0.72-1.548c0.367,0,0.568,0.435,0.723,1.548l0.533,3.825c0.051,0.377,0.105,0.63,0.151,0.794
			c0.046-0.165,0.1-0.417,0.153-0.794l0.529-3.825c0.155-1.114,0.358-1.548,0.724-1.548l0,0c0.365,0,0.568,0.435,0.723,1.548
			l0.531,3.825c0.052,0.377,0.105,0.63,0.151,0.794c0.047-0.165,0.098-0.417,0.153-0.794l0.529-3.825
			c0.155-1.114,0.357-1.548,0.724-1.548c0.365,0,0.568,0.435,0.724,1.548l0.529,3.825c0.053,0.377,0.106,0.63,0.153,0.794
			c0.046-0.165,0.1-0.417,0.151-0.794l0.531-3.825c0.155-1.114,0.358-1.548,0.723-1.548s0.567,0.435,0.722,1.548l0.533,3.825
			c0.051,0.377,0.105,0.63,0.151,0.794c0.046-0.165,0.1-0.417,0.153-0.794l0.528-3.825c0.155-1.114,0.358-1.548,0.724-1.548
			s0.568,0.435,0.724,1.548l0.53,3.825c0.052,0.377,0.107,0.63,0.152,0.794c0.046-0.165,0.1-0.417,0.151-0.794l0.53-3.825
			c0.155-1.114,0.358-1.548,0.726-1.548c0.363,0,0.566,0.435,0.722,1.548l0.53,3.825c0.054,0.377,0.106,0.63,0.151,0.794
			c0.047-0.165,0.101-0.417,0.153-0.794l0.531-3.825c0.154-1.114,0.356-1.548,0.723-1.548c0.365,0,0.568,0.435,0.722,1.548
			l0.531,3.825c0.052,0.377,0.106,0.63,0.151,0.794c0.047-0.165,0.102-0.417,0.153-0.794l0.53-3.825
			c0.155-1.114,0.356-1.548,0.722-1.548c0.367,0,0.57,0.435,0.726,1.548l0.528,3.825c0.052,0.377,0.105,0.63,0.153,0.794
			c0.047-0.165,0.099-0.417,0.152-0.794l0.968-6.98l0.57,0.078l-0.969,6.981C307.225,21.672,307.021,22.107,306.657,22.107z"/>
	</g>
</g>
<g>
	<ellipse fill="#004E59" cx="301.56" cy="49.291" rx="3.318" ry="3.303"/>
</g>
<g>
	<ellipse fill="#FFB700" cx="301.65" cy="49.291" rx="1.877" ry="1.869"/>
</g>
<g>
	<ellipse fill="#0069A6" cx="289.889" cy="49.291" rx="1.877" ry="1.869"/>
</g>
<line fill="none" stroke="#929288" stroke-miterlimit="10" x1="5.782" y1="86.605" x2="7.863" y2="86.605"/>
<line fill="none" stroke="#929288" stroke-miterlimit="10" x1="5.782" y1="84.789" x2="7.863" y2="84.789"/>
<line fill="none" stroke="#929288" stroke-miterlimit="10" x1="5.782" y1="82.975" x2="7.863" y2="82.975"/>
<line fill="none" stroke="#929288" stroke-miterlimit="10" x1="5.782" y1="81.159" x2="7.863" y2="81.159"/>
<line fill="none" stroke="#929288" stroke-miterlimit="10" x1="5.782" y1="79.344" x2="9.943" y2="79.344"/>
<line fill="none" stroke="#929288" stroke-miterlimit="10" x1="5.782" y1="77.53" x2="7.863" y2="77.53"/>
<line fill="none" stroke="#929288" stroke-miterlimit="10" x1="5.782" y1="75.713" x2="7.863" y2="75.713"/>
<line fill="none" stroke="#929288" stroke-miterlimit="10" x1="5.782" y1="73.897" x2="7.863" y2="73.897"/>
<line fill="none" stroke="#929288" stroke-miterlimit="10" x1="5.782" y1="72.083" x2="7.863" y2="72.083"/>
<line fill="none" stroke="#929288" stroke-miterlimit="10" x1="5.782" y1="70.268" x2="9.943" y2="70.268"/>
<line fill="none" stroke="#929288" stroke-miterlimit="10" x1="5.782" y1="68.452" x2="7.863" y2="68.452"/>
<line fill="none" stroke="#929288" stroke-miterlimit="10" x1="5.782" y1="66.637" x2="7.863" y2="66.637"/>
<line fill="none" stroke="#929288" stroke-miterlimit="10" x1="5.782" y1="64.822" x2="7.863" y2="64.822"/>
<line fill="none" stroke="#929288" stroke-miterlimit="10" x1="5.782" y1="63.006" x2="7.863" y2="63.006"/>
<line fill="none" stroke="#929288" stroke-miterlimit="10" x1="5.782" y1="61.192" x2="9.943" y2="61.192"/>
<line fill="none" stroke="#929288" stroke-miterlimit="10" x1="5.782" y1="59.375" x2="7.863" y2="59.375"/>
<line fill="none" stroke="#929288" stroke-miterlimit="10" x1="5.782" y1="57.561" x2="7.863" y2="57.561"/>
<line fill="none" stroke="#929288" stroke-miterlimit="10" x1="5.782" y1="55.746" x2="7.863" y2="55.746"/>
<line fill="none" stroke="#929288" stroke-miterlimit="10" x1="5.782" y1="53.931" x2="7.863" y2="53.931"/>
<line fill="none" stroke="#929288" stroke-miterlimit="10" x1="5.782" y1="52.113" x2="9.943" y2="52.113"/>
<line fill="none" stroke="#929288" stroke-miterlimit="10" x1="5.782" y1="50.3" x2="7.863" y2="50.3"/>
<line fill="none" stroke="#929288" stroke-miterlimit="10" x1="5.782" y1="48.484" x2="7.863" y2="48.484"/>
<line fill="none" stroke="#929288" stroke-miterlimit="10" x1="5.782" y1="46.669" x2="7.863" y2="46.669"/>
<line fill="none" stroke="#929288" stroke-miterlimit="10" x1="5.782" y1="44.854" x2="7.863" y2="44.854"/>
<line fill="none" stroke="#929288" stroke-miterlimit="10" x1="5.782" y1="43.039" x2="9.943" y2="43.039"/>
<line fill="none" stroke="#929288" stroke-miterlimit="10" x1="5.782" y1="41.224" x2="7.863" y2="41.224"/>
<line fill="none" stroke="#929288" stroke-miterlimit="10" x1="5.782" y1="39.407" x2="7.863" y2="39.407"/>
<line fill="none" stroke="#929288" stroke-miterlimit="10" x1="5.782" y1="37.593" x2="7.863" y2="37.593"/>
<line fill="none" stroke="#929288" stroke-miterlimit="10" x1="5.782" y1="35.777" x2="7.863" y2="35.777"/>
<line fill="none" stroke="#929288" stroke-miterlimit="10" x1="5.782" y1="33.962" x2="9.943" y2="33.962"/>
<line fill="none" stroke="#929288" stroke-miterlimit="10" x1="5.782" y1="32.148" x2="7.863" y2="32.148"/>
<line fill="none" stroke="#929288" stroke-miterlimit="10" x1="5.782" y1="30.333" x2="7.863" y2="30.333"/>
<line fill="none" stroke="#929288" stroke-miterlimit="10" x1="5.782" y1="28.516" x2="7.863" y2="28.516"/>
<line fill="none" stroke="#929288" stroke-miterlimit="10" x1="5.782" y1="26.701" x2="7.863" y2="26.701"/>
<line fill="none" stroke="#929288" stroke-miterlimit="10" x1="5.782" y1="24.886" x2="9.943" y2="24.886"/>
<g>
	<defs>
		<rect id="SVGID_5_" x="72.119" y="44.176" width="22.748" height="14.051"/>
	</defs>
	<clipPath id="SVGID_6_">
		<use xlink:href="#SVGID_5_"  overflow="visible"/>
	</clipPath>
	<g clip-path="url(#SVGID_6_)">
		<path fill="#FF5000" d="M94.947,42.512c0-1.559-1.275-2.834-2.834-2.834h-1.496c-1.559,0-2.834,0.714-2.834,1.586
			c0,0.873-1.275,1.587-2.834,1.587h-0.236c-1.559,0-2.834-0.884-2.834-1.965c0-1.081-1.198-1.965-2.663-1.965
			s-2.663,0.43-2.663,0.956s-1.15,0.956-2.555,0.956c-1.405,0-2.555,1.275-2.555,2.834v5.184c0,1.559,1.133,2.834,2.519,2.834
			c1.385,0,2.519-0.688,2.519-1.528c0-0.841,0.59-1.528,1.312-1.528c0.722,0,1.312,1.142,1.312,2.537
			c0,1.396,1.275,2.538,2.834,2.538h3.799c1.559,0,2.834-0.714,2.834-1.587s1.275-1.587,2.834-1.587h0.708
			c1.559,0,2.834-1.275,2.834-2.834V42.512z"/>
	</g>
</g>
<g>
	<path fill="#FF5000" d="M78.423,59.119c0-0.974,0.537-2.08,0.537-2.08c0.681-1.403,1.794-1.403,2.475,0c0,0,0.536,1.105,0.536,2.08
		c0,0.976-0.794,1.766-1.773,1.766C79.218,60.885,78.423,60.095,78.423,59.119z"/>
</g>
<g>
	<path fill="#FF5000" d="M78.423,67.294c0-0.974,0.537-2.08,0.537-2.08c0.681-1.403,1.794-1.403,2.475,0c0,0,0.536,1.105,0.536,2.08
		c0,0.975-0.794,1.765-1.773,1.765C79.218,69.059,78.423,68.269,78.423,67.294z"/>
</g>
<rect x="102.773" y="40.98" fill="#0069A6" width="107.336" height="93.02"/>
<ellipse fill="#004E59" cx="130.103" cy="71.271" rx="17.478" ry="17.393"/>
<path fill="#FFB700" d="M130.103,51.042c-11.225,0-20.328,9.057-20.328,20.231s9.103,20.231,20.328,20.231
	c11.229,0,20.331-9.057,20.331-20.231S141.332,51.042,130.103,51.042z M122.383,58.498c1.977-1.181,4.543-0.541,5.729,1.427
	c1.186,1.968,0.542,4.522-1.435,5.701c-1.98,1.18-4.544,0.542-5.73-1.429C119.759,62.228,120.404,59.676,122.383,58.498z
	 M115.108,71.273c0-2.298,1.868-4.157,4.176-4.157c2.304,0,4.176,1.859,4.176,4.157c0,2.294-1.873,4.155-4.176,4.155
	C116.976,75.429,115.108,73.568,115.108,71.273z M128.662,82.702c-1.088,2.023-3.619,2.785-5.652,1.702
	c-2.033-1.084-2.801-3.604-1.71-5.626c1.088-2.024,3.621-2.786,5.653-1.702C128.986,78.16,129.752,80.679,128.662,82.702z
	 M131.489,59.843c1.088-2.021,3.618-2.786,5.652-1.702c2.033,1.085,2.797,3.604,1.709,5.627c-1.088,2.022-3.618,2.785-5.652,1.702
	C131.165,64.387,130.398,61.868,131.489,59.843z M137.768,84.05c-1.981,1.18-4.544,0.539-5.729-1.427
	c-1.185-1.971-0.542-4.524,1.436-5.702c1.979-1.18,4.544-0.541,5.729,1.429C140.39,80.317,139.747,82.87,137.768,84.05z
	 M140.866,75.429c-2.306,0-4.176-1.861-4.176-4.155c0-2.298,1.871-4.157,4.176-4.157c2.304,0,4.176,1.859,4.176,4.157
	C145.042,73.568,143.17,75.429,140.866,75.429z"/>
<ellipse fill="#004E59" cx="182.777" cy="71.271" rx="17.477" ry="17.393"/>
<path fill="#FFB700" d="M182.777,51.042c-11.227,0-20.329,9.057-20.329,20.231s9.102,20.231,20.329,20.231
	c11.228,0,20.331-9.057,20.331-20.231S194.004,51.042,182.777,51.042z M175.055,58.498c1.979-1.181,4.545-0.541,5.73,1.427
	c1.185,1.968,0.543,4.522-1.438,5.701c-1.978,1.18-4.542,0.542-5.728-1.429C172.436,62.228,173.078,59.676,175.055,58.498z
	 M167.78,71.273c0-2.298,1.87-4.157,4.179-4.157c2.306,0,4.173,1.859,4.173,4.157c0,2.294-1.867,4.155-4.173,4.155
	C169.65,75.429,167.78,73.568,167.78,71.273z M181.336,82.702c-1.087,2.023-3.62,2.785-5.653,1.702
	c-2.033-1.084-2.8-3.604-1.709-5.626c1.088-2.024,3.62-2.786,5.651-1.702C181.66,78.16,182.426,80.679,181.336,82.702z
	 M184.163,59.843c1.087-2.021,3.618-2.786,5.65-1.702c2.034,1.085,2.798,3.604,1.711,5.627c-1.09,2.022-3.618,2.785-5.651,1.702
	C183.837,64.387,183.071,61.868,184.163,59.843z M190.44,84.05c-1.978,1.18-4.543,0.539-5.728-1.427
	c-1.185-1.971-0.542-4.524,1.436-5.702c1.979-1.18,4.542-0.541,5.729,1.429C193.063,80.317,192.419,82.87,190.44,84.05z
	 M193.539,75.429c-2.306,0-4.174-1.861-4.174-4.155c0-2.298,1.868-4.157,4.174-4.157c2.307,0,4.178,1.859,4.178,4.157
	C197.717,73.568,195.846,75.429,193.539,75.429z"/>
<rect x="115.184" y="105.968" fill="#BEC6C3" width="42.534" height="15.175"/>
<ellipse fill="#FF5000" cx="186.6" cy="113.165" rx="10.106" ry="10.056"/>
</svg>
