<?xml version="1.0" encoding="utf-8"?>
<!-- Generator: Adobe Illustrator 16.2.1, SVG Export Plug-In . SVG Version: 6.00 Build 0)  -->
<!DOCTYPE svg PUBLIC "-//W3C//DTD SVG 1.1//EN" "http://www.w3.org/Graphics/SVG/1.1/DTD/svg11.dtd">
<svg version="1.1" id="Layer_1" xmlns="http://www.w3.org/2000/svg" xmlns:xlink="http://www.w3.org/1999/xlink" x="0px" y="0px"
	 width="313px" height="148px" viewBox="0 0 313 148" enable-background="new 0 0 313 148" xml:space="preserve">
<rect fill="#EA7200" width="102.563" height="109.864"/>
<g>
	<path fill="#D8DCDA" d="M95.205,90.748c0,2.75-2.25,5-5,5h-79.19c-2.75,0-5-2.25-5-5v-6.465c0-2.75,2.25-5,5-5h79.19
		c2.75,0,5,2.25,5,5V90.748z"/>
</g>
<circle fill="#1CCFC9" cx="16.363" cy="87.514" r="3.599"/>
<rect x="29.839" y="84.232" fill="#0069A6" width="3.246" height="6.563"/>
<rect x="23.745" y="84.232" fill="#0069A6" width="3.246" height="6.563"/>
<rect x="6.735" y="66.741" fill="#004E59" width="88.47" height="1.629"/>
<ellipse fill="#FFB700" cx="15.093" cy="50.094" rx="8.358" ry="8.368"/>
<g>
	<defs>
		<path id="SVGID_1_" d="M18.447,42.429c-4.228-1.855-9.157,0.072-11.009,4.305c-1.854,4.232,0.071,9.167,4.299,11.023
			c4.228,1.855,9.157-0.072,11.01-4.306C24.601,49.22,22.674,44.284,18.447,42.429z"/>
	</defs>
	<clipPath id="SVGID_2_">
		<use xlink:href="#SVGID_1_"  overflow="visible"/>
	</clipPath>
	
		<line clip-path="url(#SVGID_2_)" fill="none" stroke="#004E59" stroke-width="4" stroke-miterlimit="10" x1="19.954" y1="38.989" x2="15.769" y2="48.549"/>
</g>
<ellipse fill="#FFB700" cx="38.975" cy="50.094" rx="8.357" ry="8.368"/>
<g>
	<defs>
		<path id="SVGID_3_" d="M46.756,53.149c1.685-4.302-0.432-9.158-4.729-10.846c-4.295-1.688-9.146,0.432-10.833,4.735
			c-1.685,4.302,0.432,9.158,4.729,10.846C40.22,59.572,45.071,57.452,46.756,53.149z"/>
	</defs>
	<clipPath id="SVGID_4_">
		<use xlink:href="#SVGID_3_"  overflow="visible"/>
	</clipPath>
	
		<line clip-path="url(#SVGID_4_)" fill="none" stroke="#004E59" stroke-width="4" stroke-miterlimit="10" x1="50.249" y1="54.522" x2="40.544" y2="50.709"/>
</g>
<ellipse fill="#FFB700" cx="62.859" cy="50.094" rx="8.358" ry="8.368"/>
<g>
	<defs>
		<path id="SVGID_5_" d="M55.948,45.387c-2.595,3.822-1.606,9.027,2.21,11.625c3.817,2.6,9.016,1.609,11.611-2.212
			c2.596-3.82,1.607-9.027-2.21-11.625C63.744,40.575,58.544,41.566,55.948,45.387z"/>
	</defs>
	<clipPath id="SVGID_6_">
		<use xlink:href="#SVGID_5_"  overflow="visible"/>
	</clipPath>
	
		<line clip-path="url(#SVGID_6_)" fill="none" stroke="#004E59" stroke-width="4" stroke-miterlimit="10" x1="52.846" y1="43.275" x2="61.467" y2="49.145"/>
</g>
<path fill="#FFB700" d="M91.708,43.362c-3.713-2.746-8.946-1.958-11.688,1.759c-2.743,3.717-1.957,8.958,1.756,11.703
	c3.713,2.747,8.945,1.959,11.688-1.758C96.207,51.349,95.42,46.108,91.708,43.362z"/>
<g>
	<defs>
		<path id="SVGID_7_" d="M91.708,43.362c-3.713-2.746-8.946-1.958-11.688,1.759c-2.743,3.717-1.957,8.958,1.756,11.703
			c3.713,2.747,8.945,1.959,11.688-1.758C96.207,51.349,95.42,46.108,91.708,43.362z"/>
	</defs>
	<clipPath id="SVGID_8_">
		<use xlink:href="#SVGID_7_"  overflow="visible"/>
	</clipPath>
	
		<line clip-path="url(#SVGID_8_)" fill="none" stroke="#004E59" stroke-width="4" stroke-miterlimit="10" x1="93.936" y1="40.341" x2="87.742" y2="48.737"/>
</g>
<g>
	<rect y="109.864" fill="#929288" width="102.563" height="38.136"/>
	<g>
		<path fill="#EBEAE7" d="M89.982,130.98c0,2.75-2.25,5-5,5H16.435c-2.75,0-5-2.25-5-5v-4.5c0-2.75,2.25-5,5-5h68.547
			c2.75,0,5,2.25,5,5V130.98z"/>
	</g>
	<rect x="80.414" y="124.607" fill="#FFB700" width="4.08" height="8.246"/>
	<rect x="80.414" y="128.729" fill="#EA7200" width="4.08" height="4.125"/>
	<circle fill="#FF5000" cx="20.546" cy="128.729" r="3.17"/>
	<circle fill="#00C4B3" cx="32.148" cy="128.729" r="3.17"/>
	<circle fill="#00C4B3" cx="44.509" cy="128.729" r="3.17"/>
</g>
<g>
	<rect x="208.96" y="20.751" fill="#BEC6C3" width="104.04" height="127.249"/>
	<g>
		<circle fill="#FFFFFF" cx="223.521" cy="35.812" r="2.053"/>
		<circle fill="#FFFFFF" cx="236.151" cy="35.812" r="2.054"/>
		<circle fill="#FFFFFF" cx="248.781" cy="35.812" r="2.054"/>
		<circle fill="#FFFFFF" cx="261.412" cy="35.812" r="2.054"/>
		<circle fill="#FFFFFF" cx="274.042" cy="35.812" r="2.054"/>
		<circle fill="#FFFFFF" cx="286.673" cy="35.812" r="2.054"/>
		<circle fill="#FFFFFF" cx="299.302" cy="35.812" r="2.054"/>
	</g>
	<g>
		<circle fill="#FFFFFF" cx="223.521" cy="48.167" r="2.053"/>
		<circle fill="#FFFFFF" cx="236.151" cy="48.167" r="2.054"/>
		<circle fill="#FFFFFF" cx="248.781" cy="48.167" r="2.054"/>
		<circle fill="#FFFFFF" cx="261.412" cy="48.167" r="2.054"/>
		<circle fill="#FFFFFF" cx="274.042" cy="48.167" r="2.054"/>
		<circle fill="#FFFFFF" cx="286.673" cy="48.167" r="2.054"/>
		<circle fill="#FFFFFF" cx="299.302" cy="48.167" r="2.054"/>
	</g>
	<g>
		<circle fill="#FFFFFF" cx="223.521" cy="60.522" r="2.053"/>
		<circle fill="#FFFFFF" cx="236.151" cy="60.522" r="2.054"/>
		<circle fill="#FFFFFF" cx="248.781" cy="60.522" r="2.054"/>
		<circle fill="#FFFFFF" cx="261.412" cy="60.522" r="2.054"/>
		<circle fill="#FFFFFF" cx="274.042" cy="60.522" r="2.054"/>
		<circle fill="#FFFFFF" cx="286.673" cy="60.522" r="2.054"/>
		<circle fill="#FFFFFF" cx="299.302" cy="60.522" r="2.054"/>
	</g>
	<g>
		<circle fill="#FFFFFF" cx="223.521" cy="72.877" r="2.053"/>
		<circle fill="#FFFFFF" cx="236.151" cy="72.877" r="2.054"/>
		<circle fill="#FFFFFF" cx="248.781" cy="72.877" r="2.054"/>
		<circle fill="#FFFFFF" cx="261.412" cy="72.877" r="2.054"/>
		<circle fill="#FFFFFF" cx="274.042" cy="72.877" r="2.054"/>
		<circle fill="#FFFFFF" cx="286.673" cy="72.877" r="2.054"/>
		<circle fill="#FFFFFF" cx="299.302" cy="72.877" r="2.054"/>
	</g>
	<g>
		<circle fill="#FFFFFF" cx="223.521" cy="85.231" r="2.053"/>
		<circle fill="#FFFFFF" cx="236.151" cy="85.231" r="2.054"/>
		<circle fill="#FFFFFF" cx="248.781" cy="85.231" r="2.054"/>
		<circle fill="#FFFFFF" cx="261.412" cy="85.231" r="2.054"/>
		<circle fill="#FFFFFF" cx="274.042" cy="85.231" r="2.054"/>
		<circle fill="#FFFFFF" cx="286.673" cy="85.231" r="2.054"/>
		<circle fill="#FFFFFF" cx="299.302" cy="85.231" r="2.054"/>
	</g>
	<g>
		<circle fill="#FFFFFF" cx="223.521" cy="97.586" r="2.053"/>
		<circle fill="#FFFFFF" cx="236.151" cy="97.586" r="2.054"/>
		<circle fill="#FFFFFF" cx="248.781" cy="97.586" r="2.054"/>
		<circle fill="#FFFFFF" cx="261.412" cy="97.586" r="2.054"/>
		<circle fill="#FFFFFF" cx="274.042" cy="97.586" r="2.054"/>
		<circle fill="#FFFFFF" cx="286.673" cy="97.586" r="2.054"/>
		<circle fill="#FFFFFF" cx="299.302" cy="97.586" r="2.054"/>
	</g>
	<g>
		<circle fill="#FFFFFF" cx="223.521" cy="109.94" r="2.053"/>
		<circle fill="#FFFFFF" cx="236.151" cy="109.94" r="2.054"/>
		<circle fill="#FFFFFF" cx="248.781" cy="109.94" r="2.054"/>
		<circle fill="#FFFFFF" cx="261.412" cy="109.94" r="2.054"/>
		<circle fill="#FFFFFF" cx="274.042" cy="109.94" r="2.054"/>
		<circle fill="#FFFFFF" cx="286.673" cy="109.94" r="2.054"/>
		<circle fill="#FFFFFF" cx="299.302" cy="109.94" r="2.054"/>
	</g>
	<g>
		<circle fill="#FFFFFF" cx="223.521" cy="122.294" r="2.053"/>
		<circle fill="#FFFFFF" cx="236.151" cy="122.294" r="2.054"/>
		<circle fill="#FFFFFF" cx="248.781" cy="122.294" r="2.054"/>
		<circle fill="#FFFFFF" cx="261.412" cy="122.294" r="2.054"/>
		<circle fill="#FFFFFF" cx="274.042" cy="122.294" r="2.054"/>
		<circle fill="#FFFFFF" cx="286.673" cy="122.294" r="2.054"/>
		<circle fill="#FFFFFF" cx="299.302" cy="122.294" r="2.054"/>
	</g>
	<circle fill="#FFFFFF" cx="223.521" cy="134.649" r="2.053"/>
	<circle fill="#FFFFFF" cx="236.151" cy="134.649" r="2.054"/>
	<circle fill="#FFFFFF" cx="248.781" cy="134.649" r="2.054"/>
	<circle fill="#FFFFFF" cx="261.412" cy="134.649" r="2.054"/>
	<circle fill="#FFFFFF" cx="274.042" cy="134.649" r="2.054"/>
	<circle fill="#FFFFFF" cx="286.673" cy="134.649" r="2.054"/>
	<circle fill="#FFFFFF" cx="299.302" cy="134.649" r="2.054"/>
	
		<polyline fill="none" stroke="#1CCFC9" stroke-width="2" stroke-linecap="round" stroke-linejoin="round" stroke-miterlimit="10" points="
		223.521,134.649 236.152,134.649 236.152,122.294 223.521,109.94 248.782,85.231 248.782,97.586 261.412,97.586 274.042,109.94 
		274.042,85.231 286.673,97.586 299.303,85.231 299.303,72.877 286.673,60.522 274.042,60.522 274.042,48.167 261.412,48.167 	"/>
	
		<polyline fill="none" stroke="#F9BE00" stroke-width="2" stroke-linecap="round" stroke-linejoin="round" stroke-miterlimit="10" points="
		236.152,60.522 236.152,72.877 248.782,72.877 261.412,85.231 261.412,109.94 274.042,122.294 286.673,109.94 299.303,122.294 
		299.303,134.649 	"/>
	<circle fill="#FFB700" cx="261.412" cy="48.167" r="1.006"/>
	<circle fill="#FFB700" cx="223.521" cy="134.649" r="1.006"/>
	<circle fill="#FF5000" cx="299.303" cy="134.649" r="1.006"/>
	<circle fill="#FF5000" cx="236.152" cy="60.522" r="1.007"/>
	
		<polyline fill="none" stroke="#EA7200" stroke-width="2" stroke-linecap="round" stroke-linejoin="round" stroke-miterlimit="10" points="
		223.521,35.812 223.521,48.167 236.152,48.167 248.782,35.812 248.782,48.167 	"/>
	<circle fill="#0069A6" cx="248.782" cy="48.167" r="1.007"/>
	<circle fill="#0069A6" cx="223.521" cy="35.812" r="1.006"/>
</g>
<g>
	<circle fill="#004E59" cx="16.032" cy="16.472" r="3.319"/>
</g>
<g>
	<circle fill="#FF5000" cx="16.032" cy="16.472" r="1.877"/>
</g>
<g>
	<rect x="102.514" y="84.635" fill="#0069A6" width="107.305" height="63.365"/>
	<rect x="192.662" y="123.763" fill="#00C4B3" width="4.268" height="8.629"/>
	<rect x="192.662" y="128.075" fill="#004E59" width="4.268" height="4.316"/>
	<g>
		<ellipse fill="#FFFFFF" cx="119.232" cy="126.921" rx="8.094" ry="8.107"/>
		<path fill="#00C4B3" d="M127.327,126.921c0,4.477-3.625,8.103-8.095,8.103c-4.469,0-8.094-3.626-8.094-8.103"/>
	</g>
	<g>
		<ellipse fill="#FFFFFF" cx="141.176" cy="126.921" rx="8.094" ry="8.107"/>
		<path fill="#EA7200" d="M147.426,121.769c2.84,3.458,2.344,8.564-1.106,11.409c-3.452,2.844-8.553,2.348-11.393-1.107"/>
	</g>
	<g>
		<ellipse fill="#FFFFFF" cx="163.122" cy="126.921" rx="8.094" ry="8.107"/>
		<path fill="#F9BE00" d="M165.992,134.498c-4.181,1.587-8.854-0.519-10.439-4.703c-1.585-4.188,0.517-8.866,4.697-10.452"/>
	</g>
	<rect x="111.851" y="108.575" fill="#FFB700" width="87.964" height="1.705"/>
</g>
<g>
	<path fill="#EA7200" d="M168.897,78.943c-0.226,3.11-2.962,5.654-6.081,5.654h-18.09c-3.118,0-5.854-2.544-6.081-5.654
		l-1.993-27.419c-0.226-3.11,2.14-5.654,5.258-5.654h23.72c3.118,0,5.484,2.544,5.258,5.654L168.897,78.943z"/>
</g>
<path fill="#1CCFC9" d="M121.245,38.968c0,0,11.674-11.946,24.357,6.901h-6.865C138.737,45.869,135.948,34.848,121.245,38.968z"/>
<path fill="#0069A6" d="M134.835,33.524c0,0,8.562,2.737,9.113,12.249c0.551,9.512,0.551,9.512,0.551,9.512h5.342
	C149.841,55.285,150.629,35.621,134.835,33.524z"/>
<path fill="#0069A6" d="M142.341,27.896c0,0,6.346,7.525,4.803,19.156h3.637c0,0,1.746-12.645-8.44-19.597"/>
<path fill="#1CCFC9" d="M149.848,47.87c0,0-1.602-9.204,4.46-10.616c6.062-1.412,7.825,5.308,7.825,5.308s-2.116-3.741-6.238-2.637
	c-4.122,1.104-2.123,7.128-2.123,7.128L149.848,47.87z"/>
<path fill="#0069A6" d="M153.479,45.869c0,0-3.027-8.961,4.173-17.201c0,0-4.409,11.154,0.881,17.201v3.104h-4.761L153.479,45.869z"
	/>
<path fill="#1CCFC9" d="M157.868,44.999c0,0-1.393-15.006,11.979-16.33c0,0-11.609,7.785-7.054,17.201s3.968,9.416,3.968,9.416
	l-8.935-1.015L157.868,44.999z"/>
<path fill="#0069A6" d="M160.817,46.435c0-8.149,6.598-14.757,14.738-14.757c0.565,0,1.121,0.039,1.669,0.101
	c-7.353,0.831-13.07,7.071-13.07,14.656H160.817z"/>
<path fill="#0069A6" d="M140.037,51.491v-3.392c0-4.881-3.952-8.839-8.827-8.839s-8.827,3.958-8.827,8.839v1.217
	c0-4.167,3.375-7.545,7.537-7.545c4.16,0,7.535,3.378,7.535,7.545v1.349"/>
<path fill="#1CCFC9" d="M164.855,54.216l-1.025-6.481c0-4.143,5.405-8.53,9.544-8.53c4.14,0,7.494,3.361,7.494,7.504v1.561
	c0-2.465-1.683-6.063-6.055-6.063c-3.345,0-6.057,2.715-6.057,6.063v3.109"/>
<rect x="134.835" y="45.869" fill="#FF5000" width="37.822" height="9.416"/>
<path fill="#1CCFC9" d="M145.16,41.138c0,0-6.172,1.766-5.951,11.808c0.22,10.042,7.053,12.911,7.053,12.911
	s-7.164-17.244,0.992-19.988h2.535C149.789,45.869,150.671,40.146,145.16,41.138z"/>
<path fill="#1CCFC9" d="M155.013,45.869h3.52c0,0,4.63,3.913,1.47,13.772c0,0,7.715-4.782,4.176-13.772
	C161.171,38.229,155.013,42.464,155.013,45.869z"/>
</svg>
