<?xml version="1.0" encoding="utf-8"?>
<!-- Generator: Adobe Illustrator 16.2.1, SVG Export Plug-In . SVG Version: 6.00 Build 0)  -->
<!DOCTYPE svg PUBLIC "-//W3C//DTD SVG 1.1//EN" "http://www.w3.org/Graphics/SVG/1.1/DTD/svg11.dtd">
<svg version="1.1" id="Layer_1" xmlns="http://www.w3.org/2000/svg" xmlns:xlink="http://www.w3.org/1999/xlink" x="0px" y="0px"
	 width="540px" height="360px" viewBox="0 0 540 360" enable-background="new 0 0 540 360" xml:space="preserve">
<g>
	<rect fill="#6EDBD5" width="540" height="360"/>
</g>
<g>
	<polygon fill="#CF0A2C" points="234.6,151.5 222.9,151.5 222.9,66.2 228.7,61.1 234.6,66.2 	"/>
	<path fill="#085156" d="M234.6,152.9h-11.7c-0.7,0-1.3-0.6-1.3-1.3V66.2c0-0.4,0.2-0.7,0.5-1l5.8-5.1c0.5-0.4,1.2-0.4,1.7,0
		l5.8,5.1c0.3,0.2,0.5,0.6,0.5,1v85.3C235.9,152.3,235.3,152.9,234.6,152.9z M224.2,150.2h9V66.8l-4.5-4l-4.5,4V150.2z"/>
</g>
<g>
	<polygon fill="#CF0A2C" points="301.8,151.5 290.1,151.5 290.1,66.2 296,61.1 301.8,66.2 	"/>
	<path fill="#085156" d="M301.8,152.9h-11.7c-0.7,0-1.3-0.6-1.3-1.3V66.2c0-0.4,0.2-0.7,0.5-1l5.8-5.1c0.5-0.4,1.2-0.4,1.7,0
		l5.8,5.1c0.3,0.2,0.5,0.6,0.5,1v85.3C303.1,152.3,302.6,152.9,301.8,152.9z M291.5,150.2h9V66.8l-4.5-4l-4.5,4V150.2z"/>
</g>
<g>
	<circle fill="#FFFFFF" cx="228.7" cy="90.3" r="1.6"/>
</g>
<g>
	<path fill="#085156" d="M326.5,295.7H199c-0.7,0-1.3-0.6-1.3-1.3V179.6c0-0.7,0.6-1.3,1.3-1.3h127.5c0.7,0,1.3,0.6,1.3,1.3v114.8
		C327.8,295.1,327.2,295.7,326.5,295.7z M200.4,293.1h124.8V180.9H200.4V293.1z"/>
</g>
<g>
	<rect x="199" y="91.9" fill="#6EDBD5" width="127.5" height="47.9"/>
	<path fill="#085156" d="M326.5,141.2H199c-0.7,0-1.3-0.6-1.3-1.3V91.9c0-0.7,0.6-1.3,1.3-1.3h127.5c0.7,0,1.3,0.6,1.3,1.3v47.9
		C327.8,140.6,327.2,141.2,326.5,141.2z M200.4,138.6h124.8V93.3H200.4V138.6z"/>
</g>
<g>
	<path fill="#085156" d="M326.5,181.7H199c-0.7,0-1.3-0.6-1.3-1.3v-39.7c0-0.7,0.6-1.3,1.3-1.3h127.5c0.7,0,1.3,0.6,1.3,1.3v39.7
		C327.8,181.1,327.2,181.7,326.5,181.7z M200.4,179h124.8v-37.1H200.4V179z"/>
</g>
<g>
	<rect x="206.3" y="140.4" fill="#085156" width="112.9" height="31.3"/>
	<path fill="#085156" d="M319.2,173H206.3c-0.7,0-1.3-0.6-1.3-1.3v-31.3c0-0.7,0.6-1.3,1.3-1.3h112.9c0.7,0,1.3,0.6,1.3,1.3v31.3
		C320.5,172.4,319.9,173,319.2,173z M207.7,170.4h110.2v-28.7H207.7V170.4z"/>
</g>
<g>
	<g>
		
			<rect x="199" y="183.6" transform="matrix(0.7071 0.7072 -0.7072 0.7071 189.5872 -89.8768)" fill="#085156" width="8.6" height="0.5"/>
	</g>
	<g>
		
			<rect x="203.6" y="183.6" transform="matrix(0.707 0.7072 -0.7072 0.707 190.9462 -93.1313)" fill="#085156" width="8.6" height="0.5"/>
	</g>
	<g>
		
			<rect x="208.2" y="183.6" transform="matrix(0.7071 0.7072 -0.7072 0.7071 192.283 -96.3842)" fill="#085156" width="8.6" height="0.5"/>
	</g>
	<g>
		
			<rect x="212.8" y="183.6" transform="matrix(0.7071 0.7072 -0.7072 0.7071 193.6308 -99.6379)" fill="#085156" width="8.6" height="0.5"/>
	</g>
	<g>
		
			<rect x="217.4" y="183.6" transform="matrix(0.7071 0.7071 -0.7071 0.7071 194.9675 -102.8911)" fill="#085156" width="8.6" height="0.5"/>
	</g>
	<g>
		
			<rect x="222" y="183.6" transform="matrix(0.7071 0.7072 -0.7072 0.7071 196.3269 -106.1461)" fill="#085156" width="8.6" height="0.5"/>
	</g>
	<g>
		
			<rect x="226.6" y="183.6" transform="matrix(0.7071 0.7072 -0.7072 0.7071 197.6746 -109.3994)" fill="#085156" width="8.6" height="0.5"/>
	</g>
	<g>
		
			<rect x="231.2" y="183.6" transform="matrix(0.7071 0.7071 -0.7071 0.7071 199.0107 -112.6518)" fill="#085156" width="8.6" height="0.5"/>
	</g>
	<g>
		
			<rect x="235.8" y="183.6" transform="matrix(0.7071 0.7071 -0.7071 0.7071 200.3586 -115.9058)" fill="#085156" width="8.6" height="0.5"/>
	</g>
	<g>
		
			<rect x="240.4" y="183.6" transform="matrix(0.707 0.7072 -0.7072 0.707 201.7308 -119.1631)" fill="#085156" width="8.6" height="0.5"/>
	</g>
	<g>
		
			<rect x="245" y="183.6" transform="matrix(0.7071 0.7072 -0.7072 0.7071 203.0665 -122.4149)" fill="#085156" width="8.6" height="0.5"/>
	</g>
	<g>
		
			<rect x="249.6" y="183.6" transform="matrix(0.7071 0.7071 -0.7071 0.7071 204.4021 -125.6668)" fill="#085156" width="8.6" height="0.5"/>
	</g>
	<g>
		
			<rect x="254.2" y="183.6" transform="matrix(0.7071 0.7072 -0.7072 0.7071 205.7624 -128.9227)" fill="#085156" width="8.6" height="0.5"/>
	</g>
	<g>
		
			<rect x="258.8" y="183.6" transform="matrix(0.707 0.7072 -0.7072 0.707 207.123 -132.1788)" fill="#085156" width="8.6" height="0.5"/>
	</g>
	<g>
		
			<rect x="263.4" y="183.6" transform="matrix(0.7071 0.7071 -0.7071 0.7071 208.4454 -135.4279)" fill="#085156" width="8.6" height="0.5"/>
	</g>
	<g>
		
			<rect x="268" y="183.6" transform="matrix(0.7072 0.7071 -0.7071 0.7072 209.7548 -138.6747)" fill="#085156" width="8.6" height="0.5"/>
	</g>
	<g>
		
			<rect x="272.6" y="183.6" transform="matrix(0.7071 0.7072 -0.7072 0.7071 211.154 -141.9377)" fill="#085156" width="8.6" height="0.5"/>
	</g>
	<g>
		
			<rect x="277.2" y="183.6" transform="matrix(0.7071 0.7072 -0.7072 0.7071 212.502 -145.1918)" fill="#085156" width="8.6" height="0.5"/>
	</g>
	<g>
		
			<rect x="281.8" y="183.6" transform="matrix(0.7071 0.7072 -0.7072 0.7071 213.85 -148.4459)" fill="#085156" width="8.6" height="0.5"/>
	</g>
	<g>
		
			<rect x="286.4" y="183.6" transform="matrix(0.7071 0.7071 -0.7071 0.7071 215.1708 -151.6928)" fill="#085156" width="8.6" height="0.5"/>
	</g>
	<g>
		
			<rect x="291" y="183.6" transform="matrix(0.7071 0.7071 -0.7071 0.7071 216.5187 -154.947)" fill="#085156" width="8.6" height="0.5"/>
	</g>
	<g>
		
			<rect x="295.6" y="183.6" transform="matrix(0.707 0.7072 -0.7072 0.707 217.9212 -158.2139)" fill="#085156" width="8.6" height="0.5"/>
	</g>
	<g>
		
			<rect x="300.2" y="183.6" transform="matrix(0.7071 0.7072 -0.7072 0.7071 219.2417 -161.461)" fill="#085156" width="8.6" height="0.5"/>
	</g>
	<g>
		
			<rect x="304.8" y="183.6" transform="matrix(0.7071 0.7072 -0.7072 0.7071 220.5896 -164.7147)" fill="#085156" width="8.6" height="0.5"/>
	</g>
	<g>
		
			<rect x="309.4" y="183.6" transform="matrix(0.7071 0.7072 -0.7072 0.7071 221.9376 -167.9688)" fill="#085156" width="8.6" height="0.5"/>
	</g>
	<g>
		
			<rect x="314" y="183.6" transform="matrix(0.707 0.7072 -0.7072 0.707 223.3139 -171.2301)" fill="#085156" width="8.6" height="0.5"/>
	</g>
	<g>
		
			<rect x="318.6" y="183.6" transform="matrix(0.707 0.7072 -0.7072 0.707 224.6619 -174.4837)" fill="#085156" width="8.6" height="0.5"/>
	</g>
</g>
<g>
	<g>
		
			<rect x="322.6" y="179.6" transform="matrix(0.7062 0.708 -0.708 0.7062 225.0734 -174.5969)" fill="#085156" width="0.5" height="8.6"/>
	</g>
	<g>
		
			<rect x="318" y="179.6" transform="matrix(0.7062 0.708 -0.708 0.7062 223.7214 -171.3389)" fill="#085156" width="0.5" height="8.6"/>
	</g>
	<g>
		
			<rect x="313.4" y="179.6" transform="matrix(0.7062 0.708 -0.708 0.7062 222.3695 -168.0812)" fill="#085156" width="0.5" height="8.6"/>
	</g>
	<g>
		
			<rect x="308.8" y="179.6" transform="matrix(0.7062 0.708 -0.708 0.7062 221.0175 -164.8231)" fill="#085156" width="0.5" height="8.6"/>
	</g>
	<g>
		
			<rect x="304.2" y="179.6" transform="matrix(0.7071 0.7071 -0.7071 0.7071 219.2141 -161.4542)" fill="#085156" width="0.5" height="8.6"/>
	</g>
	<g>
		
			<rect x="299.6" y="179.6" transform="matrix(0.7071 0.7071 -0.7071 0.7071 217.8665 -158.2007)" fill="#085156" width="0.5" height="8.6"/>
	</g>
	<g>
		
			<rect x="295" y="179.6" transform="matrix(0.7071 0.7071 -0.7071 0.7071 216.5187 -154.947)" fill="#085156" width="0.5" height="8.6"/>
	</g>
	<g>
		
			<rect x="290.4" y="179.6" transform="matrix(0.7071 0.7071 -0.7071 0.7071 215.1712 -151.6938)" fill="#085156" width="0.5" height="8.6"/>
	</g>
	<g>
		
			<rect x="285.8" y="179.6" transform="matrix(0.7062 0.708 -0.708 0.7062 214.2579 -148.5342)" fill="#085156" width="0.5" height="8.6"/>
	</g>
	<g>
		
			<rect x="281.2" y="179.6" transform="matrix(0.7062 0.708 -0.708 0.7062 212.9059 -145.2762)" fill="#085156" width="0.5" height="8.6"/>
	</g>
	<g>
		
			<rect x="276.6" y="179.6" transform="matrix(0.7071 0.7071 -0.7071 0.7071 211.1282 -141.9332)" fill="#085156" width="0.5" height="8.6"/>
	</g>
	<g>
		
			<rect x="272" y="179.6" transform="matrix(0.7071 0.7071 -0.7071 0.7071 209.7806 -138.6797)" fill="#085156" width="0.5" height="8.6"/>
	</g>
	<g>
		
			<rect x="267.4" y="179.6" transform="matrix(0.7066 0.7076 -0.7076 0.7066 208.6412 -135.4642)" fill="#085156" width="0.5" height="8.6"/>
	</g>
	<g>
		
			<rect x="262.8" y="179.6" transform="matrix(0.7066 0.7076 -0.7076 0.7066 207.2915 -132.2086)" fill="#085156" width="0.5" height="8.6"/>
	</g>
	<g>
		
			<rect x="258.2" y="179.6" transform="matrix(0.7066 0.7076 -0.7076 0.7066 205.9417 -128.9531)" fill="#085156" width="0.5" height="8.6"/>
	</g>
	<g>
		
			<rect x="253.6" y="179.6" transform="matrix(0.7066 0.7076 -0.7076 0.7066 204.5919 -125.6973)" fill="#085156" width="0.5" height="8.6"/>
	</g>
	<g>
		
			<rect x="249" y="179.6" transform="matrix(0.7066 0.7076 -0.7076 0.7066 203.2421 -122.4416)" fill="#085156" width="0.5" height="8.6"/>
	</g>
	<g>
		
			<rect x="244.4" y="179.6" transform="matrix(0.7066 0.7076 -0.7076 0.7066 201.8923 -119.186)" fill="#085156" width="0.5" height="8.6"/>
	</g>
	<g>
		
			<rect x="239.8" y="179.6" transform="matrix(0.7066 0.7076 -0.7076 0.7066 200.5425 -115.9302)" fill="#085156" width="0.5" height="8.6"/>
	</g>
	<g>
		
			<rect x="235.2" y="179.6" transform="matrix(0.7066 0.7076 -0.7076 0.7066 199.1928 -112.6747)" fill="#085156" width="0.5" height="8.6"/>
	</g>
	<g>
		
			<rect x="230.6" y="179.6" transform="matrix(0.7066 0.7076 -0.7076 0.7066 197.8429 -109.4188)" fill="#085156" width="0.5" height="8.6"/>
	</g>
	<g>
		
			<rect x="226" y="179.6" transform="matrix(0.7066 0.7076 -0.7076 0.7066 196.4931 -106.1631)" fill="#085156" width="0.5" height="8.6"/>
	</g>
	<g>
		
			<rect x="221.4" y="179.6" transform="matrix(0.7066 0.7076 -0.7076 0.7066 195.1434 -102.9076)" fill="#085156" width="0.5" height="8.6"/>
	</g>
	<g>
		
			<rect x="216.8" y="179.6" transform="matrix(0.7066 0.7076 -0.7076 0.7066 193.7936 -99.6519)" fill="#085156" width="0.5" height="8.6"/>
	</g>
	<g>
		
			<rect x="212.2" y="179.6" transform="matrix(0.7066 0.7076 -0.7076 0.7066 192.4437 -96.3959)" fill="#085156" width="0.5" height="8.6"/>
	</g>
	<g>
		
			<rect x="207.6" y="179.6" transform="matrix(0.7066 0.7076 -0.7076 0.7066 191.0939 -93.1404)" fill="#085156" width="0.5" height="8.6"/>
	</g>
	<g>
		
			<rect x="203" y="179.6" transform="matrix(0.7066 0.7076 -0.7076 0.7066 189.7442 -89.8848)" fill="#085156" width="0.5" height="8.6"/>
	</g>
</g>
<g>
	<rect x="222.9" y="180.2" fill="#CF0A2C" width="11.7" height="85.3"/>
	<path fill="#085156" d="M234.6,266.8h-11.7c-0.7,0-1.3-0.6-1.3-1.3v-85.3c0-0.7,0.6-1.3,1.3-1.3h11.7c0.7,0,1.3,0.6,1.3,1.3v85.3
		C235.9,266.2,235.3,266.8,234.6,266.8z M224.2,264.1h9v-82.7h-9V264.1z"/>
</g>
<g>
	<rect x="290.1" y="180.2" fill="#CF0A2C" width="11.7" height="85.3"/>
	<path fill="#085156" d="M301.8,266.8h-11.7c-0.7,0-1.3-0.6-1.3-1.3v-85.3c0-0.7,0.6-1.3,1.3-1.3h11.7c0.7,0,1.3,0.6,1.3,1.3v85.3
		C303.1,266.2,302.6,266.8,301.8,266.8z M291.5,264.1h9v-82.7h-9V264.1z"/>
</g>
<g>
	<polygon fill="#4F7F70" points="234.6,228 234.6,237.7 222.9,237.7 222.9,228 216.3,228 216.3,253.5 222.9,253.5 222.9,243.7 
		234.6,243.7 234.6,253.5 241.1,253.5 241.1,228 	"/>
	<path fill="#085156" d="M241.1,254.8h-6.5c-0.7,0-1.3-0.6-1.3-1.3V245h-9v8.5c0,0.7-0.6,1.3-1.3,1.3h-6.5c-0.7,0-1.3-0.6-1.3-1.3
		V228c0-0.7,0.6-1.3,1.3-1.3h6.5c0.7,0,1.3,0.6,1.3,1.3v8.3h9V228c0-0.7,0.6-1.3,1.3-1.3h6.5c0.7,0,1.3,0.6,1.3,1.3v25.4
		C242.4,254.2,241.8,254.8,241.1,254.8z M235.9,252.2h3.9v-22.8h-3.9v8.3c0,0.7-0.6,1.3-1.3,1.3h-11.7c-0.7,0-1.3-0.6-1.3-1.3v-8.3
		h-3.9v22.8h3.9v-8.5c0-0.7,0.6-1.3,1.3-1.3h11.7c0.7,0,1.3,0.6,1.3,1.3V252.2z"/>
</g>
<g>
	<polygon fill="#4F7F70" points="301.8,228 301.8,237.7 290.1,237.7 290.1,228 283.6,228 283.6,253.5 290.1,253.5 290.1,243.7 
		301.8,243.7 301.8,253.5 308.3,253.5 308.3,228 	"/>
	<path fill="#085156" d="M308.3,254.8h-6.5c-0.7,0-1.3-0.6-1.3-1.3V245h-9v8.5c0,0.7-0.6,1.3-1.3,1.3h-6.5c-0.7,0-1.3-0.6-1.3-1.3
		V228c0-0.7,0.6-1.3,1.3-1.3h6.5c0.7,0,1.3,0.6,1.3,1.3v8.3h9V228c0-0.7,0.6-1.3,1.3-1.3h6.5c0.7,0,1.3,0.6,1.3,1.3v25.4
		C309.7,254.2,309.1,254.8,308.3,254.8z M303.1,252.2h3.9v-22.8h-3.9v8.3c0,0.7-0.6,1.3-1.3,1.3h-11.7c-0.7,0-1.3-0.6-1.3-1.3v-8.3
		h-3.9v22.8h3.9v-8.5c0-0.7,0.6-1.3,1.3-1.3h11.7c0.7,0,1.3,0.6,1.3,1.3V252.2z"/>
</g>
<g>
	<circle fill="#FFFFFF" cx="228.7" cy="195.2" r="1.6"/>
</g>
<g>
	<circle fill="#FFFFFF" cx="228.7" cy="204" r="1.6"/>
</g>
<g>
	<circle fill="#FFFFFF" cx="228.7" cy="212.8" r="1.6"/>
</g>
<g>
	<circle fill="#FFFFFF" cx="228.7" cy="72.8" r="1.6"/>
</g>
<g>
	<circle fill="#FFFFFF" cx="228.7" cy="81.6" r="1.6"/>
</g>
<g>
	<circle fill="#FFFFFF" cx="296" cy="72.8" r="1.6"/>
</g>
<g>
	<circle fill="#FFFFFF" cx="296" cy="81.6" r="1.6"/>
</g>
<g>
	<circle fill="#FFFFFF" cx="296" cy="90.3" r="1.6"/>
</g>
<g>
	<circle fill="#FFFFFF" cx="228.7" cy="221.6" r="1.6"/>
</g>
<g>
	<circle fill="#FFFFFF" cx="228.7" cy="230.4" r="1.6"/>
</g>
<g>
	<circle fill="#FFFFFF" cx="228.7" cy="249.7" r="1.6"/>
</g>
<g>
	<circle fill="#FFFFFF" cx="228.7" cy="258.5" r="1.6"/>
</g>
<g>
	<g>
		<circle fill="#FFFFFF" cx="296" cy="195.2" r="1.6"/>
	</g>
	<g>
		<circle fill="#FFFFFF" cx="296" cy="204" r="1.6"/>
	</g>
	<g>
		<circle fill="#FFFFFF" cx="296" cy="212.8" r="1.6"/>
	</g>
	<g>
		<circle fill="#FFFFFF" cx="296" cy="221.6" r="1.6"/>
	</g>
	<g>
		<circle fill="#FFFFFF" cx="296" cy="230.4" r="1.6"/>
	</g>
	<g>
		<circle fill="#FFFFFF" cx="296" cy="249.7" r="1.6"/>
	</g>
	<g>
		<circle fill="#FFFFFF" cx="296" cy="258.5" r="1.6"/>
	</g>
</g>
<g>
	<polygon fill="#FFFFFF" points="266.2,125.8 288.7,125.8 288.7,125.9 288.8,125.8 277.5,104.9 266.1,125.8 266.2,125.9 	"/>
	<path fill="#085156" d="M288.7,127.2c-0.2,0-0.3,0-0.5-0.1h-21.6c-0.5,0.2-1.1,0.1-1.4-0.3l-0.1-0.1c-0.4-0.4-0.5-1-0.2-1.5
		l11.4-20.9c0.2-0.4,0.7-0.7,1.2-0.7c0.5,0,0.9,0.3,1.2,0.7l11.4,20.9c0.3,0.5,0.2,1.1-0.2,1.5l-0.1,0.1
		C289.5,127.1,289.1,127.2,288.7,127.2z M268.3,124.5h18.3l-9.1-16.8L268.3,124.5z"/>
</g>
<g>
	<polygon fill="#085156" points="281,111.7 277.5,104.9 274,111.7 	"/>
	<path fill="#085156" d="M281,113h-7c-0.5,0-0.9-0.2-1.1-0.6c-0.2-0.4-0.3-0.9,0-1.3l3.5-6.8c0.2-0.4,0.7-0.7,1.2-0.7
		s0.9,0.3,1.2,0.7l3.5,6.8c0.2,0.4,0.2,0.9,0,1.3C281.9,112.8,281.4,113,281,113z M276.1,110.4h2.7l-1.3-2.6L276.1,110.4z"/>
</g>
<g>
	<rect x="266.2" y="125.8" fill="#FFBF3B" width="22.5" height="45.9"/>
	<path fill="#085156" d="M288.7,173.1h-22.5c-0.7,0-1.3-0.6-1.3-1.3v-45.9c0-0.7,0.6-1.3,1.3-1.3h22.5c0.7,0,1.3,0.6,1.3,1.3v45.9
		C290.1,172.5,289.5,173.1,288.7,173.1z M267.5,170.4h19.9v-43.3h-19.9V170.4z"/>
</g>
<g>
	<g>
		<path fill="#FFFFFF" d="M309.8,113.3c-1.5,0-2.7,1.2-2.7,2.7v5.5h-0.7V113c0-1.5-1.2-2.7-2.7-2.7c-1.5,0-2.7,1.2-2.7,2.7v8.5h-0.7
			V113c0-1.5-1.2-2.7-2.7-2.7s-2.6,1.2-2.6,2.7v8.5h-0.8c0,0,0-0.1,0-0.1v-20.8c0-1.5-1.2-2.7-2.7-2.7c-1.5,0-2.6,1.2-2.6,2.7v20.8
			c0,0,0,0.1,0,0.1h0v0.4c-0.2,0.1-0.4,0.1-0.6,0.2v-7.5c0-1.6-1.3-2.8-2.8-2.8H284c-0.7,0-1.3,0.6-1.3,1.3v1.6v15.7
			c0,0.1,0,0.1,0,0.2c0,4,2.7,7.5,6.3,8.6v4.8h23.4v-7.2v-15.3V116C312.5,114.5,311.3,113.3,309.8,113.3z"/>
		<path fill="#085156" d="M312.5,145.3H289c-0.7,0-1.3-0.6-1.3-1.3v-3.9c-3.8-1.6-6.3-5.3-6.3-9.6c0-0.1,0-0.1,0-0.2l0-17.3
			c0-1.4,1.2-2.6,2.6-2.6h1.6c0.8,0,1.5,0.2,2.2,0.6v-10.5c0-2.2,1.8-4,4-4c2.2,0,4,1.8,4,4v9c0.6-0.4,1.3-0.6,2.1-0.6
			c1.2,0,2.3,0.5,3,1.4c0.7-0.9,1.8-1.4,3-1.4c2.1,0,3.8,1.6,4,3.6c0.6-0.4,1.3-0.6,2.1-0.6c2.2,0,4,1.8,4,4v28
			C313.8,144.7,313.2,145.3,312.5,145.3z M290.3,142.7h20.8V116c0-0.7-0.6-1.3-1.3-1.3c-0.7,0-1.3,0.6-1.3,1.3v5.5
			c0,0.7-0.6,1.3-1.3,1.3h-0.7c-0.7,0-1.3-0.6-1.3-1.3V113c0-0.7-0.6-1.3-1.3-1.3c-0.7,0-1.3,0.6-1.3,1.3v8.5c0,0.7-0.6,1.3-1.3,1.3
			h-0.7c-0.7,0-1.3-0.6-1.3-1.3V113c0-0.7-0.6-1.3-1.3-1.3s-1.3,0.6-1.3,1.3v8.5c0,0.7-0.6,1.3-1.3,1.3h-0.8c-0.4,0-0.7-0.1-1-0.4
			s-0.4-0.6-0.4-1c0,0,0-0.1,0-0.1v-20.7c0-0.7-0.6-1.3-1.3-1.3c-0.7,0-1.3,0.6-1.3,1.3v20.7c0,0,0,0.1,0,0.1c0,0.1,0,0.2,0,0.2v0.3
			c0,0.6-0.4,1.1-0.9,1.3c-0.2,0.1-0.4,0.1-0.5,0.2c-0.4,0.2-0.9,0.1-1.2-0.1c-0.4-0.2-0.6-0.7-0.6-1.1v-7.5c0-0.8-0.7-1.5-1.5-1.5
			H284v17.2c0,0.1,0,0.1,0,0.2c0,3.4,2.2,6.4,5.4,7.4c0.5,0.2,0.9,0.7,0.9,1.3V142.7z"/>
	</g>
	<g>
		<rect x="289" y="143.9" fill="#CF0A2C" width="23.4" height="27.8"/>
		<path fill="#085156" d="M312.5,173.1H289c-0.7,0-1.3-0.6-1.3-1.3v-27.8c0-0.7,0.6-1.3,1.3-1.3h23.4c0.7,0,1.3,0.6,1.3,1.3v27.8
			C313.8,172.5,313.2,173.1,312.5,173.1z M290.3,170.4h20.8v-25.1h-20.8V170.4z"/>
	</g>
</g>
<g>
	<path fill="#085156" d="M199.2,283.8h-44.4c-0.7,0-1.3-0.6-1.3-1.3c0-0.7,0.6-1.3,1.3-1.3h44.4c0.7,0,1.3,0.6,1.3,1.3
		C200.5,283.2,199.9,283.8,199.2,283.8z"/>
</g>
<g>
	<path fill="#085156" d="M372.8,281.3h-46.1c-0.7,0-1.3-0.6-1.3-1.3s0.6-1.3,1.3-1.3h46.1c0.7,0,1.3,0.6,1.3,1.3
		S373.5,281.3,372.8,281.3z"/>
</g>
<g>
	<path fill="#085156" d="M395.1,302.6h-46c-0.7,0-1.3-0.6-1.3-1.3c0-0.7,0.6-1.3,1.3-1.3h46c0.7,0,1.3,0.6,1.3,1.3
		C396.4,302,395.8,302.6,395.1,302.6z"/>
</g>
<g>
	<path fill="#085156" d="M177.9,305.8h-46c-0.7,0-1.3-0.6-1.3-1.3c0-0.7,0.6-1.3,1.3-1.3h46c0.7,0,1.3,0.6,1.3,1.3
		C179.3,305.2,178.7,305.8,177.9,305.8z"/>
</g>
<g>
	<path fill="#085156" d="M335.2,322.2h-46.1c-0.7,0-1.3-0.6-1.3-1.3c0-0.7,0.6-1.3,1.3-1.3h46.1c0.7,0,1.3,0.6,1.3,1.3
		C336.5,321.6,335.9,322.2,335.2,322.2z"/>
</g>
<g>
	<rect x="211.2" y="104.9" fill="#4F7F70" width="54.9" height="66.9"/>
	<path fill="#085156" d="M266,173.1h-54.9c-0.7,0-1.3-0.6-1.3-1.3v-66.9c0-0.7,0.6-1.3,1.3-1.3H266c0.7,0,1.3,0.6,1.3,1.3v66.9
		C267.3,172.5,266.7,173.1,266,173.1z M212.5,170.5h52.2v-64.2h-52.2V170.5z"/>
</g>
<g>
	<circle fill="#6EDBD5" cx="238.8" cy="128.5" r="8.5"/>
	<path fill="#085156" d="M238.8,138.3c-5.4,0-9.8-4.4-9.8-9.8c0-5.4,4.4-9.8,9.8-9.8s9.8,4.4,9.8,9.8
		C248.6,133.9,244.2,138.3,238.8,138.3z M238.8,121.4c-3.9,0-7.1,3.2-7.1,7.1s3.2,7.1,7.1,7.1c3.9,0,7.1-3.2,7.1-7.1
		S242.7,121.4,238.8,121.4z"/>
</g>
<g>
	<path fill="#6EDBD5" d="M220.2,170.3c0-10.3,8.3-18.6,18.6-18.6c10.3,0,18.6,8.3,18.6,18.6"/>
	<path fill="#085156" d="M257.4,171.6c-0.7,0-1.3-0.6-1.3-1.3c0-9.5-7.8-17.3-17.3-17.3c-9.5,0-17.3,7.8-17.3,17.3
		c0,0.7-0.6,1.3-1.3,1.3s-1.3-0.6-1.3-1.3c0-11,8.9-19.9,19.9-19.9c11,0,19.9,8.9,19.9,19.9C258.7,171,258.1,171.6,257.4,171.6z"/>
</g>
<g>
	<circle fill="#6EDBD5" cx="238.8" cy="128.5" r="2.7"/>
	<path fill="#085156" d="M238.8,132.5c-2.2,0-4-1.8-4-4s1.8-4,4-4c2.2,0,4,1.8,4,4S241,132.5,238.8,132.5z M238.8,127.2
		c-0.7,0-1.4,0.6-1.4,1.4s0.6,1.4,1.4,1.4c0.7,0,1.4-0.6,1.4-1.4S239.6,127.2,238.8,127.2z"/>
</g>
</svg>
