<?xml version="1.0" encoding="utf-8"?>
<!-- Generator: Adobe Illustrator 17.1.0, SVG Export Plug-In . SVG Version: 6.00 Build 0)  -->
<!DOCTYPE svg PUBLIC "-//W3C//DTD SVG 1.1//EN" "http://www.w3.org/Graphics/SVG/1.1/DTD/svg11.dtd">
<svg version="1.1" id="Layer_1" xmlns="http://www.w3.org/2000/svg" xmlns:xlink="http://www.w3.org/1999/xlink" x="0px" y="0px"
	 viewBox="0 0 1080 720" enable-background="new 0 0 1080 720" xml:space="preserve">
<rect fill="#59DBD5" width="1080" height="720"/>
<g>
	<path fill="#004E59" d="M830.1,383.6c-0.7-0.7-1.9-0.7-2.6,0l-6.6,6.6l-6.6-6.6c-0.7-0.7-1.9-0.7-2.6,0l-6.6,6.6l-6.6-6.6
		c-0.7-0.7-1.9-0.7-2.6,0l-6.6,6.6l-6.6-6.6c-0.7-0.7-1.9-0.7-2.6,0l-6.6,6.6l-6.6-6.6c-0.7-0.7-1.9-0.7-2.6,0l-6.6,6.6l-6.6-6.6
		c-0.7-0.7-1.9-0.7-2.6,0l-6.6,6.6l-6.6-6.6c-0.4-0.4-0.9-0.5-1.4-0.5l-2-3.2c12.9-1.2,23-12,23-25.2c0-0.3,0-0.5,0-0.7v-0.3
		c-0.1-3.7-1.1-7.3-2.8-10.6c0,0,0,0,0-0.1L740,322.2c-0.3-0.6-1-0.9-1.6-0.9c-0.7,0-1.3,0.4-1.6,0.9l-2.4,4.2l-7-12.1
		c-0.3-0.6-1-0.9-1.6-0.9s-1.3,0.4-1.6,0.9L709,340.6c-0.3,0.4-0.4,0.6-0.5,0.8l-57.2-93.1l9.3-16.2c0.5-0.9,0.2-2-0.7-2.5
		s-2-0.2-2.5,0.7l-8.3,14.5l-8.9-14.5c-0.5-0.9-1.6-1.1-2.5-0.6s-1.1,1.6-0.6,2.5l9.9,16.2l-14,24.3v-47.4c0-1-0.8-1.8-1.8-1.8
		h-22.9c-13.7,0-24.8,11.1-24.8,24.8v5.9l-24.9-41.5l12.2-20.5c0.5-0.9,0.2-2-0.6-2.5c-0.9-0.5-2-0.2-2.5,0.6L556,209l-11.3-18.9
		c-0.5-0.9-1.6-1.1-2.5-0.6s-1.1,1.6-0.6,2.5l12.3,20.5l-55.2,92.7L466,248.3l9.9-16.2c0.5-0.9,0.3-2-0.6-2.5s-2-0.3-2.5,0.6
		l-8.9,14.5l-8.3-14.5c-0.5-0.9-1.6-1.2-2.5-0.7s-1.2,1.6-0.7,2.5l9.3,16.2l-5.3,8.7c-0.1-0.2-0.3-0.4-0.5-0.6
		c-2.4-1.8-5.3-2.8-8.4-2.8c-1.3-9-9.1-15.8-18.3-15.8c-5.3,0-10.2,2.2-13.7,6.1c-2-0.9-4.1-1.3-6.3-1.3c-7,0-13,4.6-15,11.1
		c-0.6-0.1-1.2-0.1-1.7-0.1c-7.9,0-14.2,6.4-14.2,14.2c0,7.9,6.4,14.2,14.2,14.2h48.6l-26.2,42.7v-25.2c0-1-0.8-1.8-1.8-1.8h-62.8
		c-1,0-1.8,0.8-1.8,1.8v87.8l-2.9,2.9l-6.6-6.6c-0.7-0.7-1.9-0.7-2.6,0l-6.6,6.6l-6.6-6.6c-0.7-0.7-1.9-0.7-2.6,0l-6.6,6.6l-6.6-6.6
		c-0.7-0.7-1.9-0.7-2.6,0l-6.6,6.6l-6.6-6.6c-0.7-0.7-1.9-0.7-2.6,0l-6.6,6.6l-6.6-6.6c-0.7-0.7-1.9-0.7-2.6,0c-1,1.3,0,2.4,0,2.4
		l1.3,1.4l6.6,6.6c0.7,0.7,1.9,0.7,2.6,0l6.6-6.6l6.6,6.6c0.7,0.7,1.9,0.7,2.6,0l6.6-6.6l6.6,6.6c0.7,0.7,1.9,0.7,2.6,0l6.6-6.6
		l6.6,6.6c0.7,0.7,1.9,0.7,2.6,0l6.6-6.6l6.6,6.6c0.7,0.7,1.9,0.7,2.6,0l6.6-6.6l6.6,6.6c0.7,0.7,1.9,0.7,2.6,0l6.6-6.6l6.6,6.6
		c0.7,0.7,1.9,0.7,2.6,0l6.6-6.6l6.6,6.6c0.7,0.7,1.9,0.7,2.6,0l6.6-6.6l6.6,6.6c0.7,0.7,1.9,0.7,2.6,0l6.6-6.6l6.6,6.6
		c0.7,0.7,1.9,0.7,2.6,0l6.6-6.6l6.6,6.6c0.7,0.7,1.9,0.7,2.6,0l6.6-6.6l6.6,6.6c0.7,0.7,1.9,0.7,2.6,0l6.6-6.6l6.6,6.6
		c0.7,0.7,1.9,0.7,2.6,0l6.6-6.6l6.6,6.6c0.7,0.7,1.9,0.7,2.6,0l6.6-6.6l6.6,6.6c0.7,0.7,1.9,0.7,2.6,0l6.6-6.6l6.6,6.6
		c0.7,0.7,1.9,0.7,2.6,0l6.6-6.6l6.6,6.6c0.7,0.7,1.9,0.7,2.6,0l6.6-6.6l6.6,6.6c0.7,0.7,1.9,0.7,2.6,0l6.6-6.6l6.6,6.6
		c0.7,0.7,1.9,0.7,2.6,0l6.6-6.6l6.6,6.6c0.7,0.7,1.9,0.7,2.6,0l6.6-6.6l6.6,6.6c0.7,0.7,1.9,0.7,2.6,0l6.6-6.6l6.6,6.6
		c0.7,0.7,1.9,0.7,2.6,0l6.6-6.6l6.6,6.6c0.7,0.7,1.9,0.7,2.6,0l6.6-6.6l6.6,6.6c0.7,0.7,1.9,0.7,2.6,0l6.6-6.6l6.6,6.6
		c0.7,0.7,1.9,0.7,2.6,0l6.5-6.5c0.1,0,0.1,0,0.2-0.1l6.6,6.6c0.7,0.7,1.9,0.7,2.6,0l6.6-6.6l6.6,6.6c0.7,0.7,1.9,0.7,2.6,0l6.6-6.6
		l6.6,6.6c0.7,0.7,1.9,0.7,2.6,0l6.6-6.6l6.6,6.6c0.4,0.4,0.8,0.5,1.3,0.5s0.9-0.2,1.3-0.5l6.5-6.5c0.1,0,0.2,0,0.2-0.1l6.6,6.5
		c0.7,0.7,1.9,0.7,2.6,0l6.6-6.6l6.6,6.6c0.7,0.7,1.9,0.7,2.6,0l6.6-6.6l6.6,6.6c0.7,0.7,1.9,0.7,2.6,0l6.6-6.6l6.6,6.6
		c0.7,0.7,1.9,0.7,2.6,0l6.6-6.6l6.6,6.6c0.7,0.7,1.9,0.7,2.6,0l6.6-6.6l6.6,6.6c0.7,0.7,1.9,0.7,2.6,0l7.9-7.9
		C830.8,385.5,830.8,384.3,830.1,383.6z M710.9,343.9c0.5-0.9,0.3-0.6,0.7-1.3c0,0,0-0.1,0.1-0.1l13.6-23.5l7,12.1
		c0.3,0.6,1,0.9,1.6,0.9c0.7,0,1.3-0.4,1.6-0.9l2.4-4.2l10.4,17.9c1.5,2.8,2.2,5.8,2.4,9v0.4c0,0.2,0,0.3,0,0.5
		c0,7.5-3.9,14.1-9.7,18c-3.4,2.2-7.4,3.5-11.8,3.5L710,344.7C710.4,344.5,710.7,344.3,710.9,343.9z M586.7,259.6v-11.5
		c0-11.7,9.5-21.1,21.1-21.1h21.1v51.9l-15.2,26.4l-11.3-18.8c2.3-2,3.8-5,3.8-8.3v-14.6c0-0.6-0.5-1.1-1.1-1.1s-1.1,0.5-1.1,1.1
		v14.6c0,2.5-1.1,4.8-2.8,6.5L586.6,260C586.6,259.9,586.7,259.8,586.7,259.6z M603.2,309.9l-5.9-5.9c-0.4-0.4-1.1-0.4-1.5,0
		l-5.9,5.9L584,304c-0.4-0.4-1.1-0.4-1.5,0l-5.9,5.9l-5.9-5.9c-0.2-0.2-0.5-0.3-0.8-0.3s-0.6,0.1-0.8,0.3l-5.9,5.9l-5.9-5.9
		c-0.4-0.4-1.1-0.4-1.5,0l-5.9,5.9L544,304c-0.4-0.4-1.1-0.4-1.5,0l-5.9,5.9l-5.9-5.9c-0.4-0.4-1.1-0.4-1.5,0l-5.9,5.9l-5.9-5.9
		c-0.4-0.4-1.1-0.4-1.5,0l-5.9,5.9l-5.8-5.8l20.8-34.9h63.1c0.1,0,0.2,0,0.3-0.1l21,35L603.2,309.9z M528.7,262h54.8l3,5.1h-60.8
		L528.7,262z M582.2,259.8H530l26-43.7L582.2,259.8z M441.4,278.4h-48.9c-5.9,0-10.6-4.8-10.6-10.6c0-5.9,4.8-10.6,10.6-10.6
		c0.9,0,1.7,0.1,2.7,0.3c0.5,0.1,1,0,1.4-0.2c0.4-0.3,0.7-0.7,0.8-1.2c1-5.7,6-9.9,11.8-9.9c2.1,0,4.1,0.5,5.9,1.5
		c0.8,0.4,1.8,0.2,2.3-0.5c2.9-3.7,7.2-5.8,11.8-5.8c7.9,0,14.5,6.2,14.9,14.1c0,0.5,0.3,1,0.6,1.3c0.4,0.3,0.9,0.5,1.4,0.4
		s0.9-0.1,1.3-0.1c2.3,0,4.5,0.7,6.4,2.1c0.3,0.2,0.7,0.3,1,0.3l-12,19.5C442.5,278.7,442,278.4,441.4,278.4z M368,383.6l-6.6,6.6
		l-6.6-6.6c-0.7-0.7-1.9-0.7-2.6,0l-0.1,0.1v-82.4h59.2v29.3l-10,16.3c-3.5-7.4-11.2-12.4-19.5-12.4c-11.9,0-21.6,9.7-21.6,21.6
		s9.7,21.6,21.6,21.6c0.2,0,0.4,0,0.6,0l-6.7,10.9l-5.1-5.1C369.8,382.9,368.7,382.9,368,383.6z M387,370.1L387,370.1
		c-0.9,0-1.6,0.7-1.6,1.5c0,0.3,0.1,0.5,0.2,0.7l-1.2,1.9c-0.7,0.1-1.2,0.6-1.4,1.2c-0.5,0-0.9,0.1-1.4,0.1c-0.3,0-0.6,0-0.9,0
		c-0.1-0.7-0.7-1.3-1.5-1.3c-0.6,0-1.2,0.4-1.4,0.9c-2.1-0.4-4.1-1.2-5.9-2.3c0.5-0.3,0.8-0.8,0.8-1.3c0-0.9-0.7-1.5-1.5-1.5
		s-1.4,0.6-1.5,1.3c-3.1-2.5-5.5-5.9-6.6-9.8c0.2,0.1,0.3,0.1,0.5,0.1c0.9,0,1.5-0.7,1.5-1.5c0-0.9-0.7-1.5-1.5-1.5
		c-0.4,0-0.8,0.2-1.1,0.4c-0.1-1-0.2-1.9-0.2-3c0-0.9,0.1-1.8,0.2-2.7c0.3,0.3,0.7,0.5,1.1,0.5c0.9,0,1.5-0.7,1.5-1.5
		c0-0.9-0.7-1.5-1.5-1.5c-0.2,0-0.4,0-0.6,0.1c1.1-4.1,3.5-7.6,6.8-10.1c0.2,0.6,0.8,1.1,1.5,1.1c0.9,0,1.5-0.7,1.5-1.5
		c0-0.5-0.2-0.9-0.6-1.2c1.7-1,3.6-1.7,5.7-2.1c0.1,0.7,0.7,1.2,1.5,1.2c0.9,0,1.5-0.7,1.5-1.5l0,0c0.3,0,0.6,0,0.8,0
		c0.4,0,0.9,0,1.3,0.1l0,0c0,0.9,0.7,1.5,1.5,1.5c0.7,0,1.3-0.5,1.5-1.1c1.8,0.4,3.6,1.1,5.2,2c-0.3,0.3-0.6,0.7-0.6,1.2
		c0,0.9,0.7,1.5,1.6,1.5c0.7,0,1.3-0.5,1.5-1.1c2.7,2.1,4.9,5,6.2,8.3l-3.6,5.9c-0.1,0.1-0.2,0.2-0.2,0.4l-4.2,6.9
		c-0.6,0.2-1.1,0.8-1.1,1.5c0,0.1,0,0.2,0.1,0.3l-1.6,2.5c-0.5,0.2-0.9,0.8-0.9,1.4l0,0L387,370.1z M433.9,383.6
		c-0.7-0.7-1.9-0.7-2.6,0l-6.6,6.6l-6.6-6.6c-0.7-0.7-1.9-0.7-2.6,0l-6.6,6.6l-6.6-6.6c-0.7-0.7-1.9-0.7-2.6,0l-6.6,6.6l-6.6-6.6
		c-0.7-0.7-1.9-0.7-2.6,0l-2.2,2.2l82.3-134l32.8,57l-18.5,31.1L466,276.2c-0.2-0.9-0.9-1.5-1.8-1.5l0,0c-0.9,0-1.6,0.6-1.8,1.5
		l-22,113.8L433.9,383.6z M447.2,383.6l-2.5,2.5l19.3-100l11.3,58.5l-24.1,40.5l-1.5-1.5C449.1,382.9,447.9,382.9,447.2,383.6z
		 M653.2,383.6l-6.6,6.6l-6.6-6.6c-0.7-0.7-1.9-0.7-2.6,0l-6.6,6.6l-6.6-6.6c-0.7-0.7-1.9-0.7-2.6,0l-6.6,6.6l-6.6-6.6
		c-0.7-0.7-1.9-0.7-2.6,0l-6.6,6.6l-6.6-6.6c-0.7-0.7-1.9-0.7-2.6,0l-6.6,6.6l-6.6-6.6c-0.7-0.7-1.9-0.7-2.6,0l-6.6,6.6l-6.6-6.6
		c-0.7-0.7-1.9-0.7-2.6,0l-6.6,6.6l-6.6-6.6c-0.7-0.7-1.9-0.7-2.6,0l-6.6,6.6l-6.6-6.6c-0.7-0.7-1.9-0.7-2.6,0l-6.6,6.6l-6.6-6.6
		c-0.7-0.7-1.9-0.7-2.6,0l-6.6,6.6l-6.6-6.6c-0.7-0.7-1.9-0.7-2.6,0l-6.6,6.6l-6.6-6.6c-0.7-0.7-1.9-0.7-2.6,0l-6.6,6.6l-6.6-6.6
		c-0.7-0.7-1.9-0.7-2.6,0l-6.6,6.6l-2.5-2.5l48.6-81.7l6.2,6.2c0.4,0.4,1.1,0.4,1.5,0l5.9-5.9l5.9,5.9c0.1,0.1,0.2,0.2,0.4,0.2
		c0.4,0.2,0.9,0.1,1.2-0.2l5.9-5.9l5.9,5.9c0.1,0.1,0.2,0.2,0.4,0.2c0.4,0.2,0.9,0.1,1.2-0.2l5.9-5.9l5.9,5.9c0.4,0.4,1.1,0.4,1.5,0
		l5.9-5.9l5.9,5.9c0.2,0.2,0.5,0.3,0.8,0.3s0.6-0.1,0.8-0.3l5.9-5.9l5.9,5.9c0.3,0.3,0.8,0.4,1.2,0.2c0.1-0.1,0.3-0.1,0.4-0.2
		l5.9-5.9l5.9,5.9c0.4,0.4,1.1,0.4,1.5,0l5.9-5.9l5.9,5.9c0.2,0.2,0.5,0.3,0.8,0.3s0.6-0.1,0.8-0.3l6.1-6.1l47.6,79.4l-1.9-1.9
		C655.1,382.9,653.9,382.9,653.2,383.6z M663.9,388.8l-26.8-44.7c0.2-0.2,0.4-0.5,0.5-0.9l11-57.2l19.1,98.8L663.9,388.8z
		 M725.8,390.3l-6.6-6.6c-0.7-0.7-1.9-0.7-2.6,0l-6.6,6.6l-6.6-6.6c-0.7-0.7-1.9-0.7-2.6,0l-6.6,6.6l-6.6-6.6
		c-0.7-0.7-1.9-0.7-2.6,0l-6.6,6.6l-6.6-6.6c-0.2-0.2-0.4-0.3-0.6-0.4l-20.7-107.1c-0.2-0.9-0.9-1.5-1.8-1.5l0,0
		c-0.9,0-1.6,0.6-1.8,1.5l-12.3,63.6l-18.6-31l32.8-57l82,133.5L725.8,390.3z"/>
	<path fill="#004E59" d="M525.2,283.9c-2.1,0-3.7,1.7-3.7,3.7c0,2.1,1.7,3.7,3.7,3.7c2.1,0,3.7-1.7,3.7-3.7
		C528.9,285.5,527.2,283.9,525.2,283.9z"/>
	<path fill="#004E59" d="M540.9,283.9c-2.1,0-3.7,1.7-3.7,3.7c0,2.1,1.7,3.7,3.7,3.7c2.1,0,3.7-1.7,3.7-3.7
		C544.6,285.5,542.9,283.9,540.9,283.9z"/>
	<path fill="#004E59" d="M556.6,283.9c-2.1,0-3.7,1.7-3.7,3.7c0,2.1,1.7,3.7,3.7,3.7c2.1,0,3.7-1.7,3.7-3.7
		C560.3,285.5,558.6,283.9,556.6,283.9z"/>
	<path fill="#004E59" d="M572.3,283.9c-2.1,0-3.7,1.7-3.7,3.7c0,2.1,1.7,3.7,3.7,3.7c2.1,0,3.7-1.7,3.7-3.7
		C576,285.5,574.3,283.9,572.3,283.9z"/>
	<path fill="#004E59" d="M588,283.9c-2.1,0-3.7,1.7-3.7,3.7c0,2.1,1.7,3.7,3.7,3.7c2.1,0,3.7-1.7,3.7-3.7
		C591.7,285.5,590,283.9,588,283.9z"/>
	<path fill="#004E59" d="M381.6,328.1c5.6,0,10.2-4.6,10.2-10.2s-4.6-10.2-10.2-10.2s-10.2,4.6-10.2,10.2S376,328.1,381.6,328.1z
		 M381.6,309.9c4.4,0,8,3.6,8,8s-3.6,8-8,8s-8-3.6-8-8S377.2,309.9,381.6,309.9z"/>
	<path fill="#004E59" d="M381.6,321.9c2.2,0,4-1.8,4-4s-1.8-4-4-4s-4,1.8-4,4C377.7,320.1,379.4,321.9,381.6,321.9z M381.6,316.1
		c1,0,1.8,0.8,1.8,1.8s-0.8,1.8-1.8,1.8s-1.8-0.8-1.8-1.8C379.9,316.9,380.6,316.1,381.6,316.1z"/>
	<circle fill="#004E59" cx="376.5" cy="340.4" r="1.5"/>
	<circle fill="#004E59" cx="381.7" cy="340.4" r="1.5"/>
	<circle fill="#004E59" cx="386.9" cy="340.4" r="1.5"/>
	<path fill="#004E59" d="M368.8,346.2c0.9,0,1.5-0.7,1.5-1.5c0-0.9-0.7-1.5-1.5-1.5c-0.9,0-1.5,0.7-1.5,1.5S368,346.2,368.8,346.2z"
		/>
	<path fill="#004E59" d="M374.1,346.2c0.9,0,1.5-0.7,1.5-1.5c0-0.9-0.7-1.5-1.5-1.5c-0.9,0-1.5,0.7-1.5,1.5
		C372.5,345.5,373.2,346.2,374.1,346.2z"/>
	<circle fill="#004E59" cx="379.3" cy="344.6" r="1.5"/>
	<circle fill="#004E59" cx="384.6" cy="344.6" r="1.5"/>
	<circle fill="#004E59" cx="389.8" cy="344.6" r="1.5"/>
	<circle fill="#004E59" cx="395" cy="344.6" r="1.5"/>
	<circle fill="#004E59" cx="366" cy="348.2" r="1.5"/>
	<circle fill="#004E59" cx="371.2" cy="348.2" r="1.5"/>
	<circle fill="#004E59" cx="376.5" cy="348.2" r="1.5"/>
	<circle fill="#004E59" cx="381.7" cy="348.2" r="1.5"/>
	<circle fill="#004E59" cx="386.9" cy="348.2" r="1.5"/>
	<path fill="#004E59" d="M390.6,348.2c0,0.9,0.7,1.5,1.6,1.5s1.5-0.7,1.5-1.5c0-0.9-0.7-1.5-1.5-1.5
		C391.3,346.7,390.6,347.4,390.6,348.2z"/>
	<circle fill="#004E59" cx="397.4" cy="348.2" r="1.5"/>
	<path fill="#004E59" d="M370.4,352.4c0-0.9-0.7-1.5-1.5-1.5c-0.9,0-1.5,0.7-1.5,1.5c0,0.9,0.7,1.5,1.5,1.5
		C369.7,354,370.4,353.3,370.4,352.4z"/>
	<path fill="#004E59" d="M372.5,352.4c0,0.9,0.7,1.5,1.5,1.5c0.9,0,1.5-0.7,1.5-1.5c0-0.9-0.7-1.5-1.5-1.5S372.5,351.6,372.5,352.4z
		"/>
	<circle fill="#004E59" cx="379.3" cy="352.4" r="1.5"/>
	<circle fill="#004E59" cx="384.6" cy="352.4" r="1.5"/>
	<circle fill="#004E59" cx="389.8" cy="352.4" r="1.5"/>
	<circle fill="#004E59" cx="395" cy="352.4" r="1.5"/>
	<circle fill="#004E59" cx="366" cy="356" r="1.5"/>
	<circle fill="#004E59" cx="371.2" cy="356" r="1.5"/>
	<circle fill="#004E59" cx="376.5" cy="356" r="1.5"/>
	<circle fill="#004E59" cx="381.7" cy="356" r="1.5"/>
	<circle fill="#004E59" cx="386.9" cy="356" r="1.5"/>
	<path fill="#004E59" d="M392.2,354.5c-0.9,0-1.6,0.7-1.6,1.5c0,0.9,0.7,1.5,1.6,1.5s1.5-0.7,1.5-1.5S393,354.5,392.2,354.5z"/>
	<path fill="#004E59" d="M368.8,361.8c0.9,0,1.5-0.7,1.5-1.5c0-0.9-0.7-1.5-1.5-1.5c-0.9,0-1.5,0.7-1.5,1.5
		C367.3,361.1,368,361.8,368.8,361.8z"/>
	<path fill="#004E59" d="M374.1,361.8c0.9,0,1.5-0.7,1.5-1.5c0-0.9-0.7-1.5-1.5-1.5c-0.9,0-1.5,0.7-1.5,1.5
		C372.5,361.1,373.2,361.8,374.1,361.8z"/>
	<circle fill="#004E59" cx="379.3" cy="360.2" r="1.5"/>
	<circle fill="#004E59" cx="384.6" cy="360.2" r="1.5"/>
	<circle fill="#004E59" cx="389.8" cy="360.2" r="1.5"/>
	<circle fill="#004E59" cx="366" cy="363.8" r="1.5"/>
	<circle fill="#004E59" cx="371.2" cy="363.8" r="1.5"/>
	<circle fill="#004E59" cx="376.5" cy="363.8" r="1.5"/>
	<circle fill="#004E59" cx="381.7" cy="363.8" r="1.5"/>
	<circle fill="#004E59" cx="386.9" cy="363.8" r="1.5"/>
	<path fill="#004E59" d="M368.8,366.5c-0.9,0-1.5,0.7-1.5,1.5c0,0.9,0.7,1.5,1.5,1.5c0.9,0,1.5-0.7,1.5-1.5
		C370.4,367.2,369.7,366.5,368.8,366.5z"/>
	<path fill="#004E59" d="M375.6,368c0-0.9-0.7-1.5-1.5-1.5c-0.9,0-1.5,0.7-1.5,1.5c0,0.9,0.7,1.5,1.5,1.5
		C374.9,369.6,375.6,368.9,375.6,368z"/>
	<circle fill="#004E59" cx="379.3" cy="368" r="1.5"/>
	<circle fill="#004E59" cx="384.6" cy="368" r="1.5"/>
	<path fill="#004E59" d="M376.5,370.1c-0.9,0-1.5,0.7-1.5,1.5c0,0.9,0.7,1.5,1.5,1.5c0.9,0,1.5-0.7,1.5-1.5
		C378,370.8,377.3,370.1,376.5,370.1z"/>
	<path fill="#004E59" d="M381.7,370.1c-0.9,0-1.5,0.7-1.5,1.5c0,0.9,0.7,1.5,1.5,1.5c0.9,0,1.5-0.7,1.5-1.5
		C383.3,370.8,382.6,370.1,381.7,370.1z"/>
	<path fill="#004E59" d="M614.2,244.6c2.7,0,5.1-1.8,5.9-4.4c0.2-0.6-0.2-1.2-0.7-1.4c-0.6-0.2-1.2,0.2-1.3,0.7
		c-0.5,1.7-2,2.9-3.8,2.9s-3.3-1.1-3.8-2.9c-0.2-0.6-0.8-0.9-1.4-0.7c-0.6,0.2-0.9,0.8-0.7,1.4C609.1,242.8,611.5,244.6,614.2,244.6
		z"/>
	<path fill="#004E59" d="M731,363.3c4.7,0,8.4-3.8,8.4-8.4c0-0.3,0-0.6-0.1-1c-0.1-1-0.4-2-0.9-2.9l-6.5-11.2
		c-0.2-0.3-0.6-0.6-1-0.6s-0.8,0.2-1,0.6l-6.5,11.2c-0.5,0.9-0.8,1.9-0.9,2.9c0,0.4-0.1,0.7-0.1,1
		C722.6,359.5,726.3,363.3,731,363.3z M724.9,354.1c0.1-0.7,0.3-1.4,0.6-2.1l5.5-9.5l5.5,9.4c0.3,0.7,0.6,1.4,0.6,2.1
		c0,0.3,0,0.5,0,0.7c0,3.4-2.8,6.2-6.2,6.2s-6.2-2.8-6.2-6.2C724.8,354.7,724.8,354.4,724.9,354.1z"/>
</g>
<g>
	<path fill="#FFFFFF" d="M270.9,445c0,0-0.1-1.4,0.9-2.4l5.1-5.1c1.1-1,2.4-1,2.4-1H303c0,0,1.4,0,2.4,1l5.1,5.1
		c1.1,1.1,1,2.4,1,2.4h-0.1c0,0,0.1,0.1,0.1,0.2v9.6c0,0.6-0.6,1.3-1.3,1.3h-10.9c-0.7,0-1.3-0.6-1.3-1.3v-2.4c0,0,0-0.4-0.3-0.6
		l-1.6-1.6c-0.2-0.2-0.5-0.3-0.6-0.3h-8.9c-0.2,0-0.4,0.1-0.6,0.3l-1.5,1.6c-0.4,0.3-0.4,0.6-0.4,0.6V485c0.1,0.2,0.1,0.5,0.4,0.6
		l1.3,1.3h10.6l1.3-1.3c0.2-0.2,0.3-0.5,0.3-0.6v-2.7c0-0.6,0.5-1.3,1.3-1.3h10.9c0.6,0,1.3,0.6,1.3,1.3v10.3
		c-0.1,0.5-0.1,0.7-1,1.6l-5.1,5.1c-1,1-2.4,1-2.4,1h-23.7c0,0-1.4,0-2.4-1l-5.1-5.1c-0.9-0.9-0.9-2.4-0.9-2.4L270.9,445L270.9,445z
		"/>
	<path fill="#FFFFFF" d="M369.1,499.2c0.2,0.6-0.6,1.3-1.4,1.3h-10.4c-0.7,0-1.4-0.6-1.6-1.3l-2.2-7.4h-18.4l-2.2,7.4
		c-0.3,0.6-0.9,1.3-1.6,1.3h-10.4c-0.7,0-1.6-0.6-1.4-1.3l18.1-61.2v-0.1c0.4-0.8,0.6-1.3,1.3-1.3h4h2.8h4c0.6,0,1,0.5,1.3,1.3v0.1
		C357,458.3,363,478.8,369.1,499.2z M349.8,479.4l-5.5-18.7l-5.6,18.7H349.8z"/>
	<path fill="#FFFFFF" d="M428.2,499.2c0,0.7-0.5,1.3-1.3,1.3h-10.8c-0.7,0-1.4-0.5-1.4-1.3l-0.4-23.1l-7,23.3
		c-0.3,0.6-0.9,1.3-1.6,1.3h-7.3c-0.7,0-1.4-0.6-1.7-1.3l-6.9-23.3l-0.5,23.1c0,0.7-0.5,1.3-1.3,1.3h-10.9c-0.6,0-1.3-0.5-1.3-1.3
		l2.5-61v-0.3c0.1-0.4,0.3-0.6,0.5-0.8c0.1,0,0.1,0,0.2-0.1c0.1,0,0.2,0,0.3-0.1h11.6c0.7,0,1.1,0.5,1.4,1.2l8.2,35.3l1,7.7l0.7-7.7
		l9.6-35.3c0.2-0.8,0.6-1.2,1.4-1.2h11.6c0.1,0.1,0.2,0.1,0.3,0.1c0,0.1,0.1,0.1,0.1,0.1c0.3,0.2,0.5,0.5,0.5,0.8v0.2
		c0,0,0.1,0,0.1,0.1L428.2,499.2z"/>
	<path fill="#FFFFFF" d="M476.3,468.3L476.3,468.3L476.3,468.3c0,0.1,0.1,1.4-1,2.5l-5.1,5.2c-1.1,1.1-2.4,0.9-2.4,0.9h-16.9v22.2
		c0,0.6-0.6,1.3-1.4,1.3h-10.8c-0.7,0-1.3-0.6-1.3-1.3v-61.3c0-0.7,0.5-1.3,1.3-1.3h29.1c0,0,1.3-0.2,2.4,0.9l5.1,5.2
		c1.1,1.1,1,2.4,1,2.4L476.3,468.3L476.3,468.3z M450.9,463.4h9.4c0,0,0.4,0.1,0.7-0.3l1.6-1.5c0.3-0.4,0.3-0.7,0.3-0.7v-8.6
		c0,0,0-0.4-0.3-0.6l-1.6-1.6c-0.4-0.3-0.7-0.3-0.7-0.3h-9.4V463.4z"/>
	<path fill="#FFFFFF" d="M558.1,437.8v61.3c0,0.6-0.5,1.3-1.3,1.3h-14.4c-0.7,0-1.4-0.6-1.6-1.3l-11.1-30.5v30.5
		c0,0.6-0.6,1.3-1.3,1.3h-10.9c-0.7,0-1.3-0.6-1.3-1.3v-61.3c0-0.7,0.5-1.3,1.3-1.3h13.6c0.6,0,1.1,0.5,1.3,1.3h0.1l12.1,35.3l0.2,1
		v-36.3c0-0.7,0.6-1.3,1.3-1.3H557C557.6,436.5,558.1,437,558.1,437.8z"/>
	<path fill="#FFFFFF" d="M608.2,492c0,0,0.2,1.3-0.9,2.4l-5.2,5.1c-1.1,1.1-2.3,1-2.3,1h-23.7c0,0-1.3,0.1-2.4-1l-5.1-5.1
		c-1.1-1.1-1-2.4-1-2.4v-46.9c0,0-0.1-1.3,1-2.4l5.1-5.1c1.1-1.2,2.4-1,2.4-1h23.6c0,0,1.3-0.2,2.4,1l5.2,5.1
		c1.1,1.1,0.9,2.4,0.9,2.4V492z M583.4,450c-0.1,0-0.4,0-0.5,0.3l-1.6,1.5c-0.3,0.4-0.3,0.7-0.3,0.7v32.6c0,0.2,0.1,0.4,0.3,0.6
		l1.3,1.3h10.6l1.3-1.3c0.3-0.3,0.3-0.5,0.3-0.6v-32.6c0,0,0.1-0.4-0.3-0.7l-1.5-1.5c-0.3-0.3-0.5-0.3-0.6-0.3H583.4z"/>
	<path fill="#FFFFFF" d="M656.7,438.1v10.8c0,0.7-0.6,1.3-1.4,1.3h-11.6v49.2c-0.1,0.6-0.6,1.1-1.3,1.1h-10.8
		c-0.6,0-1.2-0.5-1.3-1.1v-49.2h-11.6c-0.7,0-1.4-0.5-1.4-1.3v-10.8c0-0.7,0.6-1.4,1.4-1.4h36.6C656,436.8,656.7,437.4,656.7,438.1z
		"/>
	<path fill="#FFFFFF" d="M706.9,437.9v61.3c0,0.7-0.5,1.3-1.3,1.3h-10.9c-0.6,0-1.3-0.5-1.3-1.3v-23.9h-13.7v23.9
		c0,0.7-0.6,1.3-1.3,1.3h-10.9c-0.7,0-1.3-0.5-1.3-1.3v-61.3c0-0.7,0.5-1.3,1.3-1.3h10.9c0.6,0,1.3,0.5,1.3,1.3v23.9h13.7v-23.9
		c0-0.7,0.6-1.3,1.3-1.3h10.9C706.4,436.6,706.9,437.1,706.9,437.9z"/>
	<path fill="#FFFFFF" d="M730,438.1v61c0,0.7-0.5,1.3-1.3,1.3h-10.9c-0.7,0-1.3-0.5-1.3-1.3v-61c0-0.7,0.5-1.3,1.3-1.3h10.9
		C729.5,436.9,730,437.4,730,438.1z"/>
	<path fill="#FFFFFF" d="M781.4,437.8v61.3c0,0.6-0.5,1.3-1.3,1.3h-14.4c-0.7,0-1.4-0.6-1.6-1.3L753,468.6v30.5
		c0,0.6-0.6,1.3-1.3,1.3h-10.9c-0.7,0-1.3-0.6-1.3-1.3v-61.3c0-0.7,0.5-1.3,1.3-1.3h13.6c0.6,0,1.1,0.5,1.3,1.3h0.1l12.1,35.3l0.2,1
		v-36.3c0-0.7,0.6-1.3,1.3-1.3h10.9C780.8,436.5,781.4,437,781.4,437.8z"/>
	<path fill="#FFFFFF" d="M812.6,477.1c-0.7,0-1.3-0.6-1.3-1.3v-10.9c0-0.7,0.5-1.3,1.3-1.3h18.1c0.7,0,1.4,0.5,1.4,1.3v27.8H832
		c-0.1,0.5-0.4,1.1-0.9,1.6l-5.1,5.1c-1.1,1.1-2.4,1-2.4,1h-23.7c0,0-1.3,0.1-2.4-1l-5.1-5.1c-1.1-1.1-0.9-2.4-0.9-2.4l-0.1-0.1V445
		h0.1c0,0-0.2-1.3,0.9-2.4l5.1-5.1c1.1-1.1,2.4-1,2.4-1h23.7c0,0,1.3-0.1,2.4,1l5.1,5.1c1.1,1.1,1,2.4,1,2.4H832l0.1,0.1v9.7
		c0,0.6-0.6,1.3-1.4,1.3h-10.8c-0.7,0-1.3-0.6-1.3-1.3v-2.4c0,0,0-0.4-0.3-0.6l-1.6-1.6c-0.2-0.3-0.5-0.3-0.6-0.3h-8.9
		c-0.2,0-0.4,0-0.6,0.3l-1.5,1.6c-0.4,0.3-0.4,0.6-0.4,0.6V485c0.1,0.2,0.1,0.4,0.4,0.6l1.2,1.3H817l1.3-1.3
		c0.2-0.3,0.3-0.5,0.3-0.6v-8h-6V477.1z"/>
</g>
</svg>
