<?xml version="1.0" encoding="utf-8"?>
<!-- Generator: Adobe Illustrator 17.1.0, SVG Export Plug-In . SVG Version: 6.00 Build 0)  -->
<!DOCTYPE svg PUBLIC "-//W3C//DTD SVG 1.1//EN" "http://www.w3.org/Graphics/SVG/1.1/DTD/svg11.dtd">
<svg version="1.1" id="Layer_4" xmlns="http://www.w3.org/2000/svg" xmlns:xlink="http://www.w3.org/1999/xlink" x="0px" y="0px"
	 viewBox="0 0 1080 760" enable-background="new 0 0 1080 760" xml:space="preserve">
<g>
	<path fill="#004E59" d="M808.9,405.9c-0.7-0.7-1.9-0.7-2.6,0l-6.5,6.5l-6.5-6.5c-0.7-0.7-1.9-0.7-2.6,0l-6.5,6.5l-6.5-6.5
		c-0.7-0.7-1.9-0.7-2.6,0l-6.5,6.5l-6.5-6.5c-0.7-0.7-1.9-0.7-2.6,0l-6.5,6.5l-6.5-6.5c-0.7-0.7-1.9-0.7-2.6,0l-6.5,6.5l-6.5-6.5
		c-0.7-0.7-1.9-0.7-2.6,0l-6.5,6.5l-6.5-6.5c-0.4-0.4-0.9-0.5-1.4-0.5l-2-3.1c12.7-1.2,22.6-11.8,22.6-24.7c0-0.3,0-0.5,0-0.7v-0.3
		c-0.1-3.6-1.1-7.2-2.7-10.4c0,0,0,0,0-0.1l-11.9-20.4c-0.3-0.6-1-0.9-1.6-0.9c-0.7,0-1.3,0.4-1.6,0.9l-2.4,4.1l-6.9-11.9
		c-0.3-0.6-1-0.9-1.6-0.9s-1.3,0.4-1.6,0.9l-14.9,25.8c-0.3,0.4-0.4,0.6-0.5,0.8l-56.1-91.4l9.1-15.9c0.5-0.9,0.2-2-0.7-2.5
		c-0.9-0.5-2-0.2-2.5,0.7l-8.1,14.2l-8.7-14.2c-0.5-0.9-1.6-1.1-2.5-0.6c-0.9,0.5-1.1,1.6-0.6,2.5l9.7,15.9l-13.7,23.8v-46.5
		c0-1-0.8-1.8-1.8-1.8h-22.5c-13.4,0-24.3,10.9-24.3,24.3v5.8l-24.4-40.7l12-20.1c0.5-0.9,0.2-2-0.6-2.5c-0.9-0.5-2-0.2-2.5,0.6
		l-11.5,18.4L528.8,216c-0.5-0.9-1.6-1.1-2.5-0.6c-0.9,0.5-1.1,1.6-0.6,2.5l12.1,20.1l-54.2,91l-32.1-55.8l9.7-15.9
		c0.5-0.9,0.3-2-0.6-2.5c-0.9-0.5-2-0.3-2.5,0.6l-8.7,14.2l-8.1-14.2c-0.5-0.9-1.6-1.2-2.5-0.7c-0.9,0.5-1.2,1.6-0.7,2.5l9.1,15.9
		l-5.2,8.5c-0.1-0.2-0.3-0.4-0.5-0.6c-2.4-1.8-5.2-2.7-8.2-2.7c-1.3-8.8-8.9-15.5-18-15.5c-5.2,0-10,2.2-13.4,6
		c-2-0.9-4-1.3-6.2-1.3c-6.9,0-12.8,4.5-14.7,10.9c-0.6-0.1-1.2-0.1-1.7-0.1c-7.8,0-13.9,6.3-13.9,13.9c0,7.8,6.3,13.9,13.9,13.9
		h47.7L401.5,348v-24.7c0-1-0.8-1.8-1.8-1.8h-61.6c-1,0-1.8,0.8-1.8,1.8v86.2l-2.8,2.8l-6.5-6.5c-0.7-0.7-1.9-0.7-2.6,0l-6.5,6.5
		l-6.5-6.5c-0.7-0.7-1.9-0.7-2.6,0l-6.5,6.5l-6.5-6.5c-0.7-0.7-1.9-0.7-2.6,0l-6.5,6.5l-6.5-6.5c-0.7-0.7-1.9-0.7-2.6,0l-6.5,6.5
		l-6.5-6.5c-0.7-0.7-1.9-0.7-2.6,0c-1,1.3,0,2.4,0,2.4l1.3,1.4l6.5,6.5c0.7,0.7,1.9,0.7,2.6,0l6.5-6.5l6.5,6.5
		c0.7,0.7,1.9,0.7,2.6,0l6.5-6.5l6.5,6.5c0.7,0.7,1.9,0.7,2.6,0l6.5-6.5l6.5,6.5c0.7,0.7,1.9,0.7,2.6,0l6.5-6.5l6.5,6.5
		c0.7,0.7,1.9,0.7,2.6,0l6.5-6.5l6.5,6.5c0.7,0.7,1.9,0.7,2.6,0l6.5-6.5l6.5,6.5c0.7,0.7,1.9,0.7,2.6,0l6.5-6.5l6.5,6.5
		c0.7,0.7,1.9,0.7,2.6,0l6.5-6.5l6.5,6.5c0.7,0.7,1.9,0.7,2.6,0l6.5-6.5l6.5,6.5c0.7,0.7,1.9,0.7,2.6,0l6.5-6.5l6.5,6.5
		c0.7,0.7,1.9,0.7,2.6,0l6.5-6.5l6.5,6.5c0.7,0.7,1.9,0.7,2.6,0l6.5-6.5l6.5,6.5c0.7,0.7,1.9,0.7,2.6,0l6.5-6.5l6.5,6.5
		c0.7,0.7,1.9,0.7,2.6,0l6.5-6.5l6.5,6.5c0.7,0.7,1.9,0.7,2.6,0l6.5-6.5l6.5,6.5c0.7,0.7,1.9,0.7,2.6,0l6.5-6.5l6.5,6.5
		c0.7,0.7,1.9,0.7,2.6,0l6.5-6.5l6.5,6.5c0.7,0.7,1.9,0.7,2.6,0l6.5-6.5l6.5,6.5c0.7,0.7,1.9,0.7,2.6,0l6.5-6.5l6.5,6.5
		c0.7,0.7,1.9,0.7,2.6,0l6.5-6.5l6.5,6.5c0.7,0.7,1.9,0.7,2.6,0l6.5-6.5l6.5,6.5c0.7,0.7,1.9,0.7,2.6,0l6.5-6.5l6.5,6.5
		c0.7,0.7,1.9,0.7,2.6,0l6.5-6.5l6.5,6.5c0.7,0.7,1.9,0.7,2.6,0l6.5-6.5l6.5,6.5c0.7,0.7,1.9,0.7,2.6,0l6.4-6.4c0.1,0,0.1,0,0.2-0.1
		l6.5,6.5c0.7,0.7,1.9,0.7,2.6,0l6.5-6.5l6.5,6.5c0.7,0.7,1.9,0.7,2.6,0l6.5-6.5l6.5,6.5c0.7,0.7,1.9,0.7,2.6,0l6.5-6.5l6.5,6.5
		c0.4,0.4,0.8,0.5,1.3,0.5s0.9-0.2,1.3-0.5l6.4-6.4c0.1,0,0.2,0,0.2-0.1l6.5,6.4c0.7,0.7,1.9,0.7,2.6,0l6.5-6.5l6.5,6.5
		c0.7,0.7,1.9,0.7,2.6,0l6.5-6.5l6.5,6.5c0.7,0.7,1.9,0.7,2.6,0l6.5-6.5l6.5,6.5c0.7,0.7,1.9,0.7,2.6,0l6.5-6.5l6.5,6.5
		c0.7,0.7,1.9,0.7,2.6,0l6.5-6.5l6.5,6.5c0.7,0.7,1.9,0.7,2.6,0l7.8-7.8C809.6,407.7,809.6,406.6,808.9,405.9z M691.9,366.9
		c0.5-0.9,0.3-0.6,0.7-1.3c0,0,0-0.1,0.1-0.1l13.3-23.1l6.9,11.9c0.3,0.6,1,0.9,1.6,0.9c0.7,0,1.3-0.4,1.6-0.9l2.4-4.1l10.2,17.6
		c1.5,2.7,2.2,5.7,2.4,8.8v0.4c0,0.2,0,0.3,0,0.5c0,7.4-3.8,13.8-9.5,17.7c-3.3,2.2-7.3,3.4-11.6,3.4L691,367.7
		C691.4,367.5,691.7,367.3,691.9,366.9z M570,284.2v-11.3c0-11.5,9.3-20.7,20.7-20.7h20.7v50.9L596.5,329l-11.1-18.4
		c2.3-2,3.7-4.9,3.7-8.1v-14.3c0-0.6-0.5-1.1-1.1-1.1c-0.6,0-1.1,0.5-1.1,1.1v14.3c0,2.5-1.1,4.7-2.7,6.4l-14.3-24.2
		C569.9,284.5,570,284.4,570,284.2z M586.2,333.6l-5.8-5.8c-0.4-0.4-1.1-0.4-1.5,0l-5.8,5.8l-5.8-5.8c-0.4-0.4-1.1-0.4-1.5,0
		l-5.8,5.8l-5.8-5.8c-0.2-0.2-0.5-0.3-0.8-0.3c-0.3,0-0.6,0.1-0.8,0.3l-5.8,5.8l-5.8-5.8c-0.4-0.4-1.1-0.4-1.5,0l-5.8,5.8l-5.8-5.8
		c-0.4-0.4-1.1-0.4-1.5,0l-5.8,5.8l-5.8-5.8c-0.4-0.4-1.1-0.4-1.5,0l-5.8,5.8l-5.8-5.8c-0.4-0.4-1.1-0.4-1.5,0l-5.8,5.8l-5.7-5.7
		l20.4-34.2h61.9c0.1,0,0.2,0,0.3-0.1l20.6,34.3L586.2,333.6z M513.1,286.6h53.8l2.9,5h-59.7L513.1,286.6z M565.6,284.4h-51.2
		l25.5-42.9L565.6,284.4z M427.5,302.6h-48c-5.8,0-10.4-4.7-10.4-10.4c0-5.8,4.7-10.4,10.4-10.4c0.9,0,1.7,0.1,2.6,0.3
		c0.5,0.1,1,0,1.4-0.2c0.4-0.3,0.7-0.7,0.8-1.2c1-5.6,5.9-9.7,11.6-9.7c2.1,0,4,0.5,5.8,1.5c0.8,0.4,1.8,0.2,2.3-0.5
		c2.8-3.6,7.1-5.7,11.6-5.7c7.8,0,14.2,6.1,14.6,13.8c0,0.5,0.3,1,0.6,1.3c0.4,0.3,0.9,0.5,1.4,0.4s0.9-0.1,1.3-0.1
		c2.3,0,4.4,0.7,6.3,2.1c0.3,0.2,0.7,0.3,1,0.3l-11.8,19.1C428.5,302.9,428,302.6,427.5,302.6z M355.4,405.9l-6.5,6.5l-6.5-6.5
		c-0.7-0.7-1.9-0.7-2.6,0l-0.1,0.1v-80.9h58.1v28.8l-9.8,16c-3.4-7.3-11-12.2-19.1-12.2c-11.7,0-21.2,9.5-21.2,21.2
		s9.5,21.2,21.2,21.2c0.2,0,0.4,0,0.6,0l-6.6,10.7l-5-5C357.2,405.2,356.1,405.2,355.4,405.9z M374.1,392.6L374.1,392.6
		c-0.9,0-1.6,0.7-1.6,1.5c0,0.3,0.1,0.5,0.2,0.7l-1.2,1.9c-0.7,0.1-1.2,0.6-1.4,1.2c-0.5,0-0.9,0.1-1.4,0.1c-0.3,0-0.6,0-0.9,0
		c-0.1-0.7-0.7-1.3-1.5-1.3c-0.6,0-1.2,0.4-1.4,0.9c-2.1-0.4-4-1.2-5.8-2.3c0.5-0.3,0.8-0.8,0.8-1.3c0-0.9-0.7-1.5-1.5-1.5
		c-0.8,0-1.4,0.6-1.5,1.3c-3-2.5-5.4-5.8-6.5-9.6c0.2,0.1,0.3,0.1,0.5,0.1c0.9,0,1.5-0.7,1.5-1.5c0-0.9-0.7-1.5-1.5-1.5
		c-0.4,0-0.8,0.2-1.1,0.4c-0.1-1-0.2-1.9-0.2-2.9c0-0.9,0.1-1.8,0.2-2.6c0.3,0.3,0.7,0.5,1.1,0.5c0.9,0,1.5-0.7,1.5-1.5
		c0-0.9-0.7-1.5-1.5-1.5c-0.2,0-0.4,0-0.6,0.1c1.1-4,3.4-7.5,6.7-9.9c0.2,0.6,0.8,1.1,1.5,1.1c0.9,0,1.5-0.7,1.5-1.5
		c0-0.5-0.2-0.9-0.6-1.2c1.7-1,3.5-1.7,5.6-2.1c0.1,0.7,0.7,1.2,1.5,1.2c0.9,0,1.5-0.7,1.5-1.5l0,0c0.3,0,0.6,0,0.8,0
		c0.4,0,0.9,0,1.3,0.1l0,0c0,0.9,0.7,1.5,1.5,1.5c0.7,0,1.3-0.5,1.5-1.1c1.8,0.4,3.5,1.1,5.1,2c-0.3,0.3-0.6,0.7-0.6,1.2
		c0,0.9,0.7,1.5,1.6,1.5c0.7,0,1.3-0.5,1.5-1.1c2.6,2.1,4.8,4.9,6.1,8.1l-3.5,5.8c-0.1,0.1-0.2,0.2-0.2,0.4l-4.1,6.8
		c-0.6,0.2-1.1,0.8-1.1,1.5c0,0.1,0,0.2,0.1,0.3l-1.6,2.5c-0.5,0.2-0.9,0.8-0.9,1.4l0,0L374.1,392.6z M420.1,405.9
		c-0.7-0.7-1.9-0.7-2.6,0l-6.5,6.5l-6.5-6.5c-0.7-0.7-1.9-0.7-2.6,0l-6.5,6.5l-6.5-6.5c-0.7-0.7-1.9-0.7-2.6,0l-6.5,6.5l-6.5-6.5
		c-0.7-0.7-1.9-0.7-2.6,0l-2.2,2.2l80.8-131.5l32.2,55.9L463.7,363l-12.1-62.5c-0.2-0.9-0.9-1.5-1.8-1.5l0,0c-0.9,0-1.6,0.6-1.8,1.5
		l-21.6,111.7L420.1,405.9z M433.1,405.9l-2.5,2.5l18.9-98.1l11.1,57.4l-23.6,39.7l-1.5-1.5C435,405.2,433.8,405.2,433.1,405.9z
		 M635.3,405.9l-6.5,6.5l-6.5-6.5c-0.7-0.7-1.9-0.7-2.6,0l-6.5,6.5l-6.5-6.5c-0.7-0.7-1.9-0.7-2.6,0l-6.5,6.5l-6.5-6.5
		c-0.7-0.7-1.9-0.7-2.6,0l-6.5,6.5l-6.5-6.5c-0.7-0.7-1.9-0.7-2.6,0l-6.5,6.5l-6.5-6.5c-0.7-0.7-1.9-0.7-2.6,0l-6.5,6.5l-6.5-6.5
		c-0.7-0.7-1.9-0.7-2.6,0l-6.5,6.5l-6.5-6.5c-0.7-0.7-1.9-0.7-2.6,0l-6.5,6.5l-6.5-6.5c-0.7-0.7-1.9-0.7-2.6,0l-6.5,6.5l-6.5-6.5
		c-0.7-0.7-1.9-0.7-2.6,0l-6.5,6.5l-6.5-6.5c-0.7-0.7-1.9-0.7-2.6,0l-6.5,6.5l-6.5-6.5c-0.7-0.7-1.9-0.7-2.6,0l-6.5,6.5l-6.5-6.5
		c-0.7-0.7-1.9-0.7-2.6,0l-6.5,6.5l-2.5-2.5l47.7-80.2l6.1,6.1c0.4,0.4,1.1,0.4,1.5,0l5.8-5.8l5.8,5.8c0.1,0.1,0.2,0.2,0.4,0.2
		c0.4,0.2,0.9,0.1,1.2-0.2l5.8-5.8l5.8,5.8c0.1,0.1,0.2,0.2,0.4,0.2c0.4,0.2,0.9,0.1,1.2-0.2l5.8-5.8l5.8,5.8c0.4,0.4,1.1,0.4,1.5,0
		l5.8-5.8l5.8,5.8c0.2,0.2,0.5,0.3,0.8,0.3s0.6-0.1,0.8-0.3l5.8-5.8l5.8,5.8c0.3,0.3,0.8,0.4,1.2,0.2c0.1-0.1,0.3-0.1,0.4-0.2
		l5.8-5.8l5.8,5.8c0.4,0.4,1.1,0.4,1.5,0l5.8-5.8l5.8,5.8c0.2,0.2,0.5,0.3,0.8,0.3c0.3,0,0.6-0.1,0.8-0.3l6-6l46.7,77.9l-1.9-1.9
		C637.2,405.2,636,405.2,635.3,405.9z M645.8,411l-26.3-43.9c0.2-0.2,0.4-0.5,0.5-0.9l10.8-56.1l18.7,97L645.8,411z M706.5,412.5
		l-6.5-6.5c-0.7-0.7-1.9-0.7-2.6,0l-6.5,6.5l-6.5-6.5c-0.7-0.7-1.9-0.7-2.6,0l-6.5,6.5l-6.5-6.5c-0.7-0.7-1.9-0.7-2.6,0l-6.5,6.5
		l-6.5-6.5c-0.2-0.2-0.4-0.3-0.6-0.4l-20.3-105.1c-0.2-0.9-0.9-1.5-1.8-1.5l0,0c-0.9,0-1.6,0.6-1.8,1.5L617,362.9l-18.3-30.4
		l32.2-55.9l80.5,131L706.5,412.5z"/>
	<path fill="#004E59" d="M509.7,308c-2.1,0-3.6,1.7-3.6,3.6c0,2.1,1.7,3.6,3.6,3.6c2.1,0,3.6-1.7,3.6-3.6
		C513.3,309.6,511.7,308,509.7,308z"/>
	<path fill="#004E59" d="M525.1,308c-2.1,0-3.6,1.7-3.6,3.6c0,2.1,1.7,3.6,3.6,3.6c2.1,0,3.6-1.7,3.6-3.6
		C528.7,309.6,527.1,308,525.1,308z"/>
	<path fill="#004E59" d="M540.5,308c-2.1,0-3.6,1.7-3.6,3.6c0,2.1,1.7,3.6,3.6,3.6c2.1,0,3.6-1.7,3.6-3.6
		C544.1,309.6,542.5,308,540.5,308z"/>
	<path fill="#004E59" d="M555.9,308c-2.1,0-3.6,1.7-3.6,3.6c0,2.1,1.7,3.6,3.6,3.6c2.1,0,3.6-1.7,3.6-3.6
		C559.5,309.6,557.9,308,555.9,308z"/>
	<path fill="#004E59" d="M571.3,308c-2.1,0-3.6,1.7-3.6,3.6c0,2.1,1.7,3.6,3.6,3.6c2.1,0,3.6-1.7,3.6-3.6
		C574.9,309.6,573.3,308,571.3,308z"/>
	<path fill="#004E59" d="M368.8,351.4c5.5,0,10-4.5,10-10c0-5.5-4.5-10-10-10s-10,4.5-10,10C358.8,346.9,363.3,351.4,368.8,351.4z
		 M368.8,333.6c4.3,0,7.9,3.5,7.9,7.9s-3.5,7.9-7.9,7.9s-7.9-3.5-7.9-7.9S364.5,333.6,368.8,333.6z"/>
	<path fill="#004E59" d="M368.8,345.3c2.2,0,3.9-1.8,3.9-3.9c0-2.2-1.8-3.9-3.9-3.9c-2.2,0-3.9,1.8-3.9,3.9
		C364.9,343.6,366.6,345.3,368.8,345.3z M368.8,339.6c1,0,1.8,0.8,1.8,1.8c0,1-0.8,1.8-1.8,1.8c-1,0-1.8-0.8-1.8-1.8
		C367.1,340.4,367.8,339.6,368.8,339.6z"/>
	<circle fill="#004E59" cx="363.8" cy="363.5" r="1.5"/>
	<circle fill="#004E59" cx="368.9" cy="363.5" r="1.5"/>
	<circle fill="#004E59" cx="374" cy="363.5" r="1.5"/>
	<path fill="#004E59" d="M356.2,369.2c0.9,0,1.5-0.7,1.5-1.5c0-0.9-0.7-1.5-1.5-1.5c-0.9,0-1.5,0.7-1.5,1.5S355.4,369.2,356.2,369.2
		z"/>
	<path fill="#004E59" d="M361.4,369.2c0.9,0,1.5-0.7,1.5-1.5c0-0.9-0.7-1.5-1.5-1.5c-0.9,0-1.5,0.7-1.5,1.5
		C359.8,368.5,360.5,369.2,361.4,369.2z"/>
	<circle fill="#004E59" cx="366.5" cy="367.6" r="1.5"/>
	<circle fill="#004E59" cx="371.7" cy="367.6" r="1.5"/>
	<circle fill="#004E59" cx="376.8" cy="367.6" r="1.5"/>
	<circle fill="#004E59" cx="381.9" cy="367.6" r="1.5"/>
	<circle fill="#004E59" cx="353.5" cy="371.1" r="1.5"/>
	<circle fill="#004E59" cx="358.6" cy="371.1" r="1.5"/>
	<circle fill="#004E59" cx="363.8" cy="371.1" r="1.5"/>
	<circle fill="#004E59" cx="368.9" cy="371.1" r="1.5"/>
	<circle fill="#004E59" cx="374" cy="371.1" r="1.5"/>
	<path fill="#004E59" d="M377.6,371.1c0,0.9,0.7,1.5,1.6,1.5s1.5-0.7,1.5-1.5c0-0.9-0.7-1.5-1.5-1.5
		C378.3,369.7,377.6,370.4,377.6,371.1z"/>
	<circle fill="#004E59" cx="384.3" cy="371.1" r="1.5"/>
	<path fill="#004E59" d="M357.8,375.3c0-0.9-0.7-1.5-1.5-1.5c-0.9,0-1.5,0.7-1.5,1.5c0,0.9,0.7,1.5,1.5,1.5
		C357.1,376.8,357.8,376.1,357.8,375.3z"/>
	<path fill="#004E59" d="M359.8,375.3c0,0.9,0.7,1.5,1.5,1.5c0.9,0,1.5-0.7,1.5-1.5c0-0.9-0.7-1.5-1.5-1.5S359.8,374.5,359.8,375.3z
		"/>
	<circle fill="#004E59" cx="366.5" cy="375.3" r="1.5"/>
	<circle fill="#004E59" cx="371.7" cy="375.3" r="1.5"/>
	<circle fill="#004E59" cx="376.8" cy="375.3" r="1.5"/>
	<circle fill="#004E59" cx="381.9" cy="375.3" r="1.5"/>
	<circle fill="#004E59" cx="353.5" cy="378.8" r="1.5"/>
	<circle fill="#004E59" cx="358.6" cy="378.8" r="1.5"/>
	<circle fill="#004E59" cx="363.8" cy="378.8" r="1.5"/>
	<circle fill="#004E59" cx="368.9" cy="378.8" r="1.5"/>
	<circle fill="#004E59" cx="374" cy="378.8" r="1.5"/>
	<path fill="#004E59" d="M379.2,377.3c-0.9,0-1.6,0.7-1.6,1.5c0,0.9,0.7,1.5,1.6,1.5s1.5-0.7,1.5-1.5S380,377.3,379.2,377.3z"/>
	<path fill="#004E59" d="M356.2,384.5c0.9,0,1.5-0.7,1.5-1.5c0-0.9-0.7-1.5-1.5-1.5c-0.9,0-1.5,0.7-1.5,1.5
		C354.7,383.8,355.4,384.5,356.2,384.5z"/>
	<path fill="#004E59" d="M361.4,384.5c0.9,0,1.5-0.7,1.5-1.5c0-0.9-0.7-1.5-1.5-1.5c-0.9,0-1.5,0.7-1.5,1.5
		C359.8,383.8,360.5,384.5,361.4,384.5z"/>
	<circle fill="#004E59" cx="366.5" cy="382.9" r="1.5"/>
	<circle fill="#004E59" cx="371.7" cy="382.9" r="1.5"/>
	<circle fill="#004E59" cx="376.8" cy="382.9" r="1.5"/>
	<circle fill="#004E59" cx="353.5" cy="386.4" r="1.5"/>
	<circle fill="#004E59" cx="358.6" cy="386.4" r="1.5"/>
	<circle fill="#004E59" cx="363.8" cy="386.4" r="1.5"/>
	<circle fill="#004E59" cx="368.9" cy="386.4" r="1.5"/>
	<circle fill="#004E59" cx="374" cy="386.4" r="1.5"/>
	<path fill="#004E59" d="M356.2,389.1c-0.9,0-1.5,0.7-1.5,1.5c0,0.9,0.7,1.5,1.5,1.5c0.9,0,1.5-0.7,1.5-1.5
		C357.8,389.8,357.1,389.1,356.2,389.1z"/>
	<path fill="#004E59" d="M362.9,390.6c0-0.9-0.7-1.5-1.5-1.5c-0.9,0-1.5,0.7-1.5,1.5c0,0.9,0.7,1.5,1.5,1.5
		C362.2,392.1,362.9,391.5,362.9,390.6z"/>
	<circle fill="#004E59" cx="366.5" cy="390.6" r="1.5"/>
	<circle fill="#004E59" cx="371.7" cy="390.6" r="1.5"/>
	<path fill="#004E59" d="M363.8,392.6c-0.9,0-1.5,0.7-1.5,1.5c0,0.9,0.7,1.5,1.5,1.5c0.9,0,1.5-0.7,1.5-1.5
		C365.2,393.3,364.6,392.6,363.8,392.6z"/>
	<path fill="#004E59" d="M368.9,392.6c-0.9,0-1.5,0.7-1.5,1.5c0,0.9,0.7,1.5,1.5,1.5c0.9,0,1.5-0.7,1.5-1.5
		C370.4,393.3,369.8,392.6,368.9,392.6z"/>
	<path fill="#004E59" d="M597,269.5c2.6,0,5-1.8,5.8-4.3c0.2-0.6-0.2-1.2-0.7-1.4c-0.6-0.2-1.2,0.2-1.3,0.7c-0.5,1.7-2,2.8-3.7,2.8
		c-1.8,0-3.2-1.1-3.7-2.8c-0.2-0.6-0.8-0.9-1.4-0.7s-0.9,0.8-0.7,1.4C592,267.7,594.4,269.5,597,269.5z"/>
	<path fill="#004E59" d="M711.6,386c4.6,0,8.2-3.7,8.2-8.2c0-0.3,0-0.6-0.1-1c-0.1-1-0.4-2-0.9-2.8l-6.4-11c-0.2-0.3-0.6-0.6-1-0.6
		c-0.4,0-0.8,0.2-1,0.6l-6.4,11c-0.5,0.9-0.8,1.9-0.9,2.8c0,0.4-0.1,0.7-0.1,1C703.4,382.2,707,386,711.6,386z M705.7,376.9
		c0.1-0.7,0.3-1.4,0.6-2.1l5.4-9.3l5.4,9.2c0.3,0.7,0.6,1.4,0.6,2.1c0,0.3,0,0.5,0,0.7c0,3.3-2.7,6.1-6.1,6.1s-6.1-2.7-6.1-6.1
		C705.6,377.5,705.6,377.2,705.7,376.9z"/>
</g>
<g>
	<path fill="#FFFFFF" d="M260.1,466.1c0,0-0.1-1.4,0.9-2.4l5-5c1.1-1,2.4-1,2.4-1h23.3c0,0,1.4,0,2.4,1l5,5c1.1,1.1,1,2.4,1,2.4
		h-0.1c0,0,0.1,0.1,0.1,0.2v9.4c0,0.6-0.6,1.3-1.3,1.3H288c-0.7,0-1.3-0.6-1.3-1.3v-2.4c0,0,0-0.4-0.3-0.6l-1.6-1.6
		c-0.2-0.2-0.5-0.3-0.6-0.3h-8.7c-0.2,0-0.4,0.1-0.6,0.3l-1.5,1.6c-0.4,0.3-0.4,0.6-0.4,0.6v32c0.1,0.2,0.1,0.5,0.4,0.6l1.3,1.3
		h10.4l1.3-1.3c0.2-0.2,0.3-0.5,0.3-0.6v-2.6c0-0.6,0.5-1.3,1.3-1.3h10.7c0.6,0,1.3,0.6,1.3,1.3v10.1c-0.1,0.5-0.1,0.7-1,1.6l-5,5
		c-1,1-2.4,1-2.4,1h-23.3c0,0-1.4,0-2.4-1l-5-5c-0.9-0.9-0.9-2.4-0.9-2.4L260.1,466.1L260.1,466.1z"/>
	<path fill="#FFFFFF" d="M356.5,519.3c0.2,0.6-0.6,1.3-1.4,1.3h-10.2c-0.7,0-1.4-0.6-1.6-1.3l-2.2-7.3h-18.1l-2.2,7.3
		c-0.3,0.6-0.9,1.3-1.6,1.3h-10.2c-0.7,0-1.6-0.6-1.4-1.3l17.8-60.1v-0.1c0.4-0.8,0.6-1.3,1.3-1.3h3.9h2.7h3.9c0.6,0,1,0.5,1.3,1.3
		v0.1C344.6,479.2,350.5,499.3,356.5,519.3z M337.6,499.9l-5.4-18.4l-5.5,18.4H337.6z"/>
	<path fill="#FFFFFF" d="M414.5,519.3c0,0.7-0.5,1.3-1.3,1.3h-10.6c-0.7,0-1.4-0.5-1.4-1.3l-0.4-22.7l-6.9,22.9
		c-0.3,0.6-0.9,1.3-1.6,1.3h-7.2c-0.7,0-1.4-0.6-1.7-1.3l-6.8-22.9l-0.5,22.7c0,0.7-0.5,1.3-1.3,1.3h-10.7c-0.6,0-1.3-0.5-1.3-1.3
		l2.5-59.9v-0.3c0.1-0.4,0.3-0.6,0.5-0.8c0.1,0,0.1,0,0.2-0.1c0.1,0,0.2,0,0.3-0.1h11.4c0.7,0,1.1,0.5,1.4,1.2l8,34.6l1,7.6l0.7-7.6
		l9.4-34.6c0.2-0.8,0.6-1.2,1.4-1.2h11.4c0.1,0.1,0.2,0.1,0.3,0.1c0,0.1,0.1,0.1,0.1,0.1c0.3,0.2,0.5,0.5,0.5,0.8v0.2
		c0,0,0.1,0,0.1,0.1L414.5,519.3z"/>
	<path fill="#FFFFFF" d="M461.7,489L461.7,489L461.7,489c0,0.1,0.1,1.4-1,2.5l-5,5.1c-1.1,1.1-2.4,0.9-2.4,0.9h-16.6v21.8
		c0,0.6-0.6,1.3-1.4,1.3h-10.6c-0.7,0-1.3-0.6-1.3-1.3v-60.2c0-0.7,0.5-1.3,1.3-1.3h28.6c0,0,1.3-0.2,2.4,0.9l5,5.1
		c1.1,1.1,1,2.4,1,2.4L461.7,489L461.7,489z M436.8,484.2h9.2c0,0,0.4,0.1,0.7-0.3l1.6-1.5c0.3-0.4,0.3-0.7,0.3-0.7v-8.4
		c0,0,0-0.4-0.3-0.6l-1.6-1.6c-0.4-0.3-0.7-0.3-0.7-0.3h-9.2V484.2z"/>
	<path fill="#FFFFFF" d="M542,459.1v60.2c0,0.6-0.5,1.3-1.3,1.3h-14.1c-0.7,0-1.4-0.6-1.6-1.3l-10.9-29.9v29.9
		c0,0.6-0.6,1.3-1.3,1.3h-10.7c-0.7,0-1.3-0.6-1.3-1.3v-60.2c0-0.7,0.5-1.3,1.3-1.3h13.3c0.6,0,1.1,0.5,1.3,1.3h0.1l11.9,34.6l0.2,1
		v-35.6c0-0.7,0.6-1.3,1.3-1.3h10.7C541.5,457.8,542,458.3,542,459.1z"/>
	<path fill="#FFFFFF" d="M591.1,512.3c0,0,0.2,1.3-0.9,2.4l-5.1,5c-1.1,1.1-2.3,1-2.3,1h-23.3c0,0-1.3,0.1-2.4-1l-5-5
		c-1.1-1.1-1-2.4-1-2.4v-46c0,0-0.1-1.3,1-2.4l5-5c1.1-1.2,2.4-1,2.4-1h23.2c0,0,1.3-0.2,2.4,1l5.1,5c1.1,1.1,0.9,2.4,0.9,2.4V512.3
		z M566.8,471c-0.1,0-0.4,0-0.5,0.3l-1.6,1.5c-0.3,0.4-0.3,0.7-0.3,0.7v32c0,0.2,0.1,0.4,0.3,0.6l1.3,1.3h10.4l1.3-1.3
		c0.3-0.3,0.3-0.5,0.3-0.6v-32c0,0,0.1-0.4-0.3-0.7l-1.5-1.5c-0.3-0.3-0.5-0.3-0.6-0.3H566.8z"/>
	<path fill="#FFFFFF" d="M638.7,459.4V470c0,0.7-0.6,1.3-1.4,1.3H626v48.3c-0.1,0.6-0.6,1.1-1.3,1.1h-10.6c-0.6,0-1.2-0.5-1.3-1.1
		v-48.3h-11.4c-0.7,0-1.4-0.5-1.4-1.3v-10.6c0-0.7,0.6-1.4,1.4-1.4h35.9C638,458.1,638.7,458.7,638.7,459.4z"/>
	<path fill="#FFFFFF" d="M688,459.2v60.2c0,0.7-0.5,1.3-1.3,1.3H676c-0.6,0-1.3-0.5-1.3-1.3v-23.5h-13.4v23.5c0,0.7-0.6,1.3-1.3,1.3
		h-10.7c-0.7,0-1.3-0.5-1.3-1.3v-60.2c0-0.7,0.5-1.3,1.3-1.3H660c0.6,0,1.3,0.5,1.3,1.3v23.5h13.4v-23.5c0-0.7,0.6-1.3,1.3-1.3h10.7
		C687.5,457.9,688,458.4,688,459.2z"/>
	<path fill="#FFFFFF" d="M710.7,459.4v59.9c0,0.7-0.5,1.3-1.3,1.3h-10.7c-0.7,0-1.3-0.5-1.3-1.3v-59.9c0-0.7,0.5-1.3,1.3-1.3h10.7
		C710.2,458.2,710.7,458.7,710.7,459.4z"/>
	<path fill="#FFFFFF" d="M761.1,459.1v60.2c0,0.6-0.5,1.3-1.3,1.3h-14.1c-0.7,0-1.4-0.6-1.6-1.3l-10.9-29.9v29.9
		c0,0.6-0.6,1.3-1.3,1.3h-10.7c-0.7,0-1.3-0.6-1.3-1.3v-60.2c0-0.7,0.5-1.3,1.3-1.3h13.3c0.6,0,1.1,0.5,1.3,1.3h0.1l11.9,34.6l0.2,1
		v-35.6c0-0.7,0.6-1.3,1.3-1.3H760C760.5,457.8,761.1,458.3,761.1,459.1z"/>
	<path fill="#FFFFFF" d="M791.7,497.6c-0.7,0-1.3-0.6-1.3-1.3v-10.7c0-0.7,0.5-1.3,1.3-1.3h17.8c0.7,0,1.4,0.5,1.4,1.3v27.3h-0.1
		c-0.1,0.5-0.4,1.1-0.9,1.6l-5,5c-1.1,1.1-2.4,1-2.4,1h-23.3c0,0-1.3,0.1-2.4-1l-5-5c-1.1-1.1-0.9-2.4-0.9-2.4l-0.1-0.1v-45.9h0.1
		c0,0-0.2-1.3,0.9-2.4l5-5c1.1-1.1,2.4-1,2.4-1h23.3c0,0,1.3-0.1,2.4,1l5,5c1.1,1.1,1,2.4,1,2.4h-0.1l0.1,0.1v9.5
		c0,0.6-0.6,1.3-1.4,1.3h-10.6c-0.7,0-1.3-0.6-1.3-1.3v-2.4c0,0,0-0.4-0.3-0.6l-1.6-1.6c-0.2-0.3-0.5-0.3-0.6-0.3h-8.7
		c-0.2,0-0.4,0-0.6,0.3l-1.5,1.6c-0.4,0.3-0.4,0.6-0.4,0.6v32c0.1,0.2,0.1,0.4,0.4,0.6l1.2,1.3H796l1.3-1.3c0.2-0.3,0.3-0.5,0.3-0.6
		v-7.9L791.7,497.6L791.7,497.6z"/>
</g>
</svg>
