<?xml version="1.0" encoding="utf-8"?>
<!-- Generator: Adobe Illustrator 17.1.0, SVG Export Plug-In . SVG Version: 6.00 Build 0)  -->
<!DOCTYPE svg PUBLIC "-//W3C//DTD SVG 1.1//EN" "http://www.w3.org/Graphics/SVG/1.1/DTD/svg11.dtd">
<svg version="1.1" id="Layer_2" xmlns="http://www.w3.org/2000/svg" xmlns:xlink="http://www.w3.org/1999/xlink" x="0px" y="0px"
	 viewBox="0 0 1190.6 841.9" enable-background="new 0 0 1190.6 841.9" xml:space="preserve">
<g>
	<polygon fill="#CF0A2C" points="543.5,347.9 522.5,347.9 522.5,195.1 533,185.9 543.5,195.1 	"/>
	<path fill="#085156" d="M543.5,350.4h-20.9c-1.2,0-2.3-1.1-2.3-2.3v-153c0-0.8,0.3-1.2,0.9-1.8l10.4-9.1c0.9-0.7,2.1-0.7,3.1,0
		l10.4,9.1c0.6,0.3,0.9,1.1,0.9,1.8v152.8C545.8,349.3,544.8,350.4,543.5,350.4z M524.8,345.5h16.1V196.2l-8-7.2l-8,7.2L524.8,345.5
		L524.8,345.5z"/>
</g>
<g>
	<polygon fill="#CF0A2C" points="663.8,347.9 642.9,347.9 642.9,195.1 653.5,185.9 663.8,195.1 	"/>
	<path fill="#085156" d="M663.8,350.4h-20.9c-1.2,0-2.3-1.1-2.3-2.3v-153c0-0.8,0.3-1.2,0.9-1.8l10.4-9.1c0.9-0.7,2.2-0.7,3.1,0
		l10.4,9.1c0.6,0.3,0.9,1.1,0.9,1.8v152.8C666.3,349.3,665.3,350.4,663.8,350.4z M645.4,345.5h16.1V196.2l-8-7.2l-8,7.2V345.5z"/>
</g>
<g>
	<circle fill="#FFFFFF" cx="533" cy="238.3" r="2.9"/>
</g>
<g>
	<circle fill="#FFFFFF" cx="653.5" cy="238.3" r="2.9"/>
</g>
<g>
	<path fill="#085156" d="M708.2,606.1H479.7c-1.2,0-2.3-1.1-2.3-2.3V398.2c0-1.2,1.1-2.3,2.3-2.3h228.4c1.2,0,2.3,1.1,2.3,2.3v205.7
		C710.5,605.1,709.4,606.1,708.2,606.1z M482.3,601.5h223.6v-201H482.3V601.5z"/>
</g>
<g>
	<rect x="479.7" y="241.1" fill="#6EDBD5" width="228.4" height="85.8"/>
	<path fill="#085156" d="M708.2,329.4H479.7c-1.2,0-2.3-1.1-2.3-2.3v-86c0-1.2,1.1-2.3,2.3-2.3h228.4c1.2,0,2.3,1.1,2.3,2.3v85.8
		C710.5,328.3,709.4,329.4,708.2,329.4z M482.3,324.8h223.6v-81.1H482.3V324.8z"/>
</g>
<g>
	<path fill="#085156" d="M708.2,402H479.7c-1.2,0-2.3-1.1-2.3-2.3v-71.1c0-1.2,1.1-2.3,2.3-2.3h228.4c1.2,0,2.3,1.1,2.3,2.3v71.1
		C710.5,400.9,709.4,402,708.2,402z M482.3,397.1h223.6v-66.5H482.3V397.1z"/>
</g>
<g>
	<rect x="492.8" y="328" fill="#085156" width="202.3" height="56.1"/>
	<path fill="#085156" d="M695,386.3H492.9c-1.2,0-2.3-1.1-2.3-2.3v-56.1c0-1.2,1.1-2.3,2.3-2.3h202.3c1.2,0,2.3,1.1,2.3,2.3V384
		C697.4,385.3,696.3,386.3,695,386.3z M495.3,381.7h197.4v-51.4H495.3V381.7z"/>
</g>
<g>
	<g>
		
			<rect x="479.8" y="405.4" transform="matrix(0.7071 0.7072 -0.7072 0.7071 429.8089 -225.859)" fill="#085156" width="15.4" height="0.9"/>
	</g>
	<g>
		
			<rect x="487.9" y="405.4" transform="matrix(0.707 0.7072 -0.7072 0.707 432.2617 -231.6136)" fill="#085156" width="15.4" height="0.9"/>
	</g>
	<g>
		
			<rect x="496.2" y="405.4" transform="matrix(0.7071 0.7072 -0.7072 0.7071 434.6291 -237.4228)" fill="#085156" width="15.4" height="0.9"/>
	</g>
	<g>
		
			<rect x="504.4" y="405.4" transform="matrix(0.7071 0.7072 -0.7072 0.7071 437.0229 -243.2436)" fill="#085156" width="15.4" height="0.9"/>
	</g>
	<g>
		
			<rect x="512.7" y="405.5" transform="matrix(0.7071 0.7071 -0.7071 0.7071 439.4571 -249.1333)" fill="#085156" width="15.4" height="0.9"/>
	</g>
	<g>
		
			<rect x="520.9" y="405.5" transform="matrix(0.7071 0.7072 -0.7072 0.7071 441.8881 -254.9196)" fill="#085156" width="15.4" height="0.9"/>
	</g>
	<g>
		
			<rect x="529.1" y="405.4" transform="matrix(0.7071 0.7072 -0.7072 0.7071 444.2825 -260.7394)" fill="#085156" width="15.4" height="0.9"/>
	</g>
	<g>
		
			<rect x="537.4" y="405.4" transform="matrix(0.7071 0.7071 -0.7071 0.7071 446.6365 -266.5963)" fill="#085156" width="15.4" height="0.9"/>
	</g>
	<g>
		
			<rect x="545.7" y="405.5" transform="matrix(0.7071 0.7071 -0.7071 0.7071 449.1071 -272.4505)" fill="#085156" width="15.4" height="0.9"/>
	</g>
	<g>
		
			<rect x="553.9" y="405.4" transform="matrix(0.707 0.7072 -0.7072 0.707 451.5683 -278.2499)" fill="#085156" width="15.4" height="0.9"/>
	</g>
	<g>
		
			<rect x="562.1" y="405.4" transform="matrix(0.7071 0.7072 -0.7072 0.7071 453.9358 -284.0571)" fill="#085156" width="15.4" height="0.9"/>
	</g>
	<g>
		
			<rect x="570.4" y="405.4" transform="matrix(0.7071 0.7071 -0.7071 0.7071 456.2865 -289.9144)" fill="#085156" width="15.4" height="0.9"/>
	</g>
	<g>
		
			<rect x="578.6" y="405.5" transform="matrix(0.7071 0.7072 -0.7072 0.7071 458.8011 -295.7321)" fill="#085156" width="15.4" height="0.9"/>
	</g>
	<g>
		
			<rect x="586.8" y="405.4" transform="matrix(0.707 0.7072 -0.7072 0.707 461.2217 -301.5676)" fill="#085156" width="15.4" height="0.9"/>
	</g>
	<g>
		
			<rect x="595.1" y="405.4" transform="matrix(0.7071 0.7071 -0.7071 0.7071 463.5433 -307.4104)" fill="#085156" width="15.4" height="0.9"/>
	</g>
	<g>
		
			<rect x="603.3" y="405.4" transform="matrix(0.7072 0.7071 -0.7071 0.7072 465.8719 -313.1637)" fill="#085156" width="15.4" height="0.9"/>
	</g>
	<g>
		
			<rect x="611.6" y="405.5" transform="matrix(0.7071 0.7072 -0.7072 0.7071 468.4548 -319.0483)" fill="#085156" width="15.4" height="0.9"/>
	</g>
	<g>
		
			<rect x="619.8" y="405.4" transform="matrix(0.7071 0.7072 -0.7072 0.7071 470.8483 -324.8701)" fill="#085156" width="15.4" height="0.9"/>
	</g>
	<g>
		
			<rect x="628" y="405.4" transform="matrix(0.7071 0.7072 -0.7072 0.7071 473.2418 -330.6919)" fill="#085156" width="15.4" height="0.9"/>
	</g>
	<g>
		
			<rect x="636.3" y="405.4" transform="matrix(0.7071 0.7071 -0.7071 0.7071 475.5684 -336.5184)" fill="#085156" width="15.4" height="0.9"/>
	</g>
	<g>
		
			<rect x="644.6" y="405.4" transform="matrix(0.7071 0.7071 -0.7071 0.7071 478.0386 -342.3731)" fill="#085156" width="15.4" height="0.9"/>
	</g>
	<g>
		
			<rect x="652.8" y="405.4" transform="matrix(0.707 0.7072 -0.7072 0.707 480.5468 -348.234)" fill="#085156" width="15.4" height="0.9"/>
	</g>
	<g>
		
			<rect x="661" y="405.4" transform="matrix(0.7071 0.7072 -0.7072 0.7071 482.8954 -354.0085)" fill="#085156" width="15.4" height="0.9"/>
	</g>
	<g>
		
			<rect x="669.2" y="405.4" transform="matrix(0.7071 0.7072 -0.7072 0.7071 485.2895 -359.8294)" fill="#085156" width="15.4" height="0.9"/>
	</g>
	<g>
		
			<rect x="677.5" y="405.4" transform="matrix(0.7071 0.7072 -0.7072 0.7071 487.7609 -365.6835)" fill="#085156" width="15.4" height="0.9"/>
	</g>
	<g>
		
			<rect x="685.8" y="405.4" transform="matrix(0.707 0.7072 -0.7072 0.707 490.2003 -371.5534)" fill="#085156" width="15.4" height="0.9"/>
	</g>
	<g>
		
			<rect x="694" y="405.4" transform="matrix(0.707 0.7072 -0.7072 0.707 492.5947 -377.3741)" fill="#085156" width="15.4" height="0.9"/>
	</g>
</g>
<g>
	<g>
		
			<rect x="701.2" y="398.1" transform="matrix(0.7062 0.708 -0.708 0.7062 493.4389 -377.5304)" fill="#085156" width="0.9" height="15.4"/>
	</g>
	<g>
		
			<rect x="693" y="398.1" transform="matrix(0.7062 0.708 -0.708 0.7062 491.0387 -371.7012)" fill="#085156" width="0.9" height="15.4"/>
	</g>
	<g>
		
			<rect x="684.7" y="398.1" transform="matrix(0.7062 0.708 -0.708 0.7062 488.638 -365.8729)" fill="#085156" width="0.9" height="15.4"/>
	</g>
	<g>
		
			<rect x="676.5" y="398.1" transform="matrix(0.7062 0.708 -0.708 0.7062 486.2379 -360.0435)" fill="#085156" width="0.9" height="15.4"/>
	</g>
	<g>
		
			<rect x="668.2" y="398.2" transform="matrix(0.7071 0.7071 -0.7071 0.7071 482.854 -353.9529)" fill="#085156" width="0.9" height="15.4"/>
	</g>
	<g>
		
			<rect x="659.9" y="398.1" transform="matrix(0.7071 0.7071 -0.7071 0.7071 480.383 -348.1)" fill="#085156" width="0.9" height="15.4"/>
	</g>
	<g>
		
			<rect x="651.7" y="398.1" transform="matrix(0.7071 0.7071 -0.7071 0.7071 477.99 -342.2787)" fill="#085156" width="0.9" height="15.4"/>
	</g>
	<g>
		
			<rect x="643.5" y="398.1" transform="matrix(0.7071 0.7071 -0.7071 0.7071 475.5966 -336.4589)" fill="#085156" width="0.9" height="15.4"/>
	</g>
	<g>
		
			<rect x="635.2" y="398.1" transform="matrix(0.7062 0.708 -0.708 0.7062 474.0794 -330.8361)" fill="#085156" width="0.9" height="15.4"/>
	</g>
	<g>
		
			<rect x="627" y="398.1" transform="matrix(0.7062 0.708 -0.708 0.7062 471.6792 -325.0071)" fill="#085156" width="0.9" height="15.4"/>
	</g>
	<g>
		
			<rect x="618.8" y="398.1" transform="matrix(0.7071 0.7071 -0.7071 0.7071 468.3395 -318.9643)" fill="#085156" width="0.9" height="15.4"/>
	</g>
	<g>
		
			<rect x="610.5" y="398.2" transform="matrix(0.7071 0.7071 -0.7071 0.7071 465.9464 -313.1436)" fill="#085156" width="0.9" height="15.4"/>
	</g>
	<g>
		
			<rect x="602.2" y="398.2" transform="matrix(0.7066 0.7076 -0.7076 0.7066 464.0331 -307.3829)" fill="#085156" width="0.9" height="15.4"/>
	</g>
	<g>
		
			<rect x="594" y="398.2" transform="matrix(0.7066 0.7076 -0.7076 0.7066 461.6359 -301.5588)" fill="#085156" width="0.9" height="15.4"/>
	</g>
	<g>
		
			<rect x="585.7" y="398.1" transform="matrix(0.7066 0.7076 -0.7076 0.7066 459.1605 -295.7026)" fill="#085156" width="0.9" height="15.4"/>
	</g>
	<g>
		
			<rect x="577.5" y="398.2" transform="matrix(0.7066 0.7076 -0.7076 0.7066 456.7635 -289.8781)" fill="#085156" width="0.9" height="15.4"/>
	</g>
	<g>
		
			<rect x="569.3" y="398.2" transform="matrix(0.7066 0.7076 -0.7076 0.7066 454.3662 -284.0537)" fill="#085156" width="0.9" height="15.4"/>
	</g>
	<g>
		
			<rect x="561.1" y="398.2" transform="matrix(0.7066 0.7076 -0.7076 0.7066 451.9691 -278.2295)" fill="#085156" width="0.9" height="15.4"/>
	</g>
	<g>
		
			<rect x="552.8" y="398.1" transform="matrix(0.7066 0.7076 -0.7076 0.7066 449.4941 -272.3727)" fill="#085156" width="0.9" height="15.4"/>
	</g>
	<g>
		
			<rect x="544.5" y="398.2" transform="matrix(0.7066 0.7076 -0.7076 0.7066 447.0968 -266.5488)" fill="#085156" width="0.9" height="15.4"/>
	</g>
	<g>
		
			<rect x="536.3" y="398.2" transform="matrix(0.7066 0.7076 -0.7076 0.7066 444.6999 -260.7241)" fill="#085156" width="0.9" height="15.4"/>
	</g>
	<g>
		
			<rect x="528.1" y="398.2" transform="matrix(0.7066 0.7076 -0.7076 0.7066 442.3027 -254.8997)" fill="#085156" width="0.9" height="15.4"/>
	</g>
	<g>
		
			<rect x="519.8" y="398.1" transform="matrix(0.7066 0.7076 -0.7076 0.7066 439.8274 -249.0436)" fill="#085156" width="0.9" height="15.4"/>
	</g>
	<g>
		
			<rect x="511.6" y="398.2" transform="matrix(0.7066 0.7076 -0.7076 0.7066 437.4303 -243.2193)" fill="#085156" width="0.9" height="15.4"/>
	</g>
	<g>
		
			<rect x="503.3" y="398.2" transform="matrix(0.7066 0.7076 -0.7076 0.7066 435.0335 -237.3941)" fill="#085156" width="0.9" height="15.4"/>
	</g>
	<g>
		
			<rect x="495.1" y="398.2" transform="matrix(0.7066 0.7076 -0.7076 0.7066 432.6361 -231.5701)" fill="#085156" width="0.9" height="15.4"/>
	</g>
	<g>
		
			<rect x="486.8" y="398.2" transform="matrix(0.7066 0.7076 -0.7076 0.7066 430.1609 -225.7139)" fill="#085156" width="0.9" height="15.4"/>
	</g>
</g>
<g>
	<rect x="522.5" y="399.2" fill="#CF0A2C" width="20.9" height="152.8"/>
	<path fill="#085156" d="M543.5,554.4h-20.9c-1.2,0-2.3-1.1-2.3-2.3V399.2c0-1.2,1.1-2.3,2.3-2.3h20.9c1.2,0,2.3,1.1,2.3,2.3v152.9
		C545.8,553.3,544.8,554.4,543.5,554.4z M524.8,549.6h16.1V401.4h-16.1V549.6z"/>
</g>
<g>
	<rect x="642.9" y="399.2" fill="#CF0A2C" width="20.9" height="152.8"/>
	<path fill="#085156" d="M663.8,554.4h-20.9c-1.2,0-2.3-1.1-2.3-2.3V399.2c0-1.2,1.1-2.3,2.3-2.3h20.9c1.2,0,2.3,1.1,2.3,2.3v152.9
		C666.3,553.3,665.3,554.4,663.8,554.4z M645.4,549.6h16.1V401.4h-16.1V549.6z"/>
</g>
<g>
	<polygon fill="#4F7F70" points="543.5,484.9 543.5,502.3 522.5,502.3 522.5,484.9 510.7,484.9 510.7,530.6 522.5,530.6 522.5,513 
		543.5,513 543.5,530.6 555.1,530.6 555.1,484.9 	"/>
	<path fill="#085156" d="M555.1,532.9h-11.7c-1.2,0-2.3-1.1-2.3-2.3v-15.2h-16.1v15.2c0,1.2-1.1,2.3-2.3,2.3h-11.7
		c-1.2,0-2.3-1.1-2.3-2.3v-45.7c0-1.2,1.1-2.3,2.3-2.3h11.7c1.2,0,2.3,1.1,2.3,2.3v14.9h16.1v-14.9c0-1.2,1.1-2.3,2.3-2.3h11.7
		c1.2,0,2.3,1.1,2.3,2.3v45.5C557.5,531.8,556.4,532.9,555.1,532.9z M545.8,528.2h6.9v-40.9h-6.9v14.9c0,1.2-1.1,2.3-2.3,2.3h-20.9
		c-1.2,0-2.3-1.1-2.3-2.3v-14.9h-6.9v40.9h6.9V513c0-1.2,1.1-2.3,2.3-2.3h20.9c1.2,0,2.3,1.1,2.3,2.3V528.2z"/>
</g>
<g>
	<polygon fill="#4F7F70" points="663.8,484.9 663.8,502.3 642.9,502.3 642.9,484.9 631.3,484.9 631.3,530.6 642.9,530.6 642.9,513 
		663.8,513 663.8,530.6 675.5,530.6 675.5,484.9 	"/>
	<path fill="#085156" d="M675.5,532.9h-11.7c-1.2,0-2.3-1.1-2.3-2.3v-15.2h-16.1v15.2c0,1.2-1.1,2.3-2.3,2.3h-11.7
		c-1.2,0-2.3-1.1-2.3-2.3v-45.7c0-1.2,1.1-2.3,2.3-2.3h11.7c1.2,0,2.3,1.1,2.3,2.3v14.9h16.1v-14.9c0-1.2,1.1-2.3,2.3-2.3h11.7
		c1.2,0,2.3,1.1,2.3,2.3v45.5C678.1,531.8,677,532.9,675.5,532.9z M666.3,528.2h6.9v-40.9h-6.9v14.9c0,1.2-1.1,2.3-2.3,2.3H643
		c-1.2,0-2.3-1.1-2.3-2.3v-14.9h-6.9v40.9h6.9V513c0-1.2,1.1-2.3,2.3-2.3H664c1.2,0,2.3,1.1,2.3,2.3V528.2z"/>
</g>
<g>
	<circle fill="#FFFFFF" cx="533" cy="426.1" r="2.9"/>
</g>
<g>
	<circle fill="#FFFFFF" cx="533" cy="441.9" r="2.9"/>
</g>
<g>
	<circle fill="#FFFFFF" cx="533" cy="457.7" r="2.9"/>
</g>
<g>
	<circle fill="#FFFFFF" cx="533" cy="206.9" r="2.9"/>
</g>
<g>
	<circle fill="#FFFFFF" cx="533" cy="222.6" r="2.9"/>
</g>
<g>
	<circle fill="#FFFFFF" cx="653.5" cy="206.9" r="2.9"/>
</g>
<g>
	<circle fill="#FFFFFF" cx="653.5" cy="222.6" r="2.9"/>
</g>
<g>
	<circle fill="#FFFFFF" cx="533" cy="473.4" r="2.9"/>
</g>
<g>
	<circle fill="#FFFFFF" cx="533" cy="489.2" r="2.9"/>
</g>
<g>
	<circle fill="#FFFFFF" cx="533" cy="523.8" r="2.9"/>
</g>
<g>
	<circle fill="#FFFFFF" cx="533" cy="539.6" r="2.9"/>
</g>
<g>
	<g>
		<circle fill="#FFFFFF" cx="653.5" cy="426.1" r="2.9"/>
	</g>
	<g>
		<circle fill="#FFFFFF" cx="653.5" cy="441.9" r="2.9"/>
	</g>
	<g>
		<circle fill="#FFFFFF" cx="653.5" cy="457.7" r="2.9"/>
	</g>
	<g>
		<circle fill="#FFFFFF" cx="653.5" cy="473.4" r="2.9"/>
	</g>
	<g>
		<circle fill="#FFFFFF" cx="653.5" cy="489.2" r="2.9"/>
	</g>
	<g>
		<circle fill="#FFFFFF" cx="653.5" cy="523.8" r="2.9"/>
	</g>
	<g>
		<circle fill="#FFFFFF" cx="653.5" cy="539.6" r="2.9"/>
	</g>
</g>
<g>
	<polygon fill="#FFFFFF" points="600.1,301.8 640.5,301.8 640.5,302 640.6,301.8 620.4,264.4 599.9,301.8 600.1,302 	"/>
	<path fill="#085156" d="M640.5,304.3c-0.3,0-0.6,0-0.9-0.2h-38.8c-0.9,0.3-2,0.2-2.5-0.6l-0.2-0.2c-0.8-0.7-0.9-1.8-0.3-2.6
		l20.4-37.5c0.3-0.7,1.2-1.2,2.2-1.2c1,0,1.7,0.6,2.2,1.2l20.4,37.5c0.6,0.9,0.3,2-0.3,2.6l-0.2,0.2
		C641.8,304.2,641.1,304.3,640.5,304.3z M603.9,299.5h32.7l-16.3-30.1L603.9,299.5z"/>
</g>
<g>
	<polygon fill="#085156" points="626.6,276.5 620.4,264.4 614.1,276.5 	"/>
	<path fill="#085156" d="M626.6,278.9H614c-0.9,0-1.7-0.3-2-1.1c-0.3-0.7-0.6-1.7,0-2.3l6.4-12.1c0.3-0.7,1.2-1.2,2.2-1.2
		c1,0,1.7,0.6,2.2,1.2l6.3,12.2c0.3,0.8,0.3,1.7,0,2.3C628.2,278.5,627.4,278.9,626.6,278.9z M617.9,274.2h4.9l-2.3-4.6L617.9,274.2
		z"/>
</g>
<g>
	<rect x="600.1" y="301.8" fill="#FFBF3B" width="40.3" height="82.2"/>
	<path fill="#085156" d="M640.5,386.6h-40.3c-1.2,0-2.3-1.1-2.3-2.3V302c0-1.2,1.1-2.3,2.3-2.3h40.3c1.2,0,2.3,1.1,2.3,2.3v82.2
		C642.9,385.4,641.8,386.6,640.5,386.6z M602.4,381.7H638v-77.6h-35.6V381.7z"/>
</g>
<g>
	<g>
		<path fill="#FFFFFF" d="M678.2,279.4c-2.6,0-4.9,2.1-4.9,4.9v9.8h-1.2v-15.2c0-2.6-2.2-4.9-4.9-4.9s-4.9,2.1-4.9,4.9v15.3h-1.2
			V279c0-2.6-2.2-4.9-4.9-4.9s-4.6,2.1-4.6,4.9v15.2h-1.4V294v-37.3c0-2.6-2.2-4.9-4.9-4.9s-4.6,2.1-4.6,4.9V294v0.2l0,0v0.7
			c-0.3,0.2-0.7,0.2-1.1,0.3v-13.4c0-2.9-2.3-5.1-5-5.1h-2.6c-1.2,0-2.3,1.1-2.3,2.3v2.9v28.1c0,0.2,0,0.2,0,0.3
			c0,7.2,4.9,13.4,11.2,15.4v8.6h41.9v-12.9v-27.2v-9.9C683,281.6,680.9,279.4,678.2,279.4z"/>
		<path fill="#085156" d="M683,336.7h-42.1c-1.2,0-2.3-1.1-2.3-2.3v-6.9c-6.8-2.9-11.2-9.5-11.2-17.2c0-0.2,0-0.2,0-0.3v-31
			c0-2.5,2.2-4.6,4.6-4.6h2.9c1.4,0,2.6,0.3,4,1.1v-18.9c0-4,3.2-7.2,7.2-7.2c4,0,7.2,3.2,7.2,7.2v16.1c1.1-0.8,2.3-1.1,3.7-1.1
			c2.2,0,4.1,0.9,5.4,2.5c1.2-1.7,3.2-2.5,5.4-2.5c3.7,0,6.8,2.9,7.2,6.5c1.1-0.8,2.3-1.1,3.7-1.1c4,0,7.2,3.2,7.2,7.2v50.2
			C685.3,335.7,684.3,336.7,683,336.7z M643.2,332.1h37.3v-47.8c0-1.2-1.1-2.3-2.3-2.3c-1.2,0-2.3,1.1-2.3,2.3v9.8
			c0,1.2-1.1,2.3-2.3,2.3h-1.2c-1.2,0-2.3-1.1-2.3-2.3v-15.2c0-1.2-1.1-2.3-2.3-2.3s-2.3,1.1-2.3,2.3v15.3c0,1.2-1.1,2.3-2.3,2.3
			h-1.2c-1.2,0-2.3-1.1-2.3-2.3V279c0-1.2-1.1-2.3-2.3-2.3s-2.3,1.1-2.3,2.3v15.2c0,1.2-1.1,2.3-2.3,2.3h-1.4
			c-0.7,0-1.2-0.2-1.8-0.7c-0.6-0.6-0.7-1.1-0.7-1.8v-0.2v-37.1c0-1.2-1.1-2.3-2.3-2.3s-2.3,1.1-2.3,2.3v37v0.2c0,0.2,0,0.3,0,0.3
			v0.6c0,1.1-0.8,2-1.7,2.3c-0.3,0.2-0.7,0.2-0.9,0.3c-0.7,0.3-1.7,0.2-2.2-0.2c-0.7-0.3-1.1-1.2-1.1-2v-13.4c0-1.4-1.2-2.6-2.6-2.6
			h-3.4v30.8c0,0.2,0,0.2,0,0.3c0,6.1,4,11.5,9.7,13.2c0.9,0.3,1.7,1.2,1.7,2.3v6.3H643.2z"/>
	</g>
	<g>
		<rect x="640.9" y="334.3" fill="#CF0A2C" width="41.9" height="49.8"/>
		<path fill="#085156" d="M683,386.6h-42.1c-1.2,0-2.3-1.1-2.3-2.3v-49.8c0-1.2,1.1-2.3,2.3-2.3h41.9c1.2,0,2.3,1.1,2.3,2.3v49.8
			C685.3,385.4,684.3,386.6,683,386.6z M643.2,381.7h37.3v-45h-37.3V381.7z"/>
	</g>
</g>
<g>
	<path fill="#085156" d="M480.1,584.9h-79.6c-1.2,0-2.3-1.1-2.3-2.3s1.1-2.3,2.3-2.3H480c1.2,0,2.3,1.1,2.3,2.3
		C482.4,583.8,481.3,584.9,480.1,584.9z"/>
</g>
<g>
	<path fill="#085156" d="M791.1,580.3h-82.6c-1.2,0-2.3-1.1-2.3-2.3s1.1-2.3,2.3-2.3h82.6c1.2,0,2.3,1.1,2.3,2.3
		S792.4,580.3,791.1,580.3z"/>
</g>
<g>
	<path fill="#085156" d="M831.1,618.5h-82.5c-1.2,0-2.3-1.1-2.3-2.3s1.1-2.3,2.3-2.3h82.5c1.2,0,2.3,1.1,2.3,2.3
		C833.4,617.5,832.3,618.5,831.1,618.5z"/>
</g>
<g>
	<path fill="#085156" d="M441.9,624.2h-82.5c-1.2,0-2.3-1.1-2.3-2.3s1.1-2.3,2.3-2.3h82.5c1.2,0,2.3,1.1,2.3,2.3
		C444.5,623.2,443.4,624.2,441.9,624.2z"/>
</g>
<g>
	<path fill="#085156" d="M723.7,653.7h-82.6c-1.2,0-2.3-1.1-2.3-2.3s1.1-2.3,2.3-2.3h82.6c1.2,0,2.3,1.1,2.3,2.3
		S724.9,653.7,723.7,653.7z"/>
</g>
<g>
	<rect x="501.6" y="264.4" fill="#4F7F70" width="98.3" height="119.8"/>
	<path fill="#085156" d="M599.8,386.6h-98.3c-1.2,0-2.3-1.1-2.3-2.3V264.4c0-1.2,1.1-2.3,2.3-2.3h98.3c1.2,0,2.3,1.1,2.3,2.3v119.8
		C602.1,385.4,601,386.6,599.8,386.6z M503.9,381.9h93.6v-115H504L503.9,381.9L503.9,381.9z"/>
</g>
<g>
	<circle fill="#6EDBD5" cx="551.1" cy="306.6" r="15.2"/>
	<path fill="#085156" d="M551.1,324.3c-9.7,0-17.5-7.8-17.5-17.5s7.8-17.5,17.5-17.5c9.7,0,17.5,7.8,17.5,17.5
		S560.7,324.3,551.1,324.3z M551.1,294c-6.9,0-12.7,5.7-12.7,12.7c0,6.9,5.7,12.7,12.7,12.7c6.9,0,12.7-5.7,12.7-12.7
		C563.7,299.7,558,294,551.1,294z"/>
</g>
<g>
	<path fill="#6EDBD5" d="M517.7,381.6c0-18.4,14.9-33.3,33.3-33.3s33.3,14.9,33.3,33.3"/>
	<path fill="#085156" d="M584.4,383.9c-1.2,0-2.3-1.1-2.3-2.3c0-17-14-31-31-31c-17,0-31,14-31,31c0,1.2-1.1,2.3-2.3,2.3
		c-1.2,0-2.3-1.1-2.3-2.3c0-19.7,16-35.6,35.6-35.6s35.6,16,35.6,35.6C586.7,382.8,585.6,383.9,584.4,383.9z"/>
</g>
<g>
	<circle fill="#6EDBD5" cx="551.1" cy="306.6" r="4.9"/>
	<path fill="#085156" d="M551.1,313.8c-4,0-7.2-3.2-7.2-7.2s3.2-7.2,7.2-7.2s7.2,3.2,7.2,7.2S554.9,313.8,551.1,313.8z M551.1,304.3
		c-1.2,0-2.5,1.1-2.5,2.5c0,1.4,1.1,2.5,2.5,2.5c1.2,0,2.5-1.1,2.5-2.5C553.5,305.4,552.5,304.3,551.1,304.3z"/>
</g>
</svg>
