<?xml version="1.0" encoding="utf-8"?>
<!-- Generator: Adobe Illustrator 16.0.0, SVG Export Plug-In . SVG Version: 6.00 Build 0)  -->
<!DOCTYPE svg PUBLIC "-//W3C//DTD SVG 1.1//EN" "http://www.w3.org/Graphics/SVG/1.1/DTD/svg11.dtd">
<svg version="1.1" xmlns="http://www.w3.org/2000/svg" xmlns:xlink="http://www.w3.org/1999/xlink" x="0px" y="0px" width="1080px"
	 height="720px" viewBox="0 0 1080 720" enable-background="new 0 0 1080 720" xml:space="preserve">
<g id="Layer_1">
	<g id="Layer_2_1_">
		<rect x="0.013" fill="#F9F8F8" width="1080" height="720"/>
	</g>
</g>
<g id="Layer_2">
	<g>
		<g>
			<g>
				<path fill="#FFB4AA" d="M437.514,504.155l3.289-4.847c1.742,1.741,4.414,3.183,7.743,3.183c2.103,0,3.408-0.717,3.408-1.912
					c0-3.185-13.653-0.548-13.653-9.841c0-4.045,3.408-7.669,9.596-7.669c3.865,0,7.229,1.154,9.801,3.361l-3.404,4.668
					c-2.02-1.702-4.662-2.529-7.046-2.529c-1.807,0-2.607,0.608-2.607,1.662c0,2.967,13.634,0.726,13.634,9.698
					c0,4.85-3.584,8.065-10.057,8.065C443.336,507.995,439.938,506.437,437.514,504.155z"/>
			</g>
			<g>
				<path fill="#FFB4AA" d="M470.211,507.551v-24.125h17.688v5.438h-11.471v3.762h11.215v5.425h-11.215v4.09h11.471v5.411H470.211z"
					/>
			</g>
			<g>
				<path fill="#FFB4AA" d="M518.961,507.551l-3.653-15.113l-3.65,15.113h-6.583l-6.908-24.125h6.981l3.652,16.104l4.126-16.104
					h4.769l4.128,16.104l3.622-16.104h7.015l-6.914,24.125H518.961z"/>
			</g>
		</g>
		<g>
			<g>
				<path fill="#FFB4AA" d="M545.547,504.155l3.285-4.847c1.739,1.741,4.425,3.183,7.751,3.183c2.09,0,3.397-0.717,3.397-1.912
					c0-3.185-13.639-0.548-13.639-9.841c0-4.045,3.402-7.669,9.586-7.669c3.869,0,7.234,1.154,9.795,3.361l-3.391,4.668
					c-2.025-1.702-4.667-2.529-7.061-2.529c-1.815,0-2.601,0.608-2.601,1.662c0,2.967,13.636,0.726,13.636,9.698
					c0,4.85-3.579,8.065-10.053,8.065C551.373,507.995,547.971,506.437,545.547,504.155z"/>
			</g>
			<g>
				<path fill="#FFB4AA" d="M578.244,507.551v-24.125h17.686v5.438h-11.46v3.762h11.201v5.425H584.47v4.09h11.46v5.411H578.244z"/>
			</g>
			<g>
				<path fill="#FFB4AA" d="M626.994,507.551l-3.65-15.113l-3.659,15.113h-6.581l-6.907-24.125h6.983l3.652,16.104l4.125-16.104
					h4.767l4.119,16.104l3.627-16.104h7.016l-6.907,24.125H626.994z"/>
			</g>
		</g>
	</g>
	<g>
		<g>
			<path fill="#FFB4AA" d="M537.521,398.379c0,21.291,1.953,41.172,2.729,48.22c0.668-7.809,2.502-30.906,2.502-48.23v-26.655h-5.23
				V398.379z"/>
		</g>
		<g>
			<g>
				<path fill="#FFB4AA" d="M540.05,246.555c-35.048,0-63.574,28.535-63.574,63.589c0,35.069,28.526,63.571,63.574,63.571
					c35.072,0,63.591-28.517,63.591-63.571C603.641,275.09,575.122,246.555,540.05,246.555z M540.05,370.602
					c-33.333,0-60.451-27.133-60.451-60.458c0-33.341,27.118-60.455,60.451-60.455c33.345,0,60.474,27.114,60.474,60.455
					C600.523,343.469,573.395,370.602,540.05,370.602z"/>
			</g>
		</g>
		<g>
			<g>
				<path fill="#FFB4AA" d="M540.05,364.261c-29.829,0-54.12-24.273-54.12-54.128c0-29.836,24.291-54.122,54.12-54.122
					c29.862,0,54.145,24.286,54.145,54.122C594.194,339.987,569.912,364.261,540.05,364.261z M540.05,256.928
					c-29.326,0-53.196,23.874-53.196,53.205c0,29.34,23.87,53.222,53.196,53.222c29.356,0,53.229-23.882,53.229-53.222
					C593.278,280.802,569.406,256.928,540.05,256.928z"/>
			</g>
		</g>
		<g>
			<polygon fill="#FFB4AA" points="537.445,335.001 542.672,334.828 542.672,284.918 537.445,284.918 			"/>
		</g>
		<g>
			<g>
				<path fill="#FFB4AA" d="M540.05,301.889c2.525,0,4.881-0.974,6.669-2.763c1.763-1.773,2.751-4.14,2.751-6.656
					c0-2.503-0.988-4.865-2.751-6.633c-3.553-3.544-9.745-3.563-13.311,0c-3.649,3.675-3.649,9.631,0,13.289
					C535.192,300.915,537.543,301.889,540.05,301.889z M535.613,288.035c1.19-1.187,2.764-1.834,4.447-1.834
					c1.676,0,3.246,0.647,4.443,1.834c1.18,1.192,1.84,2.772,1.84,4.435c0,1.688-0.66,3.254-1.84,4.454
					c-2.373,2.374-6.509,2.374-8.891,0.008C533.164,294.479,533.164,290.486,535.613,288.035z"/>
			</g>
		</g>
		<g>
			<g>
				<path fill="#FFB4AA" d="M533.408,321.064c-1.764,1.774-2.75,4.136-2.75,6.644c0,2.521,0.986,4.875,2.75,6.642
					c1.784,1.765,4.135,2.757,6.652,2.757c2.515,0,4.863-0.992,6.641-2.757c1.777-1.767,2.769-4.121,2.769-6.642
					c0-2.508-0.988-4.869-2.76-6.644C543.166,317.505,536.96,317.505,533.408,321.064z M544.504,332.143
					c-2.381,2.382-6.529,2.367-8.891,0c-1.182-1.185-1.837-2.755-1.837-4.435c0-1.685,0.655-3.265,1.837-4.44
					c1.186-1.19,2.764-1.853,4.447-1.853c1.671,0,3.256,0.662,4.443,1.853c1.19,1.176,1.84,2.756,1.84,4.44
					C546.344,329.388,545.684,330.958,544.504,332.143z"/>
			</g>
		</g>
		<g>
			<g>
				<path fill="#FFB4AA" d="M529.094,302.792c-3.548-3.554-9.743-3.563-13.293,0c-3.664,3.669-3.664,9.627,0,13.303
					c1.775,1.771,4.137,2.752,6.643,2.752c2.511,0,4.877-0.981,6.65-2.752c1.782-1.774,2.759-4.148,2.759-6.647
					C531.853,306.932,530.876,304.567,529.094,302.792z M526.879,313.884c-2.357,2.376-6.5,2.376-8.873,0
					c-2.441-2.445-2.459-6.424,0-8.883c1.188-1.196,2.761-1.835,4.449-1.835c1.678,0,3.252,0.639,4.442,1.835
					c1.18,1.184,1.835,2.751,1.835,4.446C528.732,311.119,528.077,312.697,526.879,313.884z"/>
			</g>
		</g>
		<g>
			<g>
				<path fill="#FFB4AA" d="M551.024,302.792c-1.773,1.775-2.752,4.149-2.752,6.655c0,2.499,0.979,4.873,2.752,6.636
					c1.773,1.782,4.126,2.764,6.648,2.764c2.516,0,4.867-0.981,6.646-2.752c3.654-3.676,3.654-9.634,0-13.303
					C560.771,299.238,554.571,299.238,551.024,302.792z M562.12,313.884c-2.38,2.369-6.52,2.369-8.883,0
					c-1.199-1.187-1.845-2.765-1.845-4.437c0-1.695,0.646-3.263,1.845-4.462c1.178-1.169,2.759-1.829,4.436-1.829
					c1.675,0,3.26,0.66,4.447,1.829C564.568,307.453,564.568,311.445,562.12,313.884z"/>
			</g>
		</g>
		<g>
			<path fill="#FFB4AA" d="M543.582,191.006c-0.098-2.16-0.17-4.024-3.232-4.024h-0.414c-3.062,0-3.146,1.864-3.25,4.024
				c-0.014,0.547-0.068,1.66-0.156,3.043c-0.107,1.849-0.25,4.286-0.364,6.524c-0.119,2.431-0.198,4.626-0.155,5.601
				c0.033,0.906,0.245,3.796,0.479,7.116c0.444,6.052,0.985,13.577,0.985,15.896v18.978h5.331v-18.978
				c0-2.323,0.551-9.917,0.993-16.03c0.227-3.259,0.447-6.076,0.469-6.982c0.085-1.938-0.308-8.603-0.532-12.594
				C543.659,192.42,543.608,191.496,543.582,191.006z M541.527,213.992c0,0.773-0.629,1.404-1.414,1.404
				c-0.777,0-1.407-0.631-1.407-1.404v-13.419v-5.954v-2.404c0-0.773,0.63-1.396,1.407-1.396c0.785,0,1.414,0.623,1.414,1.396
				V213.992z"/>
		</g>
		<g>
			<path fill="#FFB4AA" d="M539.419,399.71c-19.389,0.009-37.836-5.462-48.06-12.308c-0.496-0.318-0.614-0.98-0.304-1.477
				c0.328-0.477,0.992-0.621,1.486-0.29c13.362,8.949,41.157,15.448,66.366,9.932c16.476-3.626,29.089-11.94,36.502-24.062
				c8.044-13.143,8.803-27.328,2.051-38.908c-8.193-14.069-25.436-22.026-46.135-21.33c-0.554,0.018-1.075-0.446-1.104-1.039
				c-0.024-0.583,0.439-1.073,1.036-1.09c21.477-0.718,39.446,7.641,48.038,22.386c7.15,12.274,6.408,27.251-2.063,41.089
				c-7.725,12.623-20.821,21.28-37.872,25.02C552.789,399.08,546.041,399.71,539.419,399.71z"/>
		</g>
		<g>
			<path fill="#FFB4AA" d="M529.094,316.095c1.782-1.774,2.759-4.148,2.759-6.647c0-2.516-0.977-4.88-2.759-6.655l-2.196,2.209
				c1.18,1.184,1.835,2.751,1.835,4.446c0,1.672-0.655,3.25-1.854,4.437L529.094,316.095z"/>
		</g>
		<g>
			<path fill="#FFB4AA" d="M553.237,313.884c-1.199-1.187-1.845-2.765-1.845-4.437c0-1.695,0.646-3.263,1.845-4.462l-2.213-2.193
				c-1.773,1.775-2.752,4.149-2.752,6.655c0,2.499,0.979,4.873,2.752,6.636"/>
		</g>
		<g>
			<path fill="#FFB4AA" d="M529.723,311.647h-0.007c-28.864-0.281-49.854-11.013-57.593-29.446
				c-6.322-15.067-2.463-33.078,9.836-45.887c4.272-4.132,8.828-7.863,13.43-11.218c6.167-8.101,14.303-16.047,24.918-22.183
				c11.736-6.811,16.834-6.59,18.831-5.84c1.128,0.296,2.81,1.724,3.014,3.432c0.129,1.089-0.265,2.65-2.835,3.863l-0.117,0.051
				c-0.264,0.074-21.781,7.325-42.309,22.197c-13.915,18.436-17.525,37.691-17.576,37.959c-0.098,0.568-0.656,0.963-1.238,0.865
				c-0.578-0.111-0.968-0.667-0.854-1.234c0.039-0.262,3.042-16.321,14.107-33.316c-2.692,2.165-5.332,4.472-7.858,6.931
				c-11.697,12.169-15.391,29.278-9.391,43.562c7.407,17.605,27.69,27.866,55.652,28.133c0.583,0.014,1.057,0.494,1.042,1.082
				C530.775,311.177,530.307,311.647,529.723,311.647z M536.773,198.838c-2.293,0-6.867,0.96-15.402,5.908
				c-7.848,4.537-14.295,10.086-19.572,15.942c18.207-11.876,35.454-17.848,36.664-18.282c0.661-0.307,1.65-0.908,1.584-1.646
				c-0.094-0.792-1.118-1.552-1.439-1.621l-0.145-0.049C538.167,198.969,537.624,198.838,536.773,198.838z"/>
		</g>
	</g>
</g>
</svg>
