<?xml version="1.0" encoding="utf-8"?>
<!-- Generator: Adobe Illustrator 16.0.0, SVG Export Plug-In . SVG Version: 6.00 Build 0)  -->
<!DOCTYPE svg PUBLIC "-//W3C//DTD SVG 1.1//EN" "http://www.w3.org/Graphics/SVG/1.1/DTD/svg11.dtd">
<svg version="1.1" xmlns="http://www.w3.org/2000/svg" xmlns:xlink="http://www.w3.org/1999/xlink" x="0px" y="0px" width="1080px"
	 height="720px" viewBox="0 0 1080 720" enable-background="new 0 0 1080 720" xml:space="preserve">
<g id="Layer_1">
	<g id="Layer_2_1_">
		<rect x="0.013" fill="#FFB4AA" width="1080" height="720"/>
	</g>
</g>
<g id="Layer_2">
	<path fill="none" stroke="#FFFAF1" stroke-miterlimit="10" d="M834.037,441.405l-88.464-172.633l23.868-46.581
		c0.089-0.169,0.152-0.349,0.233-0.52c0.092-0.197,0.186-0.398,0.268-0.601c0.096-0.235,0.178-0.467,0.261-0.709
		c0.075-0.212,0.148-0.428,0.212-0.646c0.071-0.237,0.127-0.477,0.184-0.714c0.054-0.228,0.107-0.453,0.151-0.681
		c0.044-0.236,0.077-0.472,0.109-0.708c0.031-0.242,0.065-0.484,0.086-0.727c0.021-0.217,0.024-0.431,0.033-0.647
		c0.009-0.195,0.031-0.387,0.031-0.585c0-22.952-18.672-41.625-41.624-41.625c-22.956,0-41.631,18.672-41.631,41.625
		c0,2.313,0.562,4.611,1.584,6.569l23.849,46.545l-78.092,152.398l-78.116-152.452l23.645-46.143
		c0.041-0.076,0.079-0.152,0.117-0.229l0.087-0.168c0.021-0.042,0.035-0.088,0.06-0.134c0.187-0.377,0.363-0.767,0.516-1.161
		c0.02-0.046,0.035-0.094,0.054-0.139c0.152-0.406,0.289-0.823,0.407-1.243c0.008-0.034,0.016-0.068,0.024-0.099
		c0.115-0.431,0.211-0.868,0.288-1.314c0.002-0.009,0.005-0.019,0.009-0.031c0.129-0.781,0.216-1.581,0.216-2.399
		c0-22.952-18.681-41.625-41.642-41.625c-22.943,0-41.611,18.672-41.611,41.625c0,2.294,0.552,4.571,1.597,6.595l23.829,46.501
		L446.48,421.167l-78.109-152.448l23.843-46.527c0.079-0.155,0.139-0.314,0.208-0.468c0.104-0.223,0.21-0.445,0.303-0.676
		c0.083-0.211,0.16-0.419,0.231-0.632c0.083-0.241,0.168-0.481,0.241-0.73c0.059-0.206,0.111-0.418,0.162-0.627
		c0.062-0.255,0.121-0.51,0.168-0.766c0.039-0.208,0.067-0.414,0.097-0.618c0.037-0.272,0.073-0.542,0.096-0.818
		c0.015-0.184,0.023-0.368,0.028-0.555c0.01-0.213,0.036-0.429,0.036-0.647c0-22.952-18.672-41.625-41.622-41.625
		c-22.955,0-41.631,18.672-41.631,41.625c0,2.327,0.566,4.634,1.585,6.569l23.844,46.539l-88.494,172.693
		c-3.577,7.064-0.753,15.747,6.375,19.394c2.01,1.007,4.249,1.537,6.479,1.537c5.438,0,10.354-3.004,12.828-7.839l79.007-154.183
		l78.285,152.776l-23.84,46.531c-0.049,0.095-0.086,0.197-0.132,0.291c-0.148,0.309-0.29,0.616-0.416,0.934
		c-0.049,0.12-0.09,0.241-0.135,0.362c-0.121,0.333-0.232,0.669-0.333,1.016c-0.031,0.105-0.055,0.21-0.081,0.32
		c-0.094,0.359-0.176,0.721-0.245,1.09c-0.013,0.082-0.023,0.167-0.038,0.247c-0.062,0.397-0.111,0.796-0.14,1.2
		c-0.005,0.034-0.005,0.067-0.008,0.103c-0.021,0.323-0.048,0.647-0.048,0.976c0,22.956,18.673,41.631,41.627,41.631
		c11.108,0,21.56-4.332,29.43-12.203c7.873-7.875,12.2-18.326,12.192-29.428c0-2.226-0.529-4.464-1.583-6.569L462.844,453.1
		l78.093-152.417l78.112,152.45l-23.846,46.54c-0.092,0.178-0.161,0.365-0.246,0.548c-0.084,0.187-0.171,0.371-0.249,0.561
		c-0.099,0.243-0.186,0.484-0.268,0.73c-0.073,0.209-0.145,0.417-0.208,0.632c-0.071,0.237-0.129,0.477-0.188,0.717
		c-0.051,0.227-0.108,0.453-0.15,0.685c-0.043,0.23-0.074,0.461-0.105,0.692c-0.034,0.245-0.069,0.491-0.09,0.742
		c-0.018,0.21-0.023,0.421-0.031,0.628c-0.01,0.201-0.03,0.4-0.03,0.604c0,22.956,18.67,41.631,41.616,41.631
		c22.956,0,41.631-18.675,41.631-41.631c0-2.279-0.547-4.552-1.584-6.569l-23.846-46.544l78.091-152.408l78.836,153.851
		c2.477,4.843,7.392,7.847,12.832,7.847c2.229,0,4.471-0.53,6.566-1.58C834.84,457.187,837.652,448.496,834.037,441.405z
		 M635.254,519.017c-6.08,0-11.174-4.271-12.469-9.97l12.476-24.35l12.481,24.357C646.431,514.734,641.281,519.017,635.254,519.017z
		 M455.701,515.261c-2.421,2.425-5.638,3.756-9.049,3.756c-6.082,0-11.178-4.264-12.477-9.962l12.478-24.353l12.49,24.377
		C458.622,511.402,457.455,513.505,455.701,515.261z M352.164,202.85c6.079,0,11.174,4.269,12.467,9.964l-12.475,24.35
		l-12.481-24.353C340.986,207.134,346.138,202.85,352.164,202.85z M540.76,202.85c6.084,0,11.181,4.263,12.483,9.948l-12.477,24.353
		l-12.476-24.34C529.603,207.134,534.745,202.85,540.76,202.85z M729.386,202.85c6.081,0,11.178,4.269,12.475,9.964l-12.481,24.356
		l-12.483-24.359C718.207,207.134,723.358,202.85,729.386,202.85z"/>
</g>
</svg>
