<?xml version="1.0" encoding="utf-8"?>
<!-- Generator: Adobe Illustrator 16.2.1, SVG Export Plug-In . SVG Version: 6.00 Build 0)  -->
<!DOCTYPE svg PUBLIC "-//W3C//DTD SVG 1.1//EN" "http://www.w3.org/Graphics/SVG/1.1/DTD/svg11.dtd">
<svg version="1.1" id="Layer_1" xmlns="http://www.w3.org/2000/svg" xmlns:xlink="http://www.w3.org/1999/xlink" x="0px" y="0px"
	 width="64px" height="108px" viewBox="0 0 64 108" enable-background="new 0 0 64 108" xml:space="preserve">
<polygon fill="#1CCFC9" points="48.002,17.998 32.001,9.001 32.001,9.001 32.001,27 48.002,36 "/>
<polygon fill="#FFFFFF" points="32.001,9.001 48.002,17.998 63.998,9.001 48.002,0 "/>
<polygon fill="#004E59" points="48.002,36 64,27 64,9.001 63.998,9.001 48.002,17.998 "/>
<polygon fill="#AFB5B8" points="16.004,17.998 0.002,9.001 0.002,9.001 0.002,27.001 16.004,36 "/>
<polygon fill="#FFFFFE" points="0.002,9.001 16.004,17.998 31.997,9.001 16.004,0 "/>
<polygon fill="#7D868C" points="16.004,36 32.001,27.001 32.001,9.001 31.997,9.001 16.004,17.998 "/>
<polygon fill="#808081" points="31.999,81 47.999,72 63.998,81 63.998,99 47.999,108 31.999,99 "/>
<polygon fill="#B2B2B2" points="0,81 16,72 31.999,81 31.999,99 16,108 0,99 "/>
</svg>
