<?xml version="1.0" encoding="utf-8"?>
<!-- Generator: Adobe Illustrator 16.0.0, SVG Export Plug-In . SVG Version: 6.00 Build 0)  -->
<!DOCTYPE svg PUBLIC "-//W3C//DTD SVG 1.1//EN" "http://www.w3.org/Graphics/SVG/1.1/DTD/svg11.dtd">
<svg version="1.1" id="Layer_1" xmlns="http://www.w3.org/2000/svg" xmlns:xlink="http://www.w3.org/1999/xlink" x="0px" y="0px"
	 width="1080px" height="720px" viewBox="0 0 1080 720" enable-background="new 0 0 1080 720" xml:space="preserve">
<g id="Layer_2_1_">
	<rect x="0.013" fill="#F9F8F8" width="1080" height="720"/>
</g>
<g id="Layer_2">
	<ellipse fill="#E3E3E3" cx="303.608" cy="451.604" rx="83.877" ry="16.104"/>
	<g>
		<path fill="#525349" d="M284.566,252.035c0,0,17.746,14.047,38.007,0v9.442v12.768l-26.048,5.791l-16.456-8.534L284.566,252.035z"
			/>
	</g>
	<g>
		<path fill="#FFC627" d="M278.168,261.477c0,0-32.303,10.968-35.04,11.885c-2.742,0.913-14.319,4.57-18.587,12.795
			c-4.264,8.228-22.852,49.056-22.852,49.056c13.408,10.055,31.382,10.664,31.382,10.664l7.007-15.843l11.883,112.428
			c19.177,4.336,36.678,5.931,51.644,6.081l0,0c14.969-0.15,32.467-1.745,51.646-6.081l11.882-112.428l7.008,15.843
			c0,0,17.977-0.609,31.382-10.664c0,0-18.585-40.828-22.852-49.056c-4.265-8.225-15.844-11.882-18.585-12.795
			c-2.741-0.917-35.038-11.885-35.038-11.885s-5.816,12.361-24.807,12.564C283.423,274.262,278.168,261.477,278.168,261.477z"/>
	</g>
	<g>
		<path fill="#FFFFFF" d="M206.526,324.632c-4.265,8.226-4.836,10.582-4.836,10.582c13.408,10.055,31.382,10.664,31.382,10.664
			l4.697-10.624L206.526,324.632z"/>
	</g>
	<g>
		<path fill="#FFFFFF" d="M400.688,324.632c4.266,8.226,4.837,10.582,4.837,10.582c-13.406,10.055-31.382,10.664-31.382,10.664
			l-4.699-10.624L400.688,324.632z"/>
	</g>
	<g>
		<line fill="none" x1="303.606" y1="275.497" x2="303.606" y2="275.497"/>
	</g>
	<g>
		<path fill="#FFFFFF" d="M303.606,275.497c-0.152-7.014-6.548-10.972-12.036-14.932c-5.48-3.96-7.005-8.531-7.005-8.531
			l-6.397,9.442C278.168,261.477,283.671,275.497,303.606,275.497z"/>
	</g>
	<g>
		<path fill="#FFFFFF" d="M303.531,275.497c0.154-7.014,6.55-10.972,12.034-14.932c5.486-3.96,7.008-8.531,7.008-8.531l6.396,9.442
			C328.969,261.477,323.465,275.497,303.531,275.497z"/>
	</g>
	<g>
		<rect x="302.92" y="275.497" fill="#94938D" width="1.22" height="27.39"/>
	</g>
	<g>
		<rect x="302.312" y="275.497" fill="#72726A" width="2.438" height="5.754"/>
	</g>
	<g>
		<path fill="#FFDC87" d="M366.83,330.034l1.522-20.141c0,0-10.662,20.109-11.272,57.585c-0.609,37.477-11.885,65.51-11.885,65.51
			l9.755,9.475L366.83,330.034z"/>
	</g>
	<g>
		<path fill="#FFEDC2" d="M238.854,309.958l-0.595-0.134c7.566-33.579,39.457-48.478,39.781-48.625l0.255,0.558
			C277.972,261.899,246.35,276.681,238.854,309.958z"/>
	</g>
	<g>
		<path fill="#FFEDC2" d="M368.282,309.958c-7.498-33.288-39.118-48.059-39.436-48.201l0.25-0.558
			c0.322,0.147,32.217,15.046,39.782,48.625L368.282,309.958z"/>
	</g>
	<g>
		<path fill="#FFDC87" d="M240.079,330.034l-1.521-20.141c0,0,10.662,20.109,11.271,57.585c0.612,37.477,11.884,65.51,11.884,65.51
			l-9.75,9.475L240.079,330.034z"/>
	</g>
	<path fill="#E3E3E3" d="M456.302,451.604c0,8.894,37.557,16.104,83.877,16.104c46.327,0,83.878-7.211,83.878-16.104
		s-37.551-16.104-83.878-16.104C493.857,435.498,456.302,442.71,456.302,451.604z"/>
	<g>
		<path fill="#525349" d="M521.136,252.035c0,0,17.746,14.047,38.006,0v9.442v12.768l-26.047,5.791l-16.456-8.534L521.136,252.035z"
			/>
	</g>
	<g>
		<path fill="#65C9EC" d="M514.739,261.477c0,0-32.304,10.968-35.04,11.885c-2.742,0.913-14.319,4.57-18.587,12.795
			c-4.265,8.228-22.853,49.056-22.853,49.056c13.408,10.055,31.382,10.664,31.382,10.664l7.008-15.843l11.883,112.428
			c19.177,4.336,36.678,5.931,51.644,6.081l0,0c14.971-0.15,32.466-1.745,51.646-6.081l11.882-112.428l7.01,15.843
			c0,0,17.976-0.609,31.382-10.664c0,0-18.587-40.828-22.854-49.056c-4.264-8.225-15.843-11.882-18.583-12.795
			c-2.741-0.917-35.04-11.885-35.04-11.885s-5.816,12.361-24.807,12.564C519.994,274.262,514.739,261.477,514.739,261.477z"/>
	</g>
	<g>
		<path fill="#009BDE" d="M443.096,324.632c-4.265,8.226-4.836,10.582-4.836,10.582c13.408,10.055,31.382,10.664,31.382,10.664
			l4.697-10.624L443.096,324.632z"/>
	</g>
	<g>
		<path fill="#009BDE" d="M637.259,324.632c4.267,8.226,4.837,10.582,4.837,10.582c-13.406,10.055-31.382,10.664-31.382,10.664
			l-4.701-10.624L637.259,324.632z"/>
	</g>
	<g>
		<line fill="none" x1="540.177" y1="275.497" x2="540.177" y2="275.497"/>
	</g>
	<g>
		<path fill="#FFFFFF" d="M540.177,275.497c-0.151-7.014-6.548-10.972-12.036-14.932c-5.479-3.96-7.005-8.531-7.005-8.531
			l-6.396,9.442C514.739,261.477,520.242,275.497,540.177,275.497z"/>
	</g>
	<g>
		<path fill="#FFFFFF" d="M540.102,275.497c0.154-7.014,6.552-10.972,12.035-14.932s7.006-8.531,7.006-8.531l6.398,9.442
			C565.541,261.477,560.036,275.497,540.102,275.497z"/>
	</g>
	<g>
		<rect x="539.491" y="275.497" fill="#94938D" width="1.22" height="27.39"/>
	</g>
	<g>
		<rect x="538.882" y="275.497" fill="#72726A" width="2.438" height="5.754"/>
	</g>
	<ellipse fill="#E3E3E3" cx="776.75" cy="451.604" rx="83.877" ry="16.104"/>
	<g>
		<path fill="#525349" d="M757.707,252.035c0,0,17.746,14.047,38.006,0v9.442v12.768l-26.049,5.791l-16.455-8.534L757.707,252.035z"
			/>
	</g>
	<g>
		<path fill="#EA7200" d="M751.31,261.477c0,0-32.302,10.968-35.038,11.885c-2.744,0.913-14.321,4.57-18.588,12.795
			c-4.267,8.228-22.854,49.056-22.854,49.056c13.407,10.055,31.382,10.664,31.382,10.664l7.007-15.843l11.886,112.428
			c19.176,4.336,36.679,5.931,51.643,6.081l0,0c14.972-0.15,32.467-1.745,51.646-6.081l11.882-112.428l7.011,15.843
			c0,0,17.975-0.609,31.382-10.664c0,0-18.587-40.828-22.854-49.056c-4.264-8.225-15.844-11.882-18.583-12.795
			c-2.741-0.917-35.04-11.885-35.04-11.885s-5.816,12.361-24.808,12.564C756.564,274.262,751.31,261.477,751.31,261.477z"/>
	</g>
	<g>
		<path fill="#C24D00" d="M679.667,324.632c-4.266,8.226-4.837,10.582-4.837,10.582c13.407,10.055,31.382,10.664,31.382,10.664
			l4.697-10.624L679.667,324.632z"/>
	</g>
	<g>
		<path fill="#C24D00" d="M873.829,324.632c4.266,8.226,4.837,10.582,4.837,10.582c-13.407,10.055-31.382,10.664-31.382,10.664
			l-4.701-10.624L873.829,324.632z"/>
	</g>
	<g>
		<line fill="none" x1="776.746" y1="275.497" x2="776.746" y2="275.497"/>
	</g>
	<g>
		<path fill="#FFFFFF" d="M776.746,275.497c-0.15-7.014-6.548-10.972-12.035-14.932c-5.479-3.96-7.004-8.531-7.004-8.531
			l-6.397,9.442C751.31,261.477,756.812,275.497,776.746,275.497z"/>
	</g>
	<g>
		<path fill="#FFFFFF" d="M776.671,275.497c0.154-7.014,6.552-10.972,12.036-14.932s7.006-8.531,7.006-8.531l6.398,9.442
			C802.111,261.477,796.606,275.497,776.671,275.497z"/>
	</g>
	<g>
		<rect x="776.062" y="275.497" fill="#94938D" width="1.218" height="27.39"/>
	</g>
	<g>
		<rect x="775.453" y="275.497" fill="#72726A" width="2.436" height="5.754"/>
	</g>
	<g>
		<g>
			<defs>
				<path id="SVGID_1_" d="M752.453,261.477c0,0-32.303,10.968-35.04,11.885c-2.744,0.913-14.321,4.57-18.587,12.795
					c-4.268,8.228-22.854,49.056-22.854,49.056c13.407,10.055,31.383,10.664,31.383,10.664l7.007-15.843l11.885,112.428
					c19.176,4.336,36.679,5.931,51.643,6.081l0,0c14.973-0.15,32.468-1.745,51.646-6.081l11.882-112.428l7.01,15.843
					c0,0,17.976-0.609,31.383-10.664c0,0-18.587-40.828-22.854-49.056c-4.262-8.225-15.843-11.882-18.583-12.795
					c-2.74-0.917-35.04-11.885-35.04-11.885s-5.814,12.361-24.807,12.564C757.707,274.262,752.453,261.477,752.453,261.477z"/>
			</defs>
			<clipPath id="SVGID_2_">
				<use xlink:href="#SVGID_1_"  overflow="visible"/>
			</clipPath>
			<g clip-path="url(#SVGID_2_)">
				<g>
					<rect x="712.609" y="330.034" fill="#C24D00" width="129.364" height="46.145"/>
				</g>
			</g>
		</g>
	</g>
	<g>
		<path fill="#F99D57" d="M841.006,330.034l1.522-20.141c0,0-10.66,20.109-11.272,57.585c-0.609,37.477-11.885,65.51-11.885,65.51
			l9.757,9.475L841.006,330.034z"/>
	</g>
	<g>
		<path fill="#F99D57" d="M713.294,330.034l-1.519-20.141c0,0,10.659,20.109,11.269,57.585c0.612,37.477,11.886,65.51,11.886,65.51
			l-9.751,9.475L713.294,330.034z"/>
	</g>
</g>
</svg>
