<?xml version="1.0" encoding="utf-8"?>
<!-- Generator: Adobe Illustrator 16.0.0, SVG Export Plug-In . SVG Version: 6.00 Build 0)  -->
<!DOCTYPE svg PUBLIC "-//W3C//DTD SVG 1.1//EN" "http://www.w3.org/Graphics/SVG/1.1/DTD/svg11.dtd">
<svg version="1.1" xmlns="http://www.w3.org/2000/svg" xmlns:xlink="http://www.w3.org/1999/xlink" x="0px" y="0px" width="1080px"
	 height="720px" viewBox="0 0 1080 720" enable-background="new 0 0 1080 720" xml:space="preserve">
<g id="Layer_1">
	<g id="Layer_2_1_">
		<rect x="0.013" fill="#F9F8F8" width="1080" height="720"/>
	</g>
</g>
<g id="Layer_2">
	<path fill="#1CCFC9" d="M527.471,358.059c-0.016-0.136-0.098-0.253-0.218-0.317c-0.118-0.062-0.266-0.059-0.379,0.004
		c-0.001,0.009-1.466,0.817-3.143,0.814c-1.126-0.007-2.298-0.345-3.285-1.521c-1.587-1.761-1.812-12.992-1.776-20.262
		c0-0.966,0.006-1.862,0.006-2.669c0-0.184-0.13-0.344-0.312-0.388c-0.789-0.187-1.575-0.262-2.334-0.262
		c-3.808,0.005-6.988,1.891-7.025,1.906c-0.146,0.089-0.223,0.269-0.18,0.44c0.003,0,0.059,0.203,0.154,1.991
		c0.097,1.789,0.232,5.119,0.365,11.245c0.01,0.471,0.016,0.937,0.016,1.393c0,5.56-0.762,9.963-2.104,12.932
		c-1.355,2.976-3.212,4.459-5.492,4.466c-0.087,0-0.174,0-0.261-0.007c-3.84-0.197-4.489-3.068-4.534-8.876
		c0-1.595,0.058-3.396,0.116-5.373c0.039-1.381,0.076-2.919,0.076-4.536c-0.048-8.927-0.919-20.492-8.473-20.661
		c-5.532,0.013-8.187,3.342-9.38,5.715c0.037-0.938,0.099-2.22,0.184-3.961c0.01-0.179-0.104-0.341-0.271-0.401
		c-1.607-0.536-3.054-0.73-4.301-0.73c-3.205,0.002-5.072,1.288-5.115,1.314c-0.106,0.069-0.166,0.188-0.172,0.312
		c0,0.028-0.799,19.189-1.6,29.036c-0.729,9.89-2.853,26.767-11.073,26.818c-0.124,0.001-0.244,0.001-0.368,0.005
		c-6.781-0.012-7.785-6.008-7.824-13.464c0-1.309,0.035-2.646,0.073-3.986c0.27-9.061,0.537-13.836,0.537-13.851
		c0.007-0.171-0.095-0.329-0.255-0.392c-0.033-0.013-1.412-0.561-3.61-0.561c-2.28,0.006-7.032,1.615-7.056,1.618
		c-0.159,0.053-0.27,0.198-0.275,0.365c0,0.002-0.266,7.193-0.266,10.942c0,1.807-0.196,6.455-1.232,10.608
		c-1.039,4.195-2.931,7.706-6.004,7.661c-0.109,0-0.221-0.002-0.332-0.012c-3.363-0.275-4.792-2.35-5.594-7.688
		c-0.76-5.308-0.697-13.64-0.966-25.774c-0.267-12.125-0.261-20.579-1.406-26.122c-1.099-5.53-3.616-8.286-8.575-8.385
		c-0.1,0-0.195,0-0.283,0c-16.88,0.096-21.703,20.002-22.932,27.447c-0.271-2.364-0.633-6.574-0.92-13.734
		c-0.539-13.354-3.712-22.091-10.67-24.354c-0.915-0.294-1.911-0.438-2.975-0.438c-6.658,0.007-15.685,5.785-19.079,18.914
		c-0.626-7.462-1.362-11.413-2.319-13.688c-1.051-2.552-2.584-2.955-4.14-3.452c-0.343-0.119-0.712-0.161-1.092-0.161
		c-3.657,0.035-9.326,4.256-9.656,4.474c-0.001,0.005-0.008,0.006-0.011,0.012c-1.32,0.793-1.344,3.201-1.398,5.347
		c0,1.88,0.17,3.534,0.17,3.544c0.023,0.211,0.213,0.372,0.43,0.354c0.006,0,3.455-0.265,6.363-0.265
		c1.811,0.005,1.988,1.271,2.039,3.604c0,0.818-0.037,1.724-0.037,2.661c0,3.437-0.533,12.771-1.334,24.491
		c-0.797,11.735-2.4,41.315-2.4,41.319c-0.006,0.107,0.039,0.216,0.116,0.299c0.071,0.077,0.178,0.121,0.288,0.121h2.929
		c1.312,0,8.237,0.266,8.247,0.266c0.209,0.008,0.395-0.146,0.412-0.36c0.01-0.046,2.936-30.384,5.863-46.343
		c2.834-15.84,7.518-28.901,13.791-28.727c0.062,0,0.121,0,0.186,0.001c6.343,0.021,6.082,10.997,7.084,27.611
		c0.997,15.431,2.667,40.248,2.667,40.248c0.005,0.105,0.057,0.205,0.135,0.278c0.079,0.066,0.188,0.102,0.291,0.097l6.932-0.536
		c0.189-0.012,0.346-0.16,0.366-0.351c0.002-0.033,2.667-23.191,4.529-33.021c1.82-9.867,5.288-23.362,13.007-24.735
		c0.108-0.022,0.21-0.032,0.308-0.034c1.542-0.135,2.947,2.987,3.642,8.022c0.734,4.983,0.961,11.684,0.961,18.412
		c0,5.781-0.164,11.589-0.319,16.37c-0.021,0.477-0.025,0.95-0.025,1.411c0.014,15.418,8.482,22.421,13.482,22.459
		c4.551,0.011,11.381,0.001,14.152-6.764c1.865,4.049,6.094,7.83,14.578,7.83h0.054c13.995-0.33,18.528-15.57,20.388-34.212
		c0.848-8.492,1.537-13.779,2.562-16.873c1.071-3.097,2.226-3.897,4.383-3.935c0.427,0,0.893,0.037,1.399,0.107
		c1.605,0.153,2.143,2.063,2.141,6.572c0,3.154-0.24,7.467-0.354,13.017c-0.01,0.442-0.014,0.883-0.014,1.315
		c-0.051,12.418,3.832,18.034,11.059,18.279c0.139,0.001,0.271,0.006,0.409,0.006c7.101-0.041,15.809-6.618,16.251-13.505
		c2.271,1.535,4.478,2.328,6.584,2.328c1.459,0,2.859-0.382,4.157-1.141l0.172-0.199c0.993-2.487,1.177-5.493,1.181-7.519
		C527.555,358.974,527.471,358.068,527.471,358.059z"/>
	<path fill="#1CCFC9" d="M442.505,335.498c0,0,5.946-1.412,6.596,4.766c0.65,6.178-5.526,9.43-10.403,6.503
		C433.821,343.839,435.261,335.612,442.505,335.498z"/>
	<path fill="#1CCFC9" d="M509.655,327.831l0.083,0.036c1.163,0.431,2.22,0.635,3.169,0.635c0.009,0,0.02,0,0.032,0
		c1.726,0,3.091-0.718,3.952-1.804c0.873-1.088,1.264-2.499,1.267-3.92c-0.003-1.608-0.499-3.257-1.49-4.544
		c-0.981-1.285-2.515-2.195-4.418-2.192c-0.479,0-0.983,0.058-1.509,0.179l-0.135,0.043c-2.459,1.137-3.69,3.857-3.695,6.412
		C506.899,324.736,507.746,326.821,509.655,327.831z"/>
	<path fill="#1CCFC9" d="M734.545,341.993c-1.609-5.629-5.754-16.379-5.754-16.386c-0.049-0.113-0.139-0.199-0.252-0.24
		c-0.119-0.037-0.242-0.017-0.344,0.053c-0.002,0.002-4.918,3.293-8.404,5.974c-3.533,2.722-8.316,8.58-13.105,13.635
		c-4.625,4.883-14.184,15.684-20.105,21.574c-0.008-1.847-0.045-5.16-0.041-9.299c-0.004-6.481,0.082-14.976,0.477-22.975
		c0.006-0.219-0.154-0.401-0.373-0.418c-0.861-0.068-1.674-0.103-2.449-0.103c-9.332-0.016-12.889,4.803-17.764,10.434
		c-5.188,6.058-10.994,19.365-18.021,19.244c-0.225,0-0.459-0.012-0.684-0.038c-3.979-0.388-5.16-5.693-5.148-12.407
		c0-5.229,0.676-11.165,0.977-15.889c0.018-0.207-0.135-0.388-0.342-0.419c-0.592-0.085-1.18-0.118-1.748-0.118
		c-3.537,0-6.465,1.355-6.496,1.365c-0.121,0.054-0.213,0.179-0.229,0.315c0,0.01-0.922,7.893-0.922,11.938
		c0,1.944-0.463,5.857-1.643,9.229c-1.188,3.402-3.072,6.125-5.691,6.098c-4.443-0.008-5.588-4.069-5.619-8.296
		c0-0.934,0.057-1.858,0.154-2.72c0.533-4.795,1.918-16.148,1.918-16.166c0.012-0.128-0.037-0.255-0.127-0.345
		c-0.043-0.039-1.746-1.575-5.076-1.575c-1.006,0-2.156,0.142-3.443,0.5c-0.143,0.041-0.254,0.157-0.285,0.303
		c-1.895,8.915-5.254,20.521-15.32,29.539c0.691-2.619,1.041-5.236,1.041-7.772c0.016-9.672-5.125-18.161-15.529-20.644
		c-2.18-0.523-4.121-0.748-5.84-0.748c-6.428-0.004-9.648,3.119-10.953,4.874c-0.092-2.824-0.297-9.587-0.297-14.231
		c0-1.496,0.023-2.774,0.08-3.608c0.264-4.302,0.264-45.6,0.613-52.904c0.006-0.137-0.059-0.271-0.172-0.349
		c-1.707-1.185-3.545-1.508-5.045-1.508c-1.871,0-3.227,0.5-3.256,0.511c-0.15,0.055-0.25,0.186-0.264,0.345
		c0,0-1.211,14.404-1.211,23.762c0,9.307-0.801,67.19-1.062,70.063c-0.242,2.685-0.693,19.766-0.699,30.462
		c0,1.184,0.01,0.047,0.02,1.051c0,0.146,0.088,0.282,0.213,0.35c2.092,1.076,4.156,0.247,5.773,0.247
		c1.896,0,3.186,0.721,3.209,0.718c0.168-0.054,0.283-0.21,0.283-0.383c0-0.003,0-0.003,0-0.8
		c-0.008-0.743,0.256-6.163,1.959-12.139c3.898,1.43,7.588,2.051,11.049,2.051c19.379-0.042,31.508-19.292,34.297-24.207
		c0.475,3.612,2.539,13.57,11.393,13.659h0.078c8.514-0.099,12.242-7.211,13.439-10.205c0.709,2.108,2.885,6.047,9.375,7.616
		c0.768,0.097,1.461,0.137,2.143,0.137c9.654-0.033,14.562-8.451,16.084-11.627c0.4,1.361,1.455,3.505,4.178,5.175
		c1.5,0.92,3.059,1.221,4.434,1.221c1.955-0.002,3.568-0.596,4.26-0.898c0.076,0.159,0.193,0.386,0.357,0.719
		c0.447,0.812,1.277,8.705,1.293,11.921c-1.158,1.225-6.516,7.511-11.156,17.044c-2.654,5.476-4.686,11.043-4.688,15.867
		c-0.016,3.902,1.365,7.354,4.818,9.691c2.76,1.871,5.439,2.724,7.951,2.724c4.42,0,8.23-2.646,10.98-6.736
		c1.686-2.52,2.205-7.028,2.211-12.351c0-8.766-1.498-19.714-2.273-27.102c2.355-2.185,20.387-21.182,24.018-24.814
		c3.25-3.247,11.156-10.696,13.127-12.548c0.609,1.764,2.482,7.044,3.832,9.524c1.58,2.892,3.713,8.225,4.77,11.656
		c0.227,0.741,0.34,1.48,0.34,2.195c-0.01,2.458-1.305,4.592-3.834,5.574c-1.018,0.392-1.914,0.583-2.838,0.583
		c-2.133,0.007-4.541-1.055-8.787-3.433c-0.115-0.06-0.256-0.065-0.373-0.009c-2.496,1.237-2.703,4.386-2.719,5.744
		c0,0.418,0.027,0.679,0.027,0.688l0.164,0.288c0.031,0.021,5.188,3.821,13.285,4.902c0.734,0.099,1.436,0.148,2.1,0.148
		c6.707,0.013,9.41-4.946,10.602-10.317c0.125-0.564,0.186-1.183,0.186-1.841C741.65,358.51,735.971,347.029,734.545,341.993z
		 M672.273,409.162c-0.021-6.57,5.074-17.097,9.646-21.731c0.312,2,1.129,7.705,1.129,13.431c0,3.58-0.322,7.162-1.266,9.794
		c-0.957,2.646-2.42,4.247-4.775,4.257c-0.068,0-0.143,0-0.215,0C673.502,414.739,672.324,412.593,672.273,409.162z
		 M674.953,357.782c-0.533,0-1.133-0.103-1.799-0.34l0,0c-1.674-0.604-2.205-1.502-2.227-2.716
		c-0.084-3.808,6.523-10.407,9.42-12.486c0.043,0.76,0.068,1.597,0.068,2.475c0,2.876-0.268,6.214-1.109,8.783
		C678.447,356.092,677.105,357.782,674.953,357.782z M590.475,356.12c0,0.191,0,0.39-0.006,0.59
		c-0.273,9.175-6.236,18.698-14.439,18.653c-2.361,0-4.941-0.769-7.684-2.573c0.025-1.379,0.166-8.904,0.172-12.296
		c-0.02-3.631,1.883-10.984,6.957-13.229c1.553-0.698,3.59-1.177,5.646-1.177C585.785,346.138,590.439,348.385,590.475,356.12z"/>
	<path fill="#6B5A4D" d="M471.233,442.763v-15.404h5.723c2.736,0,4.574,1.065,4.574,4.006c0,1.391-0.447,2.51-1.694,3.145v0.042
		c2.208,0.286,3.146,1.777,3.146,3.918c0,3.229-2.759,4.294-5.575,4.294H471.233z M475.239,433.406h0.451
		c1.062,0,2.163-0.187,2.163-1.493c0-1.406-1.244-1.488-2.327-1.488h-0.287V433.406z M475.239,439.698h0.512
		c1.184,0,3.186,0.062,3.186-1.637c0-1.857-1.98-1.675-3.287-1.675h-0.41V439.698z"/>
	<path fill="#6B5A4D" d="M504.423,434.775c0,4.984-3.574,8.496-8.519,8.496c-4.945,0-8.518-3.512-8.518-8.496
		c0-4.657,4.087-7.928,8.518-7.928S504.423,430.118,504.423,434.775z M491.555,434.795c0,2.654,1.961,4.598,4.35,4.598
		s4.35-1.943,4.35-4.598c0-2.125-1.961-4.065-4.35-4.065S491.555,432.67,491.555,434.795z"/>
	<path fill="#6B5A4D" d="M523.429,427.358v8.662c0,1.982-0.081,3.942-1.612,5.435c-1.289,1.265-3.309,1.716-5.109,1.716
		c-1.795,0-3.82-0.451-5.104-1.716c-1.534-1.492-1.613-3.452-1.613-5.435v-8.662h4.005v8.112c0,2.001,0.14,4.184,2.713,4.184
		c2.574,0,2.718-2.183,2.718-4.184v-8.112H523.429z"/>
	<path fill="#6B5A4D" d="M536.883,442.763h-4.004V430.75h-3.311v-3.392h10.626v3.392h-3.312V442.763z"/>
	<path fill="#6B5A4D" d="M550.975,442.763h-4.004v-15.404h4.004V442.763z"/>
	<path fill="#6B5A4D" d="M570.973,443.723l-1.227-1.455c-1.186,0.718-2.572,1.004-4.229,1.004c-4.939,0-8.516-3.512-8.516-8.496
		c0-4.657,4.086-7.928,8.516-7.928c4.803,0,8.521,3.247,8.521,8.255c0,2.041-0.697,3.818-1.984,5.41l2.596,2.636L570.973,443.723z
		 M569.156,437.387c0.473-0.649,0.709-1.487,0.709-2.266c0-2.309-1.916-4.392-4.328-4.392c-2.385,0-4.369,1.94-4.369,4.065
		c0,2.654,1.984,4.598,4.369,4.598c0.412,0,0.818-0.064,1.229-0.208l-2.471-2.447l3.777-0.471L569.156,437.387z"/>
	<path fill="#6B5A4D" d="M592.957,427.358v8.662c0,1.982-0.08,3.942-1.611,5.435c-1.287,1.265-3.307,1.716-5.105,1.716
		c-1.803,0-3.822-0.451-5.109-1.716c-1.533-1.492-1.613-3.452-1.613-5.435v-8.662h4.004v8.112c0,2.001,0.143,4.184,2.719,4.184
		c2.572,0,2.715-2.183,2.715-4.184v-8.112H592.957z"/>
	<path fill="#6B5A4D" d="M604.006,430.75v2.574h4.516v3.392h-4.516v2.653h4.76v3.394H600v-15.404h8.766v3.392H604.006z"/>
</g>
</svg>
