<?xml version="1.0" encoding="utf-8"?>
<!-- Generator: Adobe Illustrator 16.0.0, SVG Export Plug-In . SVG Version: 6.00 Build 0)  -->
<!DOCTYPE svg PUBLIC "-//W3C//DTD SVG 1.1//EN" "http://www.w3.org/Graphics/SVG/1.1/DTD/svg11.dtd">
<svg version="1.1" id="Layer_1" xmlns="http://www.w3.org/2000/svg" xmlns:xlink="http://www.w3.org/1999/xlink" x="0px" y="0px"
	 width="1080px" height="720px" viewBox="0 0 1080 720" enable-background="new 0 0 1080 720" xml:space="preserve">
<g id="Layer_2">
	<rect x="0.013" fill="#F42534" width="1080" height="720"/>
</g>
<g id="Layer_3">
	<g>
		<path fill="#FFFFFF" d="M262.25,356.497c0.03,15.494,12.571,28.034,28.064,28.061c15.501-0.025,28.037-12.565,28.064-28.061
			c-0.028-15.5-12.563-28.037-28.064-28.062C274.812,328.46,262.28,340.998,262.25,356.497 M249.835,356.497
			c0.008-22.365,18.12-40.479,40.479-40.485c22.357,0.006,40.475,18.12,40.481,40.485c-0.006,22.356-18.125,40.474-40.481,40.48
			C267.953,396.971,249.843,378.851,249.835,356.497"/>
		<path fill="#FFFFFF" d="M284.115,303.571v-2.73c0-3.431,2.777-6.206,6.206-6.206c3.429,0,6.206,2.774,6.206,6.206v2.73
			c0,3.425-2.777,6.204-6.206,6.204C286.892,309.775,284.115,306.996,284.115,303.571"/>
		<path fill="#FFFFFF" d="M284.115,412.92v-2.727c0-3.428,2.777-6.209,6.206-6.209c3.429,0,6.206,2.781,6.206,6.209v2.727
			c0,3.427-2.777,6.208-6.206,6.208C286.892,419.128,284.115,416.347,284.115,412.92"/>
		<path fill="#FFFFFF" d="M343.312,362.769c-3.429,0-6.211-2.782-6.211-6.208c0-3.429,2.783-6.211,6.211-6.211h2.729
			c3.425,0,6.205,2.783,6.205,6.211c0,3.426-2.78,6.208-6.205,6.208H343.312z"/>
		<path fill="#FFFFFF" d="M234.604,362.769c-3.431,0-6.209-2.782-6.209-6.208c0-3.429,2.778-6.211,6.209-6.211h2.727
			c3.429,0,6.211,2.783,6.211,6.211c0,3.426-2.783,6.208-6.211,6.208H234.604z"/>
		<path fill="#FFFFFF" d="M325.325,400.346l-1.929-1.935c-2.424-2.425-2.424-6.353,0.006-8.776c2.427-2.423,6.355-2.423,8.782,0.002
			l1.924,1.936c2.425,2.423,2.425,6.352,0,8.773c-1.214,1.212-2.803,1.818-4.391,1.818
			C328.127,402.164,326.539,401.554,325.325,400.346"/>
		<path fill="#FFFFFF" d="M248.467,323.481l-1.929-1.927c-2.429-2.425-2.429-6.354-0.008-8.781c2.424-2.423,6.349-2.43,8.782-0.007
			l1.927,1.927c2.424,2.425,2.43,6.354,0.008,8.779c-1.214,1.214-2.807,1.822-4.395,1.822
			C251.265,325.296,249.673,324.692,248.467,323.481"/>
		<path fill="#FFFFFF" d="M246.534,400.346c-2.425-2.423-2.425-6.354,0.004-8.779l1.924-1.93c2.427-2.425,6.358-2.425,8.784,0
			c2.422,2.428,2.422,6.357-0.008,8.782l-1.927,1.927c-1.216,1.212-2.8,1.818-4.389,1.818S247.747,401.554,246.534,400.346"/>
		<path fill="#FFFFFF" d="M323.402,323.478c-2.43-2.425-2.43-6.354,0-8.775l1.923-1.928c2.428-2.428,6.361-2.428,8.784,0
			c2.425,2.42,2.425,6.352,0,8.777l-1.928,1.927c-1.21,1.215-2.803,1.818-4.387,1.818
			C326.201,325.296,324.61,324.692,323.402,323.478"/>
		<path fill="#FFFFFF" d="M661.23,352.652c0.009,4.853,3.938,8.781,8.795,8.792c4.853-0.011,8.78-3.936,8.794-8.792
			c-0.014-4.855-3.941-8.786-8.794-8.792C665.172,343.866,661.239,347.797,661.23,352.652 M650.057,352.652
			c0.004-11.031,8.941-19.965,19.97-19.97c11.033,0.005,19.966,8.938,19.97,19.97c-0.004,11.027-8.939,19.967-19.97,19.969
			C658.998,372.619,650.061,363.688,650.057,352.652"/>
		<path fill="#FFFFFF" d="M640.362,378.232L640.362,378.232c4.812-9.762,14.887-16.482,26.514-16.486h6.298
			c16.323,0.004,29.551,13.23,29.551,29.555c0,3.087-2.497,5.59-5.59,5.59c-3.08,0-5.581-2.503-5.581-5.59
			c-0.02-10.144-8.232-18.36-18.38-18.384h-6.298c-7.237-0.004-13.485,4.179-16.496,10.261v0.004
			c-1.362,2.768-4.713,3.896-7.48,2.53"/>
		<path fill="#FFFFFF" d="M642.406,390.581c-0.032-16.932-13.728-30.629-30.657-30.663h-9.676
			c-16.934,0.034-30.627,13.731-30.663,30.663c0,3.423-2.772,6.205-6.206,6.205c-3.425,0-6.205-2.782-6.205-6.205
			c0-23.794,19.282-43.072,43.074-43.078h9.676c23.792,0.006,43.068,19.284,43.076,43.078c0,3.423-2.78,6.205-6.209,6.205
			C645.189,396.786,642.406,394.004,642.406,390.581"/>
		<path fill="#FFFFFF" d="M591,331.137c0.019,8.78,7.124,15.893,15.91,15.91c8.786-0.018,15.896-7.122,15.912-15.91h0.002
			c-0.02-8.788-7.128-15.897-15.914-15.91C598.124,315.239,591.019,322.349,591,331.137 M578.584,331.137
			c0.008-15.646,12.683-28.327,28.326-28.331c15.646,0.004,28.324,12.684,28.326,28.331c-0.002,15.643-12.68,28.319-28.326,28.327
			C591.267,359.456,578.592,346.783,578.584,331.137"/>
		<path fill="#FFFFFF" d="M426.208,339.035v48.921h57.737v-49.013l-28.06-29.077L426.208,339.035z M420.002,400.377
			c-1.638,0-3.237-0.662-4.391-1.82c-1.152-1.149-1.82-2.752-1.82-4.385v-57.739c0-1.651,0.674-3.263,1.858-4.427l36.009-35.38
			c1.18-1.164,2.771-1.806,4.429-1.782c1.656,0.024,3.233,0.7,4.385,1.896l34.148,35.384l-4.469,4.309l4.469-4.309
			c1.12,1.16,1.74,2.703,1.74,4.309v57.739c0,1.654-0.648,3.213-1.822,4.385c-1.172,1.176-2.728,1.82-4.387,1.82H420.002
			L420.002,400.377z"/>
		<path fill="#FFFFFF" d="M397.813,356.549c-2.365-2.484-2.272-6.416,0.21-8.777l53.699-51.218c2.415-2.299,6.237-2.274,8.618,0.052
			l51.22,49.978c2.453,2.386,2.497,6.317,0.106,8.778c-2.395,2.446-6.328,2.5-8.778,0.102l-46.933-45.789l-49.359,47.083
			c-1.203,1.148-2.745,1.716-4.283,1.716C400.672,358.474,399.034,357.828,397.813,356.549"/>
		<path fill="#FFFFFF" d="M753.784,384.992h7.172c-0.066,0.729-0.106,1.47-0.106,2.22c0,2.467,0.39,4.848,1.09,7.094h-8.154
			L753.784,384.992L753.784,384.992z M784.498,374.735c6.887,0.012,12.458,5.585,12.473,12.477c0,2.649-0.813,5.077-2.221,7.094
			h-20.509c-1.398-2.019-2.208-4.441-2.213-7.094C772.039,380.322,777.612,374.747,784.498,374.735 M837.592,384.992v9.312h-30.533
			c0.702-2.246,1.087-4.627,1.087-7.094c0-0.75-0.044-1.49-0.107-2.22L837.592,384.992L837.592,384.992z M848.595,404.452
			c0.097-0.114,0.185-0.231,0.269-0.353c0.029-0.044,0.062-0.082,0.093-0.122c0.096-0.149,0.188-0.299,0.271-0.453
			c0.013-0.021,0.024-0.038,0.036-0.062c0.084-0.151,0.158-0.312,0.232-0.474c0.008-0.024,0.02-0.046,0.031-0.068
			c0.062-0.149,0.111-0.298,0.159-0.452c0.02-0.046,0.036-0.082,0.049-0.124c0.039-0.13,0.067-0.262,0.101-0.397
			c0.018-0.071,0.04-0.132,0.048-0.201c0.026-0.104,0.036-0.206,0.052-0.312c0.018-0.1,0.032-0.201,0.048-0.304
			c0.006-0.036,0-0.072,0.006-0.107c0.012-0.171,0.022-0.335,0.022-0.513c0-0.007,0-0.015,0-0.019v-21.709
			c0-1.634-0.66-3.236-1.819-4.39c-1.156-1.153-2.758-1.817-4.39-1.817h-40.737c-4.328-5.487-11.034-9.011-18.565-9.011
			c-7.536,0-14.233,3.526-18.568,9.011h-18.355c-1.631,0-3.228,0.664-4.384,1.817c-1.156,1.152-1.82,2.756-1.82,4.39v21.709
			c0,0.004,0,0.012,0,0.019c0,1.464,0.515,2.81,1.355,3.872c0.022,0.022,0.038,0.045,0.058,0.068c0.073,0.088,0.15,0.174,0.23,0.254
			c0.058,0.067,0.112,0.135,0.177,0.198c0.057,0.056,0.119,0.105,0.181,0.164c0.086,0.077,0.178,0.164,0.266,0.241
			c0.021,0.019,0.046,0.03,0.062,0.046c1.063,0.854,2.412,1.364,3.875,1.364h96.229c0.189,0,0.376-0.01,0.559-0.025
			c0.019-0.005,0.04-0.005,0.057-0.005c0.128-0.014,0.248-0.039,0.361-0.058c0.091-0.012,0.175-0.018,0.254-0.036
			c0.089-0.016,0.179-0.042,0.261-0.062c0.116-0.034,0.231-0.058,0.344-0.091c0.057-0.019,0.12-0.04,0.182-0.067
			c0.128-0.042,0.262-0.086,0.388-0.144c0.044-0.016,0.084-0.039,0.128-0.056c0.146-0.065,0.284-0.128,0.42-0.206
			c0.036-0.021,0.068-0.04,0.106-0.062c0.138-0.08,0.272-0.155,0.41-0.246c0.046-0.033,0.096-0.077,0.144-0.111
			c0.112-0.078,0.225-0.158,0.33-0.246c0.15-0.124,0.298-0.254,0.44-0.396c0,0,0.002-0.006,0.006-0.006
			C848.33,404.761,848.469,404.61,848.595,404.452"/>
		<path fill="#FFFFFF" d="M808.953,350.412c-6.541-0.016-11.843-5.31-11.854-11.85c0.011-6.543,5.312-11.845,11.854-11.854
			c6.54,0.01,11.843,5.312,11.851,11.854C820.796,345.106,815.495,350.396,808.953,350.412 M772.645,318.002
			c0.014-6.54,5.313-11.841,11.854-11.849c6.483,0.008,11.742,5.205,11.849,11.665c-4.505,2.749-8.033,6.916-9.985,11.887
			c-0.608,0.096-1.23,0.148-1.862,0.148C777.958,329.843,772.657,324.542,772.645,318.002 M808.953,314.292
			c-0.16,0-0.311,0.01-0.468,0.014c-1.78-11.647-11.842-20.566-23.987-20.575c-13.409,0.008-24.266,10.867-24.27,24.271
			c0.004,13.403,10.859,24.266,24.27,24.266c0.153,0,0.312-0.002,0.466-0.006c1.784,11.649,11.843,20.562,23.989,20.566
			c13.403-0.004,24.262-10.864,24.266-24.266C833.215,325.156,822.356,314.295,808.953,314.292"/>
	</g>
</g>
</svg>
