<?xml version="1.0" encoding="utf-8"?>
<!-- Generator: Adobe Illustrator 16.0.0, SVG Export Plug-In . SVG Version: 6.00 Build 0)  -->
<!DOCTYPE svg PUBLIC "-//W3C//DTD SVG 1.1//EN" "http://www.w3.org/Graphics/SVG/1.1/DTD/svg11.dtd">
<svg version="1.1" xmlns="http://www.w3.org/2000/svg" xmlns:xlink="http://www.w3.org/1999/xlink" x="0px" y="0px" width="1080px"
	 height="720px" viewBox="0 0 1080 720" enable-background="new 0 0 1080 720" xml:space="preserve">
<g id="Layer_1">
	<g id="Layer_2_1_">
		<rect x="0.013" fill="#F9F8F8" width="1080" height="720"/>
	</g>
</g>
<g id="Layer_2">
	<g>
		<path fill="#F42534" d="M330.716,335.702c-2.219,0-4.138,0.451-5.757,1.35c-1.618,0.904-2.936,2.128-3.952,3.676
			c-1.018,1.551-1.769,3.353-2.254,5.411c-0.485,2.058-0.728,4.218-0.728,6.483c0,2.359,0.243,4.59,0.728,6.694
			c0.485,2.104,1.249,3.93,2.29,5.479c1.038,1.549,2.369,2.772,3.987,3.675c1.617,0.901,3.559,1.352,5.826,1.352
			c1.016,0,1.942-0.079,2.773-0.24c0.833-0.163,1.618-0.419,2.359-0.764c0.739-0.348,1.456-0.81,2.148-1.387
			c0.694-0.578,1.434-1.259,2.221-2.046c1.016-1.064,1.826-1.862,2.426-2.394c0.6-0.529,1.388-0.797,2.359-0.797
			c1.203,0,2.266,0.428,3.191,1.283c0.924,0.854,1.387,1.86,1.387,3.018c0,1.802-0.878,3.604-2.636,5.407
			c-1.48,1.572-3.618,2.983-6.416,4.232c-2.797,1.247-6.23,1.87-10.298,1.87c-4.162,0-7.687-0.692-10.576-2.078
			c-2.89-1.388-5.214-3.249-6.97-5.585c-1.757-2.334-3.029-5.004-3.813-8.008c-0.789-3.007-1.18-6.104-1.18-9.293
			c0-3.376,0.451-6.601,1.353-9.676c0.901-3.074,2.299-5.791,4.195-8.148c1.895-2.359,4.325-4.231,7.283-5.617
			c2.958-1.389,6.495-2.082,10.611-2.082c1.802,0,3.489,0.174,5.062,0.52c1.571,0.346,3.018,0.798,4.334,1.352
			c1.317,0.556,2.497,1.202,3.537,1.941c1.041,0.739,1.93,1.504,2.669,2.29c0.74,0.787,1.353,1.607,1.837,2.461
			c0.487,0.858,0.729,1.746,0.729,2.671c0,1.248-0.417,2.3-1.248,3.154c-0.833,0.857-1.919,1.284-3.26,1.284
			c-1.248,0-2.184-0.276-2.808-0.834c-0.625-0.552-1.331-1.269-2.115-2.148c-1.48-1.617-2.903-2.775-4.266-3.468
			C334.381,336.048,332.703,335.702,330.716,335.702z"/>
		<path fill="#F42534" d="M386.613,373.498c0,1.343-0.336,2.313-1.004,2.914c-0.672,0.6-1.815,0.9-3.434,0.9
			c-1.388,0-2.487-0.29-3.295-0.867c-0.81-0.578-1.213-1.56-1.213-2.947v-1.248c-0.51,0.648-1.075,1.296-1.701,1.941
			c-0.622,0.649-1.386,1.226-2.287,1.735c-0.9,0.51-1.955,0.922-3.155,1.246c-1.204,0.324-2.591,0.486-4.162,0.486
			c-3.653,0-6.532-0.959-8.635-2.878c-2.104-1.918-3.154-4.473-3.154-7.664c0-1.849,0.312-3.421,0.936-4.716
			c0.623-1.295,1.479-2.38,2.567-3.259c1.085-0.878,2.356-1.571,3.813-2.08c1.456-0.508,2.993-0.903,4.612-1.18
			c1.756-0.322,3.525-0.578,5.307-0.762c1.777-0.185,3.708-0.348,5.79-0.485v-1.319c0-0.694-0.095-1.375-0.278-2.044
			c-0.185-0.67-0.497-1.284-0.935-1.84c-0.44-0.553-1.054-0.994-1.839-1.318c-0.786-0.323-1.758-0.485-2.914-0.485
			c-0.739,0-1.42,0.048-2.045,0.14c-0.625,0.093-1.227,0.243-1.804,0.451c-0.578,0.207-1.178,0.498-1.802,0.866
			c-0.625,0.372-1.33,0.809-2.115,1.319c-0.602,0.415-1.167,0.761-1.701,1.04c-0.531,0.277-1.191,0.416-1.976,0.416
			c-1.064,0-2.01-0.405-2.844-1.213c-0.832-0.81-1.248-1.792-1.248-2.949c0-0.785,0.324-1.629,0.971-2.53
			c0.647-0.904,1.629-1.735,2.948-2.499c1.317-0.763,2.935-1.396,4.854-1.908c1.919-0.508,4.172-0.761,6.761-0.761
			c5.317,0,9.143,1.041,11.478,3.121c2.335,2.08,3.503,5.316,3.503,9.709V373.498z M377.599,360.46
			c-1.759,0.184-3.434,0.394-5.029,0.625s-2.786,0.439-3.571,0.624c-2.219,0.463-3.664,1.121-4.334,1.975
			c-0.672,0.858-1.006,1.725-1.006,2.601c0,1.204,0.368,2.142,1.109,2.812c0.739,0.669,2.012,1.004,3.813,1.004
			c2.866,0,5.087-0.659,6.657-1.975c1.573-1.319,2.36-3.019,2.36-5.1V360.46z"/>
		<path fill="#F42534" d="M414.148,340.001c1.063,0,1.895,0.164,2.497,0.486c0.6,0.324,1.049,0.716,1.351,1.178
			c0.3,0.463,0.486,0.948,0.554,1.457c0.069,0.51,0.106,0.97,0.106,1.388c0,0.414-0.037,0.866-0.106,1.352
			c-0.068,0.485-0.243,0.937-0.519,1.352c-0.278,0.416-0.672,0.787-1.18,1.11c-0.508,0.324-1.202,0.556-2.082,0.694
			c-0.925,0.185-1.838,0.369-2.738,0.553c-0.901,0.186-1.883,0.535-2.949,1.042c-1.479,0.739-2.404,1.897-2.772,3.465
			c-0.371,1.574-0.556,3.47-0.556,5.69v13.523c0,1.434-0.371,2.473-1.109,3.121c-0.739,0.644-1.941,0.97-3.606,0.97
			c-3.144,0-4.717-1.363-4.717-4.091V344.51c0-1.017,0.335-1.908,1.007-2.671c0.669-0.764,1.882-1.144,3.64-1.144
			c1.341,0,2.429,0.231,3.26,0.692c0.832,0.463,1.249,1.296,1.249,2.499v1.524c0.924-1.478,2.104-2.75,3.537-3.813
			C410.448,340.533,412.16,340.001,414.148,340.001z"/>
		<path fill="#F42534" d="M423.994,332.165c0-1.202,0.382-2.162,1.146-2.878c0.762-0.717,1.906-1.076,3.434-1.076
			c1.339,0,2.505,0.234,3.5,0.694c0.994,0.463,1.493,1.434,1.493,2.914v13.662c0.368-0.557,0.867-1.155,1.489-1.804
			c0.625-0.647,1.375-1.247,2.254-1.804c0.878-0.552,1.873-1.004,2.984-1.351c1.108-0.346,2.358-0.521,3.744-0.521
			c2.497,0,4.705,0.475,6.624,1.421c1.918,0.948,3.524,2.267,4.82,3.954c1.293,1.689,2.266,3.687,2.913,6
			c0.646,2.312,0.97,4.833,0.97,7.559c0,2.775-0.371,5.33-1.109,7.663c-0.739,2.336-1.791,4.348-3.155,6.035
			c-1.364,1.688-3.03,3.006-4.993,3.952c-1.966,0.946-4.173,1.421-6.625,1.421c-1.941,0-3.547-0.241-4.819-0.727
			c-1.271-0.485-2.301-1.028-3.085-1.629c-0.925-0.696-1.666-1.48-2.22-2.358v0.415c0,1.434-0.371,2.393-1.11,2.878
			c-0.74,0.485-1.967,0.729-3.674,0.729c-3.055,0-4.58-1.271-4.58-3.814V332.165z M449.516,359.073c0-1.57-0.173-3.027-0.52-4.37
			c-0.345-1.34-0.867-2.506-1.559-3.501c-0.694-0.995-1.551-1.77-2.566-2.323c-1.017-0.556-2.197-0.832-3.539-0.832
			s-2.508,0.276-3.501,0.832c-0.995,0.553-1.838,1.328-2.532,2.323c-0.692,0.995-1.213,2.162-1.56,3.501
			c-0.346,1.343-0.521,2.8-0.521,4.37c0,3.375,0.693,6.067,2.081,8.08c1.389,2.009,3.399,3.017,6.034,3.017
			c2.729,0,4.774-1.053,6.139-3.156C448.834,364.91,449.516,362.263,449.516,359.073z"/>
		<path fill="#F42534" d="M502.502,358.797c0,2.912-0.442,5.545-1.323,7.905c-0.878,2.357-2.129,4.368-3.751,6.033
			c-1.619,1.665-3.567,2.96-5.836,3.885c-2.271,0.921-4.795,1.385-7.574,1.385c-2.871,0-5.454-0.45-7.747-1.351
			c-2.292-0.902-4.238-2.187-5.836-3.849c-1.6-1.665-2.827-3.677-3.684-6.036c-0.855-2.355-1.285-4.968-1.285-7.835
			c0-2.865,0.452-5.467,1.354-7.801c0.905-2.335,2.177-4.323,3.824-5.964c1.642-1.641,3.6-2.913,5.869-3.816
			c2.271-0.901,4.795-1.352,7.575-1.352c2.778,0,5.292,0.451,7.538,1.352c2.246,0.903,4.183,2.162,5.802,3.78
			c1.622,1.62,2.873,3.595,3.751,5.929C502.061,353.396,502.502,355.975,502.502,358.797z M492.793,359.073
			c0-3.421-0.764-6.103-2.29-8.046c-1.526-1.941-3.699-2.913-6.518-2.913c-2.684,0-4.797,0.959-6.346,2.878
			c-1.551,1.919-2.324,4.614-2.324,8.081c0,3.468,0.773,6.149,2.324,8.044c1.548,1.896,3.662,2.843,6.346,2.843
			c2.772,0,4.934-0.946,6.484-2.843C492.018,365.223,492.793,362.541,492.793,359.073z"/>
		<path fill="#F42534" d="M530.31,340.001c2.404,0,4.405,0.382,6,1.145c1.596,0.761,2.971,1.861,4.126,3.292
			c1.202,1.573,1.919,3.319,2.15,5.238c0.23,1.919,0.347,3.732,0.347,5.444v18.377c0,1.343-0.395,2.313-1.178,2.914
			c-0.787,0.6-1.989,0.9-3.606,0.9c-1.387,0-2.533-0.29-3.434-0.868c-0.902-0.58-1.353-1.564-1.353-2.954v-18.215
			c0-2.04-0.207-3.521-0.625-4.448c-0.416-0.929-1.051-1.576-1.906-1.949c-0.856-0.369-1.884-0.556-3.086-0.556
			c-1.248,0-2.312,0.198-3.191,0.592c-0.878,0.394-1.618,0.881-2.217,1.46c-0.603,0.578-1.065,1.193-1.387,1.84
			c-0.326,0.651-0.556,1.253-0.694,1.809c-0.232,0.835-0.36,1.785-0.382,2.85c-0.024,1.066-0.035,1.972-0.035,2.712v13.694
			c0,1.437-0.381,2.469-1.146,3.094c-0.761,0.626-2.022,0.938-3.779,0.938c-1.434,0-2.567-0.301-3.398-0.9
			c-0.832-0.601-1.249-1.596-1.249-2.982v-28.644c0-1.247,0.359-2.264,1.076-3.051c0.717-0.787,1.953-1.18,3.71-1.18
			c1.202,0,2.265,0.264,3.19,0.79c0.924,0.527,1.387,1.594,1.387,3.195v0.826c0.97-1.42,2.369-2.671,4.195-3.75
			C525.652,340.541,527.813,340.001,530.31,340.001z"/>
		<path fill="#F42534" d="M591.272,335.702c-2.22,0-4.139,0.451-5.757,1.35c-1.617,0.904-2.937,2.128-3.953,3.676
			c-1.018,1.551-1.769,3.353-2.254,5.411s-0.728,4.218-0.728,6.483c0,2.359,0.242,4.59,0.728,6.694
			c0.485,2.104,1.25,3.93,2.29,5.479c1.038,1.549,2.368,2.772,3.986,3.675c1.618,0.901,3.56,1.352,5.826,1.352
			c1.017,0,1.941-0.079,2.773-0.24c0.833-0.163,1.618-0.419,2.359-0.764c0.74-0.348,1.457-0.81,2.149-1.387
			c0.693-0.578,1.432-1.259,2.219-2.046c1.016-1.064,1.827-1.862,2.427-2.394c0.6-0.529,1.39-0.797,2.359-0.797
			c1.202,0,2.266,0.428,3.19,1.283c0.924,0.854,1.387,1.86,1.387,3.018c0,1.802-0.879,3.604-2.636,5.407
			c-1.48,1.572-3.617,2.983-6.415,4.232c-2.798,1.247-6.231,1.87-10.299,1.87c-4.16,0-7.687-0.692-10.576-2.078
			c-2.89-1.388-5.214-3.249-6.97-5.585c-1.758-2.334-3.03-5.004-3.813-8.008c-0.788-3.007-1.181-6.104-1.181-9.293
			c0-3.376,0.452-6.601,1.353-9.676c0.902-3.074,2.3-5.791,4.195-8.148c1.895-2.359,4.323-4.231,7.283-5.617
			c2.957-1.389,6.494-2.082,10.61-2.082c1.803,0,3.49,0.174,5.062,0.52s3.018,0.798,4.335,1.352
			c1.317,0.556,2.496,1.202,3.537,1.941c1.04,0.739,1.93,1.504,2.669,2.29c0.739,0.787,1.354,1.607,1.839,2.461
			c0.485,0.858,0.728,1.746,0.728,2.671c0,1.248-0.416,2.3-1.247,3.154c-0.834,0.857-1.919,1.284-3.261,1.284
			c-1.246,0-2.184-0.276-2.81-0.834c-0.623-0.552-1.329-1.269-2.113-2.148c-1.48-1.617-2.903-2.775-4.266-3.468
			C594.938,336.048,593.259,335.702,591.272,335.702z"/>
		<path fill="#F42534" d="M652.026,358.797c0,2.912-0.442,5.545-1.324,7.905c-0.878,2.357-2.129,4.368-3.751,6.033
			c-1.619,1.665-3.566,2.96-5.836,3.885c-2.271,0.921-4.795,1.385-7.574,1.385c-2.87,0-5.453-0.45-7.747-1.351
			c-2.29-0.902-4.238-2.187-5.836-3.849c-1.599-1.665-2.827-3.677-3.683-6.036c-0.856-2.355-1.285-4.968-1.285-7.835
			c0-2.865,0.451-5.467,1.354-7.801c0.906-2.335,2.178-4.323,3.824-5.964c1.642-1.641,3.601-2.913,5.869-3.816
			c2.271-0.901,4.796-1.352,7.574-1.352c2.779,0,5.293,0.451,7.539,1.352c2.246,0.903,4.182,2.162,5.801,3.78
			c1.622,1.62,2.873,3.595,3.751,5.929C651.584,353.396,652.026,355.975,652.026,358.797z M642.316,359.073
			c0-3.421-0.764-6.103-2.289-8.046c-1.526-1.941-3.699-2.913-6.52-2.913c-2.683,0-4.798,0.959-6.346,2.878
			c-1.551,1.919-2.323,4.614-2.323,8.081c0,3.468,0.772,6.149,2.323,8.044c1.548,1.896,3.663,2.843,6.346,2.843
			c2.773,0,4.936-0.946,6.484-2.843C641.541,365.223,642.316,362.541,642.316,359.073z"/>
		<path fill="#F42534" d="M658.265,364.136c-2.219-0.045-3.328-1.479-3.328-4.301c0-1.293,0.243-2.379,0.728-3.258
			c0.485-0.878,1.375-1.317,2.67-1.317h27.881c1.293,0,2.184,0.438,2.669,1.317s0.729,1.964,0.729,3.258
			c0,2.868-1.179,4.301-3.536,4.301H658.265z"/>
		<path fill="#F42534" d="M729.629,358.797c0,2.912-0.441,5.545-1.322,7.905c-0.878,2.357-2.129,4.368-3.751,6.033
			c-1.619,1.665-3.567,2.96-5.835,3.885c-2.271,0.921-4.796,1.385-7.575,1.385c-2.87,0-5.454-0.45-7.747-1.351
			c-2.291-0.902-4.238-2.187-5.836-3.849c-1.6-1.665-2.827-3.677-3.684-6.036c-0.855-2.355-1.285-4.968-1.285-7.835
			c0-2.865,0.452-5.467,1.355-7.801c0.904-2.335,2.177-4.323,3.823-5.964c1.642-1.641,3.6-2.913,5.869-3.816
			c2.271-0.901,4.795-1.352,7.574-1.352c2.778,0,5.292,0.451,7.538,1.352c2.246,0.903,4.183,2.162,5.802,3.78
			c1.622,1.62,2.873,3.595,3.751,5.929C729.188,353.396,729.629,355.975,729.629,358.797z M719.92,359.073
			c0-3.421-0.764-6.103-2.289-8.046c-1.526-1.941-3.699-2.913-6.519-2.913c-2.684,0-4.797,0.959-6.346,2.878
			c-1.551,1.919-2.324,4.614-2.324,8.081c0,3.468,0.773,6.149,2.324,8.044c1.549,1.896,3.662,2.843,6.346,2.843
			c2.772,0,4.935-0.946,6.484-2.843C719.146,365.223,719.92,362.541,719.92,359.073z"/>
		<path fill="#F42534" d="M737.396,344.717c0-1.202,0.394-2.195,1.18-2.982c0.787-0.787,2.057-1.18,3.815-1.18
			c1.155,0,2.206,0.243,3.154,0.729c0.946,0.485,1.423,1.446,1.423,2.878v1.318c0.369-0.557,0.867-1.155,1.49-1.804
			c0.625-0.647,1.375-1.247,2.254-1.804c0.879-0.552,1.874-1.004,2.983-1.351c1.108-0.346,2.357-0.521,3.744-0.521
			c2.497,0,4.691,0.475,6.588,1.421c1.896,0.948,3.479,2.267,4.751,3.954c1.271,1.689,2.22,3.687,2.844,6
			c0.625,2.312,0.938,4.833,0.938,7.559c0,2.775-0.359,5.33-1.076,7.663c-0.717,2.336-1.758,4.348-3.121,6.035
			s-3.04,3.006-5.026,3.952c-1.989,0.946-4.256,1.421-6.798,1.421c-1.849,0-3.389-0.219-4.612-0.658
			c-1.225-0.44-2.229-0.935-3.017-1.49c-0.878-0.601-1.595-1.317-2.15-2.15v13.871c0,1.434-0.37,2.461-1.11,3.085
			c-0.738,0.625-1.965,0.938-3.674,0.938c-3.053,0-4.579-1.272-4.579-3.815V344.717z M762.711,359.073
			c0-1.57-0.174-3.027-0.521-4.37c-0.348-1.34-0.857-2.506-1.526-3.501c-0.67-0.995-1.504-1.77-2.496-2.323
			c-0.995-0.556-2.14-0.832-3.435-0.832c-1.341,0-2.508,0.276-3.5,0.832c-0.995,0.553-1.839,1.328-2.532,2.323
			c-0.692,0.995-1.214,2.162-1.56,3.501c-0.347,1.343-0.521,2.8-0.521,4.37c0,3.375,0.694,6.057,2.081,8.044
			c1.388,1.989,3.399,2.982,6.032,2.982c2.636,0,4.625-1.04,5.967-3.119C762.039,364.899,762.711,362.263,762.711,359.073z"/>
	</g>
</g>
</svg>
